<svg width="526" height="471" viewBox="0 0 526 471" fill="none" xmlns="http://www.w3.org/2000/svg">
<path d="M304.743 319.465H17.2869C12.7037 319.458 8.30976 317.226 5.06897 313.257C1.82819 309.288 0.00522893 303.908 0 298.295V87.8065C0.00522893 82.1939 1.82819 76.813 5.06897 72.8443C8.30976 68.8756 12.7037 66.6431 17.2869 66.6367H304.743C309.326 66.6431 313.72 68.8756 316.961 72.8443C320.201 76.813 322.024 82.1939 322.03 87.8065V298.295C322.024 303.908 320.201 309.288 316.961 313.257C313.72 317.226 309.326 319.458 304.743 319.465ZM17.2869 70.2658C13.4894 70.2712 9.84872 72.1209 7.16351 75.4093C4.4783 78.6976 2.96783 83.1561 2.96346 87.8065V298.295C2.96783 302.945 4.4783 307.404 7.16351 310.692C9.84872 313.981 13.4894 315.83 17.2869 315.836H304.743C308.54 315.83 312.181 313.981 314.866 310.692C317.551 307.404 319.062 302.945 319.066 298.295V87.8065C319.062 83.1561 317.551 78.6976 314.866 75.4093C312.181 72.1209 308.54 70.2712 304.743 70.2658H17.2869Z" fill="#FF5C00"/>
<path d="M55.8116 116.231C53.3695 116.231 50.9822 115.344 48.9516 113.682C46.921 112.021 45.3384 109.659 44.4038 106.896C43.4692 104.133 43.2247 101.093 43.7011 98.1595C44.1776 95.2263 45.3536 92.5319 47.0805 90.4172C48.8073 88.3024 51.0075 86.8623 53.4027 86.2788C55.7979 85.6954 58.2807 85.9948 60.5369 87.1393C62.7932 88.2838 64.7216 90.222 66.0784 92.7086C67.4352 95.1953 68.1594 98.1189 68.1594 101.11C68.1557 105.119 66.8536 108.962 64.5388 111.797C62.2239 114.632 59.0853 116.226 55.8116 116.231ZM55.8116 89.6174C53.9556 89.6174 52.1412 90.2914 50.598 91.5542C49.0548 92.8169 47.852 94.6118 47.1417 96.7117C46.4314 98.8116 46.2456 101.122 46.6076 103.352C46.9697 105.581 47.8635 107.629 49.1759 109.236C50.4883 110.843 52.1605 111.938 53.9809 112.381C55.8012 112.824 57.6881 112.597 59.4029 111.727C61.1176 110.857 62.5832 109.384 63.6144 107.494C64.6456 105.604 65.1959 103.382 65.1959 101.11C65.1931 98.0627 64.2035 95.1416 62.4442 92.9872C60.6849 90.8327 58.2996 89.6208 55.8116 89.6174Z" fill="#FF5C00"/>
<path d="M264.242 116.231C261.8 116.231 259.413 115.344 257.382 113.682C255.352 112.021 253.769 109.659 252.834 106.896C251.9 104.133 251.655 101.093 252.132 98.1595C252.608 95.2263 253.784 92.5319 255.511 90.4172C257.238 88.3024 259.438 86.8623 261.833 86.2788C264.229 85.6954 266.711 85.9948 268.968 87.1393C271.224 88.2838 273.152 90.222 274.509 92.7086C275.866 95.1953 276.59 98.1189 276.59 101.11C276.586 105.119 275.284 108.962 272.969 111.797C270.655 114.632 267.516 116.226 264.242 116.231ZM264.242 89.6174C262.386 89.6174 260.572 90.2914 259.029 91.5542C257.485 92.8169 256.283 94.6118 255.572 96.7117C254.862 98.8116 254.676 101.122 255.038 103.352C255.4 105.581 256.294 107.629 257.607 109.236C258.919 110.843 260.591 111.938 262.411 112.381C264.232 112.824 266.119 112.597 267.834 111.727C269.548 110.857 271.014 109.384 272.045 107.494C273.076 105.604 273.627 103.382 273.627 101.11C273.624 98.0627 272.634 95.1416 270.875 92.9872C269.116 90.8327 266.73 89.6208 264.242 89.6174Z" fill="#FF5C00"/>
<path d="M84.9527 208.17H31.6103C29.3843 208.167 27.2501 207.082 25.6761 205.155C24.102 203.227 23.2165 200.614 23.2139 197.888V159.177C23.2165 156.451 24.102 153.837 25.6761 151.91C27.2501 149.982 29.3843 148.898 31.6103 148.895H84.9527C87.1787 148.898 89.3129 149.982 90.8869 151.91C92.461 153.837 93.3465 156.451 93.3491 159.177V197.888C93.3465 200.614 92.461 203.227 90.8869 205.155C89.3129 207.082 87.1787 208.167 84.9527 208.17Z" fill="#FF5C00" fill-opacity="0.18"/>
<path d="M187.686 208.17H134.344C132.118 208.167 129.984 207.082 128.409 205.155C126.835 203.227 125.95 200.614 125.947 197.888V159.177C125.95 156.451 126.835 153.837 128.409 151.91C129.984 149.982 132.118 148.898 134.344 148.895H187.686C189.912 148.898 192.046 149.982 193.62 151.91C195.194 153.837 196.08 156.451 196.083 159.177V197.888C196.08 200.614 195.194 203.227 193.62 205.155C192.046 207.082 189.912 208.167 187.686 208.17Z" fill="#FF5C00" fill-opacity="0.18"/>
<path d="M237.077 150.105C235.112 150.108 233.229 151.065 231.84 152.766C230.451 154.467 229.67 156.773 229.668 159.178V197.889C229.67 200.294 230.451 202.6 231.84 204.301C233.229 206.002 235.112 206.959 237.077 206.962H290.419C292.383 206.959 294.266 206.002 295.655 204.301C297.044 202.6 297.825 200.294 297.828 197.889V159.178C297.825 156.773 297.044 154.467 295.655 152.766C294.266 151.065 292.383 150.108 290.419 150.105H237.077Z" fill="#FF5C00" fill-opacity="0.18"/>
<path d="M85.4468 285.592H32.1045C29.8784 285.589 27.7443 284.504 26.1702 282.577C24.5961 280.649 23.7107 278.035 23.708 275.309V236.599C23.7107 233.873 24.5961 231.259 26.1702 229.332C27.7443 227.404 29.8784 226.32 32.1045 226.316H85.4468C87.6729 226.32 89.807 227.404 91.3811 229.332C92.9552 231.259 93.8406 233.873 93.8433 236.599V275.309C93.8406 278.035 92.9552 280.649 91.3811 282.577C89.807 284.504 87.6729 285.589 85.4468 285.592Z" fill="#FF5C00" fill-opacity="0.18"/>
<path d="M188.18 285.592H134.838C132.612 285.589 130.478 284.504 128.904 282.577C127.33 280.649 126.444 278.035 126.441 275.309V236.599C126.444 233.873 127.33 231.259 128.904 229.332C130.478 227.404 132.612 226.32 134.838 226.316H188.18C190.406 226.32 192.54 227.404 194.114 229.332C195.689 231.259 196.574 233.873 196.577 236.599V275.309C196.574 278.035 195.689 280.649 194.114 282.577C192.54 284.504 190.406 285.589 188.18 285.592Z" fill="#FF5C00" fill-opacity="0.18"/>
<path d="M290.914 285.592H237.571C235.345 285.589 233.211 284.504 231.637 282.577C230.063 280.649 229.177 278.035 229.175 275.309V236.599C229.177 233.873 230.063 231.259 231.637 229.332C233.211 227.404 235.345 226.32 237.571 226.316H290.914C293.14 226.32 295.274 227.404 296.848 229.332C298.422 231.259 299.307 233.873 299.31 236.599V275.309C299.307 278.035 298.422 280.649 296.848 282.577C295.274 284.504 293.14 285.589 290.914 285.592Z" fill="#FF5C00" fill-opacity="0.18"/>
<path d="M55.8119 105.344C54.8953 105.342 54.0165 104.896 53.3684 104.102C52.7202 103.308 52.3556 102.232 52.3545 101.11V40.6246C52.3545 39.5017 52.7187 38.4247 53.3671 37.6307C54.0155 36.8367 54.8949 36.3906 55.8119 36.3906C56.7288 36.3906 57.6082 36.8367 58.2566 37.6307C58.905 38.4247 59.2692 39.5017 59.2692 40.6246V101.11C59.2681 102.232 58.9035 103.308 58.2554 104.102C57.6072 104.896 56.7285 105.342 55.8119 105.344Z" fill="#FF5C00"/>
<path d="M264.243 105.344C263.326 105.342 262.447 104.896 261.799 104.102C261.151 103.308 260.786 102.232 260.785 101.11V40.6246C260.785 39.5017 261.149 38.4247 261.798 37.6307C262.446 36.8367 263.326 36.3906 264.243 36.3906C265.159 36.3906 266.039 36.8367 266.687 37.6307C267.336 38.4247 267.7 39.5017 267.7 40.6246V101.11C267.699 102.232 267.334 103.308 266.686 104.102C266.038 104.896 265.159 105.342 264.243 105.344Z" fill="#FF5C00"/>
<path d="M56.2645 194.225C54.8101 194.228 53.3943 193.651 52.2307 192.583L52.1586 192.517L36.9652 178.284C35.5441 176.949 34.614 174.978 34.3795 172.804C34.145 170.63 34.6253 168.431 35.7148 166.691C36.8043 164.951 38.4137 163.812 40.189 163.524C41.9642 163.237 43.76 163.825 45.1811 165.16L55.0221 174.401L78.277 137.248C78.8162 136.387 79.4888 135.664 80.2561 135.121C81.0235 134.578 81.8707 134.225 82.7493 134.083C83.628 133.941 84.5209 134.012 85.3771 134.292C86.2333 134.573 87.036 135.057 87.7394 135.718L87.7413 135.719L87.597 135.965L87.7452 135.719C89.1643 137.055 90.0927 139.025 90.3267 141.198C90.5608 143.371 90.0814 145.569 88.9936 147.309L61.6408 190.99C61.0079 191.997 60.1943 192.811 59.263 193.37C58.3316 193.93 57.3076 194.219 56.2704 194.215L56.2645 194.225Z" fill="white"/>
<path d="M261.731 194.225C260.277 194.228 258.861 193.651 257.697 192.583L257.625 192.517L242.432 178.284C241.011 176.949 240.081 174.978 239.846 172.804C239.612 170.63 240.092 168.431 241.182 166.691C242.271 164.951 243.881 163.812 245.656 163.524C247.431 163.237 249.227 163.825 250.648 165.16L260.489 174.401L283.744 137.248C284.283 136.387 284.956 135.664 285.723 135.121C286.49 134.578 287.337 134.225 288.216 134.083C289.095 133.941 289.988 134.012 290.844 134.292C291.7 134.573 292.503 135.057 293.206 135.718L293.208 135.719L293.064 135.965L293.212 135.719C294.631 137.055 295.559 139.025 295.794 141.198C296.028 143.371 295.548 145.569 294.46 147.309L267.108 190.99C266.475 191.997 265.661 192.811 264.73 193.37C263.798 193.93 262.774 194.219 261.737 194.215L261.731 194.225Z" fill="white"/>
</svg>
