<svg width="238" height="176" viewBox="0 0 238 176" fill="none" xmlns="http://www.w3.org/2000/svg">
<g clip-path="url(#clip0_457_1673)">
<path d="M177.284 17.425L187.839 20.4184L195.594 12.6507C196.701 11.5437 198.584 12.2855 198.649 13.8421L199.066 24.8076L208.85 29.7904C210.237 30.5012 210.127 32.52 208.652 33.0552L198.342 36.8399L196.63 47.6846C196.383 49.2284 194.431 49.7343 193.464 48.512L186.686 39.8809L175.844 41.601C174.305 41.8531 173.203 40.1375 174.071 38.8404L180.188 29.728L175.204 19.9479C174.493 18.5666 175.776 16.9974 177.284 17.425Z" fill="#EFEF0F"/>
<path d="M29.6661 153.381C35.6073 157.308 41.7328 161.037 48.3037 163.682C51.5772 164.97 55.0348 166.001 58.4674 165.993C61.8835 166.107 65.193 164.317 66.3142 161.121C67.6105 158.04 67.5146 154.406 67.211 150.959C66.8722 147.466 66.2082 143.987 65.3992 140.538C63.7986 133.634 61.7398 126.809 59.7619 119.938C57.8188 113.054 55.8524 106.159 54.6622 98.9791C54.0962 95.3891 53.6747 91.7109 54.0829 87.9045C54.2319 86.0105 54.787 84.0554 55.7089 82.2079L56.5764 80.8833C56.852 80.44 57.2967 80.0941 57.6715 79.7139C58.4033 78.9013 59.3929 78.3888 60.3421 77.9288C62.3283 77.0953 64.4239 76.923 66.3647 77.0363C68.3288 77.161 70.1903 77.5537 71.9945 78.0628C75.5856 79.0871 78.9533 80.5369 82.2289 82.1152C88.7688 85.295 94.9405 88.9885 101.06 92.6998C107.18 96.4112 113.219 100.228 119.326 103.846C125.428 107.447 131.598 110.967 137.971 113.544C141.117 114.798 144.429 115.859 147.398 115.912C150.436 116 152.414 114.859 153.314 112.379C154.254 109.846 154.142 106.392 153.735 103.039C153.333 99.6448 152.623 96.201 151.872 92.7517C150.451 85.806 148.785 78.7693 148.001 71.4705C147.626 67.8152 147.477 64.0827 147.949 60.2933C148.37 56.5218 149.707 52.6505 152.211 49.5254C152.838 48.7484 153.519 48.0698 154.303 47.3556C154.777 47.0385 155.228 46.6519 155.725 46.4043C156.235 46.1915 156.768 45.9321 157.289 45.8121C159.429 45.2561 161.399 45.4563 163.225 45.6866C166.87 46.1879 170.279 46.9639 173.67 46.8342C177.08 46.8727 180.33 45.7046 183.145 43.7153C185.93 41.6971 188.198 38.9047 189.872 35.7916L190.332 36.003C188.968 39.3403 186.894 42.4738 184.059 44.8582C181.242 47.2366 177.577 48.8955 173.815 49.1325C170.059 49.503 166.378 48.8394 162.938 48.5979C161.223 48.4654 159.55 48.4546 158.229 48.9058C157.899 49.0185 157.627 49.189 157.32 49.3132C157.025 49.4721 156.818 49.7176 156.564 49.882C156.062 50.4025 155.497 51.0222 155.049 51.6411C153.238 54.2384 152.291 57.3752 151.989 60.6988C151.688 64.0224 151.91 67.4582 152.382 70.8863C153.332 77.76 155.205 84.6094 156.87 91.5881C157.662 95.101 158.425 98.6431 158.911 102.338C159.332 106.016 159.738 109.933 158.282 114.194C157.588 116.313 155.919 118.416 153.802 119.604C151.656 120.822 149.317 121.136 147.255 121.064C143.06 120.886 139.484 119.565 136.035 118.163C129.207 115.217 123.041 111.483 116.932 107.69C110.841 103.892 104.888 99.9295 98.8834 96.1012C92.8676 92.2962 86.8289 88.5378 80.5795 85.3559C77.4607 83.7823 74.2558 82.3545 71.0018 81.3509C67.7769 80.3762 64.3172 79.8503 61.6298 80.9038C60.9989 81.2162 60.3388 81.4999 59.8665 82.0492C59.6244 82.3065 59.3179 82.4888 59.1169 82.8096L58.5135 83.7141C57.8436 85.0488 57.3317 86.5623 57.1637 88.23C56.7517 91.5138 57.0384 95.0246 57.5396 98.4816C58.5538 105.43 60.3808 112.315 62.1903 119.205C63.9999 126.096 65.9142 133.009 67.3646 140.041C68.0986 143.555 68.6994 147.133 68.9636 150.748C69.1811 154.341 69.2376 158.144 67.6831 161.662C67.3527 162.571 66.76 163.336 66.1965 164.13C65.4927 164.797 64.8185 165.551 63.9269 165.952C63.1061 166.504 62.1667 166.709 61.2509 166.983C60.3166 167.088 59.3771 167.293 58.4529 167.201C54.7116 167.101 51.2299 165.942 47.9034 164.556C41.2787 161.696 35.2333 157.804 29.3549 153.72L29.6364 153.294L29.6661 153.381Z" fill="url(#paint0_linear_457_1673)"/>
<path d="M193.937 32.5019C195.323 33.833 194.369 36.8943 193.898 38.4133C187.716 58.335 187.411 60.2825 186.817 60.1359C185.887 59.9106 185.771 55.1965 188.372 38.0305C175.714 42.7408 171.838 43.269 171.385 42.3956C170.601 40.8394 180.758 35.0038 188.756 32.5056C190.425 31.9939 192.755 31.3727 193.919 32.5079L193.937 32.5019Z" fill="#E08932"/>
</g>
<defs>
<linearGradient id="paint0_linear_457_1673" x1="21.3938" y1="135.465" x2="204.976" y2="74.8516" gradientUnits="userSpaceOnUse">
<stop stop-color="#FF931E"/>
<stop offset="0.99" stop-color="#FFD26A"/>
</linearGradient>
<clipPath id="clip0_457_1673">
<rect width="212" height="112" fill="white" transform="translate(0.589844 69.4824) rotate(-18.8544)"/>
</clipPath>
</defs>
</svg>
