<svg width="27" height="27" viewBox="0 0 27 27" fill="none" xmlns="http://www.w3.org/2000/svg">
<path d="M13.5264 24.4243C13.3235 24.4243 13.1346 24.4103 12.9598 24.3823C12.7842 24.355 12.6227 24.3137 12.4751 24.2584C10.1882 23.41 8.31627 21.8977 6.8593 19.7214C5.40232 17.5452 4.67383 15.1476 4.67383 12.5288V7.30024C4.67383 6.83917 4.80772 6.42421 5.07551 6.05535C5.34256 5.6865 5.68818 5.41908 6.11236 5.25309L12.7518 2.76332C13.01 2.67111 13.2682 2.625 13.5264 2.625C13.7846 2.625 14.0428 2.67111 14.301 2.76332L20.9403 5.25309C21.3645 5.41908 21.7105 5.6865 21.9783 6.05535C22.2454 6.42421 22.3789 6.83917 22.3789 7.30024V12.5288C22.3789 15.1476 21.6504 17.5452 20.1934 19.7214C18.7364 21.8977 16.8645 23.41 14.5776 24.2584C14.43 24.3137 14.2685 24.355 14.0929 24.3823C13.9181 24.4103 13.7292 24.4243 13.5264 24.4243ZM13.5264 22.2665C15.3153 21.7133 16.8092 20.6207 18.0079 18.9889C19.2067 17.3563 19.9075 15.5349 20.1104 13.5247H13.5264V4.81047L6.88696 7.30024V13.0267C6.88696 13.1558 6.9054 13.3218 6.94229 13.5247H13.5264V22.2665Z" fill="black"/>
</svg>
