<svg width="61" height="59" viewBox="0 0 61 59" fill="none" xmlns="http://www.w3.org/2000/svg">
<path d="M60.4945 29.9688C60.4945 45.7081 47.2907 58.4945 30.9688 58.4945C14.6468 58.4945 1.44299 45.7081 1.44299 29.9688C1.44299 14.2294 14.6468 1.44299 30.9688 1.44299C47.2907 1.44299 60.4945 14.2294 60.4945 29.9688Z" fill="#FAFAFA" stroke="#E3E3E3" stroke-width="0.948485"/>
<path d="M36.354 41.5368C35.4105 42.2167 32.9385 43.6023 34.4445 45.3358C35.1795 46.1833 36 46.7891 37.029 46.7891H42.9091C43.9381 46.7891 44.7586 46.1833 45.4936 45.3358C46.9996 43.6023 44.5276 42.2167 43.5841 41.5385C42.5176 40.7606 41.2582 40.3448 39.9691 40.3448C38.6799 40.3448 37.4205 40.759 36.354 41.5368ZM42.9691 33.0946C42.9691 33.9492 42.653 34.7688 42.0904 35.3731C41.5278 35.9774 40.7647 36.3168 39.9691 36.3168C39.1734 36.3168 38.4103 35.9774 37.8477 35.3731C37.2851 34.7688 36.969 33.9492 36.969 33.0946C36.969 32.24 37.2851 31.4204 37.8477 30.8162C38.4103 30.2119 39.1734 29.8724 39.9691 29.8724C40.7647 29.8724 41.5278 30.2119 42.0904 30.8162C42.653 31.4204 42.9691 32.24 42.9691 33.0946ZM27.9689 22.6224H35.469H27.9689ZM27.9689 17.7891H39.9691H27.9689ZM23.4688 28.2613V35.5113C23.4688 37.0306 23.4688 37.7894 23.0293 38.2615C22.5898 38.7335 21.8833 38.7335 20.4688 38.7335H18.9688C17.5543 38.7335 16.8478 38.7335 16.4083 38.2615C15.9687 37.7894 15.9688 37.0306 15.9688 35.5113V31.4835C15.9688 29.9642 15.9687 29.2054 16.4083 28.7333C16.8478 28.2613 17.5543 28.2613 18.9688 28.2613H23.4688ZM23.4688 28.2613H30.9689H23.4688ZM22.7188 21.0113C22.7188 21.8659 22.4028 22.6855 21.8401 23.2897C21.2775 23.894 20.5145 24.2335 19.7188 24.2335C18.9231 24.2335 18.1601 23.894 17.5975 23.2897C17.0348 22.6855 16.7188 21.8659 16.7188 21.0113C16.7188 20.1567 17.0348 19.3371 17.5975 18.7328C18.1601 18.1285 18.9231 17.7891 19.7188 17.7891C20.5145 17.7891 21.2775 18.1285 21.8401 18.7328C22.4028 19.3371 22.7188 20.1567 22.7188 21.0113Z" fill="black"/>
<path d="M27.9689 22.6224H35.469M27.9689 17.7891H39.9691M23.4688 28.2613V35.5113C23.4688 37.0306 23.4688 37.7894 23.0293 38.2615C22.5898 38.7335 21.8833 38.7335 20.4688 38.7335H18.9688C17.5543 38.7335 16.8478 38.7335 16.4083 38.2615C15.9687 37.7894 15.9688 37.0306 15.9688 35.5113V31.4835C15.9688 29.9642 15.9687 29.2054 16.4083 28.7333C16.8478 28.2613 17.5543 28.2613 18.9688 28.2613H23.4688ZM23.4688 28.2613H30.9689M36.354 41.5368C35.4105 42.2167 32.9385 43.6023 34.4445 45.3358C35.1795 46.1833 36 46.7891 37.029 46.7891H42.9091C43.9381 46.7891 44.7586 46.1833 45.4936 45.3358C46.9996 43.6023 44.5276 42.2167 43.5841 41.5385C42.5176 40.7606 41.2582 40.3448 39.9691 40.3448C38.6799 40.3448 37.4205 40.759 36.354 41.5368ZM42.9691 33.0946C42.9691 33.9492 42.653 34.7688 42.0904 35.3731C41.5278 35.9774 40.7647 36.3168 39.9691 36.3168C39.1734 36.3168 38.4103 35.9774 37.8477 35.3731C37.2851 34.7688 36.969 33.9492 36.969 33.0946C36.969 32.24 37.2851 31.4204 37.8477 30.8162C38.4103 30.2119 39.1734 29.8724 39.9691 29.8724C40.7647 29.8724 41.5278 30.2119 42.0904 30.8162C42.653 31.4204 42.9691 32.24 42.9691 33.0946ZM22.7188 21.0113C22.7188 21.8659 22.4028 22.6855 21.8401 23.2897C21.2775 23.894 20.5145 24.2335 19.7188 24.2335C18.9231 24.2335 18.1601 23.894 17.5974 23.2897C17.0348 22.6855 16.7188 21.8659 16.7188 21.0113C16.7188 20.1567 17.0348 19.3371 17.5974 18.7328C18.1601 18.1285 18.9231 17.7891 19.7188 17.7891C20.5145 17.7891 21.2775 18.1285 21.8401 18.7328C22.4028 19.3371 22.7188 20.1567 22.7188 21.0113Z" stroke="black" stroke-width="3" stroke-linecap="round" stroke-linejoin="round"/>
</svg>
