<svg width="51" height="51" viewBox="0 0 51 51" fill="none" xmlns="http://www.w3.org/2000/svg">
<rect x="0.96875" y="0.96875" width="50" height="50" rx="25" fill="white"/>
<path d="M37.1687 8.96875H35.7687C34.2224 8.96875 32.9688 10.4611 32.9688 12.3021V35.6354C32.9688 37.4764 34.2224 38.9688 35.7687 38.9688H37.1687C38.7151 38.9688 39.9688 37.4764 39.9688 35.6354V12.3021C39.9688 10.4611 38.7151 8.96875 37.1687 8.96875Z" fill="black"/>
<path d="M26.6687 18.9688H25.2687C23.7224 18.9688 22.4688 20.4611 22.4688 22.3021V35.6354C22.4688 37.4764 23.7224 38.9688 25.2687 38.9688H26.6687C28.2151 38.9688 29.4688 37.4764 29.4688 35.6354V22.3021C29.4688 20.4611 28.2151 18.9688 26.6687 18.9688Z" fill="black"/>
<path d="M16.1687 30.5703H14.7687C13.2224 30.5703 11.9688 32.0746 11.9688 33.9303V35.6103C11.9688 37.466 13.2224 38.9703 14.7687 38.9703H16.1687C17.7151 38.9703 18.9688 37.466 18.9688 35.6103V33.9303C18.9688 32.0746 17.7151 30.5703 16.1687 30.5703Z" fill="black"/>
</svg>
