<svg width="55" height="55" viewBox="0 0 55 55" fill="none" xmlns="http://www.w3.org/2000/svg">
<circle cx="27.5263" cy="27.5263" r="26.0833" fill="#FAFAFA" stroke="#E3E3E3" stroke-width="0.948485"/>
<path d="M35.8264 32.5047C35.2354 32.5078 34.6562 32.6704 34.1499 32.9753L30.9854 29.81C31.4363 29.1333 31.6769 28.3383 31.6769 27.5252C31.6769 26.7121 31.4363 25.9171 30.9854 25.2404L33.0993 23.1266C33.634 23.3842 34.2426 23.4441 34.8173 23.2959C35.3921 23.1477 35.8958 22.8009 36.2393 22.3168C36.5827 21.8328 36.7438 21.2428 36.6939 20.6514C36.644 20.0599 36.3864 19.5053 35.9668 19.0856C35.5471 18.6659 34.9924 18.4083 34.401 18.3584C33.8095 18.3085 33.2195 18.4696 32.7355 18.8131C32.2515 19.1566 31.9046 19.6603 31.7564 20.235C31.6082 20.8097 31.6682 21.4184 31.9257 21.9531L29.8119 24.0669C29.1352 23.616 28.3403 23.3754 27.5271 23.3754C26.714 23.3754 25.9191 23.616 25.2424 24.0669L22.077 20.9016C22.3818 20.3955 22.5444 19.8167 22.5476 19.2259C22.5476 18.5694 22.3529 17.9275 21.9881 17.3816C21.6234 16.8357 21.1049 16.4102 20.4983 16.1589C19.8917 15.9077 19.2242 15.8419 18.5803 15.97C17.9363 16.0981 17.3448 16.4143 16.8805 16.8786C16.4163 17.3428 16.1001 17.9343 15.972 18.5783C15.8439 19.2223 15.9096 19.8897 16.1609 20.4963C16.4122 21.1029 16.8377 21.6214 17.3836 21.9862C17.9295 22.3509 18.5713 22.5456 19.2279 22.5456C19.8189 22.5426 20.3981 22.38 20.9043 22.0751L24.0689 25.2404C23.618 25.9171 23.3774 26.7121 23.3774 27.5252C23.3774 28.3383 23.618 29.1333 24.0689 29.81L20.9035 32.9753C20.3975 32.6706 19.8186 32.508 19.2279 32.5047C18.5713 32.5047 17.9295 32.6994 17.3836 33.0642C16.8377 33.429 16.4122 33.9474 16.1609 34.554C15.9096 35.1606 15.8439 35.8281 15.972 36.4721C16.1001 37.116 16.4163 37.7075 16.8805 38.1718C17.3448 38.6361 17.9363 38.9523 18.5803 39.0803C19.2242 39.2084 19.8917 39.1427 20.4983 38.8914C21.1049 38.6402 21.6234 38.2147 21.9881 37.6688C22.3529 37.1228 22.5476 36.481 22.5476 35.8244C22.5445 35.2334 22.382 34.6542 22.077 34.148L25.2424 30.9835C25.6837 31.2777 26.1777 31.4839 26.6972 31.591V34.3173C26.1435 34.5131 25.6768 34.8983 25.3796 35.4049C25.0824 35.9115 24.9739 36.5068 25.0732 37.0857C25.1725 37.6646 25.4733 38.1897 25.9224 38.5683C26.3714 38.9468 26.9398 39.1544 27.5271 39.1544C28.1145 39.1544 28.6829 38.9468 29.1319 38.5683C29.581 38.1897 29.8817 37.6646 29.9811 37.0857C30.0804 36.5068 29.9719 35.9115 29.6747 35.4049C29.3775 34.8983 28.9108 34.5131 28.3571 34.3173V31.591C28.8766 31.4839 29.3706 31.2777 29.8119 30.9835L32.9773 34.1488C32.6725 34.6548 32.5099 35.2337 32.5067 35.8244C32.5067 36.481 32.7014 37.1228 33.0662 37.6688C33.4309 38.2147 33.9494 38.6402 34.556 38.8914C35.1626 39.1427 35.8301 39.2084 36.474 39.0803C37.118 38.9523 37.7095 38.6361 38.1738 38.1718C38.638 37.7075 38.9542 37.116 39.0823 36.4721C39.2104 35.8281 39.1446 35.1606 38.8934 34.554C38.6421 33.9474 38.2166 33.429 37.6707 33.0642C37.1248 32.6994 36.483 32.5047 35.8264 32.5047ZM27.5271 25.0354C28.0196 25.0354 28.5009 25.1814 28.9104 25.455C29.3198 25.7286 29.639 26.1175 29.8274 26.5724C30.0158 27.0273 30.0651 27.528 29.9691 28.0109C29.873 28.4939 29.6359 28.9375 29.2877 29.2857C28.9395 29.6339 28.4958 29.8711 28.0129 29.9671C27.5299 30.0632 27.0293 30.0139 26.5743 29.8254C26.1194 29.637 25.7306 29.3179 25.457 28.9084C25.1834 28.499 25.0374 28.0176 25.0374 27.5252C25.038 26.8651 25.3006 26.2322 25.7673 25.7654C26.2341 25.2986 26.867 25.0361 27.5271 25.0354ZM17.5681 19.2259C17.5681 18.8977 17.6654 18.5767 17.8478 18.3038C18.0302 18.0308 18.2894 17.8181 18.5927 17.6924C18.896 17.5668 19.2297 17.5339 19.5517 17.598C19.8737 17.662 20.1695 17.8201 20.4016 18.0523C20.6337 18.2844 20.7918 18.5801 20.8559 18.9021C20.9199 19.2241 20.887 19.5578 20.7614 19.8611C20.6358 20.1644 20.423 20.4237 20.1501 20.6061C19.8771 20.7884 19.5562 20.8858 19.2279 20.8858C18.7878 20.8854 18.3659 20.7103 18.0547 20.3992C17.7435 20.088 17.5685 19.666 17.5681 19.2259ZM19.2279 37.4843C18.8996 37.4843 18.5787 37.3869 18.3057 37.2045C18.0328 37.0222 17.82 36.7629 17.6944 36.4596C17.5688 36.1563 17.5359 35.8226 17.5999 35.5006C17.664 35.1786 17.8221 34.8829 18.0542 34.6507C18.2863 34.4186 18.5821 34.2605 18.9041 34.1965C19.2261 34.1324 19.5598 34.1653 19.8631 34.2909C20.1664 34.4166 20.4256 34.6293 20.608 34.9023C20.7904 35.1752 20.8878 35.4961 20.8878 35.8244C20.8873 36.2645 20.7123 36.6865 20.4011 36.9976C20.0899 37.3088 19.668 37.4838 19.2279 37.4843ZM35.8264 37.4843C35.4981 37.4843 35.1772 37.3869 34.9042 37.2045C34.6313 37.0222 34.4185 36.7629 34.2929 36.4596C34.1673 36.1563 34.1344 35.8226 34.1984 35.5006C34.2625 35.1786 34.4206 34.8829 34.6527 34.6507C34.8848 34.4186 35.1806 34.2605 35.5026 34.1965C35.8245 34.1324 36.1583 34.1653 36.4616 34.2909C36.7649 34.4166 37.0241 34.6293 37.2065 34.9023C37.3889 35.1752 37.4862 35.4961 37.4862 35.8244C37.4856 36.2645 37.3105 36.6863 36.9994 36.9974C36.6882 37.3085 36.2664 37.4836 35.8264 37.4843Z" fill="#12141D"/>
</svg>
