<svg width="51" height="51" viewBox="0 0 51 51" fill="none" xmlns="http://www.w3.org/2000/svg">
<rect x="0.96875" y="0.96875" width="50" height="50" rx="25" fill="white"/>
<path d="M27.1562 22.8438H33.6875L27.1562 16.6562V22.8438ZM18.8438 14.9688H28.3438L35.4688 21.7188V35.2188C35.4688 35.8155 35.2185 36.3878 34.7731 36.8097C34.3277 37.2317 33.7236 37.4688 33.0938 37.4688H18.8438C18.2139 37.4688 17.6098 37.2317 17.1644 36.8097C16.719 36.3878 16.4688 35.8155 16.4688 35.2188V17.2188C16.4688 15.97 17.5256 14.9688 18.8438 14.9688ZM28.3438 35.2188V34.0938C28.3438 32.5975 25.1731 31.8438 23.5938 31.8438C22.0144 31.8438 18.8438 32.5975 18.8438 34.0938V35.2188H28.3438ZM23.5938 26.2188C22.9639 26.2188 22.3598 26.4558 21.9144 26.8778C21.469 27.2997 21.2188 27.872 21.2188 28.4688C21.2188 29.0655 21.469 29.6378 21.9144 30.0597C22.3598 30.4817 22.9639 30.7188 23.5938 30.7188C24.2236 30.7188 24.8277 30.4817 25.2731 30.0597C25.7185 29.6378 25.9688 29.0655 25.9688 28.4688C25.9688 27.872 25.7185 27.2997 25.2731 26.8778C24.8277 26.4558 24.2236 26.2188 23.5938 26.2188Z" fill="black"/>
</svg>
