<svg width="51" height="51" viewBox="0 0 51 51" fill="none" xmlns="http://www.w3.org/2000/svg">
<rect x="0.96875" y="0.96875" width="50" height="50" rx="25" fill="white"/>
<path d="M13.0521 31.3564C13.4109 31.3564 13.662 31.1732 13.8056 30.8069C13.9491 30.4405 13.9491 30.0741 13.8056 29.7078C13.662 29.3414 13.4109 29.1582 13.0521 29.1582C12.6933 29.1582 12.4421 29.3414 12.2986 29.7078C12.1551 30.0741 12.1551 30.4405 12.2986 30.8069C12.4421 31.1732 12.6933 31.3564 13.0521 31.3564ZM32.8711 30.3604C32.7814 30.2115 32.6087 29.9253 32.3531 29.5017C32.0974 29.078 31.9113 28.7689 31.7947 28.5743C31.6781 28.3796 31.5077 28.0991 31.2834 27.7328C31.0592 27.3664 30.8686 27.063 30.7116 26.8226C30.5546 26.5821 30.373 26.3131 30.1667 26.0154C29.9604 25.7177 29.7585 25.4372 29.5612 25.1739L27.8793 27.5782C27.1348 28.6544 26.1997 29.1811 25.074 29.1582C23.9483 29.1353 23.0266 28.5743 22.309 27.4752C21.7977 26.6852 21.5443 25.7807 21.5488 24.7617C21.5533 23.7427 21.8157 22.844 22.3359 22.0654L24.7174 18.5276C24.5201 18.4017 24.2914 18.3072 24.0312 18.2443C23.7711 18.1813 23.5581 18.147 23.3921 18.1412C23.2262 18.1355 22.9728 18.1384 22.6319 18.1498C22.2911 18.1613 22.0713 18.167 21.9727 18.167C21.1474 18.167 20.4388 18.5448 19.8468 19.3005L17.7209 22.0139H15.6354V31.3564C15.6803 31.3564 15.7745 31.3536 15.918 31.3478C16.0615 31.3421 16.1602 31.3421 16.214 31.3478C16.2678 31.3536 16.3553 31.365 16.4763 31.3822C16.5974 31.3994 16.6894 31.4251 16.7522 31.4595C16.815 31.4938 16.8934 31.5425 16.9876 31.6054C17.0818 31.6684 17.1648 31.7457 17.2365 31.8373L21.2326 36.852C22.2642 38.1229 23.2823 38.7583 24.2869 38.7583C24.9865 38.7583 25.5472 38.4893 25.9688 37.9512C26.48 38.1801 26.9846 38.1343 27.4824 37.8138C27.9803 37.4932 28.3054 37.0066 28.4579 36.354C29.1217 36.4227 29.6913 36.1708 30.1667 35.5983C30.3461 35.3923 30.5075 35.1318 30.651 34.8169C30.7946 34.5021 30.8573 34.213 30.8394 33.9497C30.9291 34.0642 31.122 34.1214 31.418 34.1214C31.8037 34.1214 32.149 34.0012 32.454 33.7608C32.759 33.5203 32.981 33.2169 33.12 32.8505C33.259 32.4842 33.3129 32.0749 33.2815 31.6226C33.2501 31.1704 33.1133 30.7496 32.8711 30.3604ZM35.0104 31.3564H36.3021V22.5635H35.0508L32.9384 19.4722C32.3464 18.6021 31.5884 18.167 30.6645 18.167H28.4175C27.6192 18.167 26.9644 18.5505 26.4531 19.3176L23.6411 23.4909C23.3899 23.8687 23.2643 24.298 23.2643 24.7789C23.2643 25.2597 23.3854 25.6891 23.6276 26.0669C24.0133 26.6508 24.5067 26.9485 25.1076 26.96C25.7086 26.9714 26.2065 26.6909 26.6011 26.1184L29.1979 22.3746C29.4222 22.1112 29.6621 21.9881 29.9178 22.0053C30.1734 22.0225 30.3842 22.1771 30.5501 22.469C30.7161 22.761 30.7542 23.0844 30.6645 23.4393C30.808 23.6569 31.0592 24.0175 31.418 24.5213C31.7768 25.025 32.0459 25.4143 32.2253 25.6891C32.4854 26.1013 32.8554 26.7052 33.3353 27.5009C33.8152 28.2966 34.1045 28.7804 34.2031 28.9521C34.6696 29.7078 34.9387 30.5092 35.0104 31.3564ZM38.8854 31.3564C39.2442 31.3564 39.4954 31.1732 39.6389 30.8069C39.7824 30.4405 39.7824 30.0741 39.6389 29.7078C39.4954 29.3414 39.2442 29.1582 38.8854 29.1582C38.5266 29.1582 38.2755 29.3414 38.1319 29.7078C37.9884 30.0741 37.9884 30.4405 38.1319 30.8069C38.2755 31.1732 38.5266 31.3564 38.8854 31.3564ZM41.4688 21.4644V32.4556C41.4688 32.7532 41.3835 33.0108 41.2131 33.2284C41.0427 33.4459 40.8409 33.5547 40.6076 33.5547H34.7682C34.526 34.2989 34.1583 34.9085 33.6649 35.3837C33.1716 35.8588 32.611 36.1536 31.9831 36.2681C31.6871 36.8177 31.326 37.2842 30.9 37.6678C30.4739 38.0513 30.0142 38.3118 29.5208 38.4492C29.1441 39.056 28.6754 39.5225 28.1148 39.8489C27.5542 40.1752 26.9779 40.3154 26.3859 40.2696C25.8477 40.6589 25.2826 40.885 24.6905 40.948C24.0985 41.0109 23.5267 40.9308 22.975 40.7075C22.4234 40.4843 21.8987 40.178 21.4008 39.7887C20.903 39.3995 20.4388 38.9358 20.0082 38.3977L16.1467 33.5547H11.3299C11.0966 33.5547 10.8948 33.4459 10.7244 33.2284C10.554 33.0108 10.4688 32.7532 10.4688 32.4556V20.9148C10.4688 20.6171 10.554 20.3595 10.7244 20.142C10.8948 19.9244 11.0966 19.8157 11.3299 19.8157H16.9944C17.1199 19.6554 17.3307 19.3806 17.6267 18.9913C17.9227 18.6021 18.1358 18.3273 18.2658 18.167C18.3959 18.0067 18.5932 17.7777 18.8579 17.48C19.1225 17.1824 19.349 16.9677 19.5373 16.836C19.7257 16.7044 19.9544 16.5584 20.2235 16.3981C20.4926 16.2378 20.7707 16.1262 21.0577 16.0632C21.3448 16.0002 21.6497 15.9688 21.9727 15.9688H23.5469C24.4349 15.9688 25.2467 16.2893 25.9822 16.9305C26.7177 16.2893 27.5295 15.9688 28.4175 15.9688H30.6645C30.9784 15.9688 31.2789 16.0031 31.566 16.0718C31.853 16.1405 32.1064 16.2235 32.3262 16.3208C32.5459 16.4181 32.7769 16.5698 33.0191 16.7759C33.2613 16.982 33.4609 17.1595 33.6178 17.3083C33.7748 17.4571 33.9677 17.6833 34.1964 17.9867C34.4251 18.2901 34.6 18.5305 34.7211 18.708C34.8422 18.8854 35.0261 19.1602 35.2728 19.5323C35.5195 19.9044 35.7056 20.182 35.8312 20.3652H40.6076C40.8409 20.3652 41.0427 20.474 41.2131 20.6915C41.3835 20.9091 41.4688 21.1667 41.4688 21.4644Z" fill="black"/>
</svg>
