<svg width="26" height="26" viewBox="0 0 26 26" fill="none" xmlns="http://www.w3.org/2000/svg">
<path d="M21.3021 15.0534C22.4527 15.0534 23.3854 14.1206 23.3854 12.9701C23.3854 11.8195 22.4527 10.8867 21.3021 10.8867C20.1515 10.8867 19.2188 11.8195 19.2188 12.9701C19.2188 14.1206 20.1515 15.0534 21.3021 15.0534Z" stroke="#12141D" stroke-width="2" stroke-linecap="round" stroke-linejoin="round"/>
<path d="M21.3021 6.71745C22.4527 6.71745 23.3854 5.78471 23.3854 4.63411C23.3854 3.48352 22.4527 2.55078 21.3021 2.55078C20.1515 2.55078 19.2188 3.48352 19.2188 4.63411C19.2188 5.78471 20.1515 6.71745 21.3021 6.71745Z" stroke="#12141D" stroke-width="2" stroke-linecap="round" stroke-linejoin="round"/>
<path d="M21.3021 23.3854C22.4527 23.3854 23.3854 22.4527 23.3854 21.3021C23.3854 20.1515 22.4527 19.2188 21.3021 19.2188C20.1515 19.2188 19.2188 20.1515 19.2188 21.3021C19.2188 22.4527 20.1515 23.3854 21.3021 23.3854Z" stroke="#12141D" stroke-width="2" stroke-linecap="round" stroke-linejoin="round"/>
<path d="M4.63607 15.0534C5.78666 15.0534 6.7194 14.1206 6.7194 12.9701C6.7194 11.8195 5.78666 10.8867 4.63607 10.8867C3.48547 10.8867 2.55273 11.8195 2.55273 12.9701C2.55273 14.1206 3.48547 15.0534 4.63607 15.0534Z" stroke="#12141D" stroke-width="2" stroke-linecap="round" stroke-linejoin="round"/>
<path d="M6.71875 12.9688H19.2187" stroke="#12141D" stroke-width="2" stroke-linecap="round" stroke-linejoin="round"/>
<path d="M19.2174 4.63672H15.0508C12.9674 4.63672 11.9258 5.67839 11.9258 7.76172V18.1784C11.9258 20.2617 12.9674 21.3034 15.0508 21.3034H19.2174" stroke="#12141D" stroke-width="2" stroke-linecap="round" stroke-linejoin="round"/>
</svg>
