<svg width="58" height="58" viewBox="0 0 58 58" fill="none" xmlns="http://www.w3.org/2000/svg">
<path d="M2.39062 52.8773C2.39063 47.7979 4.40843 42.9265 8.00015 39.3348C11.5919 35.743 16.4633 33.7252 21.5427 33.7252C26.6222 33.7252 31.4936 35.743 35.0853 39.3348C38.677 42.9265 40.6949 47.7979 40.6949 52.8773H2.39062ZM21.5427 31.3312C13.6066 31.3312 7.17865 24.9033 7.17865 16.9671C7.17865 9.03097 13.6066 2.60304 21.5427 2.60304C29.4789 2.60304 35.9068 9.03097 35.9068 16.9671C35.9068 24.9033 29.4789 31.3312 21.5427 31.3312ZM43.6778 7.83397C44.8713 10.7309 45.4846 13.834 45.4829 16.9671C45.4849 20.1011 44.8717 23.205 43.6778 26.1027L39.663 23.182C40.3477 21.1815 40.6963 19.0815 40.6949 16.9671C40.6971 14.8529 40.3493 12.7529 39.6654 10.7523L43.6778 7.83397ZM51.5828 2.08594C53.8769 6.7107 55.0668 11.8046 55.0589 16.9671C55.0589 22.313 53.8069 27.3667 51.5828 31.8507L47.6447 28.9851C49.3776 25.2157 50.2735 21.1157 50.2709 16.9671C50.2735 12.8185 49.3776 8.71854 47.6447 4.94918L51.5828 2.08594Z" fill="url(#paint0_linear_645_2855)"/>
<defs>
<linearGradient id="paint0_linear_645_2855" x1="28.7248" y1="2.08594" x2="28.7248" y2="52.8773" gradientUnits="userSpaceOnUse">
<stop stop-color="#FF5C00"/>
<stop offset="1" stop-color="#FFC250"/>
</linearGradient>
</defs>
</svg>
