<svg width="71" height="72" viewBox="0 0 71 72" fill="none" xmlns="http://www.w3.org/2000/svg">
<path d="M58.9278 50.5409C60.4907 50.5409 61.9896 49.9201 63.0948 48.8149C64.1999 47.7098 64.8208 46.2109 64.8208 44.648V12.2367C64.8208 10.6738 64.1999 9.1749 63.0948 8.06976C61.9896 6.96461 60.4907 6.34375 58.9278 6.34375H27.8719C28.9032 8.1411 29.463 10.1742 29.463 12.2367H58.9278V44.648H32.4095V50.5409M44.1954 21.0761V26.9691H26.5166V65.2733H20.6236V47.5945H14.7306V65.2733H8.83769V41.7015H4.41797V26.9691C4.41797 25.4062 5.03883 23.9073 6.14398 22.8022C7.24912 21.697 8.74802 21.0761 10.3109 21.0761H44.1954ZM23.5701 12.2367C23.5701 13.7996 22.9492 15.2985 21.8441 16.4037C20.7389 17.5088 19.24 18.1297 17.6771 18.1297C16.1142 18.1297 14.6153 17.5088 13.5102 16.4037C12.405 15.2985 11.7842 13.7996 11.7842 12.2367C11.7842 10.6738 12.405 9.1749 13.5102 8.06976C14.6153 6.96461 16.1142 6.34375 17.6771 6.34375C19.24 6.34375 20.7389 6.96461 21.8441 8.06976C22.9492 9.1749 23.5701 10.6738 23.5701 12.2367Z" fill="url(#paint0_linear_645_2864)"/>
<defs>
<linearGradient id="paint0_linear_645_2864" x1="34.6194" y1="6.34375" x2="34.6194" y2="65.2733" gradientUnits="userSpaceOnUse">
<stop stop-color="#F24E1E"/>
<stop offset="1" stop-color="#FFC250"/>
</linearGradient>
</defs>
</svg>
