<svg width="59" height="66" viewBox="0 0 59 66" fill="none" xmlns="http://www.w3.org/2000/svg">
<path d="M29.5383 0.000556654C37.3263 0.0475567 44.7775 3.19556 50.2534 8.75356C55.7283 14.3106 58.7785 21.8206 58.7325 29.6326C58.6738 39.6926 53.1577 47.8926 47.3608 53.7656C44.4653 56.6666 41.3084 59.2946 37.9303 61.6146L36.5353 62.5555L35.8804 62.9865L34.6451 63.7645L33.5448 64.4286L32.1832 65.2126C31.2592 65.7346 30.2147 66.0056 29.1536 65.9986C28.0925 65.9926 27.0519 65.7086 26.1337 65.1756L24.7809 64.3756L23.0904 63.3176L22.4658 62.9045L21.1336 62.0036C17.5196 59.5186 14.1552 56.6856 11.0903 53.5446C5.36283 47.5996 -0.05826 39.3356 0.000472926 29.2756C0.0464804 21.4636 3.18381 13.9906 8.72331 8.50056C14.2628 3.01056 21.7503 -0.0474433 29.5383 0.000556654ZM29.4238 19.6356C28.1385 19.6276 26.8639 19.8746 25.6736 20.3606C24.4833 20.8466 23.3997 21.5636 22.4854 22.4696C21.5712 23.3756 20.8438 24.4536 20.3446 25.6416C19.8464 26.8296 19.586 28.1046 19.5781 29.3946C19.5703 30.6836 19.816 31.9616 20.3015 33.1556C20.7861 34.3496 21.5007 35.4366 22.4042 36.3536C23.3087 37.2716 24.3835 38.0005 25.5679 38.5015C26.7524 39.0025 28.024 39.2636 29.3092 39.2716C31.9052 39.2876 34.4013 38.2686 36.2475 36.4386C38.0947 34.6086 39.1401 32.1176 39.1558 29.5136C39.1705 26.9096 38.1534 24.4056 36.3288 22.5536C34.5041 20.7016 32.0198 19.6516 29.4238 19.6356Z" fill="#FF5C00"/>
</svg>
