<svg width="458" height="229" viewBox="0 0 458 229" fill="none" xmlns="http://www.w3.org/2000/svg">
<path d="M210.038 98.8482L217.313 87.8734C218.009 86.8228 217.256 85.4219 215.996 85.4219H201.446C200.186 85.4219 199.433 86.8228 200.129 87.8734L207.404 98.8482C208.028 99.7923 209.414 99.7923 210.038 98.8482Z" fill="#FF8B0D"/>
<path d="M130.609 57.251C129.064 57.251 127.754 57.7916 126.673 58.8689C125.592 59.9462 125.055 61.2595 125.055 62.8051C125.055 64.6361 125.889 66.0294 127.56 66.981C128.298 67.396 130.461 68.1231 134.054 69.1661C137.126 70.0835 139.372 71.1875 140.792 72.4818C142.913 74.4042 143.971 77.1108 143.971 80.5939C143.971 84.0771 142.768 86.856 140.358 89.2466C137.968 91.6373 135.094 92.8326 131.732 92.8326H121.462C120.582 92.8326 119.817 92.509 119.17 91.8619C118.523 91.2147 118.199 90.4496 118.199 89.5702V89.4065C118.199 88.5272 118.523 87.762 119.17 87.1149C119.817 86.4677 120.582 86.1441 121.462 86.1441H131.999C133.525 86.1441 134.838 85.6036 135.935 84.5263C137.012 83.449 137.553 82.1357 137.553 80.5901C137.553 78.7933 136.719 77.3925 135.048 76.3875C134.256 75.9193 132.082 75.1313 128.527 74.0159C125.455 73.0109 123.216 71.8689 121.816 70.5936C119.695 68.6903 118.637 66.0941 118.637 62.8051C118.637 59.516 119.832 56.543 122.223 54.1523C124.614 51.7617 127.495 50.5664 130.876 50.5664H138.127C139.026 50.5664 139.799 50.89 140.446 51.5371C141.074 52.1652 141.39 52.9304 141.39 53.8288V53.9925C141.39 54.8718 141.074 55.637 140.446 56.2841C139.799 56.9313 139.026 57.2548 138.127 57.2548H130.609V57.251Z" fill="#FFCA7D"/>
<path d="M151.893 38.5505C152.772 38.5505 153.537 38.8664 154.185 39.4945C154.832 40.1417 155.155 40.9145 155.155 41.8129V60.4887H156.179C158.479 60.4887 160.481 59.7235 162.19 58.197C163.861 56.6705 164.813 54.7824 165.045 52.5364C165.152 51.6913 165.513 50.9985 166.122 50.4618C166.732 49.8869 167.462 49.5976 168.304 49.5976H168.384C169.335 49.5976 170.135 49.9555 170.782 50.6749C171.357 51.303 171.646 52.0301 171.646 52.8562C171.646 52.9628 171.638 53.0808 171.619 53.2064C171.189 57.7174 169.465 61.094 166.446 63.3399C168.026 64.3107 169.484 65.9552 170.812 68.2735C172.194 70.6641 172.887 73.2413 172.887 76.0088V77.383C172.887 78.3004 172.563 79.0618 171.916 79.6746C171.269 80.3218 170.504 80.6454 169.625 80.6454H169.545C168.665 80.6454 167.9 80.3218 167.253 79.6746C166.606 79.0656 166.282 78.3004 166.282 77.383V76.0088C166.263 73.5648 165.392 71.4711 163.667 69.7276C161.924 68.0032 159.822 67.1391 157.359 67.1391H155.148V77.3792C155.148 78.2966 154.824 79.0579 154.177 79.6708C153.53 80.318 152.765 80.6416 151.885 80.6416H151.805C150.926 80.6416 150.161 80.318 149.514 79.6708C148.867 79.0618 148.543 78.2966 148.543 77.3792V41.8014C148.543 40.903 148.867 40.1303 149.514 39.4831C150.161 38.855 150.926 38.5391 151.805 38.5391H151.885L151.893 38.5505Z" fill="#FFCA7D"/>
<path d="M190.895 49.5938C191.794 49.5938 192.566 49.9173 193.213 50.5645C193.842 51.2116 194.157 51.9844 194.157 52.8828V52.9361C194.157 53.8345 193.842 54.5996 193.213 55.2277C192.566 55.8749 191.794 56.1984 190.895 56.1984H189.357C187.884 56.1984 186.635 56.7123 185.611 57.7364C184.606 58.7604 184.092 60.009 184.073 61.4822V77.3829C184.073 78.3003 183.75 79.0617 183.103 79.6746C182.456 80.3217 181.69 80.6453 180.811 80.6453H180.731C179.852 80.6453 179.087 80.3217 178.439 79.6746C177.792 79.0655 177.469 78.3003 177.469 77.3829V61.4822C177.503 58.1932 178.664 55.3914 180.944 53.0731C183.263 50.7548 186.064 49.5976 189.353 49.5976H190.891L190.895 49.5938Z" fill="#FFCA7D"/>
<path d="M201.437 46.0886C200.394 46.0886 199.507 45.7194 198.768 44.9847C198.03 44.25 197.664 43.3592 197.664 42.3161C197.664 41.2731 198.033 40.4128 198.768 39.6743C199.507 38.9358 200.394 38.5703 201.437 38.5703C202.48 38.5703 203.34 38.9396 204.078 39.6743C204.832 40.3937 205.209 41.2731 205.209 42.3161C205.209 43.3592 204.832 44.2652 204.078 44.9847C203.34 45.7232 202.461 46.0886 201.437 46.0886ZM201.463 49.5908C202.381 49.5908 203.142 49.9144 203.755 50.5615C204.402 51.2087 204.726 51.9814 204.726 52.8798V77.38C204.726 78.2974 204.402 79.0587 203.755 79.6716C203.146 80.3188 202.381 80.6423 201.463 80.6423H201.41C200.512 80.6423 199.739 80.3188 199.092 79.6716C198.444 79.0625 198.121 78.2974 198.121 77.38V52.8798C198.121 51.9814 198.444 51.2087 199.092 50.5615C199.739 49.9144 200.512 49.5908 201.41 49.5908H201.463Z" fill="#FF8B0D"/>
<path d="M215.557 38.5469C216.437 38.5469 217.202 38.8628 217.849 39.4909C218.496 40.1381 218.82 40.9109 218.82 41.8092V77.387C218.82 78.3044 218.496 79.0658 217.849 79.6786C217.202 80.3258 216.437 80.6494 215.557 80.6494H215.477C214.598 80.6494 213.833 80.3258 213.186 79.6786C212.538 79.0696 212.215 78.3044 212.215 77.387V41.8092C212.215 40.9109 212.538 40.1381 213.186 39.4909C213.833 38.8628 214.598 38.5469 215.477 38.5469H215.557Z" fill="#FF8B0D"/>
<path d="M229.709 38.5469C230.589 38.5469 231.354 38.8628 232.001 39.4909C232.648 40.1381 232.972 40.9109 232.972 41.8092V77.387C232.972 78.3044 232.648 79.0658 232.001 79.6786C231.354 80.3258 230.589 80.6494 229.709 80.6494H229.63C228.75 80.6494 227.985 80.3258 227.338 79.6786C226.691 79.0696 226.367 78.3044 226.367 77.387V41.8092C226.367 40.9109 226.691 40.1381 227.338 39.4909C227.985 38.8628 228.75 38.5469 229.63 38.5469H229.709Z" fill="#FFCA7D"/>
<path d="M145.44 89.0369C145.567 89.0369 145.689 89.0563 145.808 89.0949C145.904 89.1247 145.951 89.1894 145.951 89.289V89.3001C145.951 89.3685 145.924 89.4228 145.869 89.463C145.812 89.5046 145.751 89.515 145.686 89.4942C145.607 89.4674 145.525 89.454 145.44 89.454C145.217 89.454 145.027 89.5329 144.869 89.6905C144.713 89.8481 144.635 90.0384 144.635 90.2615C144.635 90.4831 144.713 90.6726 144.869 90.8303C145.027 90.9879 145.217 91.0667 145.44 91.0667C145.525 91.0667 145.607 91.0541 145.686 91.0288C145.751 91.008 145.812 91.0176 145.869 91.0578C145.924 91.0979 145.951 91.153 145.951 91.2228C145.951 91.321 145.904 91.3857 145.808 91.4169C145.689 91.4541 145.567 91.4727 145.44 91.4727C145.104 91.4727 144.817 91.3537 144.579 91.1158C144.342 90.8779 144.223 90.5909 144.223 90.2548C144.223 89.9187 144.342 89.6317 144.579 89.3938C144.817 89.1559 145.104 89.0369 145.44 89.0369ZM146.542 88.1224C146.597 88.1224 146.645 88.1418 146.685 88.1804C146.725 88.2206 146.745 88.2689 146.745 88.3254V89.2355C146.922 89.1031 147.122 89.0369 147.345 89.0369C147.623 89.0369 147.861 89.1358 148.059 89.3336C148.257 89.5314 148.356 89.77 148.356 90.0496V91.2697C148.356 91.3262 148.336 91.3738 148.295 91.4124C148.257 91.4526 148.209 91.4727 148.153 91.4727H148.148C148.092 91.4727 148.043 91.4526 148.003 91.4124C147.963 91.3738 147.943 91.3262 147.943 91.2697V90.0496C147.943 89.8845 147.885 89.7433 147.769 89.6258C147.652 89.5083 147.51 89.4496 147.345 89.4496C147.179 89.4496 147.037 89.5083 146.919 89.6258C146.803 89.7433 146.745 89.8845 146.745 90.0496V91.2697C146.745 91.3262 146.725 91.3738 146.685 91.4124C146.645 91.4526 146.597 91.4727 146.542 91.4727H146.536C146.481 91.4727 146.433 91.4526 146.393 91.4124C146.353 91.3738 146.333 91.3262 146.333 91.2697V88.3254C146.333 88.2689 146.353 88.2206 146.393 88.1804C146.433 88.1418 146.481 88.1224 146.536 88.1224H146.542ZM150.524 89.6905C150.368 89.5329 150.178 89.454 149.955 89.454C149.732 89.454 149.542 89.5329 149.384 89.6905C149.228 89.8481 149.15 90.0384 149.15 90.2615C149.15 90.4831 149.228 90.6726 149.384 90.8303C149.542 90.9879 149.732 91.0667 149.955 91.0667C150.178 91.0667 150.368 90.9879 150.524 90.8303C150.681 90.6726 150.76 90.4831 150.76 90.2615C150.76 90.0384 150.681 89.8481 150.524 89.6905ZM149.094 89.3938C149.332 89.1559 149.619 89.0369 149.955 89.0369C150.291 89.0369 150.578 89.1559 150.816 89.3938C151.054 89.6317 151.173 89.9187 151.173 90.2548C151.173 90.5909 151.054 90.8779 150.816 91.1158C150.578 91.3537 150.291 91.4727 149.955 91.4727C149.619 91.4727 149.332 91.3537 149.094 91.1158C148.856 90.8779 148.737 90.5909 148.737 90.2548C148.737 89.9187 148.856 89.6317 149.094 89.3938ZM153.272 89.6905C153.116 89.5329 152.926 89.454 152.703 89.454C152.48 89.454 152.29 89.5329 152.132 89.6905C151.976 89.8481 151.898 90.0384 151.898 90.2615C151.898 90.4831 151.976 90.6726 152.132 90.8303C152.29 90.9879 152.48 91.0667 152.703 91.0667C152.926 91.0667 153.116 90.9879 153.272 90.8303C153.429 90.6726 153.508 90.4831 153.508 90.2615C153.508 90.0384 153.429 89.8481 153.272 89.6905ZM151.842 89.3938C152.08 89.1559 152.367 89.0369 152.703 89.0369C153.039 89.0369 153.326 89.1559 153.564 89.3938C153.802 89.6317 153.921 89.9187 153.921 90.2548C153.921 90.5909 153.802 90.8779 153.564 91.1158C153.326 91.3537 153.039 91.4727 152.703 91.4727C152.367 91.4727 152.08 91.3537 151.842 91.1158C151.604 90.8779 151.485 90.5909 151.485 90.2548C151.485 89.9187 151.604 89.6317 151.842 89.3938ZM154.599 88.1224C154.654 88.1224 154.701 88.1418 154.742 88.1804C154.782 88.2206 154.802 88.2689 154.802 88.3254V91.2697C154.802 91.3262 154.782 91.3738 154.742 91.4124C154.701 91.4526 154.654 91.4727 154.599 91.4727H154.592C154.537 91.4727 154.49 91.4526 154.449 91.4124C154.409 91.3738 154.389 91.3262 154.389 91.2697V88.3254C154.389 88.2689 154.409 88.2206 154.449 88.1804C154.49 88.1418 154.537 88.1224 154.592 88.1224H154.599Z" fill="#FF8B0D"/>
</svg>
