<svg width="231" height="516" viewBox="0 0 231 516" fill="none" xmlns="http://www.w3.org/2000/svg">
<path d="M187.722 477.135C186.655 483.579 190.236 490.482 196.184 493.508C200.225 495.565 204.929 495.879 209.322 497.071C217.892 499.403 225.353 505.323 229.381 513.012L171.367 512.921L171.421 476.598L187.709 477.122L187.722 477.135Z" fill="#FFE5D4"/>
<path d="M209.334 497.069C204.941 495.878 200.237 495.563 196.196 493.507C192.749 491.751 190.086 488.686 188.68 485.176C187.518 486.774 186.409 488.385 185.166 489.931C183.963 491.424 182.625 492.865 180.949 493.86C179.273 494.869 177.34 495.236 175.407 494.895C173.974 494.646 172.636 494.044 171.406 493.271L171.379 512.919L229.392 513.011C225.365 505.322 217.903 499.388 209.334 497.069Z" fill="#241624"/>
<path d="M228.068 516L171.595 515.909C169.987 515.909 168.676 514.625 168.676 513.079C168.676 511.521 170 510.25 171.595 510.25L228.068 510.342C229.677 510.342 230.988 511.625 230.988 513.171C230.988 514.73 229.663 516 228.068 516Z" fill="#6D6352"/>
<path d="M186.152 496.061C185.543 495.472 185.543 494.516 186.152 493.926L194.978 485.399C195.586 484.81 196.573 484.81 197.181 485.399C197.789 485.989 197.789 486.945 197.181 487.534L188.355 496.061C187.746 496.651 186.76 496.651 186.152 496.061Z" fill="#6D6352"/>
<path d="M191.859 499.98C191.25 499.39 191.25 498.434 191.859 497.844L200.685 489.317C201.293 488.728 202.28 488.728 202.888 489.317C203.496 489.907 203.496 490.863 202.888 491.452L194.062 499.98C193.454 500.569 192.467 500.569 191.859 499.98Z" fill="#6D6352"/>
<path d="M109.255 476.784C110.31 483.229 106.728 490.132 100.767 493.145C96.7255 495.188 92.0217 495.502 87.6288 496.681C79.0592 499 71.5845 504.907 67.543 512.596H125.557V476.273L109.255 476.771V476.784Z" fill="#FFE5D4"/>
<path d="M87.6266 496.694C92.0196 495.502 96.7234 495.201 100.765 493.158C104.225 491.402 106.874 488.35 108.294 484.84C109.443 486.438 110.564 488.062 111.794 489.595C112.997 491.088 114.336 492.529 115.998 493.537C117.674 494.546 119.594 494.913 121.54 494.572C122.973 494.323 124.311 493.721 125.541 492.961V512.609H67.5273C71.5688 504.92 79.03 499.013 87.6131 496.694H87.6266Z" fill="#241624"/>
<path d="M68.8532 515.584H125.326C126.934 515.584 128.245 514.314 128.245 512.755C128.245 511.196 126.934 509.926 125.326 509.926H68.8532C67.2447 509.926 65.9336 511.196 65.9336 512.755C65.9336 514.314 67.2447 515.584 68.8532 515.584Z" fill="#6D6352"/>
<path d="M110.796 495.711C111.405 495.122 111.405 494.166 110.796 493.576L101.984 485.036C101.375 484.446 100.389 484.446 99.7804 485.036C99.1722 485.625 99.1722 486.581 99.7804 487.171L108.593 495.711C109.202 496.301 110.188 496.301 110.796 495.711Z" fill="#6D6352"/>
<path d="M105.089 499.614C105.698 499.024 105.698 498.068 105.089 497.479L96.2766 488.938C95.6683 488.349 94.6816 488.349 94.0734 488.938C93.4651 489.528 93.4651 490.484 94.0734 491.073L102.886 499.614C103.495 500.203 104.481 500.203 105.089 499.614Z" fill="#6D6352"/>
<path d="M125.949 355.305H141.547C153.969 355.305 164.039 345.546 164.039 333.508V290.872C164.039 278.834 153.969 269.075 141.547 269.075H125.949C113.527 269.075 103.457 278.834 103.457 290.872V333.508C103.457 345.546 113.527 355.305 125.949 355.305Z" fill="#FBC999"/>
<path d="M189.463 480.581C185.003 447.245 170.121 336.993 168.337 326.422L138.289 333.796C139.384 344.171 160.659 452.786 166.958 484.092L189.477 480.581H189.463Z" fill="#FBC999"/>
<path d="M127.963 479.115C129.761 443.198 133.153 333.011 132.964 321.301L102.227 317.371C101.66 329.618 104.322 441.364 104.944 479.102H127.963V479.115Z" fill="#FBC999"/>
<path d="M131.68 332.814V351.427C131.68 352.58 133.531 352.58 133.531 351.427V332.814C133.531 331.661 131.68 331.661 131.68 332.814Z" fill="#D8B191"/>
<path d="M132.828 350.784C130.057 350.05 129.855 345.819 129.557 343.619C129.071 340.043 128.935 336.428 129.111 332.825C129.165 331.673 127.313 331.673 127.259 332.825C127.07 336.991 127.3 341.156 127.949 345.282C128.381 348.046 129.098 351.661 132.342 352.513C133.491 352.814 133.977 351.085 132.828 350.784Z" fill="#D8B191"/>
<path d="M150.388 329.421C150.807 338.026 155.227 346.069 162.174 351.4C162.742 351.833 163.31 352.265 163.918 352.632C164.932 353.247 165.864 351.689 164.851 351.086C162.58 349.711 160.593 347.759 158.89 345.781C154.889 341.157 152.524 335.433 152.24 329.407C152.186 328.255 150.334 328.255 150.388 329.407V329.421Z" fill="#D8B191"/>
<path d="M112.161 329.04C111.999 333.533 109.201 337.908 106.728 341.563C105.16 343.881 103.457 346.16 101.591 348.269C100.821 349.134 102.118 350.418 102.902 349.54C104.93 347.248 106.768 344.785 108.458 342.27C111.066 338.38 113.837 333.795 114.013 329.04C114.054 327.888 112.202 327.888 112.161 329.04Z" fill="#D8B191"/>
<path d="M150.4 217.765C146.21 229.62 143.831 241.998 143.29 254.507C143.236 255.66 145.088 255.66 145.142 254.507C145.669 242.142 148.048 229.947 152.184 218.237C152.576 217.15 150.792 216.678 150.4 217.765Z" fill="#7F68BA"/>
<path d="M143.359 261.099C143.075 266.063 142.791 271.028 142.494 275.979C142.426 277.132 144.278 277.132 144.346 275.979C144.63 271.015 144.913 266.05 145.211 261.099C145.278 259.946 143.427 259.946 143.359 261.099Z" fill="#7F68BA"/>
<path d="M157.539 202.626C156.701 205.259 156.079 207.957 155.687 210.695C155.092 214.782 155.119 219.314 157.728 222.576C155.62 224.815 152.605 226.518 149.51 226.924C146.415 227.344 143.171 226.676 140.508 225.077C139.778 224.645 139.102 224.134 138.426 223.637C137.588 223.021 136.764 222.405 135.926 221.79C140.548 215.738 144.698 208.94 144.522 201.421C146.496 201.277 149.334 200.792 151.308 200.648C152.159 200.583 153.024 200.53 153.876 200.648C155.228 200.858 156.187 202.692 157.552 202.613L157.539 202.626Z" fill="#F3725F"/>
<path d="M141.535 213.143C143.779 213.484 146.023 213.589 148.185 212.934C151.348 211.978 153.511 209.345 154.957 206.581C155.647 205.258 156.228 203.869 156.714 202.455C155.741 201.996 154.917 200.83 153.862 200.673C153.011 200.542 152.146 200.608 151.294 200.673C149.321 200.817 146.482 201.302 144.509 201.446C144.603 205.572 143.4 209.476 141.535 213.17V213.143Z" fill="#241624"/>
<path d="M183.746 273.253C183.462 274.327 183.165 275.401 182.867 276.475C181.57 281.165 180.15 285.815 178.745 290.478C178.501 291.29 178.258 292.089 178.015 292.901C177.974 293.019 177.947 293.137 177.907 293.268C176.933 296.503 175.974 299.739 175.055 302.987C174.838 303.734 174.636 304.481 174.433 305.227C173.27 309.458 172.189 313.728 171.297 318.025C170.783 320.527 170.31 323.055 169.932 325.583C169.851 326.146 169.797 326.722 169.729 327.286C169.54 328.975 169.215 330.586 167.485 331.53C167.107 331.739 166.688 331.896 166.255 332.027C165.823 332.158 165.363 332.25 164.877 332.302C164.606 332.342 164.322 332.368 164.025 332.381C161.038 332.577 157.51 331.896 155.023 331.752C150.252 331.477 145.467 331.202 140.695 330.94C138.871 330.835 137.046 330.731 135.235 330.626C134.788 330.6 134.342 330.573 133.896 330.547C129.639 330.298 125.367 330.062 121.11 329.814C118.028 329.63 114.892 329.29 111.797 329.277C109.499 329.277 106.701 329.539 104.43 328.74C103.849 328.53 103.308 328.268 102.822 327.901C102.822 327.901 102.822 327.901 102.808 327.888C102.389 327.587 102.011 327.22 101.727 326.788C101.646 326.644 101.564 326.487 101.497 326.329C100.591 323.945 101.091 320.422 101.091 317.933C101.078 314.344 100.997 310.755 100.916 307.166C100.74 299.948 100.497 292.731 100.456 285.5C100.389 274.262 100.794 262.944 102.686 251.837C102.74 251.483 102.808 251.129 102.862 250.789C103.065 249.636 103.295 248.483 103.538 247.331C103.876 245.733 104.241 244.135 104.646 242.55C106.525 235.214 110.053 228.324 114.73 222.417C115.054 222.011 115.379 221.605 115.716 221.212C116.271 221.133 116.825 221.068 117.393 221.015C121.502 220.609 125.678 220.858 129.814 221.12C130.869 221.185 131.936 221.251 132.977 221.303H133.085C133.342 221.316 133.586 221.33 133.842 221.343C133.977 221.343 134.126 221.356 134.261 221.356C134.599 221.369 134.951 221.382 135.289 221.395C135.572 221.395 135.87 221.421 136.154 221.434C136.154 221.434 136.221 221.434 136.248 221.434C136.586 221.434 136.924 221.461 137.249 221.474C138.357 221.513 139.452 221.539 140.56 221.565C140.803 221.565 141.06 221.578 141.304 221.578C141.696 221.578 142.088 221.592 142.479 221.605C143.318 221.631 144.142 221.644 144.98 221.67C145.277 221.67 145.588 221.683 145.886 221.696C145.886 221.696 145.967 221.696 146.007 221.696C146.845 221.723 147.67 221.749 148.508 221.775C148.711 221.775 148.9 221.788 149.103 221.801C149.386 221.801 149.684 221.827 149.968 221.84C150.103 221.84 150.238 221.84 150.373 221.854C150.86 221.88 151.346 221.893 151.833 221.919C153.104 221.985 154.374 222.076 155.645 222.181C155.915 222.207 156.185 222.22 156.442 222.246C156.645 222.26 156.861 222.286 157.064 222.299C157.159 222.299 157.253 222.312 157.348 222.325C157.429 222.325 157.51 222.338 157.591 222.351C157.78 222.364 157.983 222.391 158.172 222.417C158.591 222.456 159.01 222.508 159.429 222.561C159.565 222.574 159.713 222.6 159.848 222.613C160.038 222.639 160.227 222.666 160.416 222.692C160.524 222.705 160.646 222.718 160.754 222.744C160.862 222.757 160.984 222.77 161.092 222.797C161.295 222.823 161.497 222.849 161.7 222.875C161.714 222.875 161.727 222.875 161.741 222.875C161.93 222.901 162.119 222.928 162.295 222.967C162.295 222.967 162.308 222.967 162.322 222.967C162.363 222.967 162.417 222.967 162.457 222.993C162.457 222.993 162.457 222.993 162.471 222.993C162.687 223.032 162.89 223.059 163.106 223.098C163.106 223.098 163.133 223.098 163.146 223.098C163.174 223.098 163.201 223.098 163.228 223.098C163.241 223.098 163.255 223.098 163.282 223.098C163.457 223.124 163.62 223.163 163.795 223.19C165.39 223.478 166.958 223.831 168.513 224.264C171.432 225.089 174.257 226.215 176.798 227.774C180.042 229.752 182.948 232.162 185.584 234.834C187.112 236.393 188.544 238.031 189.896 239.733C189.896 239.838 189.896 239.943 189.896 240.048C189.896 240.336 189.896 240.611 189.896 240.899C189.882 251.876 186.517 262.551 183.692 273.175L183.746 273.253Z" fill="#FFB469"/>
<path d="M156.037 229.764C153.009 232.017 149.441 234.283 145.953 235.37C145.169 235.619 144.385 235.815 143.574 235.946C142.669 236.09 142.479 236.116 141.587 236.09C140.249 236.064 138.938 235.763 137.951 235.265C134.842 233.654 133.004 230.497 131.68 227.209C130.896 225.258 130.287 223.214 129.801 221.145C130.896 221.21 131.99 221.289 133.072 221.341C140.601 221.747 148.143 221.59 155.658 222.232C158.334 222.454 161.092 222.769 163.822 223.267C161.335 225.559 158.754 227.746 156.037 229.764Z" fill="#FFB469"/>
<path d="M157.079 226.635C159.647 225.547 163.378 223.596 162.999 220.36C162.594 216.928 157.768 215.972 154.335 216.889C149.469 218.186 145.198 221.474 142.805 225.77C145.306 223.543 145.644 219.876 144.265 216.863C142.616 213.235 135.479 209.501 133.56 214.924C132.005 219.299 134.871 224.224 137.101 227.866L157.065 226.635H157.079Z" fill="#FFB469"/>
<path d="M148.943 208.926C144.239 208.193 140.968 204.132 141.684 199.914L143.55 188.794C144.253 184.576 148.686 181.733 153.376 182.467C158.08 183.2 161.351 187.261 160.635 191.479L158.769 202.6C158.067 206.818 153.633 209.66 148.943 208.926Z" fill="#F3725F"/>
<path d="M163.608 199.087C163.338 200.725 161.743 201.825 160.067 201.563C158.378 201.301 157.242 199.755 157.512 198.131C157.783 196.507 159.378 195.393 161.054 195.655C162.73 195.917 163.879 197.463 163.608 199.087Z" fill="#F3725F"/>
<path d="M144.171 195.759C143.901 197.397 142.306 198.497 140.63 198.235C138.94 197.973 137.805 196.428 138.075 194.803C138.345 193.166 139.94 192.066 141.616 192.328C143.306 192.59 144.441 194.135 144.171 195.759Z" fill="#F3725F"/>
<path d="M151.09 234.678C149.239 232.648 147.09 230.945 144.886 229.334C120.84 211.768 92.5767 228.338 66.4625 223.492C57.2577 222.365 47.9987 221.671 38.7668 220.715C38.3478 221.632 37.9288 222.549 37.5233 223.466C36.023 226.806 34.5496 230.159 33.0898 233.512C44.2546 238.935 55.2031 244.843 65.8137 251.235C89.8058 252.545 144.535 252.571 151.09 234.678Z" fill="#FFB469"/>
<path d="M10.342 215.592C10.9368 213.994 17.9654 217.02 17.9654 217.02C17.9654 217.02 9.07147 212.514 9.30125 211.23C9.6662 209.2 19.6956 214.479 19.6956 214.479C19.6956 214.479 8.92279 208.466 10.342 206.672C11.7478 204.877 21.7096 212.003 21.7096 212.003C21.7096 212.003 12.775 204.746 14.2484 203.41C15.7352 202.074 26.8864 211.872 26.8864 211.872C26.8864 211.872 25.7781 204.576 27.292 204.262C29.8601 203.725 32.8879 219.142 32.8879 219.142L27.9948 226.32C27.9948 226.32 9.73379 217.203 10.342 215.605V215.592Z" fill="#F3725F"/>
<path d="M26.5332 220.204C24.0055 219.418 22.0051 217.283 21.6536 214.715C21.5996 214.362 21.1265 214.165 20.8021 214.244C20.4101 214.349 20.2749 214.702 20.3155 215.069C20.7345 218.095 23.2216 220.57 26.1547 221.487C27.0062 221.749 27.3577 220.466 26.5196 220.204H26.5332Z" fill="#D6594C"/>
<path d="M27.9961 226.307L36.1196 229.778L39.7286 220.989L31.2131 218.316L27.9961 226.307Z" fill="#F3725F"/>
<path d="M174.368 257.337C173.233 254.861 172.53 252.268 171.935 249.648C165.461 221.158 192.751 203.134 199.077 178.116C201.848 169.536 205.051 161.087 207.984 152.547C209.012 152.56 210.052 152.573 211.08 152.586C214.837 152.652 218.595 152.743 222.352 152.848C222.799 164.951 223.799 177.042 225.38 189.066C216.635 210.758 193.9 259.001 174.368 257.337Z" fill="#FFB469"/>
<path d="M215.014 125.355C213.271 125.224 213.19 132.664 213.19 132.664C213.19 132.664 212.662 122.958 211.365 122.617C209.31 122.093 210.094 133.136 210.094 133.136C210.094 133.136 208.932 121.15 206.661 121.648C204.39 122.146 206.931 133.882 206.931 133.882C206.931 133.882 203.836 122.984 201.971 123.731C200.105 124.477 204.661 138.388 204.661 138.388C204.661 138.388 198.267 134.367 197.348 135.572C195.78 137.615 208.986 146.693 208.986 146.693L217.758 145.357C217.758 145.357 216.799 125.473 215.055 125.342L215.014 125.355Z" fill="#F3725F"/>
<path d="M213.973 141.651C214.338 138.651 212.932 135.507 210.283 133.883C209.526 133.425 208.837 134.577 209.594 135.036C211.865 136.424 212.905 139.136 212.608 141.664C212.567 142.017 212.959 142.332 213.297 142.332C213.703 142.332 213.946 142.031 213.987 141.664L213.973 141.651Z" fill="#D6594C"/>
<path d="M217.715 145.371L217.593 153.977L207.848 153.493L208.888 144.887L217.715 145.371Z" fill="#F3725F"/>
<path d="M101.066 317.961L170.15 321.707" stroke="#B79369" stroke-width="1.41" stroke-linecap="round" stroke-linejoin="round"/>
<path d="M49.255 18.8626C49.9849 17.7099 86.8719 -18.6261 139.871 12.6931C175.514 33.769 193.167 75.1611 172.716 107.633C158.51 130.202 132.464 133.765 103.7 129.731C93.441 128.408 89.1427 134.721 84.3713 142.319L76.2478 155.221L37.0359 132.049L52.8369 106.939C59.2168 96.8003 64.9073 88.797 79.8027 88.4433C99.9561 88.0241 113.932 95.3464 124.232 78.9991C131.193 67.9437 127.557 55.0545 116.865 48.7409C99.7533 38.6287 82.7358 47.5227 73.8959 55.8929L49.255 18.8888V18.8626ZM59.0816 199.102C49.9444 213.615 30.4398 218.2 15.22 209.201C0.243532 200.346 -4.48731 181.445 4.64997 166.931C13.9224 152.195 33.4405 147.61 48.417 156.452C63.6232 165.438 68.3541 184.353 59.0816 199.089V199.102Z" fill="#FFD36A"/>
</svg>
