<svg width="243" height="579" viewBox="0 0 243 579" fill="none" xmlns="http://www.w3.org/2000/svg">
<g clip-path="url(#clip0_666_2829)">
<path d="M120.444 240.631C120.076 239.794 119.691 238.957 119.289 238.137C119.674 238.974 120.059 239.811 120.444 240.631Z" fill="#FFBF80"/>
<path d="M213.771 224.94C215.161 220.922 215.897 216.82 215.261 212.534C214.826 209.637 213.804 206.992 212.331 204.598C209.836 200.546 206.103 197.214 201.834 194.586C198.92 192.794 195.773 191.321 192.625 190.182C192.173 190.015 191.704 189.864 191.252 189.697C188.825 188.893 186.364 188.207 183.869 187.638C172.718 185.11 161.032 184.992 149.831 187.253C145.763 188.073 141.745 189.211 137.844 190.668C131.381 193.079 125.856 197.332 121.872 202.756C118.674 207.109 116.464 212.232 115.543 217.774C115.091 220.453 115.057 222.931 115.309 225.258C115.359 225.71 115.426 226.162 115.493 226.614C115.961 226.648 116.43 226.865 116.782 227.351C120.666 232.591 123.613 238.451 125.722 244.646C125.823 244.947 125.923 245.265 126.024 245.583C126.208 245.717 126.375 245.868 126.492 246.086C130.243 252.682 132.068 259.747 133.005 267.03C134.964 274.715 136.119 282.584 136.823 290.503C136.906 290.704 136.957 290.922 136.957 291.19C136.957 291.441 136.957 291.692 136.957 291.943C137.375 296.882 137.626 301.838 137.81 306.794C137.877 306.794 137.961 306.794 138.028 306.81C155.842 308.501 173.857 307.832 191.487 304.835C194.919 304.249 198.435 303.546 201.298 301.537C207.626 297.15 208.664 288.143 207.325 280.357C207.241 279.889 207.158 279.42 207.057 278.968C205.333 270.898 201.8 263.012 202.353 254.775C203.056 244.194 210.389 234.784 213.788 224.94H213.771Z" fill="#FF9216"/>
<path d="M185.644 188.77C178.311 184.702 173.891 166.637 175.414 158.266L160.882 167.223C161.066 173.049 157.65 177.185 154.503 182.04C152.862 184.568 150.903 187.213 148.023 188.034C152.176 193.676 159.358 196.505 166.273 196.673C173.204 196.857 181.224 194.178 185.644 188.754V188.77Z" fill="#F3725F"/>
<path d="M153.965 182.831C158.234 182.06 162.554 180.654 165.819 177.707C168.882 174.945 170.59 171.195 171.511 167.227H160.879C161.064 173.053 157.648 177.188 154.501 182.044C154.333 182.312 154.166 182.563 153.982 182.831H153.965Z" fill="#2D1A14"/>
<path d="M199.635 541.275C198.664 547.503 201.962 554.183 207.471 557.096C211.204 559.072 215.541 559.373 219.592 560.512C227.495 562.755 234.376 568.464 238.109 575.898H184.617V540.789L199.635 541.275Z" fill="#F2E9E2"/>
<path d="M220.814 559.974C219.91 559.723 218.973 559.506 218.052 559.305C214.285 565.684 207.638 568.547 200.271 567.592C194.512 566.839 189.272 564.461 184.617 561.096V575.896H239.984C236.134 568.212 229.001 562.285 220.814 559.974Z" fill="#F2E9E2"/>
<path d="M136.07 538.078C137.125 544.825 133.542 552.058 127.582 555.222C123.547 557.365 118.842 557.683 114.456 558.922C105.901 561.35 98.4334 567.544 94.3984 575.597H152.344V537.559L136.07 538.078Z" fill="#F2E9E2"/>
<path d="M114.456 558.918C118.842 557.679 123.547 557.361 127.582 555.218C127.749 555.134 127.9 555.034 128.068 554.934C136.338 560.877 144.525 561.045 152.344 558.148V575.594H94.3984C98.4334 567.541 105.901 561.346 114.456 558.918Z" fill="#EFDECE"/>
<path d="M154.035 540.87C155.09 524.094 165.654 343.996 164.7 327.22L137.427 306.426C109.55 339.609 128.754 522.186 129.474 540.686L154.052 540.87H154.035Z" fill="#241624"/>
<path d="M205.63 542.345C205.664 520.931 221.87 360.438 201.16 303.195L166.52 321.311C166.235 340.397 180.466 523.057 182.727 541.993L205.647 542.361L205.63 542.345Z" fill="#241624"/>
<path d="M137.226 303.795L201.283 301.535C201.283 301.535 209.52 334.451 210.106 352.968L169.187 363.583H163.512L124.652 349.553C124.652 349.553 128.587 314.36 137.226 303.779V303.795Z" fill="#241624"/>
<path d="M130.961 242.184L129.689 288.46C129.555 293.248 131.983 297.718 136.034 300.179L140.521 302.892L148.591 296.814L143.518 256.448L130.978 242.184H130.961Z" fill="#FF9216"/>
<path d="M200.41 306.221H139.166C137.442 306.221 136.035 304.782 136.035 303.04C136.035 301.282 137.442 299.859 139.166 299.859H200.41C202.134 299.859 203.541 301.299 203.541 303.04C203.541 304.798 202.134 306.221 200.41 306.221Z" fill="#241624"/>
<path d="M164.732 172.769C159.09 172.769 154.469 168.081 154.469 162.338V147.22C154.469 141.477 159.09 136.789 164.732 136.789C170.374 136.789 174.995 141.477 174.995 147.22V162.338C174.995 168.081 170.374 172.769 164.732 172.769Z" fill="#F3725F"/>
<path d="M177.006 162.49C179.188 162.49 180.957 160.691 180.957 158.471C180.957 156.252 179.188 154.453 177.006 154.453C174.824 154.453 173.055 156.252 173.055 158.471C173.055 160.691 174.824 162.49 177.006 162.49Z" fill="#F3725F"/>
<path d="M155.355 358.762C155.355 358.762 167.561 368.355 180.553 358.762" stroke="#CCCCCC" stroke-width="1.99235" stroke-linecap="round" stroke-linejoin="round"/>
<path d="M154.465 563.992C154.465 563.992 131.796 564.243 126.02 574.038" stroke="#E0C7B3" stroke-width="2.91319" stroke-linecap="round" stroke-linejoin="round"/>
<path d="M119.222 556.073L127.811 562.418C128.531 562.954 129.535 562.786 130.054 562.066C130.573 561.346 130.406 560.308 129.703 559.789L121.114 553.444C120.394 552.908 119.389 553.076 118.87 553.796C118.351 554.515 118.502 555.554 119.222 556.073Z" fill="#E0C7B3"/>
<path d="M112.816 558.834L121.405 565.18C122.124 565.715 123.129 565.548 123.648 564.828C124.167 564.108 124.016 563.07 123.296 562.551L114.708 556.206C113.988 555.67 112.983 555.837 112.464 556.557C111.945 557.277 112.096 558.315 112.816 558.834Z" fill="#E0C7B3"/>
<path d="M200.529 542.129C201.299 547.252 204.463 552.04 209 554.468C213.035 556.611 217.74 556.929 222.126 558.168C230.682 560.596 238.149 566.791 242.184 574.844H184.238V542.129H200.529Z" fill="#F2E9E2"/>
<path d="M222.126 558.168C217.74 556.929 213.035 556.611 209 554.468C208.833 554.385 208.682 554.284 208.515 554.184C200.244 560.127 192.057 560.295 184.238 557.398V574.844H242.184C238.149 566.791 230.682 560.596 222.126 558.168Z" fill="#EFDECE"/>
<path d="M185.574 563.254C185.574 563.254 208.244 563.505 214.02 573.299" stroke="#E0C7B3" stroke-width="2.91319" stroke-linecap="round" stroke-linejoin="round"/>
<path d="M240.112 579.007H185.615C184.025 579.007 182.719 577.684 182.719 576.06C182.719 574.436 184.025 573.113 185.615 573.113H240.112C241.702 573.113 243.008 574.436 243.008 576.06C243.008 577.684 241.702 579.007 240.112 579.007Z" fill="#E0C7B3"/>
<path d="M217.358 555.319L208.769 561.664C208.049 562.2 207.045 562.032 206.526 561.312C206.007 560.593 206.174 559.554 206.877 559.035L215.466 552.69C216.186 552.154 217.191 552.322 217.71 553.042C218.229 553.762 218.078 554.8 217.358 555.319Z" fill="#E0C7B3"/>
<path d="M224.197 558.502L215.809 564.697C215.106 565.216 214.135 565.049 213.616 564.346C213.114 563.642 213.264 562.638 213.968 562.119L222.356 555.924C223.059 555.405 224.03 555.573 224.549 556.276C225.051 556.979 224.9 557.983 224.197 558.502Z" fill="#E0C7B3"/>
<path d="M187.666 241.264C181.555 256.265 170.02 267.968 155.236 274.162C154.349 274.531 153.964 273.074 154.834 272.706C169.082 266.746 180.333 255.327 186.226 240.862C186.595 239.974 188.034 240.359 187.666 241.264Z" fill="#DBC86A"/>
<path d="M142.111 203.023L140.989 197.23C140.822 196.326 139.951 195.74 139.064 195.924L131.58 197.415C130.693 197.582 130.123 198.469 130.291 199.373L131.413 205.166C131.58 206.07 132.451 206.656 133.338 206.472L140.822 204.982C141.709 204.815 142.278 203.927 142.111 203.023Z" fill="#E5AC73"/>
<path d="M59.922 212.849L84.0144 245.664L114.854 206.922C114.854 206.922 115.038 206.705 115.105 206.621C120.831 199.773 130.91 198.92 137.64 204.696C144.354 210.472 145.158 220.718 139.432 227.566L97.9608 277.14L96.4038 278.999C95.6002 279.953 94.6626 280.79 93.5911 281.51C87.3796 285.679 79.0419 283.954 74.9567 277.659L45.0547 227.281L59.922 212.833V212.849Z" fill="#FF9216"/>
<path d="M45.04 206.895C45.2744 205.422 45.5925 203.932 46.3794 202.676C46.9319 201.806 47.6853 201.069 48.4387 200.366C50.3474 198.541 52.256 196.733 54.1647 194.908C59.3046 194.858 65.0138 196.046 69.8691 197.737C69.9026 198.223 69.3836 198.524 68.9148 198.641C65.4156 199.545 61.4979 196.783 58.2833 198.474C60.125 198.474 61.9164 199.73 63.4232 200.818C63.9423 201.186 64.4278 201.655 64.6287 202.258C64.8631 202.961 64.6287 203.815 64.0595 204.3C63.4902 204.786 62.6363 204.87 61.9834 204.501C62.9377 205.556 62.5694 207.046 61.6988 208.185C60.8282 209.323 59.4218 209.926 58.0322 210.194C57.0778 211.801 54.8344 212.487 53.0429 212.052C54.3321 213.458 56.3412 215.133 58.0657 216.187C56.5421 218.9 54.0307 221.227 51.4524 223.186C49.8116 220.624 48.2211 218.18 46.6138 215.434C46.1618 214.664 45.6428 214.396 45.3246 213.559C44.5378 211.449 44.6884 209.122 45.04 206.895Z" fill="#F3725F"/>
<path d="M2.25596e-05 45.8109C-0.0167199 44.6222 9.27534 1.04161 61.8467 0.00357329C97.2235 -0.682867 129.269 21.8022 129.905 55.0528C130.357 78.1573 113.413 92.6396 90.9785 102.752C83.0259 106.452 82.9254 113.049 83.0761 120.834L83.3272 134.044L44.4178 134.797L43.9155 109.097C43.7146 98.7171 44.0159 90.2287 54.4967 83.1801C68.6943 73.7039 82.1218 72.7328 81.8037 55.9903C81.586 44.6724 72.9302 36.8202 62.3322 37.0211C45.3553 37.356 37.3859 51.654 34.975 61.8502L2.25596e-05 45.8109ZM91.665 174.226C91.9496 189.076 80.1629 201.348 65.0779 201.633C50.2274 201.918 37.9552 190.131 37.6705 175.28C37.3692 160.195 49.1726 147.923 64.0232 147.639C79.1081 147.337 91.3803 159.141 91.665 174.226Z" fill="#FF9216"/>
<path d="M147.852 129.373C144.654 133.625 147.919 139.87 151.184 143.085C154.75 146.601 159.99 148.158 164.996 147.839C165.8 152.628 170.17 155.608 175.025 155.809C175.511 150.652 175.394 145.211 174.456 140.121C173.903 137.108 172.765 134.077 170.521 131.968C166.135 127.849 152.975 123.563 148.221 128.921C148.087 129.071 147.969 129.205 147.852 129.356V129.373Z" fill="#241624"/>
<path d="M189.742 117.92C191.406 108.148 184.832 98.878 175.061 97.2147C165.289 95.5514 156.019 102.125 154.355 111.896C152.692 121.668 159.265 130.938 169.037 132.602C178.809 134.265 188.079 127.692 189.742 117.92Z" fill="#241624"/>
</g>
<defs>
<clipPath id="clip0_666_2829">
<rect width="243" height="579.004" fill="white"/>
</clipPath>
</defs>
</svg>
