<svg width="1437" height="917" viewBox="0 0 1437 917" fill="none" xmlns="http://www.w3.org/2000/svg">
<g clip-path="url(#clip0_398_1563)">
<path d="M1184.52 494.531L1174.52 492.406L1177.78 452L1192.54 455.136L1184.52 494.531Z" fill="#FFB7B7"/>
<path d="M770.205 718.29C1115.17 559.621 1846.63 572.228 770.488 474.293C498.886 449.576 370.783 437.237 323.433 412.419C221.136 358.801 857.931 353.519 1050.86 318.016" stroke="black" stroke-opacity="0.4" stroke-width="5" stroke-dasharray="40 40"/>
<path d="M818.325 184C1037.11 227 1922.04 216 1073.83 315.5" stroke="black" stroke-opacity="0.4" stroke-width="5" stroke-dasharray="40 40"/>
<path d="M1284.76 482.284L1275.17 485.877L1257.05 449.81L1271.2 444.508L1284.76 482.284Z" fill="#FFB7B7"/>
<path d="M1290.62 490.863L1259.7 502.449L1259.56 502.049C1258.39 498.789 1258.53 495.188 1259.96 492.037C1261.39 488.886 1263.98 486.444 1267.17 485.248L1286.06 478.172L1290.62 490.863Z" fill="#2F2E41"/>
<path d="M1238.39 213.169L1235.1 206.348L1206.72 220.694L1207.52 226.654L1202.08 233.864C1202.08 233.864 1192.9 238.931 1194.49 255.957L1196.1 272.131L1198.09 292.987L1183.31 344.406L1175.54 412.448L1169.9 467.309L1196.15 466.143L1220.67 376.899L1262.76 473.231L1291.94 465.695L1252.34 370.224L1247.51 330.21C1247.51 330.21 1250.92 308.952 1235.15 294.419L1237.69 286.772L1237.72 277.335L1246.24 232.348L1238.39 213.169Z" fill="#2F2E41"/>
<path opacity="0.2" d="M1238.79 310.473L1220.2 376.767L1221.14 377.042L1239.73 310.748L1238.79 310.473Z" fill="black"/>
<path d="M1237.24 293.156L1196.43 292.984L1196.41 297.239L1237.23 297.411L1237.24 293.156Z" fill="#3F3D56"/>
<path d="M1225.85 202.114C1236.63 196.151 1240.64 182.386 1234.8 171.37C1228.97 160.353 1215.49 156.257 1204.71 162.22C1193.92 168.183 1189.91 181.948 1195.75 192.964C1201.59 203.981 1215.07 208.077 1225.85 202.114Z" fill="#FFB7B7"/>
<path d="M1249.29 174.213C1260.14 174.259 1268.97 165.312 1269.01 154.23C1269.05 143.148 1260.3 134.127 1249.46 134.082C1238.6 134.036 1229.77 142.983 1229.73 154.065C1229.68 165.147 1238.44 174.167 1249.29 174.213Z" fill="#2F2E41"/>
<path d="M1274.3 152.105C1275.07 154.766 1275.29 157.561 1274.94 160.313C1274.59 163.064 1273.69 165.712 1272.29 168.089C1270.89 170.467 1269.02 172.522 1266.81 174.125C1264.59 175.729 1262.07 176.846 1259.42 177.405C1256.76 177.965 1254.02 177.955 1251.35 177.376C1248.7 176.797 1246.2 175.663 1243.98 174.043C1241.78 172.424 1239.93 170.355 1238.55 167.968C1237.17 165.58 1236.28 162.926 1235.96 160.172C1237.35 165.005 1240.46 169.128 1244.69 171.723C1248.91 174.318 1253.94 175.194 1258.77 174.178C1263.59 173.162 1267.88 170.329 1270.76 166.239C1273.63 162.15 1274.9 157.105 1274.3 152.105Z" fill="#2F2E41"/>
<path d="M1196.61 175.797C1196.01 180.981 1197.1 186.222 1199.72 190.707C1202.33 195.193 1206.33 198.672 1211.06 200.606C1215.81 202.54 1221.05 202.821 1225.97 201.406C1230.89 199.99 1235.21 196.957 1238.28 192.776C1241.33 188.595 1242.96 183.5 1242.9 178.281C1242.83 173.061 1241.09 168.008 1237.92 163.905C1234.77 159.802 1230.38 156.877 1225.42 155.585C1220.47 154.292 1215.24 154.704 1210.54 156.756C1206.68 153.544 1201.86 154.514 1197.94 157.87C1193.5 161.665 1192.18 164.279 1188.73 170.536C1192.09 171.034 1193.24 175.299 1196.61 175.797Z" fill="#2F2E41"/>
<path d="M1277.94 244.345C1277.67 251.066 1277.13 264.295 1277.12 264.97C1277.12 265.682 1267.21 286.409 1262.94 295.329V295.334C1262.63 295.963 1262.36 296.533 1262.12 297.035C1261.79 297.727 1261.27 298.308 1260.62 298.708C1259.98 299.109 1259.24 299.312 1258.48 299.295L1239.95 298.877C1238.93 298.855 1237.96 298.431 1237.24 297.695C1236.52 296.959 1236.1 295.967 1236.08 294.926L1234.35 211.603C1234.34 211.329 1234.39 211.055 1234.49 210.8C1234.6 210.545 1234.74 210.312 1234.93 210.116C1235.12 209.92 1235.34 209.764 1235.6 209.659C1235.84 209.553 1236.1 209.499 1236.38 209.5L1260.28 209.6C1261.29 209.605 1262.28 209.9 1263.13 210.452C1263.98 211.004 1264.67 211.79 1265.11 212.721L1276.48 237.019C1277.55 239.302 1278.05 241.818 1277.94 244.345Z" fill="#F98C37"/>
<path d="M1235.78 289.21C1231.04 286.245 1226.78 282.537 1223.16 278.221C1214.75 268.481 1209.66 256.217 1208.67 243.272C1207.77 232.195 1209.95 223.974 1215.16 218.836C1221.77 212.305 1230.73 213.296 1231.11 213.341L1231.51 213.389L1237.57 218.667L1235.84 220.736L1230.43 216.013C1228.76 215.921 1221.97 215.874 1216.99 220.813C1212.4 225.359 1210.49 232.84 1211.32 243.047C1212.27 255.373 1217.1 267.053 1225.09 276.342C1228.54 280.447 1232.58 283.986 1237.08 286.833L1235.78 289.21Z" fill="#F98C37"/>
<path d="M1270.4 257.699L1237.99 264.358L1238.16 265.247L1270.58 258.587L1270.4 257.699Z" fill="#3F3D56"/>
<path d="M1249.25 209.535L1248.37 209.568L1250.26 262.227L1251.15 262.194L1249.25 209.535Z" fill="#3F3D56"/>
<path d="M1277.95 244.35C1277.67 251.071 1277.13 264.299 1277.12 264.975C1277.12 265.686 1267.21 286.413 1262.94 295.334L1271.03 248.468C1271.34 246.665 1272.13 244.979 1273.28 243.583C1274.45 242.187 1275.94 241.131 1277.64 240.523C1277.9 241.78 1278 243.066 1277.95 244.35Z" fill="#3F3D56"/>
<path d="M1228.98 342.432C1229.68 341.513 1230.17 340.448 1230.44 339.311C1230.69 338.175 1230.7 336.995 1230.47 335.854C1230.23 334.713 1229.75 333.639 1229.06 332.708C1228.37 331.777 1227.49 331.011 1226.48 330.464L1228.17 312.312L1217.61 308.578L1215.6 334.247C1214.8 336.039 1214.7 338.064 1215.27 339.937C1215.85 341.811 1217.07 343.402 1218.73 344.411C1220.37 345.42 1222.33 345.776 1224.22 345.411C1226.11 345.046 1227.8 343.986 1228.98 342.432Z" fill="#FFB7B7"/>
<path d="M1230.43 324.866L1211.71 324.094L1212.87 231.876C1212.87 229.266 1213.67 226.721 1215.17 224.602C1216.65 222.482 1218.76 220.894 1221.18 220.062C1223.44 219.305 1225.88 219.313 1228.14 220.085C1230.7 220.983 1232.89 222.726 1234.38 225.04C1235.86 227.353 1236.54 230.105 1236.33 232.862L1230.43 324.866Z" fill="#CBCBCB"/>
<path d="M1186.05 500.519L1153.12 500.518V500.092C1153.12 496.62 1154.47 493.29 1156.88 490.835C1159.28 488.38 1162.54 487 1165.94 487L1186.05 487.001V500.519Z" fill="#2F2E41"/>
<path d="M1330.2 544.132C1330.2 544.132 1324.58 504.514 1368.68 484.703L1330.2 544.132Z" fill="#FF5C00"/>
<path d="M1328.34 544.184C1328.34 544.184 1324.31 517.96 1293.1 518.185L1328.34 544.184Z" fill="#FF5C00"/>
<path d="M330.132 421.322C330.174 422.733 327.312 424.178 322.173 425.338C317.033 426.499 310.04 427.279 302.731 427.508C293.317 427.803 285.582 427.054 280.023 426.182C277.276 425.746 274.782 425.254 272.574 424.713L271.678 424.489L271.267 424.384L270.526 424.184L269.891 424.005L269.144 423.782C268.644 423.63 268.379 423.45 268.373 423.257C268.367 423.065 268.622 422.868 269.11 422.686L269.844 422.416L270.814 422.078L271.194 421.952L272.022 421.684C274.307 420.954 276.921 420.259 279.826 419.608C285.325 418.391 292.997 417.158 302.411 416.863C309.72 416.634 316.748 416.975 321.946 417.811C327.145 418.647 330.09 419.91 330.132 421.322ZM311.758 421.898C311.75 421.665 311.507 421.441 311.038 421.241C310.57 421.04 309.888 420.865 309.029 420.727C308.172 420.589 307.155 420.49 306.038 420.436C304.92 420.382 303.724 420.373 302.518 420.411C301.311 420.449 300.117 420.532 299.005 420.657C297.893 420.781 296.885 420.943 296.036 421.135C295.189 421.326 294.518 421.543 294.063 421.773C293.608 422.002 293.377 422.24 293.384 422.473C293.397 422.944 294.379 423.365 296.112 423.644C297.845 423.922 300.188 424.036 302.624 423.96C305.061 423.883 307.391 423.623 309.104 423.236C310.818 422.85 311.772 422.368 311.758 421.898Z" fill="black" fill-opacity="0.22"/>
<path d="M870.476 183.322C870.518 184.733 867.655 186.178 862.516 187.338C857.377 188.499 850.384 189.279 843.075 189.508C833.661 189.803 825.926 189.054 820.367 188.182C817.62 187.746 815.126 187.254 812.917 186.713L812.022 186.489L811.61 186.384L810.869 186.184L810.235 186.005L809.487 185.782C808.988 185.63 808.723 185.45 808.717 185.257C808.711 185.065 808.966 184.868 809.454 184.686L810.188 184.416L811.158 184.078L811.538 183.952L812.366 183.684C814.651 182.954 817.264 182.259 820.17 181.608C825.669 180.391 833.341 179.158 842.755 178.863C850.064 178.634 857.091 178.975 862.29 179.811C867.489 180.647 870.434 181.91 870.476 183.322ZM852.102 183.898C852.094 183.665 851.85 183.441 851.381 183.241C850.914 183.04 850.231 182.865 849.373 182.727C848.515 182.589 847.498 182.49 846.381 182.436C845.263 182.382 844.067 182.373 842.861 182.411C841.654 182.449 840.461 182.532 839.349 182.657C838.237 182.781 837.229 182.943 836.38 183.135C835.532 183.326 834.862 183.543 834.407 183.773C833.951 184.002 833.72 184.24 833.727 184.473C833.741 184.944 834.723 185.365 836.455 185.644C838.189 185.922 840.532 186.036 842.968 185.96C845.404 185.883 847.735 185.623 849.448 185.236C851.161 184.85 852.116 184.368 852.102 183.898Z" fill="black" fill-opacity="0.22"/>
<path d="M745.179 721.322C745.221 722.733 742.359 724.178 737.219 725.338C732.08 726.499 725.087 727.279 717.778 727.508C708.364 727.803 700.629 727.054 695.07 726.182C692.323 725.746 689.829 725.254 687.62 724.713L686.725 724.489L686.314 724.384L685.573 724.184L684.938 724.005L684.19 723.782C683.691 723.63 683.426 723.45 683.42 723.257C683.414 723.065 683.669 722.868 684.157 722.686L684.891 722.416L685.861 722.078L686.241 721.952L687.069 721.684C689.354 720.954 691.968 720.259 694.873 719.608C700.372 718.391 708.044 717.158 717.458 716.863C724.767 716.634 731.794 716.975 736.993 717.811C742.192 718.647 745.137 719.91 745.179 721.322ZM726.805 721.898C726.797 721.665 726.553 721.441 726.085 721.241C725.617 721.04 724.934 720.865 724.076 720.727C723.218 720.589 722.201 720.49 721.084 720.436C719.967 720.382 718.77 720.373 717.564 720.411C716.357 720.449 715.164 720.532 714.052 720.657C712.94 720.781 711.932 720.943 711.083 721.135C710.235 721.326 709.565 721.543 709.11 721.773C708.655 722.002 708.424 722.24 708.43 722.473C708.444 722.944 709.426 723.365 711.159 723.644C712.892 723.922 715.235 724.036 717.671 723.96C720.108 723.883 722.438 723.623 724.151 723.236C725.864 722.85 726.819 722.368 726.805 721.898Z" fill="black" fill-opacity="0.22"/>
<g filter="url(#filter0_d_398_1563)">
<path d="M169.681 21.2399L194.798 0.293354C175.286 -1.95133 167.269 9.14467 163.988 17.9272C148.743 11.3271 132.149 19.9768 132.149 19.9768L182.403 39C179.868 31.9392 175.455 25.7784 169.681 21.2399Z" fill="#3F3D56"/>
</g>
<g filter="url(#filter1_d_398_1563)">
<path d="M37.5317 195.24L62.6485 174.293C43.1363 172.049 35.1191 183.145 31.838 191.927C16.5943 185.327 0 193.977 0 193.977L50.2539 213C47.7187 205.939 43.3056 199.778 37.5317 195.24Z" fill="#3F3D56"/>
</g>
<g filter="url(#filter2_d_398_1563)">
<path d="M302.809 117.24L327.926 96.2934C308.414 94.0487 300.397 105.145 297.116 113.927C281.871 107.327 265.277 115.977 265.277 115.977L315.531 135C312.996 127.939 308.583 121.778 302.809 117.24Z" fill="#3F3D56"/>
</g>
</g>
<defs>
<filter id="filter0_d_398_1563" x="132.149" y="0" width="71.6484" height="48" filterUnits="userSpaceOnUse" color-interpolation-filters="sRGB">
<feFlood flood-opacity="0" result="BackgroundImageFix"/>
<feColorMatrix in="SourceAlpha" type="matrix" values="0 0 0 0 0 0 0 0 0 0 0 0 0 0 0 0 0 0 127 0" result="hardAlpha"/>
<feOffset dx="5" dy="5"/>
<feGaussianBlur stdDeviation="2"/>
<feComposite in2="hardAlpha" operator="out"/>
<feColorMatrix type="matrix" values="0 0 0 0 0 0 0 0 0 0 0 0 0 0 0 0 0 0 0.25 0"/>
<feBlend mode="normal" in2="BackgroundImageFix" result="effect1_dropShadow_398_1563"/>
<feBlend mode="normal" in="SourceGraphic" in2="effect1_dropShadow_398_1563" result="shape"/>
</filter>
<filter id="filter1_d_398_1563" x="0" y="174" width="71.6484" height="48" filterUnits="userSpaceOnUse" color-interpolation-filters="sRGB">
<feFlood flood-opacity="0" result="BackgroundImageFix"/>
<feColorMatrix in="SourceAlpha" type="matrix" values="0 0 0 0 0 0 0 0 0 0 0 0 0 0 0 0 0 0 127 0" result="hardAlpha"/>
<feOffset dx="5" dy="5"/>
<feGaussianBlur stdDeviation="2"/>
<feComposite in2="hardAlpha" operator="out"/>
<feColorMatrix type="matrix" values="0 0 0 0 0 0 0 0 0 0 0 0 0 0 0 0 0 0 0.25 0"/>
<feBlend mode="normal" in2="BackgroundImageFix" result="effect1_dropShadow_398_1563"/>
<feBlend mode="normal" in="SourceGraphic" in2="effect1_dropShadow_398_1563" result="shape"/>
</filter>
<filter id="filter2_d_398_1563" x="265.277" y="96" width="71.6484" height="48" filterUnits="userSpaceOnUse" color-interpolation-filters="sRGB">
<feFlood flood-opacity="0" result="BackgroundImageFix"/>
<feColorMatrix in="SourceAlpha" type="matrix" values="0 0 0 0 0 0 0 0 0 0 0 0 0 0 0 0 0 0 127 0" result="hardAlpha"/>
<feOffset dx="5" dy="5"/>
<feGaussianBlur stdDeviation="2"/>
<feComposite in2="hardAlpha" operator="out"/>
<feColorMatrix type="matrix" values="0 0 0 0 0 0 0 0 0 0 0 0 0 0 0 0 0 0 0.25 0"/>
<feBlend mode="normal" in2="BackgroundImageFix" result="effect1_dropShadow_398_1563"/>
<feBlend mode="normal" in="SourceGraphic" in2="effect1_dropShadow_398_1563" result="shape"/>
</filter>
<clipPath id="clip0_398_1563">
<rect width="1437" height="917" fill="white"/>
</clipPath>
</defs>
</svg>
