<svg width="800" height="565" viewBox="0 0 800 565" fill="none" xmlns="http://www.w3.org/2000/svg">
<path d="M531.982 538.262C534.866 531.758 531.59 523.79 527.825 517.985C524.059 512.179 519.468 506.153 519.566 498.755C519.706 488.14 528.973 481.866 536.364 476.231C541.861 472.055 546.931 467.1 551.468 461.47C553.368 459.302 554.939 456.743 556.108 453.911C557.641 449.757 557.592 445.033 557.508 440.487C557.186 425.324 556.57 410.183 555.66 395.064" stroke="#F4F4F4" stroke-width="4" stroke-miterlimit="10"/>
<path d="M569.742 394.23C569.637 391.456 568.959 388.76 567.772 386.388C566.584 384.017 564.924 382.047 562.946 380.661L559.895 387.999L559.986 379.112C558.53 378.595 557.014 378.373 555.499 378.457C552.808 378.61 550.215 379.73 548.048 381.676C545.881 383.622 544.237 386.305 543.323 389.387C542.41 392.47 542.269 395.812 542.917 398.992C543.566 402.172 544.975 405.046 546.967 407.252C548.959 409.458 551.443 410.896 554.107 411.384C556.771 411.872 559.494 411.389 561.931 409.995C564.369 408.601 566.413 406.36 567.803 403.553C569.193 400.747 569.868 397.503 569.742 394.23Z" fill="#FFC250"/>
<path d="M545.456 506.374C544.027 509.751 541.686 512.428 538.827 513.956C535.968 515.483 532.764 515.769 529.752 514.765C526.74 513.76 524.104 511.527 522.285 508.439C520.466 505.351 519.576 501.597 519.763 497.806C519.95 494.014 521.203 490.416 523.312 487.615C525.421 484.814 528.258 482.98 531.347 482.421C534.436 481.861 537.589 482.611 540.278 484.543C542.966 486.476 545.027 489.474 546.114 493.035L537.603 501.453L546.982 498.798C546.978 501.435 546.455 504.033 545.456 506.374Z" fill="#FFC250"/>
<path d="M538.73 474.189C536.943 474.291 535.157 473.964 533.474 473.226C531.791 472.489 530.244 471.355 528.922 469.89C527.599 468.426 526.527 466.658 525.766 464.689C525.005 462.721 524.57 460.589 524.486 458.415C524.38 455.821 524.783 453.233 525.662 450.865C526.476 448.652 527.678 446.683 529.185 445.096C530.692 443.509 532.466 442.343 534.383 441.68L534.306 448.49L537.393 441.067C541.001 440.862 544.529 442.408 547.2 445.366C549.871 448.324 551.467 452.452 551.636 456.841C551.805 461.229 550.533 465.52 548.101 468.769C545.669 472.018 542.275 473.958 538.667 474.164L538.73 474.189Z" fill="#FFC250"/>
<path d="M571.794 447.433C569.986 447.579 568.172 447.285 566.459 446.568C564.745 445.852 563.167 444.726 561.815 443.259C560.463 441.791 559.366 440.01 558.587 438.02C557.808 436.031 557.363 433.872 557.279 431.671C557.194 429.469 557.471 427.269 558.094 425.2C558.716 423.13 559.672 421.233 560.905 419.618C562.138 418.003 563.624 416.703 565.275 415.795C566.926 414.887 568.709 414.388 570.52 414.328C573.066 414.177 575.594 414.906 577.813 416.431L575.405 424.449L580.361 418.669C583.02 421.618 584.609 425.73 584.777 430.102C584.839 431.635 584.721 433.171 584.427 434.664C583.75 438.174 582.15 441.32 579.87 443.624C577.59 445.928 574.755 447.266 571.794 447.433Z" fill="#FFC250"/>
<path opacity="0.1" d="M567.909 398.648C564.766 399.065 561.715 400.257 558.558 400.495C555.401 400.734 551.937 399.814 549.942 396.826C548.864 395.226 548.332 393.191 547.422 391.438C546.563 389.806 545.385 388.457 543.993 387.514C543.118 389.613 542.622 391.916 542.537 394.267C542.451 396.618 542.779 398.965 543.498 401.15C544.216 403.335 545.31 405.309 546.705 406.94C548.1 408.571 549.765 409.822 551.589 410.609C553.412 411.396 555.353 411.702 557.282 411.505C559.21 411.309 561.082 410.614 562.772 409.469C564.463 408.323 565.933 406.753 567.086 404.862C568.238 402.971 569.046 400.804 569.456 398.503C568.938 398.537 568.427 398.58 567.909 398.648Z" fill="white"/>
<path opacity="0.1" d="M571.793 447.433C569.446 447.564 567.111 446.954 565.015 445.663C562.919 444.373 561.132 442.445 559.829 440.068C558.525 437.69 557.749 434.943 557.575 432.094C557.402 429.244 557.837 426.388 558.838 423.803C559.917 424.692 560.846 425.825 561.574 427.14C562.547 428.919 563.135 430.979 564.276 432.613C566.376 435.652 570.022 436.64 573.305 436.461C576.587 436.282 579.765 435.141 583.041 434.758C583.496 434.707 583.958 434.673 584.44 434.656C583.764 438.17 582.162 441.32 579.88 443.626C577.597 445.932 574.758 447.269 571.793 447.433Z" fill="white"/>
<path opacity="0.1" d="M538.73 474.189C536.943 474.291 535.157 473.964 533.474 473.227C531.791 472.489 530.244 471.355 528.922 469.891C527.599 468.426 526.527 466.659 525.766 464.69C525.005 462.721 524.57 460.589 524.486 458.416C524.38 455.821 524.783 453.233 525.662 450.865C526.785 451.775 527.76 452.93 528.539 454.27C529.596 456.083 530.261 458.177 531.499 459.854C533.795 462.961 537.659 464.06 541.137 463.957C544.616 463.855 547.758 462.868 551.111 462.553C550.28 465.805 548.646 468.666 546.43 470.748C544.215 472.83 541.526 474.032 538.73 474.189Z" fill="white"/>
<path opacity="0.1" d="M545.456 506.375C543.871 510.164 541.149 513.066 537.854 514.482C534.559 515.898 530.942 515.719 527.752 513.983C524.562 512.246 522.043 509.085 520.716 505.153C519.389 501.221 519.356 496.819 520.623 492.857C521.744 493.755 522.751 494.848 523.611 496.101C524.906 498.025 525.76 500.204 527.258 501.991C530.058 505.311 534.537 506.682 538.541 506.809C540.851 506.832 543.16 506.687 545.456 506.375Z" fill="white"/>
<path d="M742.656 537.41C745.54 530.907 742.264 522.939 738.499 517.133C734.733 511.328 730.142 505.301 730.24 497.904C730.38 487.289 739.647 481.015 747.038 475.38C752.535 471.203 757.605 466.248 762.142 460.619C764.042 458.45 765.613 455.892 766.782 453.06C768.315 448.906 768.266 444.181 768.182 439.636C767.86 424.472 767.244 409.331 766.334 394.213" stroke="#F4F4F4" stroke-width="4" stroke-miterlimit="10"/>
<path d="M780.416 393.379C780.311 390.605 779.633 387.908 778.445 385.537C777.258 383.165 775.598 381.196 773.62 379.81L770.568 387.147L770.659 378.26C769.204 377.743 767.688 377.522 766.173 377.605C763.482 377.758 760.889 378.879 758.722 380.824C756.555 382.77 754.91 385.454 753.997 388.536C753.084 391.618 752.943 394.96 753.591 398.14C754.24 401.32 755.649 404.195 757.641 406.4C759.632 408.606 762.117 410.044 764.781 410.532C767.445 411.021 770.167 410.537 772.605 409.144C775.043 407.75 777.086 405.508 778.477 402.702C779.867 399.896 780.542 396.651 780.416 393.379Z" fill="#FFC250"/>
<path d="M756.13 505.524C754.7 508.901 752.36 511.578 749.501 513.106C746.642 514.634 743.437 514.919 740.426 513.915C737.414 512.911 734.777 510.677 732.959 507.59C731.14 504.502 730.25 500.748 730.437 496.956C730.624 493.165 731.877 489.567 733.986 486.765C736.095 483.964 738.932 482.13 742.021 481.571C745.11 481.012 748.263 481.761 750.952 483.694C753.64 485.626 755.701 488.624 756.788 492.185L748.277 500.604L757.655 497.948C757.652 500.585 757.128 503.183 756.13 505.524Z" fill="#FFC250"/>
<path d="M749.403 473.337C747.617 473.439 745.831 473.112 744.148 472.375C742.465 471.637 740.918 470.503 739.595 469.039C738.273 467.574 737.2 465.807 736.439 463.838C735.678 461.869 735.244 459.737 735.16 457.564C735.054 454.969 735.457 452.381 736.336 450.013C737.15 447.8 738.352 445.831 739.859 444.244C741.366 442.657 743.14 441.491 745.057 440.828L744.98 447.638L748.067 440.215H748.102C749.888 440.114 751.674 440.441 753.357 441.179C755.04 441.916 756.587 443.05 757.909 444.515C759.232 445.979 760.304 447.746 761.065 449.715C761.826 451.684 762.261 453.816 762.345 455.989C762.428 458.162 762.159 460.334 761.553 462.381C760.946 464.427 760.014 466.309 758.81 467.917C757.606 469.526 756.153 470.83 754.534 471.756C752.915 472.681 751.162 473.21 749.375 473.312L749.403 473.337Z" fill="#FFC250"/>
<path d="M782.467 446.584C780.659 446.73 778.845 446.436 777.132 445.719C775.418 445.002 773.839 443.877 772.488 442.409C771.136 440.941 770.039 439.161 769.26 437.171C768.481 435.181 768.036 433.022 767.951 430.821C767.867 428.62 768.144 426.42 768.767 424.35C769.389 422.281 770.345 420.383 771.578 418.768C772.811 417.153 774.297 415.854 775.947 414.945C777.598 414.037 779.382 413.538 781.193 413.478C783.738 413.328 786.267 414.057 788.486 415.581L786.078 423.6L791.034 417.82C793.693 420.768 795.282 424.88 795.45 429.252C795.512 430.785 795.394 432.322 795.1 433.815C794.423 437.325 792.823 440.47 790.543 442.774C788.263 445.079 785.428 446.416 782.467 446.584Z" fill="#FFC250"/>
<path opacity="0.1" d="M778.583 397.798C775.44 398.216 772.388 399.407 769.232 399.646C766.075 399.884 762.611 398.965 760.616 395.977C759.538 394.376 759.006 392.342 758.096 390.588C757.237 388.956 756.059 387.608 754.667 386.664C753.792 388.764 753.296 391.066 753.211 393.417C753.125 395.769 753.453 398.115 754.171 400.3C754.89 402.486 755.984 404.46 757.379 406.091C758.774 407.722 760.439 408.972 762.262 409.76C764.086 410.547 766.027 410.852 767.955 410.656C769.884 410.459 771.756 409.765 773.446 408.619C775.137 407.474 776.607 405.903 777.76 404.013C778.912 402.122 779.72 399.954 780.129 397.654C779.611 397.688 779.101 397.73 778.583 397.798Z" fill="white"/>
<path opacity="0.1" d="M782.467 446.582C780.12 446.712 777.785 446.102 775.689 444.812C773.592 443.521 771.806 441.594 770.502 439.216C769.199 436.839 768.423 434.092 768.249 431.242C768.076 428.392 768.51 425.536 769.511 422.951C770.591 423.841 771.52 424.973 772.248 426.288C773.221 428.067 773.809 430.127 774.95 431.762C777.05 434.801 780.696 435.788 783.979 435.609C787.261 435.43 790.439 434.29 793.714 433.907C794.169 433.856 794.631 433.822 795.114 433.805C794.438 437.319 792.836 440.468 790.553 442.774C788.271 445.081 785.431 446.417 782.467 446.582Z" fill="white"/>
<path opacity="0.1" d="M749.403 473.338C747.617 473.44 745.831 473.113 744.148 472.375C742.465 471.637 740.918 470.504 739.595 469.039C738.273 467.574 737.2 465.807 736.439 463.838C735.678 461.869 735.244 459.737 735.16 457.564C735.054 454.97 735.457 452.381 736.336 450.014C737.459 450.924 738.434 452.078 739.213 453.419C740.27 455.232 740.934 457.326 742.173 459.003C744.469 462.11 748.333 463.208 751.811 463.106C755.185 463.021 758.432 462.016 761.785 461.701C760.954 464.953 759.319 467.814 757.104 469.896C754.889 471.978 752.2 473.18 749.403 473.338Z" fill="white"/>
<path opacity="0.1" d="M756.13 505.524C754.545 509.312 751.823 512.214 748.528 513.63C745.233 515.046 741.616 514.868 738.426 513.131C735.236 511.395 732.717 508.234 731.39 504.301C730.063 500.369 730.03 495.967 731.297 492.006C732.418 492.903 733.425 493.996 734.285 495.249C735.58 497.173 736.434 499.352 737.932 501.14C740.731 504.46 745.211 505.83 749.214 505.958C751.525 505.981 753.834 505.836 756.13 505.524Z" fill="white"/>
<path d="M76.9416 526.346C74.058 519.842 77.3336 511.874 81.0991 506.069C84.8646 500.263 89.456 494.237 89.3581 486.839C89.2181 476.224 79.9512 469.95 72.5602 464.315C67.0632 460.139 61.9931 455.184 57.456 449.554C55.5561 447.386 53.9852 444.827 52.8156 441.995C51.2828 437.841 51.3318 433.117 51.4158 428.571C51.7378 413.408 52.3537 398.267 53.2636 383.148" stroke="#F4F4F4" stroke-width="4" stroke-miterlimit="10"/>
<path d="M39.1809 382.314C39.2861 379.54 39.9639 376.844 41.1516 374.472C42.3393 372.101 43.9988 370.131 45.977 368.745L49.0286 376.083L48.9377 367.196C50.3933 366.679 51.9091 366.457 53.4241 366.541C56.1149 366.694 58.7079 367.814 60.8752 369.76C63.0424 371.706 64.6867 374.389 65.5999 377.471C66.5132 380.554 66.6545 383.896 66.006 387.076C65.3575 390.256 63.9482 393.13 61.9564 395.336C59.9647 397.542 57.4799 398.98 54.8162 399.468C52.1525 399.956 49.4296 399.473 46.9918 398.079C44.5539 396.685 42.5107 394.444 41.1204 391.637C39.73 388.831 39.0551 385.587 39.1809 382.314Z" fill="#FFC250"/>
<path d="M63.4682 494.458C64.8973 497.835 67.2377 500.512 70.097 502.04C72.9562 503.567 76.1604 503.853 79.1722 502.849C82.1841 501.844 84.8204 499.611 86.6391 496.523C88.4578 493.435 89.3483 489.681 89.1613 485.89C88.9743 482.098 87.7212 478.5 85.612 475.699C83.5028 472.898 80.6659 471.064 77.577 470.505C74.488 469.945 71.3349 470.695 68.6463 472.627C65.9577 474.56 63.8972 477.558 62.8103 481.119L71.3212 489.537L61.9424 486.882C61.9463 489.519 62.4695 492.117 63.4682 494.458Z" fill="#FFC250"/>
<path d="M70.1938 462.271C71.9806 462.373 73.7664 462.046 75.4493 461.308C77.1321 460.571 78.679 459.437 80.0017 457.972C81.3243 456.508 82.3967 454.74 83.1578 452.771C83.9188 450.803 84.3535 448.671 84.437 446.497C84.5429 443.903 84.1399 441.315 83.2611 438.947C82.4475 436.734 81.245 434.765 79.7383 433.178C78.2316 431.591 76.4573 430.425 74.5402 429.762L74.6172 436.572L71.5306 429.149C67.922 428.944 64.3941 430.49 61.7229 433.448C59.0518 436.406 57.4563 440.534 57.2874 444.923C57.1185 449.312 58.39 453.602 60.8222 456.851C63.2544 460.1 66.6481 462.04 70.2568 462.246L70.1938 462.271Z" fill="#FFC250"/>
<path d="M37.1303 435.517C38.9383 435.663 40.7521 435.369 42.4655 434.652C44.179 433.936 45.7577 432.811 47.1093 431.343C48.4609 429.875 49.5583 428.094 50.3372 426.104C51.1161 424.115 51.5609 421.956 51.6456 419.755C51.7303 417.553 51.4532 415.353 50.8305 413.284C50.2078 411.214 49.252 409.317 48.019 407.702C46.786 406.087 45.3006 404.787 43.6496 403.879C41.9987 402.971 40.2154 402.472 38.4041 402.412C35.8704 402.269 33.3548 402.998 31.146 404.515L33.5537 412.533L28.5634 406.779C25.9088 409.721 24.3207 413.823 24.1469 418.186C24.0849 419.719 24.2027 421.255 24.4969 422.748C25.1742 426.258 26.7741 429.404 29.0539 431.708C31.3338 434.012 34.1692 435.35 37.1303 435.517Z" fill="#FFC250"/>
<path opacity="0.1" d="M41.0146 386.732C44.1572 387.149 47.2088 388.341 50.3654 388.579C53.522 388.818 56.9866 387.898 58.9813 384.91C60.0592 383.31 60.5911 381.275 61.501 379.522C62.3603 377.89 63.5385 376.541 64.9306 375.598C65.8049 377.697 66.3013 380 66.3866 382.351C66.472 384.702 66.1444 387.049 65.4257 389.234C64.707 391.419 63.6136 393.393 62.2185 395.024C60.8233 396.655 59.1584 397.906 57.3347 398.693C55.5109 399.48 53.5702 399.786 51.6417 399.589C49.7133 399.393 47.8415 398.698 46.1509 397.553C44.4604 396.407 42.9899 394.837 41.8376 392.946C40.6852 391.055 39.8773 388.888 39.4678 386.587C39.9857 386.621 40.4966 386.664 41.0146 386.732Z" fill="white"/>
<path opacity="0.1" d="M37.1308 435.515C39.4779 435.646 41.8128 435.036 43.9091 433.745C46.0054 432.455 47.7918 430.527 49.0953 428.15C50.3987 425.772 51.1749 423.025 51.3485 420.176C51.5221 417.326 51.0873 414.47 50.0862 411.885C49.0071 412.774 48.0781 413.907 47.3495 415.222C46.3767 417.001 45.7887 419.061 44.6479 420.695C42.5481 423.734 38.9016 424.722 35.619 424.543C32.3364 424.364 29.1588 423.223 25.8832 422.84C25.4283 422.789 24.9663 422.755 24.4834 422.738C25.1601 426.252 26.7615 429.402 29.0442 431.708C31.327 434.014 34.1663 435.351 37.1308 435.515Z" fill="white"/>
<path opacity="0.1" d="M70.1939 462.272C71.9808 462.373 73.7666 462.046 75.4495 461.309C77.1323 460.571 78.6792 459.437 80.0019 457.973C81.3245 456.508 82.3969 454.741 83.158 452.772C83.919 450.803 84.3536 448.671 84.4372 446.498C84.5431 443.903 84.1401 441.315 83.2613 438.947C82.1383 439.857 81.163 441.012 80.3847 442.352C79.3278 444.165 78.6629 446.259 77.424 447.936C75.1283 451.044 71.2648 452.142 67.7863 452.039C64.4127 451.954 61.1651 450.95 57.8125 450.635C58.6435 453.887 60.2778 456.748 62.4931 458.83C64.7084 460.912 67.3973 462.114 70.1939 462.272Z" fill="white"/>
<path opacity="0.1" d="M63.4678 494.457C65.0527 498.246 67.7743 501.148 71.0694 502.564C74.3646 503.98 77.9813 503.801 81.1712 502.065C84.361 500.328 86.8801 497.167 88.2071 493.235C89.5342 489.303 89.5677 484.901 88.3007 480.939C87.1794 481.837 86.1724 482.93 85.312 484.183C84.0172 486.107 83.1633 488.286 81.6655 490.073C78.8658 493.393 74.3864 494.764 70.3829 494.891C68.0728 494.914 65.7637 494.769 63.4678 494.457Z" fill="white"/>
<path d="M471.391 446.574C471.404 444.51 471.02 442.471 470.269 440.62C469.518 438.77 468.421 437.159 467.066 435.916C466.898 428.11 462.32 421.734 456.434 420.747C455.979 418.095 454.959 415.635 453.474 413.615C451.99 411.594 450.095 410.085 447.979 409.238C447.464 409.04 446.938 408.889 446.404 408.787H446.25L445.977 408.744H445.746H445.515H445.214H445.033H444.536C438.53 408.744 433.533 414.328 432.504 421.692C428.62 420.602 425.057 422.015 424.42 425.003C424.256 425.795 424.292 426.629 424.525 427.395C425.183 429.71 427.325 431.924 430.229 433.022L430.607 433.158C430.796 433.226 430.985 433.277 431.174 433.328H431.3C430.232 436.097 430.081 439.26 430.877 442.161C431.673 445.062 433.356 447.48 435.577 448.915C435.489 448.973 435.405 449.038 435.325 449.11C434.966 449.511 434.68 449.998 434.485 450.54C433.783 452.038 433.238 453.637 432.861 455.299C432.581 456.721 432.532 458.21 432.161 459.615C431.524 462.169 429.886 464.407 429.697 467.123C429.613 468.332 429.774 469.753 429.068 470.579C428.892 470.763 428.704 470.931 428.508 471.081C428.012 471.494 427.592 472.027 427.276 472.647C427.069 473.161 426.792 473.627 426.457 474.026C425.82 474.614 424.77 474.554 424.455 475.457C424.14 476.359 424.952 477.423 424.763 478.41C424.609 479.211 423.888 479.577 423.363 480.113C422.776 480.887 422.366 481.835 422.173 482.862C421.128 483.108 420.051 483.069 419.019 482.75C417.987 482.431 417.025 481.838 416.203 481.015C416.485 481.892 416.691 482.802 416.819 483.731C415.986 482.65 414.614 482.335 413.599 481.773C412.29 481.043 411.122 479.988 410.17 478.674L412.004 478.368L403.885 463.386L401.491 462.79L403.64 467.804C403.464 467.907 403.309 468.056 403.188 468.242C403.067 468.428 402.982 468.645 402.94 468.876C402.824 469.432 402.796 470.01 402.856 470.579C402.97 471.923 403.154 473.256 403.409 474.571L404.032 478.095C404.084 478.426 404.152 478.753 404.235 479.074C403.423 479.039 402.611 479.151 401.827 479.406C400.218 478.682 398.542 478.199 396.837 477.968C396.461 477.888 396.076 477.911 395.71 478.036C395.294 478.269 394.933 478.627 394.66 479.074C393.26 481.043 392.018 483.169 390.95 485.425C386.59 494.652 380.767 502.705 375.314 511.047C371.549 512.912 367.755 514.682 363.955 516.436L355.787 520.224C354.156 520.981 352.462 521.756 350.726 521.62C349.942 521.56 348.991 521.416 348.55 522.224C348.335 522.625 348.168 523.061 348.053 523.518C347.766 523.518 347.479 523.603 347.213 523.62H347.164C346.646 522.054 346.198 520.377 345.204 519.236C345.004 519.274 344.815 519.371 344.653 519.52C344.492 519.668 344.364 519.864 344.28 520.088C344.084 520.53 343.965 521.015 343.741 521.424C343.3 522.207 342.537 522.59 341.991 523.254C341.445 523.918 341.103 524.957 340.515 525.604C339.691 526.332 338.726 526.786 337.715 526.923C336.2 527.357 334.738 528.033 333.368 528.932C332.863 529.31 332.323 529.613 331.759 529.834C331.138 529.979 330.503 530.005 329.876 529.911L325.55 529.528C325.166 529.467 324.775 529.487 324.396 529.588C323.95 529.786 323.571 530.159 323.318 530.647C323.065 531.135 322.951 531.711 322.996 532.286C323.048 532.856 323.197 533.407 323.432 533.905C323.666 534.403 323.982 534.837 324.361 535.18C325.111 535.85 325.942 536.375 326.824 536.738C330.583 538.509 334.458 539.89 338.408 540.867V541.931C341.146 543.608 344.168 544.482 347.234 544.484C347.46 544.506 347.686 544.456 347.892 544.34C348.175 544.081 348.371 543.706 348.445 543.284C349.362 539.946 349.943 536.484 350.173 532.976C350.714 532.933 351.243 532.769 351.734 532.49C353.225 531.997 354.702 533.239 356.235 533.444C358.124 533.691 359.881 532.354 361.666 531.528C361.925 531.409 362.184 531.307 362.443 531.205C361.934 532.006 361.333 532.714 360.658 533.308C359.916 533.954 359.083 534.431 358.355 535.104C357.75 535.776 357.102 536.388 356.417 536.934C355.933 537.208 355.435 537.441 354.926 537.632C354.187 537.96 353.482 538.391 352.826 538.917C352.238 539.339 351.739 539.922 351.37 540.62C351.184 540.946 351.07 541.324 351.038 541.719C351.006 542.113 351.058 542.512 351.189 542.875C351.319 543.239 351.524 543.555 351.784 543.795C352.043 544.035 352.349 544.191 352.672 544.246C353.257 544.372 353.853 544.392 354.443 544.306C356.781 544.093 359.111 543.829 361.442 543.574C362.429 543.494 363.409 543.323 364.375 543.063C364.886 542.91 365.389 542.705 365.9 542.544C366.772 542.264 367.666 542.101 368.567 542.058C368.829 542.033 369.092 542.065 369.344 542.152C369.89 542.365 370.275 543.003 370.828 543.174C371.187 543.216 371.549 543.155 371.885 542.995C373.591 542.544 375.332 542.319 377.078 542.322C377.841 542.271 378.737 542.092 379.094 541.233C379.528 540.169 378.8 538.977 378.513 537.828C378.367 537.097 378.287 536.349 378.275 535.597C378.142 533.743 377.704 531.939 376.987 530.294C376.606 529.526 376.285 528.717 376.028 527.877C379.373 526.329 382.573 524.355 385.575 521.986C387.297 520.684 389.075 519.279 391.02 518.802C393.288 518.249 395.626 518.981 397.858 519.764C403.177 521.636 408.408 523.855 413.529 526.412C415.979 527.63 418.429 528.924 420.935 529.817C421.667 531.02 422.553 532.071 423.559 532.933C425.239 534.252 427.29 534.635 429.263 534.823C431.93 535.119 434.607 535.241 437.285 535.189C439.328 535.146 441.435 534.976 443.262 533.844C443.708 533.565 444.128 533.228 444.515 532.839C445.914 533.146 447.349 532.235 448.448 531.069C449.902 529.564 450.951 527.562 451.458 525.323C452.102 522.25 451.605 518.666 453.159 516.155C453.571 515.482 454.11 514.938 454.516 514.257C455.016 513.345 455.262 512.261 455.216 511.167L455.286 511.039C455.638 510.051 455.873 509.008 455.986 507.94C456.17 507.106 456.404 506.29 456.686 505.497C457.475 503.122 458.162 500.698 458.744 498.236C459.148 496.603 459.466 494.939 459.696 493.256C459.864 491.911 459.962 490.558 460.053 489.204C460.165 487.086 460.504 484.994 461.061 482.982C462.442 478.179 463.223 473.152 463.377 468.068C463.377 467.966 463.377 467.872 463.377 467.77C465.409 467.499 467.285 466.316 468.638 464.452C469.99 462.588 470.723 460.177 470.691 457.691C470.693 456.193 470.436 454.71 469.935 453.341C470.901 451.28 471.403 448.946 471.391 446.574ZM431.811 505.063C431.93 505.582 432.07 506.102 432.21 506.621C431.566 505.846 430.929 505.046 430.278 504.28C430.537 504.374 430.796 504.476 431.048 504.586C431.317 504.716 431.574 504.875 431.818 505.063H431.811ZM428.676 502.509C424.854 498.474 420.431 495.342 416.518 491.443C418.618 492.728 420.718 494.218 422.817 495.648C425.262 497.351 427.735 498.979 430.236 500.534C429.826 501.292 429.304 501.95 428.697 502.475L428.676 502.509ZM430.306 492.345L430.488 492.116C430.488 492.686 430.488 493.222 430.488 493.707C430.145 493.571 429.788 493.435 429.459 493.282C429.762 492.982 430.047 492.658 430.313 492.311L430.306 492.345ZM396.662 503.275C398.235 501.111 399.604 498.738 400.742 496.202C402.254 499.428 404.718 501.752 406.817 504.45C403.444 503.871 400.063 503.42 396.669 503.241L396.662 503.275Z" fill="url(#paint0_linear_145_3438)"/>
<path d="M402.121 464.033L404.536 464.629L412.76 479.407L409.127 480.003L402.121 464.033Z" fill="#2F2E41"/>
<path d="M343.643 524.013C344.294 526.632 345.096 529.192 346.043 531.674C348.768 530.981 351.449 530.051 354.064 528.891C353.558 527.932 353.002 527.013 352.398 526.141C351.756 525.272 350.987 524.553 350.131 524.021C349.298 523.579 348.269 523.911 347.38 523.97C346.134 524.027 344.888 524.041 343.643 524.013Z" fill="#FBBEBE"/>
<path d="M350.145 527.961C348.788 527.442 347.955 525.774 347.402 524.165C346.849 522.556 346.401 520.802 345.351 519.619C345.151 519.657 344.962 519.755 344.801 519.903C344.64 520.052 344.511 520.247 344.427 520.47C344.224 520.896 344.105 521.381 343.874 521.79C343.44 522.556 342.67 522.93 342.117 523.586C341.564 524.241 341.221 525.237 340.627 525.893C339.801 526.615 338.837 527.066 337.827 527.204C336.301 527.624 334.828 528.288 333.445 529.179C332.934 529.539 332.389 529.825 331.822 530.03C331.196 530.175 330.557 530.2 329.925 530.107L325.564 529.723C325.177 529.665 324.784 529.688 324.403 529.792C323.958 529.98 323.579 530.344 323.325 530.825C323.071 531.307 322.958 531.878 323.003 532.447C323.061 533.015 323.215 533.562 323.456 534.052C323.697 534.543 324.019 534.968 324.403 535.299C325.161 535.958 325.996 536.475 326.88 536.831C330.679 538.569 334.588 539.927 338.569 540.892V541.939C341.335 543.604 344.378 544.478 347.465 544.493C347.704 544.518 347.945 544.469 348.165 544.348C348.448 544.095 348.647 543.726 348.725 543.309C349.771 539.59 350.381 535.71 350.537 531.783C350.618 530.791 350.556 529.788 350.355 528.821C350.117 527.868 350.929 528.268 350.173 527.893" fill="#2F2E41"/>
<path d="M433.743 507.975C420.815 508.928 408.049 504.314 395.101 503.821C393.494 503.702 391.881 503.828 390.299 504.195C388.651 504.733 387.055 505.486 385.54 506.443C378.604 510.367 371.423 513.619 364.248 516.87L356.017 520.599C354.366 521.339 352.665 522.097 350.908 521.969C350.124 521.91 349.165 521.765 348.717 522.565C347.381 524.974 348.017 528.524 348.899 531.231C349.186 532.082 349.669 533.061 350.439 533.163C350.984 533.118 351.517 532.954 352.014 532.678C353.512 532.193 355.01 533.419 356.549 533.614C358.46 533.861 360.231 532.542 362.03 531.733C365.011 530.397 368.273 530.439 371.409 529.801C376.672 528.737 381.543 525.766 386.107 522.378C387.842 521.093 389.606 519.714 391.594 519.245C393.883 518.701 396.241 519.416 398.488 520.19C403.844 522.034 409.117 524.219 414.285 526.736C416.975 528.158 419.733 529.38 422.544 530.397C428.671 532.359 435.152 531.9 441.05 529.086C443.15 528.09 445.361 526.336 445.48 523.621C445.55 522.072 444.563 520.71 443.905 519.365C443.479 518.513 443.059 517.662 442.597 516.853C440.371 512.904 437.669 507.685 433.743 507.975Z" fill="#2F2E41"/>
<path opacity="0.1" d="M433.743 507.975C420.815 508.928 408.049 504.314 395.101 503.821C393.494 503.702 391.881 503.828 390.299 504.195C388.651 504.733 387.055 505.486 385.54 506.443C378.604 510.367 371.423 513.619 364.248 516.87L356.017 520.599C354.366 521.339 352.665 522.097 350.908 521.969C350.124 521.91 349.165 521.765 348.717 522.565C347.381 524.974 348.017 528.524 348.899 531.231C349.186 532.082 349.669 533.061 350.439 533.163C350.984 533.118 351.517 532.954 352.014 532.678C353.512 532.193 355.01 533.419 356.549 533.614C358.46 533.861 360.231 532.542 362.03 531.733C365.011 530.397 368.273 530.439 371.409 529.801C376.672 528.737 381.543 525.766 386.107 522.378C387.842 521.093 389.606 519.714 391.594 519.245C393.883 518.701 396.241 519.416 398.488 520.19C403.844 522.034 409.117 524.219 414.285 526.736C416.975 528.158 419.733 529.38 422.544 530.397C428.671 532.359 435.152 531.9 441.05 529.086C443.15 528.09 445.361 526.336 445.48 523.621C445.55 522.072 444.563 520.71 443.905 519.365C443.479 518.513 443.059 517.662 442.597 516.853C440.371 512.904 437.669 507.685 433.743 507.975Z" fill="white"/>
<path d="M368.455 524.778C370.48 525.612 372.519 526.384 374.572 527.093C375.727 524.786 377.883 523.186 378.373 520.555C378.401 520.442 378.401 520.32 378.373 520.206C378.319 520.094 378.239 520.005 378.142 519.951C376.666 518.961 375.029 518.38 373.347 518.249C372.018 518.146 371.416 519.832 370.814 521.015C370.604 521.492 368.994 524.999 368.455 524.778Z" fill="#FBBEBE"/>
<path d="M371.303 523.094C370.699 522.971 370.122 522.697 369.61 522.288C369.098 521.879 368.661 521.344 368.329 520.719C368.042 520.114 367.741 519.297 367.167 519.339C366.593 519.382 366.397 520.148 366.278 520.787C365.89 523.171 365.331 525.51 364.605 527.775C363.874 530.047 362.635 532.026 361.029 533.487C360.28 534.117 359.447 534.594 358.712 535.258C358.099 535.922 357.444 536.526 356.752 537.063C356.265 537.334 355.762 537.561 355.247 537.744C354.493 538.064 353.772 538.49 353.099 539.012C352.508 539.432 352.007 540.016 351.636 540.714C351.457 541.069 351.351 541.472 351.33 541.887C351.308 542.303 351.369 542.718 351.51 543.098C351.661 543.406 351.863 543.673 352.104 543.879C352.346 544.086 352.62 544.229 352.91 544.298C353.5 544.417 354.1 544.435 354.694 544.349C357.053 544.136 359.405 543.881 361.756 543.626C362.752 543.551 363.742 543.386 364.717 543.132C365.235 542.979 365.739 542.774 366.25 542.613C367.132 542.339 368.035 542.18 368.945 542.136C369.208 542.112 369.474 542.143 369.728 542.23C370.274 542.442 370.659 543.081 371.219 543.234C371.58 543.28 371.944 543.221 372.283 543.064C374.004 542.621 375.759 542.398 377.519 542.4C378.288 542.349 379.198 542.17 379.548 541.327C379.989 540.28 379.261 539.106 378.967 537.982C378.822 537.262 378.74 536.526 378.722 535.786C378.59 533.957 378.149 532.18 377.428 530.567C376.826 529.222 376.028 527.741 376.427 526.311C376.641 525.865 376.777 525.369 376.826 524.856C376.728 522.549 372.367 523.4 371.303 523.094Z" fill="#2F2E41"/>
<path d="M414.362 482.761C412.072 481.531 410.237 479.315 409.21 476.538C409.001 475.942 408.819 475.321 408.616 474.716C407.934 472.718 406.88 470.941 405.536 469.524C405.392 469.331 405.216 469.179 405.019 469.078C404.822 468.976 404.609 468.928 404.395 468.936C404.188 469.011 404.002 469.152 403.854 469.343C403.706 469.535 403.603 469.77 403.555 470.026C403.435 470.581 403.404 471.159 403.464 471.729C403.584 473.05 403.771 474.36 404.024 475.653L404.654 479.126C404.734 479.659 404.865 480.18 405.046 480.675C405.315 481.258 405.671 481.774 406.096 482.199C406.67 482.846 407.251 483.467 407.839 484.072C408.163 484.428 408.517 484.742 408.896 485.008C409.517 485.366 410.18 485.602 410.862 485.706C413.431 486.285 416.042 487.119 418.204 489.111C418.204 489.111 418.204 486.787 418.155 486.557C418.129 485.884 417.939 485.235 417.609 484.693C416.798 483.629 415.398 483.314 414.362 482.761Z" fill="#FBBEBE"/>
<path opacity="0.1" d="M414.362 482.761C412.072 481.531 410.237 479.315 409.21 476.538C409.001 475.942 408.819 475.321 408.616 474.716C407.934 472.718 406.88 470.941 405.536 469.524C405.392 469.331 405.216 469.179 405.019 469.078C404.822 468.976 404.609 468.928 404.395 468.936C404.188 469.011 404.002 469.152 403.854 469.343C403.706 469.535 403.603 469.77 403.555 470.026C403.435 470.581 403.404 471.159 403.464 471.729C403.584 473.05 403.771 474.36 404.024 475.653L404.654 479.126C404.734 479.659 404.865 480.18 405.046 480.675C405.315 481.258 405.671 481.774 406.096 482.199C406.67 482.846 407.251 483.467 407.839 484.072C408.163 484.428 408.517 484.742 408.896 485.008C409.517 485.366 410.18 485.602 410.862 485.706C413.431 486.285 416.042 487.119 418.204 489.111C418.204 489.111 418.204 486.787 418.155 486.557C418.129 485.884 417.939 485.235 417.609 484.693C416.798 483.629 415.398 483.314 414.362 482.761Z" fill="white"/>
<path d="M440.679 456.201C442.414 456.201 443.821 454.479 443.821 452.354C443.821 450.229 442.414 448.506 440.679 448.506C438.943 448.506 437.536 450.229 437.536 452.354C437.536 454.479 438.943 456.201 440.679 456.201Z" fill="#2F2E41"/>
<path d="M438.734 450.03C437.89 449.796 437.004 449.951 436.249 450.464C435.886 450.855 435.597 451.337 435.402 451.877C434.695 453.347 434.145 454.921 433.764 456.559C433.484 457.964 433.435 459.428 433.064 460.816C432.42 463.369 430.769 465.54 430.58 468.204C430.496 469.396 430.657 470.801 429.943 471.609C429.765 471.79 429.576 471.953 429.376 472.095C428.879 472.5 428.457 473.028 428.137 473.644C427.923 474.197 427.626 474.696 427.262 475.117C426.618 475.696 425.561 475.636 425.246 476.53C424.931 477.424 425.743 478.462 425.554 479.432C425.4 480.224 424.672 480.59 424.154 481.135C423.564 481.895 423.151 482.832 422.958 483.85C421.906 484.091 420.824 484.052 419.787 483.736C418.749 483.42 417.779 482.835 416.945 482.02C417.82 484.651 417.841 487.553 417.876 490.388C417.977 491.295 417.778 492.213 417.323 492.942C419.829 493.01 422.265 493.793 424.707 494.5C425.752 494.925 426.882 494.925 427.927 494.5C428.485 494.134 428.986 493.649 429.404 493.069C430.734 491.427 432.126 489.664 432.448 487.375C432.534 486.086 432.552 484.793 432.504 483.501C432.633 481.907 432.903 480.335 433.309 478.811C434.012 475.648 434.481 472.414 434.709 469.149C434.856 467.132 436.284 465.515 437.04 463.71C438.44 460.305 439.909 456.772 440.021 452.959C440.119 451.716 439.769 450.192 438.734 450.03Z" fill="#2F2E41"/>
<path opacity="0.1" d="M438.734 450.03C437.89 449.796 437.004 449.951 436.249 450.464C435.886 450.855 435.597 451.337 435.402 451.877C434.695 453.347 434.145 454.921 433.764 456.559C433.484 457.964 433.435 459.428 433.064 460.816C432.42 463.369 430.769 465.54 430.58 468.204C430.496 469.396 430.657 470.801 429.943 471.609C429.765 471.79 429.576 471.953 429.376 472.095C428.879 472.5 428.457 473.028 428.137 473.644C427.923 474.197 427.626 474.696 427.262 475.117C426.618 475.696 425.561 475.636 425.246 476.53C424.931 477.424 425.743 478.462 425.554 479.432C425.4 480.224 424.672 480.59 424.154 481.135C423.564 481.895 423.151 482.832 422.958 483.85C421.906 484.091 420.824 484.052 419.787 483.736C418.749 483.42 417.779 482.835 416.945 482.02C417.82 484.651 417.841 487.553 417.876 490.388C417.977 491.295 417.778 492.213 417.323 492.942C419.829 493.01 422.265 493.793 424.707 494.5C425.752 494.925 426.882 494.925 427.927 494.5C428.485 494.134 428.986 493.649 429.404 493.069C430.734 491.427 432.126 489.664 432.448 487.375C432.534 486.086 432.552 484.793 432.504 483.501C432.633 481.907 432.903 480.335 433.309 478.811C434.012 475.648 434.481 472.414 434.709 469.149C434.856 467.132 436.284 465.515 437.04 463.71C438.44 460.305 439.909 456.772 440.021 452.959C440.119 451.716 439.769 450.192 438.734 450.03Z" fill="white"/>
<path d="M435.794 511.285C433.099 509.727 431.132 506.825 428.955 504.339C424.798 499.589 419.717 496.235 415.349 491.783C412.458 488.838 409.869 485.407 406.684 482.939C403.883 480.765 400.707 479.411 397.403 478.98C397.026 478.9 396.639 478.923 396.27 479.048C395.852 479.276 395.489 479.627 395.213 480.07C393.802 482.004 392.548 484.099 391.468 486.327C385.932 497.75 378.072 507.361 371.556 517.993C371.347 518.243 371.223 518.58 371.208 518.937C371.194 519.293 371.291 519.643 371.479 519.917L372.801 523.075C373.543 524.837 374.733 526.897 376.301 526.548C377.02 526.296 377.664 525.796 378.156 525.11L384.105 518.189L390.341 510.936C393.995 506.68 397.711 502.339 400.098 496.908C401.96 500.832 405.263 503.403 407.531 507.003C408.392 508.365 409.092 509.872 409.862 511.319C411.101 513.643 412.5 515.822 413.9 517.993L421.06 529.102C421.964 530.684 423.084 532.066 424.371 533.188C426.065 534.49 428.13 534.839 430.124 535.052C432.812 535.35 435.51 535.47 438.208 535.41C440.266 535.367 442.408 535.205 444.228 534.09C446.047 532.975 447.594 530.685 447.496 528.191C447.385 526.884 447.033 525.624 446.467 524.505C443.941 518.802 440.595 514.035 435.794 511.285Z" fill="#2F2E41"/>
<path d="M442.611 457.972C443.945 457.972 445.026 456.65 445.026 455.018C445.026 453.387 443.945 452.064 442.611 452.064C441.277 452.064 440.196 453.387 440.196 455.018C440.196 456.65 441.277 457.972 442.611 457.972Z" fill="#E8E8F0"/>
<path d="M442.079 452.796C442.625 454.117 442.72 455.646 442.345 457.052C441.972 458.435 441.449 459.752 440.791 460.968C440.225 462.224 439.547 463.4 438.769 464.475C442.499 464.696 446.118 462.917 449.407 460.755C452.06 459.053 454.706 456.882 456.119 453.639C455.699 453.761 455.261 453.774 454.836 453.679C454.411 453.584 454.006 453.382 453.649 453.085C452.937 452.482 452.298 451.76 451.752 450.94L449.883 448.386C449.442 447.826 449.054 447.206 448.728 446.539C448.319 445.633 448.146 444.597 448.231 443.568C447.487 444.516 446.656 445.356 445.754 446.071C444.417 447.135 442.954 447.901 441.603 448.948C441.127 449.323 440.07 449.927 440.343 450.651C440.616 451.374 441.701 451.979 442.079 452.796Z" fill="#FBBEBE"/>
<path opacity="0.1" d="M442.079 452.796C442.625 454.117 442.72 455.646 442.345 457.052C441.972 458.435 441.449 459.752 440.791 460.968C440.225 462.224 439.547 463.4 438.769 464.475C442.499 464.696 446.118 462.917 449.407 460.755C452.06 459.053 454.706 456.882 456.119 453.639C455.699 453.761 455.261 453.774 454.836 453.679C454.411 453.584 454.006 453.382 453.649 453.085C452.937 452.482 452.298 451.76 451.752 450.94L449.883 448.386C449.442 447.826 449.054 447.206 448.728 446.539C448.319 445.633 448.146 444.597 448.231 443.568C447.487 444.516 446.656 445.356 445.754 446.071C444.417 447.135 442.954 447.901 441.603 448.948C441.127 449.323 440.07 449.927 440.343 450.651C440.616 451.374 441.701 451.979 442.079 452.796Z" fill="white"/>
<path d="M442.128 453.24C441.75 453.888 441.548 454.663 441.548 455.457C441.548 456.252 441.75 457.026 442.128 457.675C442.232 457.837 442.631 458.85 442.827 458.858C442.993 458.841 443.146 458.746 443.254 458.594C444.1 457.52 444.89 456.382 445.62 455.189C446.358 453.98 447.424 453.13 448.63 452.789C450.093 452.508 451.499 453.453 452.78 454.355C453.331 454.688 453.81 455.171 454.18 455.768C454.45 456.36 454.61 457.017 454.649 457.692C455.017 461.75 455.157 465.834 455.069 469.916C455.137 472.859 454.978 475.803 454.593 478.709C454.355 480.207 453.998 481.672 453.83 483.187C453.707 484.521 453.658 485.863 453.683 487.205V492.823C453.652 493.852 453.713 494.883 453.865 495.896C454.154 497.105 454.493 498.295 454.88 499.463C455.221 500.852 455.455 502.277 455.58 503.719L456.21 509.533C456.413 511.372 456.56 513.372 455.643 514.845C455.237 515.517 454.691 516.045 454.243 516.709C452.668 519.144 453.193 522.676 452.493 525.698C451.975 527.916 450.916 529.89 449.456 531.359C448.343 532.508 446.901 533.419 445.459 533.062C443.52 532.619 442.351 530.159 441.82 527.835C441.288 525.511 441.12 522.974 439.951 521.025C439.013 519.416 437.564 518.412 436.255 517.262C434.946 516.113 433.659 514.64 433.372 512.7C433.246 511.848 433.323 510.997 433.253 510.146C433.149 509.061 432.807 508.03 432.262 507.162C431.718 506.293 430.991 505.618 430.159 505.209C429.165 504.74 427.933 504.57 427.359 503.506C428.784 502.418 429.823 500.72 430.271 498.748C430.705 496.804 430.94 494.803 430.971 492.789L431.307 486.03C431.454 483.008 431.524 480.012 432.616 477.296C433.106 476.087 433.715 474.947 434.219 473.746C434.894 472.062 435.469 470.321 435.94 468.537C436.731 465.77 437.529 462.995 438.236 460.195C438.519 458.838 438.942 457.531 439.496 456.304C440.147 455.027 441.008 453.495 442.128 453.24Z" fill="#E8E8F0"/>
<path d="M429.788 497.155L431.258 497.214L431.573 494.516C431.614 493.976 431.718 493.446 431.881 492.941C432.125 492.409 432.408 491.904 432.727 491.434C434.176 488.949 434.071 485.646 434.428 482.624C434.904 478.598 436.29 474.818 437.662 471.107L440.517 463.369C440.772 462.733 440.976 462.069 441.126 461.385C441.251 460.632 441.31 459.864 441.301 459.096C441.301 457.904 441.623 453.554 441.644 452.354C441.644 451.911 440.846 452.158 440.678 451.766C440.322 450.915 439.832 453.23 439.16 453.741C438.526 454.33 438.065 455.151 437.844 456.082C437.228 458.031 436.85 460.083 436.276 462.041C435.773 464.046 434.854 465.86 433.609 467.31C433.028 467.94 432.35 468.434 431.797 469.098C430.019 471.234 429.851 474.605 429.788 477.61C429.746 479.474 429.459 497.155 429.788 497.155Z" fill="#2F2E41"/>
<path d="M450.96 450.014C449.561 450.695 448.749 452.568 448.35 454.389C447.951 456.211 447.783 458.135 447.013 459.752C445.221 463.549 440.651 464.655 439.384 468.758C439.061 470.144 438.89 471.575 438.873 473.015C438.649 475.951 437.851 478.795 437.613 481.731C437.49 484.016 437.534 486.309 437.746 488.584L439.349 511.764C439.66 515.177 439.496 518.63 438.866 521.979C440.51 522.266 442.186 521.93 443.667 521.017C445.172 520.165 446.544 519.042 447.986 518.071C450.47 516.369 453.214 515.22 455.384 512.964C455.778 512.591 456.116 512.139 456.385 511.627C456.733 510.653 456.969 509.624 457.085 508.571C457.269 507.751 457.503 506.949 457.785 506.171C458.588 503.834 459.289 501.447 459.884 499.02C460.292 497.41 460.612 495.77 460.843 494.109C461.018 492.789 461.109 491.453 461.207 490.125C461.319 488.036 461.661 485.975 462.222 483.996C463.61 479.274 464.396 474.322 464.553 469.312C464.601 468.588 464.561 467.859 464.434 467.149C464.192 466.289 463.868 465.466 463.468 464.698C462.803 463.174 462.404 461.497 461.774 459.956C460.374 456.466 457.862 453.819 455.237 451.597C453.893 450.516 452.416 449.341 450.96 450.014Z" fill="#2F2E41"/>
<path d="M417.547 487.834C416.41 487.111 415.381 486.162 414.502 485.025C414.103 484.455 413.802 483.816 413.368 483.255C412.34 481.922 411.006 480.996 409.54 480.599C408.083 480.208 406.593 480.034 405.102 480.079C404.106 479.996 403.106 480.143 402.156 480.514C401.678 480.703 401.248 481.037 400.906 481.484C400.563 481.93 400.319 482.475 400.196 483.067C399.979 484.514 400.756 485.919 401.687 486.838C402.552 487.698 403.571 488.302 404.661 488.6C405.551 488.788 406.448 488.916 407.349 488.983C412.64 489.656 417.365 493.155 421.998 496.347C426.072 499.145 430.224 501.764 434.457 504.204C434.624 502.663 434.695 501.11 434.667 499.556C434.667 498.398 434.597 496.628 433.694 495.947C432.644 495.147 430.894 494.968 429.732 494.491C427.004 493.409 424.341 492.1 421.76 490.575C420.297 489.716 418.898 488.805 417.547 487.834Z" fill="#FBBEBE"/>
<path d="M440.679 451.477C445.886 451.477 450.107 446.313 450.107 439.943C450.107 433.572 445.886 428.408 440.679 428.408C435.472 428.408 431.251 433.572 431.251 439.943C431.251 446.313 435.472 451.477 440.679 451.477Z" fill="#FBBEBE"/>
<path d="M453.656 463.089C452.905 464.372 452.292 465.765 451.829 467.235C450.66 470.155 448.833 472.657 447.923 475.747C446.958 478.957 446.993 482.779 445.124 485.307C444.748 485.69 444.465 486.19 444.305 486.754C444.293 487.105 444.261 487.455 444.207 487.801C443.941 488.72 442.702 488.763 442.471 489.699C442.408 489.972 442.471 490.27 442.359 490.551C442.17 491.155 441.519 491.24 441.078 491.606C440.161 492.364 440.378 494.117 439.678 495.207C439.394 495.611 439.027 495.917 438.614 496.094C438.201 496.27 437.757 496.311 437.327 496.211C436.469 495.992 435.643 495.616 434.877 495.096C434.608 494.912 434.31 494.799 434.002 494.764C433.637 494.774 433.283 494.919 432.987 495.181C431.245 496.526 430.426 499.199 430.44 501.719C430.563 504.239 431.053 506.712 431.888 509.023C431.987 509.422 432.151 509.793 432.371 510.112C432.945 510.853 433.953 510.734 434.723 510.317C435.444 509.797 436.212 509.38 437.012 509.074C438.468 508.75 439.895 509.976 441.372 509.874C442.453 509.674 443.47 509.128 444.319 508.291C445.818 507.183 447.16 505.789 448.294 504.162C448.938 503.132 449.414 501.957 449.981 500.859C450.705 499.51 451.5 498.219 452.361 496.994L457.799 488.899C458.345 488.133 458.834 487.309 459.262 486.439C459.752 485.262 460.135 484.023 460.403 482.745C460.985 480.611 461.364 478.403 461.53 476.164C461.557 474.311 461.424 472.459 461.131 470.64C460.948 468.83 460.555 467.062 459.962 465.388C458.751 462.408 455.874 459.94 453.656 463.089Z" fill="#2F2E41"/>
<path d="M472.595 448.063C472.603 446.018 472.211 444 471.451 442.175C470.692 440.35 469.587 438.771 468.228 437.567C468.187 433.936 467.087 430.442 465.124 427.706C463.162 424.969 460.464 423.17 457.512 422.628C456.942 419.189 455.391 416.105 453.134 413.92C450.878 411.735 448.059 410.589 445.175 410.683C442.292 410.778 439.528 412.107 437.372 414.437C435.215 416.767 433.804 419.948 433.386 423.419C429.467 422.347 425.883 423.743 425.232 426.68C424.532 429.753 427.332 433.345 431.475 434.707C432.774 435.153 434.127 435.317 435.472 435.192C436.436 436.913 437.684 438.37 439.138 439.469C440.591 440.569 442.218 441.286 443.913 441.576C444.411 444.353 445.536 446.906 447.162 448.946C448.788 450.987 450.851 452.435 453.117 453.128C453.744 454.971 454.717 456.609 455.958 457.912C455.958 458.269 455.909 458.635 455.909 459.01C455.864 460.319 456.037 461.625 456.418 462.85C456.799 464.075 457.379 465.194 458.125 466.139C458.87 467.085 459.765 467.837 460.755 468.351C461.746 468.864 462.812 469.129 463.888 469.129C464.965 469.129 466.031 468.864 467.022 468.351C468.012 467.837 468.907 467.085 469.652 466.139C470.398 465.194 470.978 464.075 471.359 462.85C471.74 461.625 471.912 460.319 471.867 459.01C471.868 457.541 471.608 456.089 471.105 454.754C472.088 452.728 472.603 450.416 472.595 448.063Z" fill="#F86D70"/>
<path opacity="0.1" d="M427.892 427.268C428.542 424.332 432.091 422.936 436.046 424.008C436.506 420.482 437.975 417.268 440.194 414.931C442.414 412.595 445.24 411.288 448.175 411.239C448.448 411.239 448.721 411.239 448.987 411.239C447.853 410.818 446.673 410.606 445.487 410.609C442.552 410.658 439.726 411.965 437.507 414.301C435.287 416.638 433.818 419.852 433.358 423.378C429.438 422.306 425.855 423.702 425.204 426.638C424.504 429.711 427.304 433.304 431.447 434.666C432.218 434.926 433.008 435.091 433.806 435.159C429.872 433.763 427.227 430.273 427.892 427.268Z" fill="white"/>
<path opacity="0.1" d="M458.568 459.606C458.568 459.232 458.568 458.866 458.617 458.5C457.376 457.2 456.402 455.565 455.776 453.724C453.511 453.025 451.451 451.573 449.826 449.532C448.2 447.49 447.074 444.939 446.572 442.164C444.876 441.876 443.25 441.158 441.796 440.059C440.342 438.959 439.094 437.502 438.131 435.78C437.347 435.855 436.559 435.829 435.779 435.703C436.747 437.289 437.964 438.626 439.36 439.634C440.757 440.642 442.304 441.303 443.912 441.577C444.41 444.353 445.535 446.906 447.161 448.947C448.788 450.988 450.85 452.436 453.116 453.128C453.743 454.971 454.716 456.609 455.958 457.912C455.958 458.27 455.909 458.636 455.909 459.01C455.873 461.62 456.688 464.141 458.175 466.023C459.662 467.905 461.7 468.995 463.846 469.055C462.28 468.321 460.936 467.022 459.993 465.334C459.05 463.645 458.553 461.647 458.568 459.606Z" fill="white"/>
<path d="M444.992 444.169C445.632 443.577 445.626 442.257 444.979 441.22C444.331 440.183 443.287 439.822 442.647 440.413C442.006 441.005 442.012 442.325 442.66 443.362C443.308 444.399 444.352 444.76 444.992 444.169Z" fill="#FBBEBE"/>
<path d="M219.633 501.566L228.955 494.9C227.695 492.281 226.084 489.936 224.189 487.963L206.607 494.611L220.381 484.762C216.971 482.49 213.132 481.338 209.244 481.418C205.356 481.498 201.552 482.808 198.206 485.22C194.86 487.631 192.089 491.06 190.164 495.169C188.238 499.279 187.226 503.927 187.227 508.657C187.227 523.698 197.256 524.217 209.624 524.217C221.991 524.217 232.021 523.698 232.021 508.657C232.028 504.844 231.372 501.073 230.096 497.59L219.633 501.566Z" fill="#FFC250"/>
<path opacity="0.1" d="M222.005 516.19C221.012 514.98 219.903 513.92 218.702 513.032C217.015 511.661 215.258 510.265 213.263 509.806C211.514 509.397 209.708 509.746 207.923 509.618C204.824 509.388 201.907 507.762 199.741 505.056C198.467 503.455 197.466 501.489 195.933 500.263C194.22 499.025 192.199 498.575 190.236 498.995C189.667 499.091 189.104 499.231 188.549 499.412C187.672 502.377 187.225 505.505 187.227 508.657C187.227 523.698 197.256 524.217 209.624 524.217C215.629 524.217 221.074 524.098 225.099 522.251L224.399 520.727C223.763 519.097 222.959 517.572 222.005 516.19Z" fill="white"/>
<defs>
<linearGradient id="paint0_linear_145_3438" x1="397.201" y1="544.493" x2="397.201" y2="408.599" gradientUnits="userSpaceOnUse">
<stop stop-color="#808080" stop-opacity="0.25"/>
<stop offset="0.54" stop-color="#808080" stop-opacity="0.12"/>
<stop offset="1" stop-color="#808080" stop-opacity="0.1"/>
</linearGradient>
</defs>
</svg>
