<svg width="487" height="410" viewBox="0 0 487 410" fill="none" xmlns="http://www.w3.org/2000/svg">
<path d="M38.6982 53.1048C42.8533 49.5161 43.025 43.4385 39.0816 39.5301C35.1383 35.6217 28.5731 35.3626 24.418 38.9513C20.2629 42.54 20.0913 48.6176 24.0346 52.526C27.978 56.4344 34.5431 56.6935 38.6982 53.1048Z" fill="#E8B582"/>
<path opacity="0.36" d="M393.757 359.368C399.112 338.377 385.061 317.345 362.374 312.391C339.687 307.437 316.954 320.437 311.6 341.427C306.245 362.417 320.296 383.45 342.983 388.404C365.67 393.358 388.402 380.358 393.757 359.368Z" fill="#F2F995"/>
<path opacity="0.36" d="M275.269 165.767C268.897 182.097 257.759 196.812 243.365 207.95C227.097 220.534 207.326 228.441 191.251 241.214C166.715 260.704 157.665 296.901 184.14 319.186C197.655 330.562 217.329 334.615 235.332 331.691C253.336 328.778 269.657 319.444 282.402 307.335C287.296 302.688 291.752 297.595 297.139 293.443C328.957 268.899 377.098 279.006 411.573 257.266C487.505 209.367 449.346 97.0693 364.76 82.5132C352.219 80.353 339.078 80.1945 326.88 83.623C301.283 90.8168 287.639 113.805 283.098 136.834C281.181 146.554 278.921 156.443 275.28 165.758L275.269 165.767Z" fill="#F2F995"/>
<path opacity="0.36" d="M147.351 309.899C138.665 304.202 133.589 297.365 130.044 286.514C127.945 280.084 127.891 272.9 125.45 266.736C125.289 266.102 125.107 265.458 124.925 264.824C115.607 233.512 80.6183 215.121 46.7754 223.742C12.9324 232.363 -6.94499 264.735 2.37253 296.047C10.2228 322.434 36.3119 339.646 64.5858 339.24C78.7227 341.608 93.4165 343.57 102.97 351.477C105.412 353.498 107.575 355.817 109.792 358.076C109.813 358.166 109.845 358.255 109.867 358.344C115.543 377.409 136.845 388.606 157.44 383.364C172.53 379.519 184.15 366.36 185.553 351.963C187.459 332.303 170.881 322.256 154.237 313.833C151.721 312.555 149.439 311.257 147.362 309.899H147.351Z" fill="#F2F995"/>
<path d="M295.478 378.109C294.632 382.985 297.47 388.207 302.183 390.495C305.385 392.051 309.112 392.289 312.593 393.191C319.383 394.954 325.294 399.433 328.486 405.25L282.52 405.18L282.562 377.703L295.468 378.099L295.478 378.109Z" fill="#FFE5D4"/>
<path d="M312.593 393.193C309.112 392.291 305.385 392.053 302.183 390.497C299.452 389.17 297.342 386.851 296.228 384.195C295.307 385.404 294.429 386.623 293.444 387.792C292.49 388.922 291.43 390.012 290.102 390.765C288.774 391.528 287.243 391.805 285.711 391.548C284.576 391.359 283.516 390.904 282.541 390.319L282.52 405.182L328.486 405.252C325.294 399.435 319.383 394.946 312.593 393.193Z" fill="#241624"/>
<path d="M327.448 407.51L282.702 407.441C281.428 407.441 280.389 406.47 280.389 405.3C280.389 404.121 281.438 403.16 282.702 403.16L327.448 403.23C328.722 403.23 329.761 404.201 329.761 405.37C329.761 406.549 328.711 407.51 327.448 407.51Z" fill="#6D6352"/>
<path d="M294.236 392.428C293.755 391.982 293.755 391.258 294.236 390.812L301.23 384.362C301.712 383.916 302.494 383.916 302.976 384.362C303.458 384.808 303.458 385.531 302.976 385.977L295.982 392.428C295.5 392.874 294.718 392.874 294.236 392.428Z" fill="#6D6352"/>
<path d="M298.756 395.389C298.274 394.943 298.274 394.219 298.756 393.773L305.749 387.323C306.231 386.877 307.013 386.877 307.495 387.323C307.977 387.769 307.977 388.492 307.495 388.938L300.502 395.389C300.02 395.834 299.238 395.834 298.756 395.389Z" fill="#6D6352"/>
<path d="M233.306 377.843C234.142 382.719 231.304 387.941 226.581 390.22C223.378 391.765 219.651 392.003 216.171 392.895C209.381 394.649 203.458 399.118 200.256 404.934H246.222V377.457L233.306 377.834V377.843Z" fill="#FFE5D4"/>
<path d="M216.16 392.905C219.641 392.003 223.368 391.775 226.57 390.23C229.311 388.902 231.411 386.593 232.535 383.938C233.445 385.146 234.334 386.375 235.309 387.534C236.262 388.664 237.322 389.754 238.64 390.517C239.968 391.28 241.489 391.557 243.031 391.3C244.166 391.112 245.226 390.656 246.201 390.081V404.944H200.234C203.437 399.128 209.348 394.659 216.149 392.905H216.16Z" fill="#241624"/>
<path d="M201.284 407.195H246.03C247.304 407.195 248.343 406.234 248.343 405.054C248.343 403.875 247.304 402.914 246.03 402.914H201.284C200.01 402.914 198.971 403.875 198.971 405.054C198.971 406.234 200.01 407.195 201.284 407.195Z" fill="#6D6352"/>
<path d="M234.527 392.164C235.009 391.718 235.009 390.995 234.527 390.549L227.545 384.088C227.063 383.642 226.281 383.642 225.799 384.088C225.317 384.534 225.317 385.258 225.799 385.703L232.782 392.164C233.264 392.61 234.045 392.61 234.527 392.164Z" fill="#6D6352"/>
<path d="M229.996 395.113C230.478 394.667 230.478 393.944 229.996 393.498L223.013 387.038C222.531 386.592 221.75 386.592 221.268 387.038C220.786 387.483 220.786 388.207 221.268 388.653L228.25 395.113C228.732 395.559 229.514 395.559 229.996 395.113Z" fill="#6D6352"/>
<path d="M246.523 285.949H258.882C268.724 285.949 276.703 278.567 276.703 269.461V237.207C276.703 228.101 268.724 220.719 258.882 220.719H246.523C236.681 220.719 228.702 228.101 228.702 237.207V269.461C228.702 278.567 236.681 285.949 246.523 285.949Z" fill="#FBC999"/>
<path d="M296.848 380.719C293.314 355.501 281.522 272.098 280.109 264.102L256.301 269.68C257.168 277.528 274.025 359.692 279.016 383.375L296.859 380.719H296.848Z" fill="#FBC999"/>
<path d="M248.13 379.609C249.554 352.439 252.242 269.085 252.092 260.227L227.738 257.254C227.288 266.519 229.398 351.051 229.891 379.599H248.13V379.609Z" fill="#FBC999"/>
<path d="M251.074 268.935V283.016C251.074 283.888 252.541 283.888 252.541 283.016V268.935C252.541 268.063 251.074 268.063 251.074 268.935Z" fill="#D8B191"/>
<path d="M251.987 282.532C249.791 281.977 249.631 278.777 249.395 277.112C249.009 274.407 248.902 271.672 249.041 268.947C249.084 268.075 247.617 268.075 247.574 268.947C247.424 272.098 247.606 275.249 248.12 278.37C248.463 280.461 249.031 283.196 251.601 283.84C252.511 284.068 252.897 282.76 251.987 282.532Z" fill="#D8B191"/>
<path d="M265.888 266.367C266.22 272.877 269.722 278.961 275.227 282.994C275.676 283.321 276.126 283.648 276.608 283.926C277.411 284.391 278.15 283.212 277.347 282.756C275.548 281.716 273.974 280.239 272.624 278.743C269.454 275.245 267.58 270.915 267.355 266.357C267.312 265.485 265.845 265.485 265.888 266.357V266.367Z" fill="#D8B191"/>
<path d="M235.611 266.08C235.482 269.479 233.265 272.788 231.305 275.553C230.063 277.307 228.714 279.031 227.236 280.626C226.625 281.28 227.653 282.251 228.275 281.587C229.881 279.853 231.338 277.99 232.676 276.088C234.743 273.145 236.939 269.677 237.078 266.08C237.11 265.208 235.643 265.208 235.611 266.08Z" fill="#D8B191"/>
<path d="M265.898 181.908C262.578 190.876 260.693 200.239 260.265 209.702C260.222 210.574 261.689 210.574 261.732 209.702C262.15 200.348 264.034 191.123 267.312 182.265C267.622 181.442 266.209 181.086 265.898 181.908Z" fill="#7F68BA"/>
<path d="M260.318 214.689C260.093 218.445 259.868 222.2 259.632 225.946C259.579 226.818 261.046 226.818 261.1 225.946C261.324 222.19 261.549 218.435 261.785 214.689C261.839 213.817 260.371 213.817 260.318 214.689Z" fill="#7F68BA"/>
<path d="M271.553 170.453C270.889 172.445 270.396 174.486 270.085 176.557C269.614 179.649 269.636 183.077 271.703 185.545C270.032 187.239 267.644 188.527 265.191 188.834C262.739 189.151 260.168 188.646 258.058 187.437C257.48 187.11 256.945 186.724 256.409 186.347C255.745 185.882 255.092 185.416 254.428 184.96C258.09 180.382 261.378 175.239 261.239 169.552C262.803 169.443 265.052 169.076 266.615 168.967C267.29 168.918 267.976 168.878 268.65 168.967C269.721 169.126 270.482 170.513 271.563 170.453H271.553Z" fill="#F3725F"/>
<path d="M258.871 178.412C260.649 178.67 262.427 178.749 264.14 178.254C266.646 177.53 268.36 175.539 269.506 173.448C270.052 172.447 270.513 171.397 270.898 170.327C270.127 169.98 269.474 169.098 268.638 168.979C267.964 168.88 267.278 168.93 266.604 168.979C265.04 169.088 262.791 169.455 261.227 169.564C261.302 172.685 260.349 175.638 258.871 178.432V178.412Z" fill="#241624"/>
<path d="M292.32 223.882C292.095 224.694 291.859 225.507 291.623 226.319C290.595 229.867 289.471 233.384 288.357 236.912C288.164 237.526 287.971 238.131 287.779 238.745C287.746 238.834 287.725 238.933 287.693 239.023C286.922 241.47 286.161 243.918 285.433 246.375C285.262 246.94 285.101 247.505 284.94 248.069C284.019 251.27 283.163 254.5 282.456 257.75C282.049 259.643 281.674 261.555 281.374 263.468C281.31 263.894 281.267 264.33 281.214 264.756C281.064 266.034 280.807 267.253 279.436 267.966C279.136 268.125 278.804 268.244 278.461 268.343C278.118 268.442 277.754 268.511 277.369 268.551C277.154 268.581 276.93 268.601 276.694 268.611C274.327 268.759 271.532 268.244 269.561 268.135C265.781 267.927 261.989 267.719 258.209 267.521C256.763 267.441 255.317 267.362 253.882 267.283C253.529 267.263 253.175 267.243 252.822 267.223C249.448 267.035 246.064 266.857 242.69 266.668C240.249 266.53 237.764 266.272 235.311 266.262C233.491 266.262 231.274 266.46 229.474 265.856C229.014 265.697 228.586 265.499 228.2 265.222C228.2 265.222 228.2 265.222 228.189 265.212C227.857 264.984 227.557 264.706 227.332 264.379C227.268 264.27 227.204 264.152 227.15 264.033C226.433 262.229 226.829 259.564 226.829 257.681C226.818 254.966 226.754 252.251 226.69 249.536C226.551 244.076 226.358 238.616 226.326 233.147C226.272 224.645 226.594 216.084 228.093 207.681C228.136 207.413 228.189 207.146 228.232 206.888C228.393 206.016 228.575 205.144 228.768 204.272C229.035 203.063 229.325 201.854 229.646 200.656C231.134 195.107 233.93 189.894 237.635 185.426C237.892 185.118 238.149 184.811 238.417 184.514C238.856 184.455 239.295 184.405 239.745 184.365C243.001 184.058 246.31 184.246 249.587 184.445C250.423 184.494 251.269 184.544 252.094 184.583H252.179C252.383 184.593 252.576 184.603 252.779 184.613C252.886 184.613 253.004 184.623 253.111 184.623C253.379 184.633 253.657 184.643 253.925 184.653C254.161 184.653 254.385 184.673 254.61 184.682C254.61 184.682 254.664 184.682 254.685 184.682C254.953 184.682 255.221 184.702 255.478 184.712C256.356 184.742 257.224 184.762 258.102 184.781C258.295 184.781 258.498 184.791 258.691 184.791C259.001 184.791 259.312 184.801 259.623 184.811C260.287 184.831 260.94 184.841 261.604 184.861C261.839 184.861 262.086 184.871 262.321 184.881C262.321 184.881 262.386 184.881 262.418 184.881C263.082 184.9 263.735 184.92 264.399 184.94C264.56 184.94 264.71 184.95 264.87 184.96C265.095 184.96 265.331 184.98 265.556 184.99C265.663 184.99 265.77 184.99 265.877 184.999C266.263 185.019 266.648 185.029 267.034 185.049C268.04 185.099 269.047 185.168 270.054 185.247C270.268 185.267 270.482 185.277 270.686 185.297C270.846 185.307 271.018 185.326 271.178 185.336C271.253 185.336 271.328 185.346 271.403 185.356C271.468 185.356 271.532 185.366 271.596 185.376C271.746 185.386 271.907 185.406 272.057 185.426C272.389 185.455 272.721 185.495 273.053 185.535C273.16 185.544 273.278 185.564 273.385 185.574C273.535 185.594 273.685 185.614 273.834 185.634C273.92 185.644 274.017 185.653 274.102 185.673C274.188 185.683 274.284 185.693 274.37 185.713C274.531 185.733 274.691 185.753 274.852 185.772C274.863 185.772 274.873 185.772 274.884 185.772C275.034 185.792 275.184 185.812 275.323 185.842C275.323 185.842 275.334 185.842 275.345 185.842C275.377 185.842 275.42 185.842 275.452 185.862C275.452 185.862 275.452 185.862 275.462 185.862C275.634 185.891 275.794 185.911 275.966 185.941C275.966 185.941 275.987 185.941 275.998 185.941C276.019 185.941 276.041 185.941 276.062 185.941C276.073 185.941 276.083 185.941 276.105 185.941C276.244 185.961 276.373 185.99 276.512 186.01C277.776 186.228 279.018 186.496 280.25 186.823C282.563 187.447 284.801 188.299 286.815 189.478C289.385 190.975 291.688 192.798 293.776 194.819C294.986 195.998 296.122 197.237 297.193 198.525C297.193 198.604 297.193 198.684 297.193 198.763C297.193 198.981 297.193 199.189 297.193 199.407C297.182 207.711 294.515 215.786 292.277 223.822L292.32 223.882Z" fill="#FFB469"/>
<path d="M270.364 190.985C267.965 192.689 265.138 194.403 262.374 195.226C261.753 195.414 261.132 195.563 260.489 195.662C259.772 195.771 259.622 195.791 258.915 195.771C257.855 195.751 256.816 195.523 256.034 195.147C253.571 193.928 252.114 191.54 251.065 189.053C250.444 187.566 249.962 186.03 249.576 184.465C250.444 184.514 251.311 184.574 252.168 184.613C258.133 184.921 264.109 184.802 270.064 185.287C272.185 185.456 274.369 185.694 276.533 186.07C274.562 187.804 272.517 189.459 270.364 190.985Z" fill="#FFB469"/>
<path d="M271.199 188.614C273.234 187.792 276.189 186.316 275.89 183.868C275.568 181.272 271.745 180.549 269.025 181.242C265.169 182.223 261.785 184.71 259.889 187.96C261.87 186.276 262.138 183.501 261.046 181.222C259.739 178.478 254.084 175.654 252.564 179.756C251.332 183.065 253.603 186.791 255.37 189.546L271.188 188.614H271.199Z" fill="#FFB469"/>
<path d="M264.741 175.22C261.014 174.665 258.423 171.594 258.99 168.403L260.468 159.99C261.025 156.8 264.538 154.65 268.254 155.204C271.981 155.759 274.573 158.831 274.005 162.022L272.527 170.434C271.97 173.625 268.458 175.775 264.741 175.22Z" fill="#F3725F"/>
<path d="M276.371 167.777C276.157 169.016 274.893 169.848 273.565 169.65C272.227 169.452 271.327 168.283 271.541 167.054C271.755 165.825 273.019 164.983 274.347 165.181C275.675 165.379 276.586 166.549 276.371 167.777Z" fill="#F3725F"/>
<path d="M260.971 165.262C260.757 166.5 259.493 167.333 258.165 167.135C256.826 166.936 255.927 165.767 256.141 164.538C256.355 163.31 257.619 162.467 258.947 162.666C260.286 162.864 261.185 164.033 260.971 165.262Z" fill="#F3725F"/>
<path d="M266.454 194.703C264.986 193.168 263.283 191.879 261.538 190.661C242.485 177.373 220.091 189.908 199.4 186.241C192.106 185.389 184.77 184.864 177.455 184.141C177.123 184.834 176.791 185.528 176.47 186.221C175.281 188.748 174.114 191.285 172.957 193.822C181.803 197.924 190.478 202.393 198.885 207.228C217.895 208.219 261.259 208.239 266.454 194.703Z" fill="#FFB469"/>
<path d="M154.922 180.267C155.393 179.058 160.962 181.347 160.962 181.347C160.962 181.347 153.915 177.938 154.097 176.967C154.386 175.431 162.333 179.425 162.333 179.425C162.333 179.425 153.797 174.877 154.922 173.519C156.036 172.162 163.929 177.552 163.929 177.552C163.929 177.552 156.85 172.062 158.017 171.052C159.195 170.041 168.031 177.453 168.031 177.453C168.031 177.453 167.152 171.934 168.352 171.696C170.387 171.29 172.786 182.952 172.786 182.952L168.909 188.382C168.909 188.382 154.44 181.486 154.922 180.277V180.267Z" fill="#F3725F"/>
<path d="M167.752 183.756C165.75 183.161 164.165 181.546 163.886 179.604C163.843 179.337 163.468 179.188 163.211 179.247C162.901 179.327 162.794 179.594 162.826 179.872C163.158 182.161 165.128 184.033 167.452 184.727C168.127 184.925 168.406 183.954 167.742 183.756H167.752Z" fill="#D6594C"/>
<path d="M168.92 188.373L175.357 190.998L178.205 184.34L171.458 182.328L168.92 188.373Z" fill="#F3725F"/>
<path d="M284.897 211.845C283.997 209.972 283.44 208.01 282.969 206.029C277.839 184.477 299.462 170.842 304.474 151.916C306.67 145.426 309.208 139.035 311.532 132.574C312.346 132.584 313.17 132.594 313.984 132.604C316.962 132.654 319.939 132.723 322.916 132.802C323.27 141.958 324.062 151.104 325.315 160.2C318.386 176.609 300.372 213.104 284.897 211.845Z" fill="#FFB469"/>
<path d="M317.09 112.003C315.709 111.904 315.645 117.532 315.645 117.532C315.645 117.532 315.227 110.19 314.199 109.932C312.571 109.536 313.192 117.889 313.192 117.889C313.192 117.889 312.271 108.822 310.472 109.199C308.673 109.575 310.686 118.454 310.686 118.454C310.686 118.454 308.233 110.21 306.755 110.774C305.278 111.339 308.887 121.862 308.887 121.862C308.887 121.862 303.821 118.82 303.093 119.732C301.85 121.278 312.314 128.145 312.314 128.145L319.265 127.134C319.265 127.134 318.504 112.092 317.123 111.993L317.09 112.003Z" fill="#F3725F"/>
<path d="M316.265 124.331C316.554 122.062 315.44 119.684 313.341 118.455C312.742 118.108 312.195 118.98 312.795 119.327C314.594 120.377 315.419 122.428 315.183 124.341C315.151 124.608 315.462 124.846 315.73 124.846C316.051 124.846 316.244 124.618 316.276 124.341L316.265 124.331Z" fill="#D6594C"/>
<path d="M319.243 127.144L319.147 133.654L311.414 133.287L312.239 126.777L319.243 127.144Z" fill="#F3725F"/>
<path d="M226.807 257.703L281.555 260.537" stroke="#B79369" stroke-width="0.69499" stroke-linecap="round" stroke-linejoin="round"/>
<path d="M185.756 31.44C186.335 30.568 215.562 3.0808 257.555 26.7729C285.797 42.7163 299.784 74.0283 283.58 98.5924C272.324 115.665 251.686 118.361 228.895 115.309C220.767 114.308 217.361 119.084 213.58 124.831L207.144 134.591L176.075 117.063L188.594 98.0672C193.649 90.3977 198.158 84.3434 209.96 84.0759C225.929 83.7588 237.003 89.2979 245.164 76.9316C250.679 68.5685 247.798 58.8182 239.327 54.0421C225.768 46.3925 212.285 53.1206 205.28 59.4524L185.756 31.4598V31.44ZM193.542 167.786C186.303 178.765 170.848 182.233 158.789 175.426C146.923 168.727 143.174 154.429 150.414 143.45C157.761 132.302 173.226 128.834 185.092 135.523C197.141 142.32 200.889 156.629 193.542 167.776V167.786Z" fill="#FFD36A"/>
<path d="M271.863 166.648C270.546 164.022 270.514 160.881 271.767 158.235C266.38 159.524 260.157 157.72 256.034 154.262C254.192 152.726 252.735 150.824 251.621 148.772C249.008 143.996 248.366 137.893 251.621 133.473C252.81 131.858 254.513 130.52 256.548 130.025C258.583 129.529 260.939 129.985 262.353 131.432C262.899 131.997 263.295 132.68 263.606 133.374C265.266 137.139 264.709 141.38 264.355 145.433C264.227 146.929 264.313 148.772 265.748 149.466C267.643 150.388 269.56 149.377 271.531 150.15C272.859 150.675 273.801 151.824 274.262 153.093C274.723 154.351 274.755 155.719 274.637 157.046C274.358 160.326 273.084 163.547 271.863 166.638V166.648Z" fill="#241624"/>
<path d="M262.267 155.865C261.614 155.696 260.843 155.568 260.382 155.776C260.179 155.696 259.997 155.914 259.911 156.093C258.915 158.154 258.808 160.552 259.558 162.692C260.19 160.314 261.014 157.995 262.257 155.865H262.267Z" fill="#241624"/>
<path d="M385.954 196.951C385.494 204.204 391.074 212.756 397.178 215.59C404.889 219.167 427.059 222.843 435.776 223.269C444.483 223.705 453.555 222.962 458.074 216.442C462.454 210.12 458.353 190.292 456.928 182.999C456.136 178.947 454.722 174.289 450.385 172.694C446.026 171.089 440.853 173.735 438.625 177.381C436.398 181.027 437.329 185.477 436.183 189.49C434.984 193.691 433.281 199.825 433.281 199.825C432.981 201.717 418.716 195.812 417.323 195.128C410.972 191.987 404.493 188.073 396.964 187.756C393.88 187.627 391.641 188.202 389.606 190.292C387.561 192.393 386.158 193.968 385.965 196.941L385.954 196.951Z" fill="#E2B647"/>
<path d="M443.607 164.141C444.689 163.854 446.649 168.402 446.649 168.402C446.649 168.402 450.183 159.306 451.618 159.613C451.672 159.623 451.725 159.653 451.768 159.682C451.832 160 451.907 160.327 451.993 160.644C451.854 162.655 450.001 166.876 450.001 166.876C450.001 166.876 450.729 165.469 451.682 163.953C451.725 165.113 451.982 166.262 452.389 167.382C452.261 167.57 452.186 167.679 452.186 167.679C452.186 167.679 452.261 167.57 452.4 167.392C452.989 169.017 453.889 170.592 454.842 172.108C453.01 174.704 451.222 177.063 451.222 177.063L445.471 174.447C445.471 174.447 441.776 164.627 443.607 164.141Z" fill="#F3725F"/>
<path d="M454.039 166.214C454.811 166.006 455.678 166.422 456.085 167.037C456.492 167.651 456.524 168.394 456.417 169.098C456.192 170.663 455.314 172.16 453.997 173.24C453.108 173.973 451.79 174.538 450.677 174.092C449.734 173.715 449.306 172.764 449.059 171.882C448.47 169.782 447.913 165.65 449.927 163.945C451.662 162.489 455.828 164.183 454.039 166.204V166.214Z" fill="#F3725F"/>
<path d="M402.34 363.698C399.148 368.197 399.137 374.489 402.307 378.601C404.449 381.395 407.737 383.09 410.468 385.339C415.791 389.739 418.95 396.496 418.972 403.512L377.064 385.458L390.762 358.238L402.35 363.688L402.34 363.698Z" fill="#FFE5D4"/>
<path d="M410.459 385.339C407.728 383.079 404.44 381.385 402.298 378.601C400.466 376.213 399.695 373.101 399.995 370.02C398.56 370.852 397.146 371.724 395.668 372.497C394.244 373.24 392.734 373.904 391.149 374.142C389.553 374.379 388.022 374.052 386.747 373.2C385.805 372.566 385.066 371.704 384.466 370.743L377.055 385.467L418.962 403.521C418.941 396.506 415.781 389.748 410.459 385.349V385.339Z" fill="#241624"/>
<path d="M378.292 383.571L418.913 401.072C420.127 401.595 420.656 402.938 420.091 404.061L420.005 404.231C419.44 405.354 417.988 405.844 416.775 405.321L376.153 387.819C374.94 387.297 374.411 385.954 374.976 384.831L375.062 384.66C375.627 383.537 377.078 383.048 378.292 383.571Z" fill="#6D6352"/>
<path d="M394.083 377.4C393.869 376.776 394.233 376.052 394.886 375.805L404.471 372.148C405.135 371.901 405.842 372.208 406.067 372.832C406.281 373.456 405.917 374.18 405.264 374.427L395.679 378.084C395.015 378.331 394.308 378.024 394.083 377.4Z" fill="#6D6352"/>
<path d="M396.739 382.099C396.525 381.475 396.889 380.752 397.542 380.504L407.128 376.848C407.792 376.6 408.499 376.907 408.723 377.531C408.938 378.155 408.574 378.879 407.92 379.127L398.335 382.783C397.671 383.031 396.964 382.723 396.739 382.099Z" fill="#6D6352"/>
<path d="M363.549 362.548C363.056 367.7 358.044 386.735 363.367 389.183C366.976 390.838 371.057 391.105 374.912 392.076C382.441 393.969 389.252 398.745 393.226 404.918L343.254 404.66L348.223 357.355L363.538 362.548H363.549Z" fill="#FFE5D4"/>
<path d="M344.903 389.899C344.903 389.899 344.925 389.938 344.935 389.948C346.317 392.188 348.673 393.991 351.586 393.971C355.827 393.942 359.822 390.374 361.846 386.5C362.082 386.787 362.232 387.313 362.275 388.194C362.296 388.67 362.917 388.977 363.378 389.175C367.544 390.989 371.067 391.098 374.923 392.069C380.91 393.575 386.436 396.894 390.441 401.294C391.737 402.721 390.623 404.901 388.599 404.891L345.867 404.673C344.475 404.673 343.383 403.553 343.522 402.265C343.522 402.265 344.486 393.654 344.903 389.899Z" fill="#241624"/>
<path d="M392.294 407.306L343.65 407.058C342.269 407.058 341.048 406.027 340.951 404.779C340.855 403.53 341.905 402.52 343.286 402.52L391.93 402.767C393.312 402.767 394.533 403.798 394.629 405.046C394.725 406.295 393.676 407.306 392.294 407.306Z" fill="#6D6352"/>
<path d="M360.09 394.066C359.533 393.591 359.469 392.828 359.951 392.352L366.998 385.545C367.48 385.079 368.336 385.079 368.893 385.545C369.45 386.02 369.514 386.783 369.033 387.259L361.985 394.066C361.504 394.532 360.647 394.532 360.09 394.066Z" fill="#6D6352"/>
<path d="M365.252 397.219C364.695 396.743 364.631 395.98 365.113 395.504L372.16 388.697C372.642 388.231 373.499 388.231 374.055 388.697C374.612 389.173 374.677 389.936 374.195 390.411L367.148 397.219C366.666 397.684 365.809 397.684 365.252 397.219Z" fill="#6D6352"/>
<path d="M392.627 186.426C392.434 186.693 392.851 187.04 393.183 186.961C393.515 186.881 393.719 186.574 393.88 186.287C395.24 183.899 396.086 181.134 395.507 178.489C395.058 176.408 393.772 174.575 392.38 172.89C388.011 167.619 382.077 163.219 375.127 161.634C368.165 160.048 360.154 161.663 355.389 166.628C350.623 171.592 350.098 179.985 355.067 184.781L392.627 186.426Z" fill="#E2B647"/>
<path d="M371.163 171.859C371.56 173.791 371.785 175.753 371.849 177.715C371.934 180.658 371.527 183.858 369.311 185.969C370.681 187.713 372.77 189.15 375.03 189.685C377.289 190.22 379.753 190.002 381.873 189.07C382.451 188.813 382.998 188.516 383.544 188.218C384.219 187.852 384.883 187.475 385.557 187.109C382.644 182.471 380.16 177.328 380.931 172.017C379.474 171.77 377.418 171.195 375.961 170.947C375.329 170.838 374.698 170.729 374.055 170.759C373.038 170.799 372.159 172.027 371.153 171.869L371.163 171.859Z" fill="#F3725F"/>
<path d="M383.255 183.035C381.51 179.527 380.385 175.821 380.942 172.016C379.485 171.769 377.429 171.204 375.973 170.946C375.426 170.857 374.88 170.768 374.323 170.758C373.745 176.396 377.418 182.302 383.245 183.035H383.255Z" fill="#241624"/>
<path d="M399.995 251.301C399.974 251.598 399.952 251.895 399.942 252.183C399.481 260.665 397.778 269.186 390.646 275.132C382.088 282.266 368.134 285.298 359.191 277.024C352.776 271.089 353.472 259.674 353.515 251.301H400.006H399.995Z" fill="#241624"/>
<path d="M410.04 221.137C409.515 228.747 408.273 236.337 406.538 243.818C405.949 246.374 405.232 249.04 403.175 251.032C399.812 254.292 394.265 254.807 389.36 254.995C383.287 255.233 377.204 255.134 371.131 254.866C365.798 254.629 358.837 255.045 353.824 253.39C349.134 251.844 348.105 247.534 347.752 243.858C347.206 238.16 347.431 232.522 346.552 226.854C345.642 220.938 343.757 215.122 341.937 209.355C340.812 205.798 339.57 202.23 339.366 198.554C339.163 194.878 340.116 191.033 342.943 188.18C345.653 185.445 349.787 183.899 353.942 182.948C366.301 180.124 379.421 181.888 392.208 182.76C396.632 183.057 401.504 183.404 404.6 185.98C406.966 187.942 407.759 190.796 408.327 193.511C410.233 202.637 410.661 211.911 410.029 221.156L410.04 221.137Z" fill="#E2B647"/>
<path d="M427.165 306.631L395.582 258.543C388.835 260.535 382.131 263.081 375.33 265.132C375.587 266.074 375.994 266.985 376.572 267.857L406.035 312.705L385.611 359.93C386.972 363.111 388.974 366.005 391.802 368.254C395.229 370.989 399.363 371.702 403.657 370.81C404.193 370.147 404.643 369.403 404.986 368.601L427.958 315.469C429.211 312.566 428.922 309.286 427.165 306.621V306.631Z" fill="#241624"/>
<path d="M374.999 161.247C377.194 161.683 378.405 163.783 378.083 165.666C377.762 167.549 376.284 169.194 374.613 170.531C373.767 168.242 373.178 166.221 372.332 163.922C372.011 163.06 371.797 161.93 372.696 161.385C373.2 161.078 374.399 161.138 374.988 161.257L374.999 161.247Z" fill="#F3725F"/>
<path d="M385.365 171.969C385.365 172.039 385.365 172.118 385.355 172.187C385.355 172.227 385.355 172.257 385.355 172.296C385.355 172.316 385.355 172.346 385.355 172.366C385.355 172.435 385.344 172.504 385.333 172.574C385.333 172.594 385.333 172.613 385.333 172.633C385.322 172.732 385.301 172.831 385.28 172.931C385.258 173.04 385.237 173.139 385.205 173.248C385.205 173.287 385.183 173.317 385.173 173.357C385.173 173.376 385.162 173.396 385.151 173.426C385.13 173.515 385.098 173.604 385.065 173.684C384.99 173.892 384.915 174.1 384.819 174.298C384.798 174.348 384.776 174.397 384.755 174.447C384.541 174.883 384.284 175.289 383.984 175.665C383.919 175.745 383.855 175.824 383.78 175.903C383.748 175.943 383.705 175.982 383.662 176.032C383.598 176.101 383.534 176.171 383.47 176.23C383.309 176.389 383.138 176.547 382.956 176.696C382.87 176.765 382.784 176.835 382.699 176.894C382.345 177.162 381.96 177.39 381.563 177.598C381.263 177.746 380.942 177.875 380.61 177.994C380.535 178.014 380.46 178.044 380.396 178.063C380.342 178.083 380.289 178.093 380.235 178.113C380.203 178.113 380.182 178.133 380.15 178.133C380.128 178.133 380.096 178.143 380.075 178.153C379.989 178.172 379.903 178.192 379.818 178.212C379.314 178.321 378.779 178.38 378.243 178.39C378.125 178.39 378.008 178.39 377.89 178.39C376.562 178.341 375.33 177.954 374.281 177.33C372.299 176.151 370.971 174.1 370.95 171.771V170.186L370.886 165.539V164.082L370.854 162.07C370.854 161.961 370.854 161.852 370.854 161.743C370.854 161.694 370.854 161.634 370.854 161.585C370.854 161.545 370.854 161.496 370.854 161.456C370.854 161.416 370.854 161.367 370.864 161.327C370.864 161.317 370.864 161.307 370.864 161.298C370.864 161.268 370.864 161.248 370.864 161.218C370.864 161.189 370.864 161.159 370.875 161.129C370.875 161.109 370.875 161.089 370.875 161.07C370.875 161.02 370.886 160.98 370.896 160.931C370.896 160.891 370.907 160.852 370.918 160.812C370.918 160.792 370.918 160.762 370.928 160.743C370.95 160.653 370.971 160.564 370.993 160.475C371.003 160.426 371.014 160.376 371.036 160.326C371.046 160.277 371.057 160.237 371.078 160.188C371.089 160.148 371.111 160.099 371.121 160.059C371.132 160.019 371.153 159.97 371.164 159.93C371.186 159.89 371.196 159.841 371.218 159.801C371.239 159.762 371.25 159.712 371.271 159.672C371.303 159.583 371.346 159.494 371.389 159.415C371.389 159.395 371.4 159.385 371.41 159.365C371.443 159.296 371.475 159.227 371.518 159.157C371.518 159.137 371.539 159.128 371.539 159.108C371.582 159.038 371.614 158.969 371.657 158.89C371.657 158.88 371.667 158.87 371.678 158.86C372.888 156.789 375.255 155.362 377.976 155.332C381.028 155.303 383.673 157.066 384.755 159.554C385.076 160.297 385.258 161.109 385.269 161.961L385.365 171.652C385.365 171.761 385.365 171.88 385.365 171.989V171.969Z" fill="#F3725F"/>
<path d="M370.789 163.605V164.2L370.821 166.063L370.885 171.305H371.1C371.742 170.839 372.331 170.353 372.803 169.818C374.355 168.045 374.109 164.24 370.789 163.605Z" fill="#241624"/>
<path d="M373.209 166.092C374.216 164.666 374.773 162.951 374.773 161.247C379.239 163.209 385.536 161.435 390.024 159.523C396.011 156.976 401.548 153.122 404.782 147.811C408.016 142.499 408.616 135.603 405.253 130.361C403.54 127.696 400.787 125.516 397.542 124.753C394.297 123.99 390.559 124.792 388.289 127.081C385.494 129.905 385.376 134.117 385.044 137.931C384.797 140.756 384.348 143.57 383.694 146.344C383.095 148.881 382.109 151.645 379.646 152.884C378.297 153.558 376.701 153.667 375.255 154.142C372.62 155.014 370.553 157.234 370.018 159.771C369.482 162.307 371.132 164.358 373.22 166.083L373.209 166.092Z" fill="#241624"/>
<path d="M369.088 255.59L356.375 264.121L354.565 312.903C352.744 329.778 345.408 382.255 345.408 382.255C348.289 384.306 354.94 385.525 361.805 385.366C371.047 341.202 382.475 287.437 380.279 258.899C376.349 258.315 372.504 257.245 369.077 255.59H369.088Z" fill="#241624"/>
<path d="M364.009 172.583C362.242 172.305 360.293 172.305 358.826 173.247C357.219 174.267 356.534 176.219 356.63 178.023C356.726 179.826 357.465 181.54 358.204 183.215L377.793 187.297C378.435 185.861 378.06 184.206 377.45 182.749" fill="#E2C447"/>
<path d="M366.902 171.116C366.913 172.543 368.177 173.682 369.708 173.672C371.24 173.662 372.482 172.493 372.472 171.076C372.461 169.659 371.197 168.51 369.666 168.52C368.134 168.53 366.892 169.699 366.902 171.116Z" fill="#F3725F"/>
<path d="M348.707 183.602C349.821 185.227 350.635 186.971 351.374 188.754C359.406 208.096 341.392 223.544 339.614 241.767C338.565 248.079 337.173 254.341 335.995 260.633C335.234 260.732 334.474 260.831 333.713 260.92C330.94 261.257 328.166 261.584 325.392 261.892C323.678 253.439 321.558 245.046 319.02 236.773C322.971 220.641 334.152 184.434 348.707 183.602Z" fill="#E2B647"/>
<path d="M333.949 280.442C335.256 280.353 334.452 275.121 334.452 275.121C334.452 275.121 335.952 281.889 336.948 281.988C338.522 282.147 336.68 274.477 336.68 274.477C336.68 274.477 338.908 282.771 340.525 282.196C342.142 281.612 338.929 273.635 338.929 273.635C338.929 273.635 342.453 280.968 343.738 280.254C345.023 279.531 340.086 270.236 340.086 270.236C340.086 270.236 345.248 272.406 345.783 271.455C346.704 269.86 335.952 264.836 335.952 264.836L329.654 266.669C329.654 266.669 332.642 280.532 333.938 280.442H333.949Z" fill="#F3725F"/>
<path d="M329.665 266.658L328.766 260.613L335.995 259.949L336.209 266.103L329.665 266.658Z" fill="#F3725F"/>
<path d="M393.044 70.1953C393.044 69.4323 399.995 41.2416 436.879 41.0632C461.683 40.9443 483.927 55.8373 484.045 77.4089C484.131 92.4011 472.104 101.646 456.264 107.988C450.652 110.306 450.513 114.597 450.545 119.641L450.588 128.212L423.299 128.341L423.203 111.664C423.171 104.936 423.47 99.4265 430.882 94.9476C440.938 88.933 450.363 88.4276 450.299 77.5675C450.256 70.225 444.28 65.0526 436.836 65.0823C424.927 65.1418 419.187 74.3471 417.409 80.9365L393.033 70.1854L393.044 70.1953ZM456.018 154.361C456.071 164.003 447.685 171.85 437.093 171.9C426.673 171.949 418.201 164.191 418.148 154.549C418.094 144.76 426.48 136.912 436.901 136.862C447.482 136.813 455.964 144.571 456.018 154.371V154.361Z" fill="#FF9216"/>
<path d="M353.891 208.375C351.674 214.717 348.129 220.672 343.523 225.795" stroke="#A86F24" stroke-width="0.542191" stroke-linecap="round" stroke-linejoin="round"/>
<path d="M405.082 202.906C406.603 207.147 407.556 211.567 407.909 216.026" stroke="#A86F24" stroke-width="0.542191" stroke-linecap="round" stroke-linejoin="round"/>
<path d="M354.885 184.859C359.469 188.03 365.102 189.893 370.81 190.121" stroke="#A86F24" stroke-width="0.542191" stroke-linecap="round" stroke-linejoin="round"/>
<path d="M392.574 183.058C392.327 182.959 392.745 182.622 392.916 182.81C393.088 182.998 392.959 183.286 392.831 183.504C390.957 186.466 388.065 188.855 384.67 190.252" stroke="#A86F24" stroke-width="0.542191" stroke-linecap="round" stroke-linejoin="round"/>
<path d="M345.984 244.473H402.35" stroke="#A86F24" stroke-width="0.542191" stroke-linecap="round" stroke-linejoin="round"/>
<path d="M359.93 268.889C359.93 268.889 368.037 263.399 368.465 256.176" stroke="#A098A5" stroke-width="0.384462" stroke-linecap="round" stroke-linejoin="round"/>
<path d="M383.438 271.73C383.438 271.73 389.253 261.444 388.728 255.578" stroke="#A098A5" stroke-width="0.384462" stroke-linecap="round" stroke-linejoin="round"/>
<path d="M88.0319 207.105C87.7963 206.61 87.55 206.114 87.293 205.629C87.5393 206.124 87.7856 206.62 88.0319 207.105Z" fill="#FFBF80"/>
<path d="M147.727 197.811C148.616 195.433 149.087 193.005 148.68 190.469C148.402 188.755 147.748 187.189 146.806 185.772C145.21 183.374 142.822 181.402 140.091 179.846C138.227 178.786 136.214 177.914 134.2 177.24C133.911 177.141 133.611 177.042 133.322 176.953C131.769 176.477 130.195 176.071 128.599 175.734C121.466 174.238 113.991 174.169 106.826 175.506C104.224 175.992 101.653 176.666 99.1579 177.528C95.0239 178.955 91.4897 181.472 88.9407 184.682C86.8952 187.258 85.4815 190.29 84.8924 193.57C84.6033 195.156 84.5818 196.622 84.7425 198C84.7746 198.267 84.8175 198.535 84.8603 198.802C85.1602 198.822 85.46 198.951 85.6849 199.238C88.1696 202.34 90.0545 205.808 91.404 209.474C91.4682 209.652 91.5325 209.841 91.5968 210.029C91.7146 210.108 91.8217 210.197 91.8966 210.326C94.2956 214.23 95.463 218.412 96.0627 222.722C97.3158 227.27 98.0548 231.927 98.5046 236.614C98.5581 236.733 98.5903 236.862 98.5903 237.021C98.5903 237.169 98.5903 237.318 98.5903 237.467C98.858 240.39 99.0186 243.323 99.1364 246.256C99.1793 246.256 99.2328 246.256 99.2757 246.266C110.671 247.266 122.195 246.87 133.472 245.096C135.668 244.75 137.917 244.333 139.748 243.144C143.796 240.548 144.471 235.217 143.604 230.61C143.55 230.332 143.496 230.055 143.432 229.787C142.329 225.011 140.069 220.344 140.423 215.469C140.873 209.206 145.563 203.638 147.738 197.811H147.727Z" fill="#FF9216"/>
<path d="M129.735 176.417C125.044 174.009 122.217 163.318 123.191 158.363L113.895 163.665C114.013 167.113 111.828 169.56 109.815 172.434C108.765 173.93 107.512 175.496 105.67 175.981C108.326 179.321 112.92 180.995 117.344 181.094C121.777 181.203 126.907 179.618 129.735 176.407V176.417Z" fill="#F3725F"/>
<path d="M109.473 172.891C112.204 172.436 114.967 171.603 117.055 169.859C119.015 168.224 120.107 166.005 120.697 163.656H113.896C114.014 167.105 111.829 169.552 109.815 172.426C109.708 172.584 109.601 172.733 109.483 172.891H109.473Z" fill="#2D1A14"/>
<path d="M138.689 385.041C138.068 388.727 140.177 392.681 143.701 394.405C146.089 395.574 148.863 395.753 151.455 396.427C156.51 397.754 160.912 401.133 163.3 405.533H129.082V384.754L138.689 385.041Z" fill="#F2E9E2"/>
<path d="M152.237 396.111C151.658 395.963 151.059 395.834 150.47 395.715C148.06 399.49 143.808 401.185 139.096 400.62C135.412 400.174 132.059 398.767 129.082 396.775V405.535H164.499C162.036 400.986 157.474 397.479 152.237 396.111Z" fill="#F2E9E2"/>
<path d="M98.0239 383.135C98.6986 387.129 96.4067 391.409 92.594 393.282C90.0129 394.55 87.0035 394.739 84.1975 395.472C78.7248 396.909 73.9482 400.575 71.3672 405.341H108.434V382.828L98.0239 383.135Z" fill="#F2E9E2"/>
<path d="M84.1975 395.472C87.0035 394.738 90.0129 394.55 92.594 393.282C92.7011 393.232 92.7975 393.173 92.9046 393.113C98.1952 396.631 103.432 396.73 108.434 395.016V405.341H71.3672C73.9482 400.575 78.7248 396.908 84.1975 395.472Z" fill="#EFDECE"/>
<path d="M109.514 384.801C110.189 374.872 116.947 268.282 116.336 258.354L98.8902 246.047C81.0584 265.686 93.3425 373.742 93.803 384.692L109.525 384.801H109.514Z" fill="#241624"/>
<path d="M142.513 385.671C142.534 372.998 152.901 278.011 139.653 244.133L117.495 254.854C117.313 266.15 126.416 374.256 127.862 385.463L142.524 385.681L142.513 385.671Z" fill="#241624"/>
<path d="M98.7638 244.49L139.739 243.152C139.739 243.152 145.009 262.633 145.384 273.592L119.209 279.875H115.578L90.7207 271.571C90.7207 271.571 93.2375 250.743 98.7638 244.48V244.49Z" fill="#241624"/>
<path d="M94.7451 208.027L93.9311 235.415C93.8454 238.249 95.3983 240.895 97.9901 242.352L100.86 243.957L106.022 240.36L102.777 216.47L94.7558 208.027H94.7451Z" fill="#FF9216"/>
<path d="M139.181 245.929H100.005C98.9016 245.929 98.002 245.077 98.002 244.047C98.002 243.006 98.9016 242.164 100.005 242.164H139.181C140.284 242.164 141.184 243.016 141.184 244.047C141.184 245.087 140.284 245.929 139.181 245.929Z" fill="#241624"/>
<path d="M116.358 166.935C112.749 166.935 109.793 164.16 109.793 160.762V151.814C109.793 148.415 112.749 145.641 116.358 145.641C119.967 145.641 122.923 148.415 122.923 151.814V160.762C122.923 164.16 119.967 166.935 116.358 166.935Z" fill="#F3725F"/>
<path d="M124.209 160.862C125.605 160.862 126.737 159.797 126.737 158.484C126.737 157.17 125.605 156.105 124.209 156.105C122.813 156.105 121.682 157.17 121.682 158.484C121.682 159.797 122.813 160.862 124.209 160.862Z" fill="#F3725F"/>
<path d="M110.361 277.023C110.361 277.023 118.169 282.701 126.48 277.023" stroke="#CCCCCC" stroke-width="0.586552" stroke-linecap="round" stroke-linejoin="round"/>
<path d="M109.794 398.477C109.794 398.477 95.2925 398.625 91.5977 404.422" stroke="#E0C7B3" stroke-width="0.857647" stroke-linecap="round" stroke-linejoin="round"/>
<path d="M87.2499 393.801L92.744 397.556C93.2046 397.873 93.8472 397.774 94.1792 397.348C94.5112 396.922 94.4148 396.308 93.9543 396.001L88.4601 392.245C87.9996 391.928 87.357 392.027 87.025 392.453C86.693 392.879 86.7894 393.494 87.2499 393.801Z" fill="#E0C7B3"/>
<path d="M83.1484 395.434L88.6425 399.189C89.103 399.506 89.7456 399.407 90.0776 398.981C90.4096 398.555 90.3132 397.941 89.8527 397.633L84.3586 393.878C83.898 393.561 83.2555 393.66 82.9235 394.086C82.5914 394.512 82.6878 395.126 83.1484 395.434Z" fill="#E0C7B3"/>
<path d="M139.257 385.543C139.749 388.575 141.773 391.409 144.676 392.846C147.257 394.114 150.266 394.302 153.072 395.036C158.545 396.472 163.321 400.139 165.903 404.905H128.836V385.543H139.257Z" fill="#F2E9E2"/>
<path d="M153.072 395.026C150.266 394.293 147.257 394.105 144.676 392.836C144.569 392.787 144.472 392.727 144.365 392.668C139.074 396.186 133.837 396.285 128.836 394.57V404.896H165.903C163.321 400.129 158.545 396.463 153.072 395.026Z" fill="#EFDECE"/>
<path d="M129.693 398.039C129.693 398.039 144.194 398.188 147.889 403.984" stroke="#E0C7B3" stroke-width="0.857647" stroke-linecap="round" stroke-linejoin="round"/>
<path d="M164.575 407.375H129.714C128.697 407.375 127.861 406.592 127.861 405.631C127.861 404.669 128.697 403.887 129.714 403.887H164.575C165.592 403.887 166.427 404.669 166.427 405.631C166.427 406.592 165.592 407.375 164.575 407.375Z" fill="#E0C7B3"/>
<path d="M150.019 393.352L144.525 397.107C144.064 397.424 143.421 397.325 143.089 396.899C142.757 396.473 142.854 395.858 143.314 395.551L148.808 391.796C149.269 391.479 149.912 391.578 150.244 392.004C150.576 392.43 150.479 393.044 150.019 393.352Z" fill="#E0C7B3"/>
<path d="M154.399 395.237L149.034 398.903C148.584 399.21 147.963 399.111 147.631 398.695C147.309 398.279 147.406 397.684 147.856 397.377L153.221 393.711C153.671 393.403 154.292 393.503 154.624 393.919C154.945 394.335 154.849 394.929 154.399 395.237Z" fill="#E0C7B3"/>
<path d="M131.032 207.48C127.123 216.359 119.744 223.285 110.288 226.951C109.72 227.169 109.474 226.307 110.03 226.089C119.145 222.562 126.341 215.804 130.111 207.243C130.347 206.717 131.268 206.945 131.032 207.48Z" fill="#DBC86A"/>
<path d="M101.89 184.85L101.173 181.422C101.066 180.887 100.509 180.54 99.9411 180.649L95.1539 181.531C94.5862 181.64 94.2221 182.155 94.3292 182.69L95.0468 186.119C95.1539 186.654 95.7108 187.001 96.2784 186.892L101.066 186.01C101.633 185.901 101.997 185.385 101.89 184.85Z" fill="#E5AC73"/>
<path d="M49.3052 190.666L64.7166 210.087L84.4441 187.158C84.4441 187.158 84.5619 187.029 84.6047 186.98C88.2675 182.927 94.7148 182.422 99.0201 185.84C103.315 189.259 103.829 195.323 100.166 199.376L73.6379 228.716L72.6419 229.816C72.1278 230.38 71.5281 230.876 70.8426 231.302C66.8693 233.769 61.5358 232.749 58.9226 229.023L39.7949 199.207L49.3052 190.656V190.666Z" fill="#FF9216"/>
<path d="M39.7944 187.139C39.9443 186.267 40.1478 185.385 40.6511 184.642C41.0046 184.126 41.4865 183.69 41.9684 183.274C43.1894 182.194 44.4103 181.124 45.6312 180.044C48.9191 180.014 52.5711 180.718 55.677 181.718C55.6984 182.006 55.3664 182.184 55.0665 182.254C52.8282 182.789 50.3221 181.154 48.2658 182.154C49.4439 182.154 50.5898 182.898 51.5537 183.542C51.8857 183.76 52.1963 184.037 52.3248 184.394C52.4748 184.81 52.3248 185.315 51.9607 185.603C51.5965 185.89 51.0503 185.94 50.6327 185.722C51.2431 186.346 51.0075 187.228 50.4506 187.902C49.8937 188.575 48.9941 188.932 48.1052 189.091C47.4947 190.042 46.0596 190.448 44.9136 190.191C45.7383 191.023 47.0235 192.014 48.1266 192.638C47.152 194.243 45.5455 195.621 43.8962 196.78C42.8466 195.264 41.8292 193.817 40.8011 192.192C40.5119 191.736 40.1799 191.578 39.9764 191.082C39.4731 189.834 39.5694 188.457 39.7944 187.139Z" fill="#F3725F"/>
<path d="M10.9834 91.8051C10.9727 91.1115 16.9166 65.3088 50.5454 64.7044C73.1752 64.2981 93.6737 77.6057 94.0807 97.2847C94.3699 110.959 83.5315 119.53 69.1804 125.515C64.0933 127.705 64.029 131.609 64.1254 136.217L64.286 144.035L39.3965 144.481L39.0752 129.271C38.9467 123.127 39.1394 118.103 45.8438 113.932C54.9257 108.323 63.5149 107.748 63.3115 97.8396C63.1722 91.1412 57.6353 86.494 50.8559 86.6129C39.9962 86.8111 34.8983 95.2732 33.3561 101.308L10.9727 91.7952L10.9834 91.8051ZM69.6195 167.806C69.8016 176.595 62.2619 183.859 52.6124 184.027C43.1128 184.195 35.2625 177.22 35.0804 168.43C34.8876 159.503 42.438 152.239 51.9376 152.071C61.5872 151.892 69.4375 158.878 69.6195 167.806Z" fill="#FF9216"/>
<path d="M71.0555 407.987H108.326C109.418 407.987 110.307 407.155 110.307 406.125C110.307 405.104 109.418 404.262 108.326 404.262H71.0555C69.9631 404.262 69.0742 405.094 69.0742 406.125C69.0742 407.145 69.9631 407.987 71.0555 407.987Z" fill="#E0C7B3"/>
<path d="M60.4727 408.363H411.047" stroke="#FF9216" stroke-width="1.9716" stroke-miterlimit="10"/>
<path d="M135.367 178.805C137.445 179.508 139.362 180.499 141.236 181.559C161.574 193.093 157.183 216.964 168.45 233.432C171.984 239.397 175.197 245.521 178.603 251.556C178.024 252.091 177.457 252.636 176.879 253.171C174.769 255.123 172.648 257.055 170.517 258.987C163.149 252.873 155.47 247.047 147.534 241.577C139.576 225.575 123.662 188.258 135.378 178.815L135.367 178.805Z" fill="#FF9216"/>
<path d="M190.758 269.522C191.797 268.67 187.459 264.716 187.459 264.716C187.459 264.716 193.467 269.532 194.378 269.017C195.813 268.204 188.894 262.824 188.894 262.824C188.894 262.824 196.594 268.501 197.548 267.045C198.501 265.588 190.19 260.763 190.19 260.763C190.19 260.763 198.308 264.845 198.886 263.468C199.465 262.09 188.776 257.195 188.776 257.195C188.776 257.195 194.656 255.927 194.453 254.807C194.11 252.915 181.504 255.115 181.504 255.115L177.467 260.445C177.467 260.445 189.697 270.374 190.747 269.522H190.758Z" fill="#F3725F"/>
<path d="M181.719 260.415C183.283 262.179 185.907 263.1 188.327 262.555C189.013 262.407 188.724 261.426 188.038 261.584C185.971 262.05 183.808 261.188 182.49 259.712C182.308 259.503 181.912 259.533 181.719 259.712C181.494 259.92 181.527 260.217 181.719 260.425V260.415Z" fill="#D6594C"/>
<path d="M177.478 260.446L172.477 255.868L178.121 250.973L182.619 256.046L177.478 260.446Z" fill="#F3725F"/>
<path d="M145.06 204.715C145.617 210.155 146.741 217.408 144.225 233.986L145.06 204.715Z" fill="#DBC86A"/>
<path d="M105.562 141.251C103.517 143.768 105.605 147.464 107.693 149.366C109.975 151.447 113.327 152.369 116.529 152.18C117.043 155.014 119.838 156.778 122.944 156.897C123.255 153.845 123.18 150.625 122.58 147.612C122.216 145.829 121.498 144.035 120.063 142.787C117.257 140.349 108.839 137.813 105.798 140.983C105.712 141.073 105.637 141.152 105.562 141.241V141.251Z" fill="#241624"/>
<path d="M132.378 134.423C133.394 128.632 129.144 123.176 122.885 122.236C116.626 121.296 110.729 125.228 109.713 131.019C108.697 136.81 112.947 142.266 119.206 143.206C125.464 144.146 131.362 140.214 132.378 134.423Z" fill="#241624"/>
<path d="M336.723 20.1751C337.065 19.7589 353.687 7.05574 373.929 21.3146C387.541 30.9064 392.928 47.7118 383.182 59.543C376.403 67.7773 365.639 68.1439 354.083 65.4487C349.96 64.5371 347.936 66.826 345.655 69.5906L341.788 74.2973L326.816 63.7444L334.345 54.5886C337.387 50.8926 340.053 47.9992 346.147 48.4451C354.383 49.0694 359.759 52.4681 364.665 46.503C367.985 42.47 367.064 37.3174 362.983 34.4339C356.45 29.8263 349.125 32.6305 345.151 35.5338L336.712 20.1751H336.723ZM332.878 90.7064C328.519 95.9978 320.369 97.0184 314.564 92.926C308.845 88.8931 307.742 81.3525 312.101 76.0611C316.524 70.6905 324.674 69.6699 330.393 73.6929C336.198 77.7853 337.301 85.3259 332.878 90.7064Z" fill="#FF9216"/>
<path d="M441.516 241.123C441.72 240.786 452.408 230.085 468.58 238.577C479.45 244.284 485.127 255.967 479.333 265.42C475.295 271.989 467.541 273.238 458.898 272.326C455.814 272.039 454.593 273.872 453.233 276.092L450.93 279.847L438.967 273.565L443.455 266.252C445.265 263.299 446.893 260.961 451.348 260.733C457.378 260.436 461.629 262.407 464.553 257.651C466.524 254.431 465.314 250.784 462.058 249.07C456.842 246.325 451.83 249.021 449.27 251.488L441.538 241.133L441.516 241.123ZM446.207 292.53C443.616 296.752 437.822 298.238 433.184 295.8C428.622 293.402 427.015 288.042 429.618 283.811C432.252 279.52 438.046 278.044 442.609 280.442C447.246 282.879 448.842 288.24 446.207 292.53Z" fill="#FFD36A"/>
<path d="M106.933 44.2345C106.644 43.8679 99.4685 27.9741 117.279 16.0834C129.263 8.07708 145.606 8.17617 153.735 18.5904C159.39 25.8338 157.012 34.1572 151.711 42.3122C149.858 45.2353 151.39 47.3558 153.296 49.7934L156.52 53.9353L143.347 62.7344L137.06 54.6785C134.522 51.4284 132.605 48.6638 134.532 44.1156C137.156 37.982 141.537 34.722 137.445 29.4703C134.682 25.9229 129.842 25.3284 126.254 27.7363C120.503 31.5809 121.167 37.873 122.773 41.6384L106.944 44.2345H106.933ZM168.943 64.8648C172.574 69.522 171.438 76.0123 166.33 79.4209C161.296 82.78 154.281 81.7297 150.651 77.0824C146.956 72.3559 148.091 65.8656 153.125 62.5065C158.233 59.0879 165.248 60.1383 168.943 64.8648Z" fill="#FFD36A"/>
<path d="M1.87858 277.487C1.55728 277.071 -6.52862 259.176 13.5308 245.779C27.0252 236.772 45.4353 236.871 54.5922 248.603C60.9538 256.758 58.2871 266.132 52.311 275.317C50.2226 278.607 51.9576 280.995 54.0996 283.74L57.7302 288.397L42.8864 298.306L35.8072 289.239C32.9477 285.583 30.795 282.462 32.9584 277.349C35.9143 270.442 40.8408 266.766 36.2356 260.86C33.1191 256.867 27.6785 256.203 23.6302 258.898C17.1507 263.219 17.9004 270.313 19.7104 274.554L1.87858 277.477V277.487ZM71.7172 300.704C75.8083 305.946 74.5339 313.248 68.772 317.093C63.1065 320.878 55.2134 319.699 51.1222 314.457C46.9668 309.136 48.2413 301.824 53.9068 298.038C59.6579 294.194 67.5618 295.373 71.7172 300.704Z" fill="#FFD36A"/>
<path d="M85.0523 45.0673C85.0523 47.8616 82.8461 50.1308 80.1365 50.1308C77.4269 50.1308 75.2207 47.8616 75.2207 45.0673C75.2207 42.273 77.4269 40.0039 80.1365 40.0039C82.8461 40.0039 85.0523 42.273 85.0523 45.0673Z" fill="#E8B582"/>
<path d="M22.9766 181.505C24.0948 177.122 21.1605 172.729 16.4228 171.695C11.685 170.66 6.93784 173.375 5.81962 177.758C4.70141 182.142 7.63563 186.534 12.3734 187.569C17.1111 188.603 21.8584 185.888 22.9766 181.505Z" fill="#E8B582"/>
<path opacity="0.36" d="M476.57 327.316C478.495 319.096 472.852 310.988 463.967 309.208C455.081 307.427 446.319 312.648 444.394 320.869C442.47 329.09 448.113 337.197 456.998 338.978C465.883 340.758 474.646 335.537 476.57 327.316Z" fill="#F2F995"/>
<path d="M236.146 162.735C236.146 166.273 233.04 169.146 229.216 169.146C225.393 169.146 222.287 166.273 222.287 162.735C222.287 159.198 225.393 156.324 229.216 156.324C233.04 156.324 236.146 159.198 236.146 162.735Z" fill="#E8B582"/>
<path d="M301.669 11.1957C301.669 13.445 299.698 15.2782 297.256 15.2782C294.814 15.2782 292.844 13.455 292.844 11.1957C292.844 8.93651 294.814 7.11328 297.256 7.11328C299.698 7.11328 301.669 8.93651 301.669 11.1957Z" fill="#E8B582"/>
<path d="M481.196 212.278C481.196 214.527 479.225 216.36 476.784 216.36C474.342 216.36 472.371 214.537 472.371 212.278C472.371 210.019 474.342 208.195 476.784 208.195C479.225 208.195 481.196 210.019 481.196 212.278Z" fill="#E8B582"/>
<path d="M443.403 374.891C443.403 377.14 441.432 378.973 438.991 378.973C436.549 378.973 434.578 377.15 434.578 374.891C434.578 372.632 436.549 370.809 438.991 370.809C441.432 370.809 443.403 372.632 443.403 374.891Z" fill="#E8B582"/>
<path d="M64.7995 362.657C64.7995 364.906 62.8289 366.739 60.387 366.739C57.9452 366.739 55.9746 364.916 55.9746 362.657C55.9746 360.397 57.9452 358.574 60.387 358.574C62.8289 358.574 64.7995 360.397 64.7995 362.657Z" fill="#E8B582"/>
<path opacity="0.36" d="M364.031 113.19C365.77 113.19 367.18 111.885 367.18 110.276C367.18 108.668 365.77 107.363 364.031 107.363C362.293 107.363 360.883 108.668 360.883 110.276C360.883 111.885 362.293 113.19 364.031 113.19Z" fill="#A595FA"/>
<path d="M204.649 355.658C204.649 358.879 201.833 361.485 198.352 361.485C194.871 361.485 192.055 358.879 192.055 355.658C192.055 352.438 194.871 349.832 198.352 349.832C201.833 349.832 204.649 352.438 204.649 355.658Z" fill="#E8B582"/>
<path d="M28.6097 351.566C27.785 351.566 27.0996 350.942 27.0996 350.169V341.112C27.0996 340.349 27.7743 339.715 28.6097 339.715C29.4343 339.715 30.1198 340.339 30.1198 341.112V350.169C30.1198 350.932 29.4451 351.566 28.6097 351.566Z" fill="#EDF995"/>
<path d="M22.2168 345.651C22.2168 344.888 22.8915 344.254 23.7269 344.254H33.5156C34.3403 344.254 35.0257 344.878 35.0257 345.651C35.0257 346.414 34.351 347.048 33.5156 347.048H23.7269C22.9022 347.048 22.2168 346.424 22.2168 345.651Z" fill="#EDF995"/>
<path d="M145.293 112.058C144.469 112.058 143.783 111.434 143.783 110.661V101.604C143.783 100.841 144.458 100.207 145.293 100.207C146.118 100.207 146.803 100.831 146.803 101.604V110.661C146.803 111.424 146.129 112.058 145.293 112.058Z" fill="#EDF995"/>
<path d="M138.9 106.143C138.9 105.38 139.575 104.746 140.41 104.746H150.199C151.024 104.746 151.709 105.37 151.709 106.143C151.709 106.906 151.035 107.54 150.199 107.54H140.41C139.586 107.54 138.9 106.916 138.9 106.143Z" fill="#EDF995"/>
<path d="M297.866 260.433C297.041 260.433 296.355 259.809 296.355 259.036V249.979C296.355 249.216 297.03 248.582 297.866 248.582C298.69 248.582 299.376 249.206 299.376 249.979V259.036C299.376 259.799 298.701 260.433 297.866 260.433Z" fill="#EDF995"/>
<path d="M291.473 254.518C291.473 253.755 292.147 253.121 292.983 253.121H302.772C303.596 253.121 304.282 253.745 304.282 254.518C304.282 255.281 303.607 255.915 302.772 255.915H292.983C292.158 255.915 291.473 255.291 291.473 254.518Z" fill="#EDF995"/>
<path d="M198.2 301.456C197.375 301.456 196.689 300.832 196.689 300.059V291.003C196.689 290.24 197.364 289.605 198.2 289.605C199.024 289.605 199.71 290.23 199.71 291.003V300.059C199.71 300.822 199.035 301.456 198.2 301.456Z" fill="#EDF995"/>
<path d="M191.807 295.53C191.807 294.767 192.481 294.133 193.317 294.133H203.105C203.93 294.133 204.616 294.757 204.616 295.53C204.616 296.293 203.941 296.927 203.105 296.927H193.317C192.492 296.927 191.807 296.303 191.807 295.53Z" fill="#EDF995"/>
<path d="M18.383 136.267C17.719 136.267 17.1621 135.762 17.1621 135.138V127.825C17.1621 127.211 17.7083 126.695 18.383 126.695C19.047 126.695 19.6039 127.201 19.6039 127.825V135.138C19.6039 135.752 19.0577 136.267 18.383 136.267Z" fill="#EDF995"/>
<path d="M13.2109 131.493C13.2109 130.879 13.7571 130.363 14.4319 130.363H22.3357C22.9997 130.363 23.5566 130.869 23.5566 131.493C23.5566 132.107 23.0104 132.623 22.3357 132.623H14.4319C13.7678 132.623 13.2109 132.117 13.2109 131.493Z" fill="#EDF995"/>
<path d="M305.28 63.1306C304.616 63.1306 304.059 62.6252 304.059 62.0009V54.6882C304.059 54.0739 304.605 53.5586 305.28 53.5586C305.944 53.5586 306.5 54.0639 306.5 54.6882V62.0009C306.5 62.6153 305.954 63.1306 305.28 63.1306Z" fill="#EDF995"/>
<path d="M300.117 58.3562C300.117 57.7418 300.663 57.2266 301.338 57.2266H309.242C309.906 57.2266 310.463 57.7319 310.463 58.3562C310.463 58.9705 309.917 59.4858 309.242 59.4858H301.338C300.674 59.4858 300.117 58.9804 300.117 58.3562Z" fill="#EDF995"/>
<path d="M480.842 170.404C480.178 170.404 479.621 169.899 479.621 169.274V161.962C479.621 161.347 480.167 160.832 480.842 160.832C481.506 160.832 482.063 161.337 482.063 161.962V169.274C482.063 169.889 481.517 170.404 480.842 170.404Z" fill="#EDF995"/>
<path d="M475.67 165.618C475.67 165.004 476.216 164.488 476.891 164.488H484.795C485.459 164.488 486.016 164.994 486.016 165.618C486.016 166.232 485.469 166.748 484.795 166.748H476.891C476.227 166.748 475.67 166.242 475.67 165.618Z" fill="#EDF995"/>
<path d="M310.783 324.17C310.119 324.17 309.562 323.664 309.562 323.04V315.727C309.562 315.113 310.109 314.598 310.783 314.598C311.447 314.598 312.004 315.103 312.004 315.727V323.04C312.004 323.654 311.458 324.17 310.783 324.17Z" fill="#EDF995"/>
<path d="M305.611 319.391C305.611 318.777 306.158 318.262 306.832 318.262H314.736C315.4 318.262 315.957 318.767 315.957 319.391C315.957 320.006 315.411 320.521 314.736 320.521H306.832C306.168 320.521 305.611 320.016 305.611 319.391Z" fill="#EDF995"/>
<path d="M261.988 9.56206C261.324 9.56206 260.768 9.05671 260.768 8.43245V1.12961C260.768 0.515261 261.314 0 261.988 0C262.653 0 263.209 0.505352 263.209 1.12961V8.44236C263.209 9.05671 262.663 9.57197 261.988 9.57197V9.56206Z" fill="#EDF995"/>
<path d="M256.826 4.77414C256.826 4.15979 257.372 3.64453 258.047 3.64453H265.951C266.615 3.64453 267.172 4.14988 267.172 4.77414C267.172 5.38849 266.626 5.90375 265.951 5.90375H258.047C257.383 5.90375 256.826 5.3984 256.826 4.77414Z" fill="#EDF995"/>
</svg>
