<svg width="455" height="458" viewBox="0 0 455 458" fill="none" xmlns="http://www.w3.org/2000/svg">
<path d="M363.205 286.585L419.337 286.609L419.369 209.113L377.686 209.09L363.227 223.844L363.205 286.585Z" fill="#EBEBEB"/>
<path d="M377.686 209.09L363.227 223.844L377.686 223.855V209.09Z" fill="#DBDBDB"/>
<path d="M413.895 222.105H382.682V224.092H413.895V222.105Z" fill="#DBDBDB"/>
<path d="M413.895 227.125H382.682V229.112H413.895V227.125Z" fill="#DBDBDB"/>
<path d="M413.883 232.145H382.67V234.131H413.883V232.145Z" fill="#DBDBDB"/>
<path d="M413.883 237.164H368.156V239.151H413.883V237.164Z" fill="#DBDBDB"/>
<path d="M413.883 242.195H368.156V244.182H413.883V242.195Z" fill="#DBDBDB"/>
<path d="M413.872 247.215H368.145V249.202H413.872V247.215Z" fill="#DBDBDB"/>
<path d="M413.872 252.234H368.145V254.221H413.872V252.234Z" fill="#DBDBDB"/>
<path d="M413.872 257.27H368.145V259.256H413.872V257.27Z" fill="#DBDBDB"/>
<path d="M413.872 262.289H368.145V264.276H413.872V262.289Z" fill="#DBDBDB"/>
<path d="M413.862 267.309H368.135V269.295H413.862V267.309Z" fill="#DBDBDB"/>
<path d="M413.862 272.34H368.135V274.327H413.862V272.34Z" fill="#DBDBDB"/>
<path d="M413.862 277.359H368.135V279.346H413.862V277.359Z" fill="#DBDBDB"/>
<path d="M380.725 304.277L436.856 304.3L436.889 226.793L395.217 226.77L380.757 241.535L380.725 304.277Z" fill="#DBDBDB"/>
<path d="M395.217 226.77L380.758 241.535L395.206 241.547L395.217 226.77Z" fill="#C7C7C7"/>
<path d="M431.413 239.797H400.199V241.784H431.413V239.797Z" fill="#C7C7C7"/>
<path d="M431.413 244.816H400.199V246.803H431.413V244.816Z" fill="#C7C7C7"/>
<path d="M431.413 249.836H400.199V251.823H431.413V249.836Z" fill="#C7C7C7"/>
<path d="M431.401 254.855H385.674V256.842H431.401V254.855Z" fill="#C7C7C7"/>
<path d="M431.401 259.887H385.674V261.873H431.401V259.887Z" fill="#C7C7C7"/>
<path d="M431.401 264.906H385.674V266.893H431.401V264.906Z" fill="#C7C7C7"/>
<path d="M431.401 269.926H385.674V271.913H431.401V269.926Z" fill="#C7C7C7"/>
<path d="M431.391 274.949H385.664V276.936H431.391V274.949Z" fill="#C7C7C7"/>
<path d="M431.391 279.98H385.664V281.967H431.391V279.98Z" fill="#C7C7C7"/>
<path d="M431.391 285H385.664V286.987H431.391V285Z" fill="#C7C7C7"/>
<path d="M431.391 290.02H385.664V292.006H431.391V290.02Z" fill="#C7C7C7"/>
<path d="M431.391 295.051H385.664V297.038H431.391V295.051Z" fill="#C7C7C7"/>
<path d="M398.254 321.972L454.385 321.996L454.418 244.488L412.735 244.465L398.276 259.23L398.254 321.972Z" fill="#C7C7C7"/>
<path d="M412.734 244.465L398.275 259.23L412.734 259.242V244.465Z" fill="#A6A6A6"/>
<path d="M448.944 257.48H417.73V259.467H448.944V257.48Z" fill="#A6A6A6"/>
<path d="M448.932 262.512H417.719V264.498H448.932V262.512Z" fill="#A6A6A6"/>
<path d="M448.932 267.531H417.719V269.518H448.932V267.531Z" fill="#A6A6A6"/>
<path d="M448.932 272.551H403.205V274.538H448.932V272.551Z" fill="#A6A6A6"/>
<path d="M448.92 277.57H403.193V279.557H448.92V277.57Z" fill="#A6A6A6"/>
<path d="M448.92 282.602H403.193V284.588H448.92V282.602Z" fill="#A6A6A6"/>
<path d="M448.92 287.621H403.193V289.608H448.92V287.621Z" fill="#A6A6A6"/>
<path d="M448.92 292.645H403.193V294.631H448.92V292.645Z" fill="#A6A6A6"/>
<path d="M448.92 297.676H403.193V299.663H448.92V297.676Z" fill="#A6A6A6"/>
<path d="M448.911 302.695H403.184V304.682H448.911V302.695Z" fill="#A6A6A6"/>
<path d="M448.911 307.715H403.184V309.702H448.911V307.715Z" fill="#A6A6A6"/>
<path d="M448.911 312.746H403.184V314.733H448.911V312.746Z" fill="#A6A6A6"/>
<path d="M148.744 241.926H78.4043V197.523H79.4972V240.75H148.744V241.926Z" fill="#D68D3E"/>
<path d="M242.46 175.784H241.367V134.109H36.0215V132.934H242.46V175.784Z" fill="#D68D3E"/>
<path d="M377.815 198.107H61.9116C58.2067 198.107 55.2012 194.862 55.2012 190.889V133.531H56.2941V190.889C56.2941 194.227 58.8187 196.931 61.9116 196.931H377.826V198.107H377.815Z" fill="#D68D3E"/>
<path d="M94.5346 154.635H61.9333C58.2174 154.635 55.201 151.39 55.201 147.393V142.197L43.9004 134.003L44.5124 133.027L56.2939 141.562V147.381C56.2939 150.732 58.8295 153.447 61.9333 153.447H94.5346C97.6494 153.447 100.174 150.72 100.174 147.381V140.798L110.021 133.027L110.666 133.98L101.267 141.398V147.381C101.267 151.378 98.2505 154.623 94.5346 154.623V154.635Z" fill="#D68D3E"/>
<path d="M117.411 197.934L109.793 189.74V160.679C109.793 157.34 107.269 154.637 104.176 154.637H88.6895V153.461H104.176C107.881 153.461 110.886 156.706 110.886 160.679V189.246L118.187 197.099L117.411 197.934Z" fill="#D68D3E"/>
<path d="M268.831 198.319L262.296 191.289V182.414C262.296 179.075 259.771 176.371 256.678 176.371H207.191C204.088 176.371 201.574 179.087 201.574 182.414V191.289L195.399 197.931L194.623 197.097L200.481 190.796V182.402C200.481 178.416 203.497 175.184 207.191 175.184H256.678C260.383 175.184 263.389 178.428 263.389 182.402V190.796L269.607 197.485L268.831 198.319Z" fill="#D68D3E"/>
<path d="M160.701 220.868H119.52C115.815 220.868 112.809 217.624 112.809 213.65V205.903L105.389 197.921L106.165 197.086L113.902 205.409V213.638C113.902 216.977 116.427 219.681 119.52 219.681H160.701C163.804 219.681 166.318 216.965 166.318 213.638V205.797L174.056 197.474L174.832 198.309L167.411 206.291V213.65C167.411 217.635 164.395 220.868 160.701 220.868Z" fill="#D68D3E"/>
<path d="M353.849 220.868H312.668C308.963 220.868 305.958 217.624 305.958 213.65V205.903L298.537 197.921L299.313 197.086L307.051 205.409V213.638C307.051 216.977 309.575 219.681 312.668 219.681H353.849C356.953 219.681 359.466 216.965 359.466 213.638V205.797L367.204 197.474L367.98 198.309L360.559 206.291V213.65C360.559 217.635 357.543 220.868 353.849 220.868Z" fill="#D68D3E"/>
<path d="M42.1752 133.521C42.1752 137.177 39.4211 140.14 36.0222 140.14C32.6233 140.14 29.8691 137.177 29.8691 133.521C29.8691 129.865 32.6233 126.902 36.0222 126.902C39.4211 126.902 42.1752 129.865 42.1752 133.521Z" fill="#D68D3E"/>
<path d="M132.821 140.14C136.219 140.14 138.974 137.176 138.974 133.521C138.974 129.866 136.219 126.902 132.821 126.902C129.423 126.902 126.668 129.866 126.668 133.521C126.668 137.176 129.423 140.14 132.821 140.14Z" fill="#D68D3E"/>
<path d="M132.821 204.655C136.219 204.655 138.974 201.692 138.974 198.037C138.974 194.381 136.219 191.418 132.821 191.418C129.423 191.418 126.668 194.381 126.668 198.037C126.668 201.692 129.423 204.655 132.821 204.655Z" fill="#D68D3E"/>
<path d="M132.821 205.245C129.127 205.245 126.121 202.012 126.121 198.038C126.121 194.065 129.127 190.832 132.821 190.832C136.515 190.832 139.52 194.065 139.52 198.038C139.52 202.012 136.515 205.245 132.821 205.245ZM132.821 192.008C129.728 192.008 127.214 194.712 127.214 198.038C127.214 201.365 129.728 204.069 132.821 204.069C135.914 204.069 138.427 201.365 138.427 198.038C138.427 194.712 135.914 192.008 132.821 192.008Z" fill="#D68D3E"/>
<path d="M191.642 198.037C191.642 201.693 188.888 204.655 185.489 204.655C182.09 204.655 179.336 201.693 179.336 198.037C179.336 194.38 182.09 191.418 185.489 191.418C188.888 191.418 191.642 194.38 191.642 198.037Z" fill="#D68D3E"/>
<path d="M185.489 205.245C181.795 205.245 178.789 202.012 178.789 198.038C178.789 194.065 181.795 190.832 185.489 190.832C189.183 190.832 192.188 194.065 192.188 198.038C192.188 202.012 189.183 205.245 185.489 205.245ZM185.489 192.008C182.396 192.008 179.882 194.712 179.882 198.038C179.882 201.365 182.396 204.069 185.489 204.069C188.581 204.069 191.095 201.365 191.095 198.038C191.095 194.712 188.581 192.008 185.489 192.008Z" fill="#D68D3E"/>
<path d="M138.962 220.294C138.962 223.951 136.208 226.913 132.809 226.913C129.41 226.913 126.656 223.951 126.656 220.294C126.656 216.638 129.41 213.676 132.809 213.676C136.208 213.676 138.962 216.638 138.962 220.294Z" fill="#D68D3E"/>
<path opacity="0.2" d="M138.962 220.294C138.962 223.951 136.208 226.913 132.809 226.913C129.41 226.913 126.656 223.951 126.656 220.294C126.656 216.638 129.41 213.676 132.809 213.676C136.208 213.676 138.962 216.638 138.962 220.294Z" fill="#D68D3E"/>
<path d="M153.947 220.294C153.947 223.951 151.193 226.913 147.794 226.913C144.395 226.913 141.641 223.951 141.641 220.294C141.641 216.638 144.395 213.676 147.794 213.676C151.193 213.676 153.947 216.638 153.947 220.294Z" fill="#D68D3E"/>
<path opacity="0.2" d="M153.947 220.294C153.947 223.951 151.193 226.913 147.794 226.913C144.395 226.913 141.641 223.951 141.641 220.294C141.641 216.638 144.395 213.676 147.794 213.676C151.193 213.676 153.947 216.638 153.947 220.294Z" fill="#D68D3E"/>
<path d="M332.253 220.294C332.253 223.951 329.499 226.913 326.1 226.913C322.701 226.913 319.947 223.951 319.947 220.294C319.947 216.638 322.701 213.676 326.1 213.676C329.499 213.676 332.253 216.638 332.253 220.294Z" fill="#D68D3E"/>
<path d="M347.171 220.294C347.171 223.951 344.417 226.913 341.018 226.913C337.619 226.913 334.865 223.951 334.865 220.294C334.865 216.638 337.619 213.676 341.018 213.676C344.417 213.676 347.171 216.638 347.171 220.294Z" fill="#D68D3E"/>
<path d="M241.915 140.14C245.313 140.14 248.068 137.176 248.068 133.521C248.068 129.866 245.313 126.902 241.915 126.902C238.517 126.902 235.762 129.866 235.762 133.521C235.762 137.176 238.517 140.14 241.915 140.14Z" stroke="#D68D3E" stroke-miterlimit="10"/>
<path d="M78.9519 161.28C82.3501 161.28 85.1049 158.317 85.1049 154.662C85.1049 151.006 82.3501 148.043 78.9519 148.043C75.5536 148.043 72.7988 151.006 72.7988 154.662C72.7988 158.317 75.5536 161.28 78.9519 161.28Z" fill="#D68D3E"/>
<path d="M78.9519 204.14C82.3501 204.14 85.1049 201.176 85.1049 197.521C85.1049 193.866 82.3501 190.902 78.9519 190.902C75.5536 190.902 72.7988 193.866 72.7988 197.521C72.7988 201.176 75.5536 204.14 78.9519 204.14Z" fill="#D68D3E"/>
<path d="M78.9514 204.729C75.2574 204.729 72.252 201.496 72.252 197.523C72.252 193.549 75.2574 190.316 78.9514 190.316C82.6455 190.316 85.651 193.549 85.651 197.523C85.651 201.496 82.6455 204.729 78.9514 204.729ZM78.9514 191.492C75.8585 191.492 73.3449 194.196 73.3449 197.523C73.3449 200.85 75.8585 203.554 78.9514 203.554C82.0444 203.554 84.5581 200.85 84.5581 197.523C84.5581 194.196 82.0444 191.492 78.9514 191.492Z" fill="#D68D3E"/>
<path d="M78.9519 247.956C82.3501 247.956 85.1049 244.993 85.1049 241.337C85.1049 237.682 82.3501 234.719 78.9519 234.719C75.5536 234.719 72.7988 237.682 72.7988 241.337C72.7988 244.993 75.5536 247.956 78.9519 247.956Z" fill="#D68D3E"/>
<path opacity="0.2" d="M78.9519 247.956C82.3501 247.956 85.1049 244.993 85.1049 241.337C85.1049 237.682 82.3501 234.719 78.9519 234.719C75.5536 234.719 72.7988 237.682 72.7988 241.337C72.7988 244.993 75.5536 247.956 78.9519 247.956Z" fill="#D68D3E"/>
<path d="M105.214 247.956C108.612 247.956 111.367 244.993 111.367 241.337C111.367 237.682 108.612 234.719 105.214 234.719C101.815 234.719 99.0605 237.682 99.0605 241.337C99.0605 244.993 101.815 247.956 105.214 247.956Z" fill="#D68D3E"/>
<path opacity="0.2" d="M105.214 247.956C108.612 247.956 111.367 244.993 111.367 241.337C111.367 237.682 108.612 234.719 105.214 234.719C101.815 234.719 99.0605 237.682 99.0605 241.337C99.0605 244.993 101.815 247.956 105.214 247.956Z" fill="#D68D3E"/>
<path d="M147.794 247.956C151.192 247.956 153.947 244.993 153.947 241.337C153.947 237.682 151.192 234.719 147.794 234.719C144.395 234.719 141.641 237.682 141.641 241.337C141.641 244.993 144.395 247.956 147.794 247.956Z" fill="#D68D3E"/>
<path opacity="0.2" d="M147.794 247.956C151.192 247.956 153.947 244.993 153.947 241.337C153.947 237.682 151.192 234.719 147.794 234.719C144.395 234.719 141.641 237.682 141.641 241.337C141.641 244.993 144.395 247.956 147.794 247.956Z" fill="#D68D3E"/>
<path d="M99.062 197.521C99.062 201.177 96.3078 204.14 92.9089 204.14C89.51 204.14 86.7559 201.177 86.7559 197.521C86.7559 193.865 89.51 190.902 92.9089 190.902C96.3078 190.902 99.062 193.865 99.062 197.521Z" fill="#D68D3E"/>
<path d="M92.9085 204.729C89.2145 204.729 86.209 201.496 86.209 197.523C86.209 193.549 89.2145 190.316 92.9085 190.316C96.6025 190.316 99.608 193.549 99.608 197.523C99.608 201.496 96.6025 204.729 92.9085 204.729ZM92.9085 191.492C89.8156 191.492 87.3019 194.196 87.3019 197.523C87.3019 200.85 89.8156 203.554 92.9085 203.554C96.0014 203.554 98.5151 200.85 98.5151 197.523C98.5151 194.196 96.0014 191.492 92.9085 191.492Z" stroke="#D68D3E" stroke-miterlimit="10"/>
<path d="M232.078 175.787C232.078 179.443 229.323 182.405 225.925 182.405C222.526 182.405 219.771 179.443 219.771 175.787C219.771 172.13 222.526 169.168 225.925 169.168C229.323 169.168 232.078 172.13 232.078 175.787Z" fill="#D68D3E"/>
<path opacity="0.4" d="M232.078 175.787C232.078 179.443 229.323 182.405 225.925 182.405C222.526 182.405 219.771 179.443 219.771 175.787C219.771 172.13 222.526 169.168 225.925 169.168C229.323 169.168 232.078 172.13 232.078 175.787Z" stroke="#D68D3E" stroke-miterlimit="10"/>
<path d="M287.62 204.14C291.018 204.14 293.773 201.176 293.773 197.521C293.773 193.866 291.018 190.902 287.62 190.902C284.222 190.902 281.467 193.866 281.467 197.521C281.467 201.176 284.222 204.14 287.62 204.14Z" fill="#D68D3E"/>
<path d="M287.619 204.729C283.925 204.729 280.92 201.496 280.92 197.523C280.92 193.549 283.925 190.316 287.619 190.316C291.313 190.316 294.319 193.549 294.319 197.523C294.319 201.496 291.313 204.729 287.619 204.729ZM287.619 191.492C284.527 191.492 282.013 194.196 282.013 197.523C282.013 200.85 284.527 203.554 287.619 203.554C290.712 203.554 293.226 200.85 293.226 197.523C293.226 194.196 290.712 191.492 287.619 191.492Z" fill="#D68D3E"/>
<path d="M326.1 204.14C329.499 204.14 332.253 201.176 332.253 197.521C332.253 193.866 329.499 190.902 326.1 190.902C322.702 190.902 319.947 193.866 319.947 197.521C319.947 201.176 322.702 204.14 326.1 204.14Z" fill="#D68D3E"/>
<path d="M326.1 204.729C322.406 204.729 319.4 201.496 319.4 197.523C319.4 193.549 322.406 190.316 326.1 190.316C329.794 190.316 332.799 193.549 332.799 197.523C332.799 201.496 329.794 204.729 326.1 204.729ZM326.1 191.492C323.007 191.492 320.493 194.196 320.493 197.523C320.493 200.85 323.007 203.554 326.1 203.554C329.193 203.554 331.706 200.85 331.706 197.523C331.706 194.196 329.193 191.492 326.1 191.492Z" fill="#D68D3E"/>
<path d="M341.018 204.14C344.417 204.14 347.171 201.176 347.171 197.521C347.171 193.866 344.417 190.902 341.018 190.902C337.62 190.902 334.865 193.866 334.865 197.521C334.865 201.176 337.62 204.14 341.018 204.14Z" fill="#D68D3E"/>
<path d="M341.018 204.729C337.324 204.729 334.318 201.496 334.318 197.523C334.318 193.549 337.324 190.316 341.018 190.316C344.712 190.316 347.717 193.549 347.717 197.523C347.717 201.496 344.712 204.729 341.018 204.729ZM341.018 191.492C337.925 191.492 335.411 194.196 335.411 197.523C335.411 200.85 337.925 203.554 341.018 203.554C344.111 203.554 346.624 200.85 346.624 197.523C346.624 194.196 344.111 191.492 341.018 191.492Z" fill="#D68D3E"/>
<path d="M377.817 204.14C381.215 204.14 383.97 201.176 383.97 197.521C383.97 193.866 381.215 190.902 377.817 190.902C374.419 190.902 371.664 193.866 371.664 197.521C371.664 201.176 374.419 204.14 377.817 204.14Z" fill="#D68D3E"/>
<path d="M377.817 204.729C374.123 204.729 371.117 201.496 371.117 197.523C371.117 193.549 374.123 190.316 377.817 190.316C381.511 190.316 384.516 193.549 384.516 197.523C384.516 201.496 381.511 204.729 377.817 204.729ZM377.817 191.492C374.724 191.492 372.21 194.196 372.21 197.523C372.21 200.85 374.724 203.554 377.817 203.554C380.91 203.554 383.423 200.85 383.423 197.523C383.423 194.196 380.91 191.492 377.817 191.492Z" fill="#D68D3E"/>
<path d="M248.068 175.787C248.068 179.443 245.314 182.405 241.915 182.405C238.516 182.405 235.762 179.443 235.762 175.787C235.762 172.13 238.516 169.168 241.915 169.168C245.314 169.168 248.068 172.13 248.068 175.787Z" fill="#D68D3E"/>
<path opacity="0.4" d="M248.068 175.787C248.068 179.443 245.314 182.405 241.915 182.405C238.516 182.405 235.762 179.443 235.762 175.787C235.762 172.13 238.516 169.168 241.915 169.168C245.314 169.168 248.068 172.13 248.068 175.787Z" fill="#D68D3E"/>
<path d="M37.3988 106.202V114.525C37.3988 114.96 37.06 115.301 36.6665 115.301C36.2731 115.301 35.9452 114.96 35.9452 114.525V107.589L35.4206 107.918C35.3004 108 35.1692 108.036 35.049 108.036C34.7976 108.036 34.5681 107.894 34.437 107.636C34.2184 107.283 34.3277 106.789 34.6774 106.578L36.2949 105.543C36.2949 105.543 36.3386 105.532 36.3496 105.52C36.3714 105.52 36.3933 105.496 36.4151 105.473C36.437 105.473 36.4698 105.461 36.4916 105.461C36.5026 105.449 36.5354 105.449 36.5463 105.449C36.5681 105.437 36.6119 105.438 36.6337 105.438H36.7758C36.7758 105.438 36.8195 105.449 36.8304 105.449C36.8742 105.449 36.8851 105.461 36.9069 105.473C36.9179 105.473 36.9507 105.473 36.9616 105.485C37.0053 105.508 37.0162 105.532 37.0381 105.532C37.049 105.543 37.06 105.555 37.0927 105.579C37.1037 105.59 37.1365 105.602 37.1474 105.626C37.1692 105.637 37.1911 105.673 37.202 105.684C37.213 105.696 37.2239 105.708 37.2457 105.743C37.2567 105.755 37.2895 105.79 37.3004 105.802V105.825C37.3004 105.825 37.3223 105.849 37.3223 105.872C37.3332 105.896 37.3441 105.919 37.3441 105.943C37.355 105.967 37.355 106.002 37.366 106.014C37.366 106.037 37.3769 106.072 37.3769 106.084C37.3769 106.131 37.3769 106.155 37.3988 106.178V106.225V106.202Z" fill="#D68D3E"/>
<path d="M135.727 114.513C135.727 114.948 135.41 115.289 135.006 115.289H130.339C130.142 115.289 129.934 115.207 129.803 115.03C129.53 114.701 129.552 114.231 129.847 113.925L133.727 110.152C134.109 109.787 134.273 109.305 134.273 108.8C134.273 108.353 134.131 107.93 133.836 107.577C133.497 107.166 133.038 106.989 132.579 106.989C132.175 106.989 131.771 107.142 131.443 107.46L131.038 107.859C130.732 108.153 130.295 108.13 130.011 107.8C129.749 107.471 129.76 107.001 130.066 106.695L130.47 106.296C131.06 105.708 131.836 105.426 132.579 105.426C133.432 105.426 134.295 105.802 134.907 106.543C135.454 107.177 135.716 108.012 135.716 108.812C135.716 109.728 135.366 110.657 134.678 111.316L132.197 113.725H134.984C135.388 113.725 135.705 114.078 135.705 114.513H135.727Z" fill="#D68D3E"/>
<path d="M243.74 109.305C244.385 109.987 244.702 110.881 244.702 111.774C244.702 112.668 244.385 113.561 243.74 114.255C243.106 114.936 242.276 115.289 241.434 115.289C240.592 115.289 239.773 114.936 239.139 114.255C238.855 113.949 238.855 113.432 239.139 113.126C239.423 112.82 239.904 112.82 240.188 113.126C240.527 113.49 240.975 113.679 241.434 113.679C241.893 113.679 242.341 113.49 242.691 113.126C243.041 112.75 243.215 112.268 243.215 111.774C243.215 111.28 243.041 110.798 242.691 110.434C242.352 110.058 241.904 109.881 241.445 109.87C241.237 109.881 241.041 109.787 240.909 109.611C240.909 109.611 240.906 109.607 240.898 109.599C240.592 109.294 240.592 108.8 240.877 108.471L242.21 107.001H240.09C239.685 107.001 239.357 106.648 239.357 106.202C239.357 105.755 239.685 105.414 240.09 105.414H243.959C244.374 105.414 244.702 105.767 244.702 106.202C244.702 106.343 244.658 106.472 244.614 106.578C244.571 106.648 244.538 106.719 244.483 106.778L242.833 108.612C243.172 108.776 243.489 109.011 243.751 109.305H243.74Z" fill="#D68D3E"/>
<path d="M33.5957 119.215H38.4373L36.0219 122.342L33.5957 119.215Z" fill="#D68D3E"/>
<path d="M130.395 119.215H135.236L132.821 122.342L130.395 119.215Z" fill="#D68D3E"/>
<path d="M239.498 119.215H244.34L241.913 122.342L239.498 119.215Z" fill="#D68D3E"/>
<path d="M195.991 241.336H178.002V252.528H195.991V241.336Z" fill="#D68D3E"/>
<path d="M255.345 241.336H237.355V252.528H255.345V241.336Z" fill="#D68D3E"/>
<path d="M255.881 253.117H236.799V240.75H255.881V253.117ZM237.892 251.942H254.788V241.926H237.892V251.942Z" fill="#D68D3E"/>
<path d="M314.69 241.336H296.701V252.528H314.69V241.336Z" fill="#D68D3E"/>
<path opacity="0.4" d="M314.69 241.336H296.701V252.528H314.69V241.336Z" fill="#D68D3E"/>
<path d="M374.046 241.336H356.057V252.528H374.046V241.336Z" fill="#D68D3E"/>
<path opacity="0.2" d="M374.046 241.336H356.057V252.528H374.046V241.336Z" fill="#D68D3E"/>
<path d="M221.171 241.973H201.455V243.148H221.171V241.973Z" fill="#D68D3E"/>
<path d="M214.111 245.746H201.455V246.922H214.111V245.746Z" fill="#D68D3E"/>
<path d="M280.21 241.973H260.494V243.148H280.21V241.973Z" fill="#D68D3E"/>
<path d="M270.352 245.746H260.494V246.922H270.352V245.746Z" fill="#D68D3E"/>
<path d="M329.391 241.973H319.533V243.148H329.391V241.973Z" fill="#D68D3E"/>
<path d="M335.14 245.746H319.533V246.922H335.14V245.746Z" fill="#D68D3E"/>
<path d="M392.746 241.973H378.582V243.148H392.746V241.973Z" fill="#D68D3E"/>
<path d="M398.298 245.746H378.582V246.922H398.298V245.746Z" fill="#D68D3E"/>
<path d="M342.045 0H239.717V90.3917H342.045V0Z" fill="#37474F"/>
<path d="M342.429 90.8149H239.324L239.707 0H342.035L342.418 90.8149H342.429Z" fill="#263238"/>
<path d="M342.045 0H239.717V7.9588H342.045V0Z" fill="#D68D3E"/>
<path d="M246.657 4.04539C246.657 5.15045 245.827 6.04391 244.799 6.04391C243.772 6.04391 242.941 5.15045 242.941 4.04539C242.941 2.94033 243.772 2.04688 244.799 2.04688C245.827 2.04688 246.657 2.94033 246.657 4.04539Z" fill="#A6A6A6"/>
<path d="M254.265 4.04539C254.265 5.15045 253.434 6.04391 252.407 6.04391C251.379 6.04391 250.549 5.15045 250.549 4.04539C250.549 2.94033 251.379 2.04688 252.407 2.04688C253.434 2.04688 254.265 2.94033 254.265 4.04539Z" fill="#EBEBEB"/>
<path d="M261.882 4.04539C261.882 5.15045 261.051 6.04391 260.024 6.04391C258.997 6.04391 258.166 5.15045 258.166 4.04539C258.166 2.94033 258.997 2.04688 260.024 2.04688C261.051 2.04688 261.882 2.94033 261.882 4.04539Z" fill="white"/>
<path d="M251.609 23.8047H247.652V25.3565H251.609V23.8047Z" fill="#EBEBEB"/>
<path d="M299.893 23.8047H254.494V25.3565H299.893V23.8047Z" fill="#EBEBEB"/>
<path d="M309.839 23.8047H302.32V25.3565H309.839V23.8047Z" fill="white"/>
<path d="M327.041 44.6133H319.521V46.1651H327.041V44.6133Z" fill="#EBEBEB"/>
<path d="M324.473 23.8047H311.479V25.3565H324.473V23.8047Z" fill="#A6A6A6"/>
<path d="M255.566 27.9648H251.609V29.5166H255.566V27.9648Z" fill="#EBEBEB"/>
<path d="M288.144 27.9648H258.352V29.5166H288.144V27.9648Z" fill="#A6A6A6"/>
<path d="M317.73 44.6133H300.287V46.1651H317.73V44.6133Z" fill="#A6A6A6"/>
<path d="M282.953 40.4531H254.494V42.0049H282.953V40.4531Z" fill="#A6A6A6"/>
<path d="M278.319 32.1289H258.352V33.6807H278.319V32.1289Z" fill="white"/>
<path d="M314.965 36.2891H307.348V37.8408H314.965V36.2891Z" fill="#A6A6A6"/>
<path d="M312.407 32.1289H280.527V33.6807H312.407V32.1289Z" fill="#A6A6A6"/>
<path d="M292.549 44.6133H254.494V46.1651H292.549V44.6133Z" fill="white"/>
<path d="M331.26 27.9648H310.637V29.5166H331.26V27.9648Z" fill="white"/>
<path d="M308.997 27.9648H290.014V29.5166H308.997V27.9648Z" fill="#EBEBEB"/>
<path d="M326.713 32.1289H313.904V33.6807H326.713V32.1289Z" fill="#EBEBEB"/>
<path d="M255.566 32.1289H251.609V33.6807H255.566V32.1289Z" fill="#EBEBEB"/>
<path d="M251.609 36.2891H247.652V37.8408H251.609V36.2891Z" fill="#A6A6A6"/>
<path d="M277.882 36.2891H254.494V37.8408H277.882V36.2891Z" fill="#EBEBEB"/>
<path d="M281.74 48.7734H258.352V50.3252H281.74V48.7734Z" fill="#EBEBEB"/>
<path d="M319.75 52.9375H301.969V54.4893H319.75V52.9375Z" fill="#A6A6A6"/>
<path d="M307.096 48.7734H283.643V50.3252H307.096V48.7734Z" fill="white"/>
<path d="M299.925 52.9375H279.51V54.4893H299.925V52.9375Z" fill="white"/>
<path d="M277.882 54.501L266.898 54.4893V52.9375L277.882 52.9493V54.501Z" fill="#EBEBEB"/>
<path d="M265.128 52.9375H258.352V54.4893H265.128V52.9375Z" fill="#A6A6A6"/>
<path d="M309.839 40.4531H284.561V42.0049H309.839V40.4531Z" fill="#EBEBEB"/>
<path d="M327.566 40.4531H311.479V42.0049H327.566V40.4531Z" fill="white"/>
<path d="M305.51 36.2891H280.264V37.8408H305.51V36.2891Z" fill="white"/>
<path d="M251.609 40.4531H247.652V42.0049H251.609V40.4531Z" fill="#EBEBEB"/>
<path d="M251.609 44.6133H247.652V46.1651H251.609V44.6133Z" fill="#EBEBEB"/>
<path d="M255.566 48.7734H251.609V50.3252H255.566V48.7734Z" fill="#A6A6A6"/>
<path d="M255.566 52.9375H251.609V54.4893H255.566V52.9375Z" fill="#EBEBEB"/>
<path d="M251.609 56.418H247.652V57.9698H251.609V56.418Z" fill="#EBEBEB"/>
<path d="M282.188 56.418H254.494V57.9698H282.188V56.418Z" fill="#EBEBEB"/>
<path d="M255.566 60.5781H251.609V62.1299H255.566V60.5781Z" fill="#EBEBEB"/>
<path d="M288.144 60.5781H258.352V62.1299H288.144V60.5781Z" fill="#A6A6A6"/>
<path d="M282.953 73.0625H254.494V74.6143H282.953V73.0625Z" fill="#A6A6A6"/>
<path d="M278.319 64.7383H258.352V66.2901H278.319V64.7383Z" fill="white"/>
<path d="M312.407 64.7383H280.527V66.2901H312.407V64.7383Z" fill="#A6A6A6"/>
<path d="M292.549 77.2227H254.494V78.7744H292.549V77.2227Z" fill="white"/>
<path d="M331.26 60.5781H310.637V62.1299H331.26V60.5781Z" fill="white"/>
<path d="M308.997 60.5781H290.014V62.1299H308.997V60.5781Z" fill="#EBEBEB"/>
<path d="M326.713 64.7383H313.904V66.2901H326.713V64.7383Z" fill="#EBEBEB"/>
<path d="M255.566 64.7383H251.609V66.2901H255.566V64.7383Z" fill="#EBEBEB"/>
<path d="M251.609 68.9023H247.652V70.4541H251.609V68.9023Z" fill="#A6A6A6"/>
<path d="M277.882 68.9023H254.494V70.4541H277.882V68.9023Z" fill="#EBEBEB"/>
<path d="M309.839 73.0625H284.561V74.6143H309.839V73.0625Z" fill="#EBEBEB"/>
<path d="M305.51 68.9023H280.264V70.4541H305.51V68.9023Z" fill="white"/>
<path d="M251.609 73.0625H247.652V74.6143H251.609V73.0625Z" fill="#EBEBEB"/>
<path d="M250.1 19.7021C250.231 19.855 250.231 20.0783 250.1 20.2311C250.034 20.3017 249.947 20.3369 249.859 20.3369C249.772 20.3369 249.684 20.3017 249.608 20.2311L248.078 18.5618C248.078 18.5618 248.056 18.55 248.056 18.5265L248.034 18.5148C248.034 18.503 248.034 18.4913 248.023 18.4678C248.012 18.4678 248.001 18.456 248.001 18.4442C248.001 18.4325 248.001 18.4207 248.001 18.409C248.001 18.3972 247.99 18.3855 247.99 18.3855V18.3502C247.99 18.3502 247.99 18.3384 247.99 18.3149V18.2914V18.2561C247.99 18.2561 248.001 18.2444 248.001 18.2326C248.001 18.2209 248.001 18.2091 248.001 18.1856C248.012 18.1739 248.023 18.1503 248.023 18.1386C248.023 18.1386 248.023 18.1268 248.034 18.1268C248.034 18.1151 248.045 18.0916 248.067 18.0916L249.597 16.4222C249.728 16.2811 249.957 16.2811 250.089 16.4222C250.22 16.5633 250.22 16.7984 250.089 16.9512L248.799 18.3502L250.089 19.7492L250.1 19.7021Z" fill="white"/>
<path d="M251.488 19.8901L252.822 16.4809C252.887 16.3163 253.062 16.2458 253.215 16.3163C253.357 16.3751 253.434 16.5749 253.368 16.7278L252.035 20.137C251.991 20.2546 251.871 20.3251 251.762 20.3251C251.729 20.3251 251.685 20.3251 251.652 20.3016C251.499 20.2428 251.423 20.0429 251.488 19.8784V19.8901Z" fill="white"/>
<path d="M255.991 18.5149C255.98 18.5267 255.969 18.5502 255.947 18.5619L254.417 20.2313C254.352 20.3018 254.264 20.3371 254.177 20.3371C254.089 20.3371 254.002 20.3018 253.936 20.2313C253.805 20.0902 253.805 19.8551 253.936 19.7023L255.226 18.3033L253.936 16.9044C253.805 16.7633 253.805 16.5282 253.936 16.3753C254.067 16.2343 254.286 16.2343 254.428 16.3753L255.958 18.0447C255.958 18.0447 255.98 18.0682 256.002 18.08V18.0917C256.002 18.1152 256.024 18.127 256.024 18.1387C256.024 18.1622 256.024 18.1622 256.035 18.1975C256.035 18.1975 256.035 18.1975 256.035 18.2093V18.2445V18.268V18.2916V18.3386C256.035 18.3386 256.035 18.3386 256.035 18.3503C256.035 18.3739 256.035 18.3856 256.024 18.3974C256.024 18.3974 256.024 18.3974 256.024 18.4091C256.024 18.4209 256.002 18.4444 256.002 18.4561L255.991 18.5149Z" fill="white"/>
<path d="M435.794 69.1016H311.607V159.493H435.794V69.1016Z" fill="#37474F"/>
<path d="M436.177 159.917H311.215L311.597 69.1016H435.784L436.166 159.917H436.177Z" fill="#37474F"/>
<path d="M435.794 69.1016H311.607V77.0604H435.794V69.1016Z" fill="#AF722F"/>
<path d="M318.56 73.1352C318.56 74.2403 317.729 75.1338 316.702 75.1338C315.674 75.1338 314.844 74.2403 314.844 73.1352C314.844 72.0302 315.674 71.1367 316.702 71.1367C317.729 71.1367 318.56 72.0302 318.56 73.1352Z" fill="#A6A6A6"/>
<path d="M324.297 75.1338C325.324 75.1338 326.155 74.239 326.155 73.1352C326.155 72.0315 325.324 71.1367 324.297 71.1367C323.271 71.1367 322.439 72.0315 322.439 73.1352C322.439 74.239 323.271 75.1338 324.297 75.1338Z" fill="#EBEBEB"/>
<path d="M333.773 73.1352C333.773 74.2403 332.942 75.1338 331.915 75.1338C330.887 75.1338 330.057 74.2403 330.057 73.1352C330.057 72.0302 330.887 71.1367 331.915 71.1367C332.942 71.1367 333.773 72.0302 333.773 73.1352Z" fill="white"/>
<path d="M323.499 92.8945H319.543V94.4463H323.499V92.8945Z" fill="#EBEBEB"/>
<path d="M349.926 92.8945H326.385V94.4463H349.926V92.8945Z" fill="#EBEBEB"/>
<path d="M417.446 92.8945H407.719V94.4463H417.446V92.8945Z" fill="white"/>
<path d="M359.871 92.8945H352.352V94.4463H359.871V92.8945Z" fill="white"/>
<path d="M405.817 92.8945H376.789V94.4463H405.817V92.8945Z" fill="#EBEBEB"/>
<path d="M414.374 113.703H391.412V115.255H414.374V113.703Z" fill="#EBEBEB"/>
<path d="M374.504 92.8945H361.51V94.4463H374.504V92.8945Z" fill="#A6A6A6"/>
<path d="M327.456 97.0547H323.5V98.6065H327.456V97.0547Z" fill="#EBEBEB"/>
<path d="M360.035 97.0547H330.242V98.6065H360.035V97.0547Z" fill="#A6A6A6"/>
<path d="M389.62 113.703H372.178V115.255H389.62V113.703Z" fill="#A6A6A6"/>
<path d="M354.844 109.543H326.385V111.095H354.844V109.543Z" fill="#A6A6A6"/>
<path d="M350.21 101.219H330.242V102.771H350.21V101.219Z" fill="white"/>
<path d="M420.352 101.219H400.385V102.771H420.352V101.219Z" fill="white"/>
<path d="M386.856 105.379H379.238V106.931H386.856V105.379Z" fill="#A6A6A6"/>
<path d="M384.308 101.219H352.428V102.771H384.308V101.219Z" fill="#A6A6A6"/>
<path d="M364.44 113.703H326.385V115.255H364.44V113.703Z" fill="white"/>
<path d="M391.346 97.0547H370.723V98.6065H391.346V97.0547Z" fill="white"/>
<path d="M369.085 97.0547H361.904V98.6065H369.085V97.0547Z" fill="#EBEBEB"/>
<path d="M423.707 97.0547H393.707V98.6065H423.707V97.0547Z" fill="#EBEBEB"/>
<path d="M398.615 101.219H385.807V102.771H398.615V101.219Z" fill="#EBEBEB"/>
<path d="M327.456 101.219H323.5V102.771H327.456V101.219Z" fill="#EBEBEB"/>
<path d="M323.499 105.379H319.543V106.931H323.499V105.379Z" fill="#A6A6A6"/>
<path d="M349.773 105.379H326.385V106.931H349.773V105.379Z" fill="#EBEBEB"/>
<path d="M411.654 105.379H388.266V106.931H411.654V105.379Z" fill="#EBEBEB"/>
<path d="M353.63 117.863H330.242V119.415H353.63V117.863Z" fill="#EBEBEB"/>
<path d="M381.073 122.027H363.291V123.579H381.073V122.027Z" fill="white"/>
<path d="M378.987 117.863H355.533V119.415H378.987V117.863Z" fill="white"/>
<path d="M360.417 122.027H340.002V123.579H360.417V122.027Z" fill="#EBEBEB"/>
<path d="M337.018 122.027H330.242V123.579H337.018V122.027Z" fill="#A6A6A6"/>
<path d="M399.456 122.027H382.898V123.579H399.456V122.027Z" fill="#A6A6A6"/>
<path d="M381.73 109.543H356.451V111.095H381.73V109.543Z" fill="#EBEBEB"/>
<path d="M399.457 109.543H383.369V111.095H399.457V109.543Z" fill="white"/>
<path d="M377.4 105.379H352.154V106.931H377.4V105.379Z" fill="white"/>
<path d="M323.499 109.543H319.543V111.095H323.499V109.543Z" fill="#EBEBEB"/>
<path d="M323.499 113.703H319.543V115.255H323.499V113.703Z" fill="#EBEBEB"/>
<path d="M327.456 117.863H323.5V119.415H327.456V117.863Z" fill="#A6A6A6"/>
<path d="M404.811 117.863H380.92V119.415H404.811V117.863Z" fill="#A6A6A6"/>
<path d="M327.456 122.027H323.5V123.579H327.456V122.027Z" fill="#EBEBEB"/>
<path d="M323.499 125.52H319.543V127.071H323.499V125.52Z" fill="#EBEBEB"/>
<path d="M371.784 125.52H326.385V127.071H371.784V125.52Z" fill="#EBEBEB"/>
<path d="M327.456 129.68H323.5V131.231H327.456V129.68Z" fill="#EBEBEB"/>
<path d="M360.035 129.68H330.242V131.231H360.035V129.68Z" fill="#A6A6A6"/>
<path d="M354.844 142.164H326.385V143.716H354.844V142.164Z" fill="#A6A6A6"/>
<path d="M350.21 133.84H330.242V135.392H350.21V133.84Z" fill="white"/>
<path d="M384.308 133.84H352.428V135.392H384.308V133.84Z" fill="#A6A6A6"/>
<path d="M364.44 146.324H326.385V147.876H364.44V146.324Z" fill="white"/>
<path d="M403.15 129.68H382.527V131.231H403.15V129.68Z" fill="white"/>
<path d="M380.888 129.68H361.904V131.231H380.888V129.68Z" fill="#EBEBEB"/>
<path d="M398.615 133.84H385.807V135.392H398.615V133.84Z" fill="#EBEBEB"/>
<path d="M327.456 133.84H323.5V135.392H327.456V133.84Z" fill="#EBEBEB"/>
<path d="M323.499 138.004H319.543V139.556H323.499V138.004Z" fill="#A6A6A6"/>
<path d="M394.517 138.004H379.096V139.556H394.517V138.004Z" fill="#A6A6A6"/>
<path d="M349.773 138.004H326.385V139.556H349.773V138.004Z" fill="#EBEBEB"/>
<path d="M409.96 138.004H396.943V139.556H409.96V138.004Z" fill="#EBEBEB"/>
<path d="M381.73 142.164H356.451V143.716H381.73V142.164Z" fill="#EBEBEB"/>
<path d="M377.4 138.004H352.154V139.556H377.4V138.004Z" fill="white"/>
<path d="M323.499 142.164H319.543V143.716H323.499V142.164Z" fill="#EBEBEB"/>
<path d="M321.99 88.8037C322.121 88.9566 322.121 89.1799 321.99 89.3327C321.925 89.4033 321.837 89.4386 321.75 89.4386C321.662 89.4386 321.575 89.4033 321.498 89.3327L319.968 87.6634C319.968 87.6634 319.946 87.6516 319.946 87.6281L319.925 87.6164C319.925 87.6046 319.925 87.5929 319.914 87.5694C319.903 87.5694 319.892 87.5576 319.892 87.5458C319.892 87.5341 319.892 87.5223 319.892 87.5106C319.892 87.4988 319.881 87.4871 319.881 87.4871V87.4518C319.881 87.4518 319.881 87.44 319.881 87.4165C319.881 87.4165 319.881 87.393 319.881 87.3813V87.346C319.881 87.346 319.892 87.3342 319.892 87.3225C319.892 87.3107 319.892 87.299 319.892 87.2755C319.903 87.2637 319.914 87.2402 319.914 87.2284C319.914 87.2284 319.914 87.2167 319.925 87.2167C319.925 87.2049 319.936 87.1814 319.957 87.1814L321.487 85.5121C321.619 85.371 321.848 85.371 321.979 85.5121C322.11 85.6531 322.11 85.8883 321.979 86.0411L320.69 87.44L321.979 88.839L321.99 88.8037Z" fill="white"/>
<path d="M323.379 88.9917L324.712 85.5824C324.778 85.4179 324.953 85.3473 325.106 85.4179C325.248 85.4766 325.324 85.6765 325.259 85.8293L323.925 89.2386C323.882 89.3561 323.762 89.4266 323.652 89.4266C323.619 89.4266 323.576 89.4266 323.543 89.4031C323.39 89.3444 323.313 89.1445 323.379 88.9799V88.9917Z" fill="white"/>
<path d="M327.882 87.6165C327.871 87.6165 327.86 87.64 327.838 87.6518L326.308 89.3211C326.242 89.3917 326.155 89.4269 326.067 89.4269C325.98 89.4269 325.892 89.3917 325.827 89.3211C325.696 89.1801 325.696 88.945 325.827 88.7921L327.116 87.3932L325.827 85.9942C325.696 85.8531 325.696 85.618 325.827 85.4652C325.958 85.3241 326.177 85.3241 326.319 85.4652L327.849 87.1345C327.849 87.1345 327.871 87.158 327.892 87.1698V87.1816C327.892 87.2051 327.914 87.2168 327.914 87.2286C327.914 87.2521 327.914 87.2521 327.925 87.2874C327.925 87.2874 327.925 87.2874 327.925 87.2991V87.3344C327.925 87.3344 327.925 87.3579 327.925 87.3697V87.3932V87.4402C327.925 87.4637 327.925 87.4755 327.914 87.4872C327.914 87.4872 327.914 87.4872 327.914 87.499C327.914 87.5107 327.892 87.5225 327.892 87.546L327.882 87.6165Z" fill="white"/>
<path d="M298.734 140.143H274.537V98.6211H275.63V138.968H298.734V140.143Z" fill="#263238"/>
<path d="M297.771 143.069L303.433 139.554L297.771 136.039V143.069Z" fill="#263238"/>
<path d="M12.3926 423.038H159.465L130.142 239.551H20.1631L12.3926 423.038Z" fill="#DBDBDB"/>
<path d="M12.3926 423.038H25.2888L32.5239 239.551H20.1631L12.3926 423.038Z" fill="#A6A6A6"/>
<path d="M141.597 263.708C151.204 308.721 171.106 362.681 179.598 371.439C190.341 382.514 261.412 402.828 264.953 403.239C273.729 404.192 291.314 336.219 281.97 334.773C267.74 332.562 216.002 329.529 212.898 326.108C209.685 322.523 187.849 292.91 165.39 259.44C149.893 236.316 135.63 235.775 141.597 263.708Z" fill="#AD6359"/>
<path d="M257.904 399.573C258.954 400.138 273.795 408.179 282.987 411.036C289.839 413.175 309.708 418.747 312.648 410.871C314.659 405.498 303.326 400.737 295.391 397.175C291.205 395.306 286.058 390.592 287.282 387.7C289.435 382.645 300.211 387.723 307.282 392.144C320.976 400.702 339.216 416.102 347.577 408.637C350.736 405.816 347.064 400.667 341.697 395.623C350.408 401.501 359.708 406.321 363.337 403.335C365.413 401.631 365.512 399.291 364.353 396.634C367.042 397.575 369.424 397.387 371.086 395.506C373.916 392.32 372.539 387.606 369.435 382.786C370.43 382.668 371.326 382.128 372.004 380.964C378.004 371.124 347.982 342.874 337.588 340.229C307.03 332.412 274.844 333.869 274.844 333.869C262.844 344.179 257.872 399.538 257.904 399.562V399.573Z" fill="#AD6359"/>
<path d="M302.834 369.324C310.026 370.535 317.108 373.427 323.217 377.765C330.966 383.267 336.102 389.697 342.594 396.187C342.769 396.351 342.529 396.645 342.354 396.481C339.261 393.4 326.43 381.821 323.108 379.187C317.031 374.368 310.244 370.97 302.802 369.477C302.725 369.465 302.747 369.336 302.823 369.348L302.834 369.324Z" fill="#263238"/>
<path d="M308.528 355.381C316.561 357.744 324.791 360.131 332.233 364.21C340.386 368.677 346.769 375.966 353.053 382.984C356.824 387.193 360.507 391.496 364.091 395.892C364.244 396.081 364.015 396.363 363.851 396.186C357.479 388.945 350.911 381.891 344.146 375.073C337.774 368.666 330.681 363.752 322.517 360.413C317.927 358.532 313.206 357.027 308.484 355.534C308.397 355.511 308.419 355.358 308.517 355.381H308.528Z" fill="#263238"/>
<path d="M317.108 343.18C324.911 344.908 331.72 346.377 338.627 350.868C347.775 356.817 356.606 366.856 359.698 370.407C363.119 374.333 366.42 378.377 369.655 382.48C369.786 382.645 369.524 382.903 369.382 382.727C361.983 373.757 354.004 365.234 345.578 357.369C341.556 353.607 337.185 350.339 332.267 348.059C327.414 345.813 322.212 344.532 317.086 343.215C317.053 343.215 317.064 343.156 317.097 343.156L317.108 343.18Z" fill="#263238"/>
<path d="M269.926 331.106L248.068 405.581C248.068 405.581 188.898 387.406 178.078 374.862C167.269 362.319 147.302 297.543 141.433 266.143C135.564 234.743 150.319 235.519 163.881 255.316C177.444 275.113 211.215 323.089 213.106 324.123C214.997 325.17 269.926 331.083 269.926 331.083V331.106Z" fill="#AF722F"/>
<path d="M242.396 372.501C245.041 363.719 247.752 354.961 250.101 346.073C251.435 341.018 252.79 335.975 254.08 330.92C254.123 330.732 253.828 330.614 253.763 330.802C250.779 339.502 247.806 348.236 245.194 357.077C242.593 365.882 239.927 374.652 237.435 383.493C236.014 388.524 234.746 393.567 233.61 398.681C233.588 398.787 233.741 398.846 233.773 398.74C237.03 390.135 239.708 381.33 242.375 372.489L242.396 372.501Z" fill="#263238"/>
<path opacity="0.1" d="M218.23 395.34L215.607 394.352C209.028 391.825 202.285 389.062 196.296 386.252C195.826 386.041 195.378 385.817 194.919 385.606C192.329 384.36 189.891 383.114 187.684 381.867C187.301 381.656 186.908 381.432 186.536 381.209C183.509 379.446 180.995 377.706 179.236 376.048C179.028 375.848 178.82 375.649 178.635 375.449C178.427 375.249 178.252 375.049 178.088 374.861C167.268 362.317 147.312 297.542 141.443 266.142C141.367 265.73 141.29 265.283 141.214 264.825C140.82 262.427 140.47 259.464 140.186 256.255C139.64 245.898 142.481 241.289 146.918 241.348C165.804 281.507 206.591 370.746 218.23 395.34Z" fill="black"/>
<path d="M195.979 423.038H46.371C44.7207 419.782 69.2455 278.816 119.705 239.127C130.896 230.322 150.754 235.989 156.284 244.547C184.044 287.586 195.99 423.038 195.99 423.038H195.979Z" fill="#AF722F"/>
<path d="M172.219 282.047C173.596 287.396 174.929 292.756 176.208 298.129C176.044 295.789 175.803 293.45 175.519 291.122C175.497 290.981 175.694 290.922 175.727 291.063C176.284 293.967 176.546 296.894 176.623 299.845C178.153 306.323 179.617 312.812 180.951 319.348C183.519 331.868 185.792 344.483 187.683 357.132C188.743 364.268 189.574 371.451 190.71 378.563C190.732 378.693 190.536 378.751 190.514 378.61C189.475 372.297 188.087 366.008 186.809 359.742C185.541 353.511 184.306 347.281 183.104 341.038C180.689 328.483 178.131 315.963 175.727 303.407C174.372 296.33 173.115 289.241 171.749 282.164C171.683 281.847 172.142 281.729 172.219 282.047Z" fill="#263238"/>
<path d="M102.732 253.061C78.5792 280.888 21.1143 385.328 39.7374 404.584C58.5026 423.981 161.76 397.918 190.809 383.035C199.443 378.603 166.624 320.67 156.46 319.318C148.011 318.189 104.787 339.456 103.53 336.787C102.12 333.766 111.935 314.369 122.328 273.975C134.317 227.398 113.388 240.765 102.721 253.061H102.732Z" fill="#AD6359"/>
<path d="M199.389 300.612C220.383 297.462 226.23 300.13 242.635 287.352C253.4 278.97 263.007 282.767 256.854 296.086C246.81 317.882 220.504 328.051 210.449 328.756L199.389 300.612Z" fill="#AD6359"/>
<path d="M143.617 322.361C143.617 322.361 167.213 308.266 189.279 302.541C204.536 298.579 238.634 293.935 271.257 330.12C278.995 338.702 284.361 356.83 266.995 347.754C254.656 341.3 248.645 333.2 240.831 330.861C240.831 330.861 245.115 354.796 236.82 362.802C233.115 366.376 222.776 375.886 213.76 382.046C213.76 382.046 211.978 380.295 210.022 377.732C210.022 377.732 201.618 384.421 185.792 382.799L143.628 322.373L143.617 322.361Z" fill="#AD6359"/>
<path d="M204.405 301.246C211.706 305.337 227.028 314.295 237.203 326.31C248.504 339.653 266.919 368.643 257.673 377.507C250.897 384.008 242.963 373.616 242.963 373.616C242.963 373.616 248.231 387.323 240.908 391.755C234.242 395.799 228.547 387.359 228.547 387.359C228.547 387.359 230.416 396.258 223.291 398.821C214.722 401.901 212.22 382.739 201.039 377.789C198.525 376.684 204.405 301.258 204.405 301.258V301.246Z" fill="#AD6359"/>
<path d="M222.1 336.796C228.373 341.851 239.881 357.275 243.073 373.251C243.149 373.615 242.93 373.862 242.799 373.545C235.816 356.757 226.34 342.638 221.99 336.902C221.936 336.819 222.034 336.725 222.111 336.784L222.1 336.796Z" fill="#263238"/>
<path d="M209.914 349.458C214.908 354.419 226.11 370.89 228.821 387.195C228.886 387.559 228.646 387.795 228.526 387.477C221.903 369.608 213.815 355.572 209.782 349.564C209.728 349.482 209.837 349.388 209.903 349.458H209.914Z" fill="#263238"/>
<path d="M240.83 330.694C247.672 332.857 252.12 336.478 257.901 340.781C260.754 342.908 263.65 345.001 266.721 346.788C269.508 348.41 273.617 350.855 276.59 348.316C278.24 346.905 278.218 344.331 277.847 342.309C277.432 340.028 275.344 335.82 274.087 333.939C274.022 333.845 274.175 333.715 274.24 333.821C275.399 335.502 277.683 339.311 278.35 341.274C278.962 343.061 279.432 345.13 278.973 347.023C277.967 351.079 273.519 351.62 270.371 350.503C268.492 349.833 266.699 348.763 264.983 347.693C263.322 346.67 261.716 345.565 260.131 344.413C256.874 342.05 253.759 339.487 250.524 337.077C246.983 334.432 244.535 333.139 240.732 330.941C240.601 330.87 240.699 330.647 240.83 330.694Z" fill="#263238"/>
<path d="M255.159 356.595C253.389 352.398 243.804 334.917 240.689 330.873C240.613 330.767 240.744 330.638 240.831 330.732C246.165 336.175 254.733 350.611 256.733 355.243C258.711 359.816 260.984 365.659 260.984 370.761C260.984 378.449 256.241 379.907 254.492 380.283C252.405 380.73 250.285 380.26 248.405 379.213C246.318 378.05 244.285 375.628 242.886 373.641C242.809 373.535 242.94 373.394 243.028 373.5C245.509 376.533 249.618 379.519 253.509 378.967C255.192 378.731 256.897 377.909 257.935 376.404C259.148 374.64 259.247 372.313 259.083 370.208C258.711 365.447 256.984 360.909 255.17 356.607L255.159 356.595Z" fill="#263238"/>
<path d="M143.618 322.362L176.712 397.248C176.712 397.248 47.2571 428.518 36.0876 404.289C24.9181 380.049 75.1917 285.19 97.8476 257.563C120.503 229.936 130.678 238.013 124.624 267.732C118.569 297.439 103.924 337.492 103.924 337.492L143.618 322.374V322.362Z" fill="#AF722F"/>
<path d="M64.5807 357.421C70.5589 352.919 76.9415 349.027 83.4552 345.489C89.9033 341.997 96.6793 339.258 103.532 336.825C107.444 335.438 111.412 334.25 115.368 333.039C115.488 333.004 115.532 333.204 115.423 333.239C108.505 335.567 101.75 338.565 95.1383 341.727C88.5481 344.889 82.0235 348.157 75.5535 351.578C71.8923 353.506 68.3185 355.623 64.7119 357.692C64.548 357.786 64.4168 357.527 64.5698 357.421H64.5807Z" fill="#263238"/>
<path d="M143.27 322.14C142.614 322.329 107.215 334.896 106.057 335.484C106.21 334.907 112.559 314.664 113.51 311.701C113.609 311.407 113.685 311.113 113.783 310.808C114.428 309.491 115.084 308.174 115.674 306.822C116.439 305.094 117.193 303.354 117.947 301.615C117.969 301.556 117.904 301.52 117.871 301.568C117.04 303.26 116.21 304.953 115.401 306.646C115.018 307.434 114.669 308.233 114.319 309.033C114.942 306.94 115.543 304.836 116.133 302.731C117.084 299.369 117.937 295.983 118.778 292.586C118.8 292.48 118.658 292.445 118.625 292.539C116.745 298.44 114.691 304.283 112.8 310.185C110.909 316.074 103.619 337.823 103.674 337.799C103.74 337.858 142.669 322.999 143.412 322.658C143.707 322.528 143.587 322.046 143.27 322.14Z" fill="#263238"/>
<path d="M145.662 371C142.023 362.641 138.438 354.248 134.504 346.03C132.274 341.363 130.056 336.684 127.783 332.041C127.695 331.864 127.411 331.994 127.477 332.182C130.821 340.728 134.198 349.287 137.914 357.669C141.608 366.004 145.236 374.374 149.029 382.662C151.182 387.376 153.466 391.996 155.892 396.569C155.936 396.663 156.089 396.593 156.056 396.499C152.974 387.823 149.346 379.417 145.673 371H145.662Z" fill="#263238"/>
<path d="M178.384 398.424C177.084 396.12 175.455 392.793 174.067 390.547C173.707 389.96 173.28 390.077 173.564 390.7C174.548 392.793 175.368 395.144 176.34 397.295C174.526 397.683 172.701 398.036 170.887 398.436C168.789 398.906 166.69 399.388 164.592 399.858C160.482 400.775 156.362 401.633 152.231 402.456C143.87 404.114 135.477 405.595 127.061 406.865C110.187 409.427 93.1814 411.332 76.1431 412.002C71.378 412.19 66.602 412.272 61.837 412.202C56.9954 412.131 51.7604 412.026 47.7604 411.473C47.6292 411.461 47.6074 411.685 47.7385 411.72C51.8915 412.637 55.7604 413.201 59.99 413.425C64.3069 413.648 68.6348 413.754 72.9518 413.695C81.5529 413.589 90.1541 412.99 98.7225 412.143C115.706 410.462 132.635 407.993 149.444 404.796C154.155 403.902 158.854 402.95 163.532 401.939C165.892 401.433 168.264 400.916 170.614 400.352C172.974 399.788 178.614 398.777 178.395 398.389L178.384 398.424Z" fill="#263238"/>
<path d="M147.891 272.962C138.863 272.903 127.388 255.058 124.164 242.185C123.945 241.303 133.989 210.914 135.399 204.672C135.683 203.39 169.661 223.681 169.661 223.681C169.661 223.681 163.126 235.837 160.743 246.734C160.557 247.651 156.623 273.009 147.902 272.962H147.891Z" fill="#AD6359"/>
<path d="M156.568 249.038C157.846 249.403 159.038 249.649 160.174 249.743C160.327 248.979 160.447 248.333 160.535 247.839C160.535 247.827 160.535 247.804 160.546 247.768C160.546 247.71 160.557 247.651 160.568 247.592C160.6 247.404 160.633 247.204 160.677 247.004C160.677 246.969 160.688 246.922 160.699 246.887C160.71 246.828 160.721 246.781 160.732 246.722C161.256 244.336 161.978 241.89 162.775 239.539C164.622 234.12 166.928 229.135 168.338 226.255C168.513 225.891 168.677 225.573 168.819 225.291C169.267 224.398 169.551 223.845 169.617 223.704C169.639 223.692 169.639 223.68 169.639 223.68H169.628C169.551 223.622 169.245 223.434 168.732 223.128C168.404 222.94 168.01 222.693 167.54 222.423C167.519 222.423 167.508 222.411 167.486 222.399C167.234 222.246 166.961 222.093 166.688 221.929C166.371 221.741 166.054 221.553 165.704 221.341C165.42 221.176 165.103 220.988 164.797 220.8C164.743 220.777 164.688 220.73 164.622 220.694C164.251 220.483 163.846 220.248 163.442 220.001C163.355 219.942 163.256 219.895 163.169 219.836C162.786 219.613 162.382 219.378 161.988 219.143C161.792 219.025 161.573 218.896 161.366 218.778C160.743 218.414 160.109 218.038 159.442 217.65C158.961 217.368 158.469 217.085 157.967 216.791C157.551 216.545 157.136 216.309 156.721 216.063C155.322 215.24 153.89 214.417 152.458 213.594C151.999 213.323 151.54 213.053 151.092 212.794C149.409 211.83 147.748 210.89 146.174 210.008C145.813 209.808 145.464 209.609 145.114 209.42C144.874 209.291 144.644 209.15 144.415 209.033C144.13 208.868 143.857 208.727 143.584 208.562C142.961 208.21 142.36 207.892 141.792 207.587C141.42 207.387 141.048 207.187 140.699 206.999C140.163 206.705 139.66 206.446 139.19 206.211C138.95 206.082 138.721 205.964 138.502 205.858C137.857 205.517 137.289 205.259 136.83 205.059C136.721 205 136.622 204.965 136.535 204.93C136.109 215.522 136.895 243.395 156.579 249.05L156.568 249.038Z" fill="#263238"/>
<path d="M145.586 157.625C137.542 169.804 132.055 211.35 138.318 223.294C147.389 240.61 168.285 249.451 183.498 236.225C198.242 223.411 204.482 169.134 196.93 157.613C185.804 140.637 157.476 139.638 145.586 157.613V157.625Z" fill="#AD6359"/>
<path d="M174.395 194.294C174.395 194.189 174.176 194.4 174.165 194.506C173.87 197.316 173.083 200.478 170.603 201.031C170.526 201.042 170.515 201.195 170.603 201.195C173.532 201.219 174.537 196.998 174.395 194.294Z" fill="#263238"/>
<path d="M172.471 191.015C168.34 190.016 166.777 198.986 170.613 199.914C174.384 200.831 175.946 191.861 172.471 191.015Z" fill="#263238"/>
<path d="M188.58 197.586C188.613 197.48 188.755 197.762 188.733 197.868C188.165 200.631 187.957 203.899 190.132 205.286C190.198 205.333 190.165 205.462 190.088 205.439C187.312 204.428 187.64 200.102 188.58 197.586Z" fill="#263238"/>
<path d="M191.388 195.139C195.596 195.632 194.372 204.661 190.47 204.202C186.634 203.756 187.858 194.727 191.388 195.139Z" fill="#263238"/>
<path d="M169.892 186.252C171.083 186.17 172.165 185.888 173.335 185.676C174.657 185.441 175.728 185.394 176.745 184.372C177.291 183.819 177.313 182.643 176.865 182.02C175.816 180.574 174.143 180.433 172.537 180.645C170.799 180.88 169.521 181.538 168.318 182.89C167.149 184.207 168.329 186.358 169.903 186.252H169.892Z" fill="#263238"/>
<path d="M195.399 191.274C194.273 190.839 193.311 190.24 192.251 189.687C191.049 189.064 190.033 188.7 189.322 187.406C188.94 186.713 189.235 185.572 189.825 185.114C191.202 184.044 192.852 184.42 194.328 185.114C195.934 185.866 196.994 186.877 197.792 188.547C198.568 190.157 196.874 191.862 195.399 191.298V191.274Z" fill="#263238"/>
<path d="M166.842 219.429C167.345 220.205 167.804 221.228 168.733 221.498C169.618 221.757 170.744 221.533 171.629 221.357C171.716 221.345 171.782 221.451 171.716 221.522C170.864 222.45 169.334 222.838 168.175 222.368C167.039 221.909 166.656 220.71 166.569 219.499C166.558 219.335 166.765 219.311 166.842 219.429Z" fill="#263238"/>
<path d="M171.005 211.657C172.032 214.361 173.923 216.101 176.142 217.042C177.125 217.465 178.207 217.723 179.278 217.829C179.486 217.865 179.705 217.888 179.89 217.876C180.087 217.888 180.262 217.9 180.47 217.9C180.776 217.912 180.994 217.676 181.093 217.383V217.359C181.114 217.253 181.125 217.171 181.125 217.065V217.042L181.169 216.795C181.595 214.667 181.967 211.375 181.967 211.375C182.623 211.916 186.022 214.455 186.153 213.315C187.246 203.957 188.459 193.553 187.716 183.996C187.716 183.678 187.257 183.666 187.235 183.972C185.858 192.918 185.945 202.065 184.688 211.07C183.595 210.352 181.814 209.071 180.776 208.883C180.481 208.918 180.164 215.255 179.901 216.195C179.901 216.195 179.901 216.23 179.869 216.289C176.448 216.078 174.12 214.491 171.289 211.422C171.125 211.222 170.885 211.375 171.005 211.622V211.657Z" fill="#263238"/>
<path d="M178.296 216.512C178.296 216.512 176.088 218.722 173.509 219.157C172.558 219.321 171.575 219.263 170.624 218.769C168.668 217.77 168.963 215.724 169.651 214.055C170.209 212.679 171.039 211.574 171.039 211.574C171.039 211.574 173.52 215.207 178.296 216.5V216.512Z" fill="#263238"/>
<path d="M173.509 219.157C172.558 219.321 171.575 219.263 170.624 218.769C168.668 217.77 168.963 215.724 169.651 214.055C171.815 214.748 173.728 216.794 173.509 219.145V219.157Z" fill="#FF99BA"/>
<path d="M166.163 205.93C161.387 204.284 158.053 199.3 158.37 193.669C158.753 187.015 164.097 181.924 170.283 182.336C176.48 182.747 181.201 188.484 180.819 195.15C180.436 201.804 175.092 206.894 168.906 206.483C167.955 206.424 167.026 206.236 166.163 205.93ZM172.578 184.428C171.824 184.17 171.026 184.005 170.196 183.946C164.829 183.594 160.206 188.002 159.879 193.763C159.551 199.535 163.649 204.519 169.004 204.86C174.371 205.213 178.994 200.804 179.321 195.044C179.595 190.165 176.709 185.851 172.567 184.428H172.578Z" fill="#FFC727"/>
<path d="M191.518 211.114C187.42 209.704 185.048 203.908 186.174 197.712C186.742 194.585 188.109 191.811 190.021 189.906C191.999 187.931 194.316 187.097 196.557 187.579C198.808 188.049 200.655 189.765 201.792 192.387C202.885 194.926 203.18 198.053 202.611 201.18C201.42 207.729 196.764 212.278 192.229 211.326C191.988 211.279 191.748 211.208 191.518 211.126V211.114ZM196.819 189.319C196.633 189.26 196.458 189.201 196.262 189.166C194.502 188.801 192.655 189.483 191.038 191.094C189.365 192.775 188.152 195.232 187.65 198.03C186.622 203.696 188.786 208.951 192.524 209.739C196.24 210.526 200.109 206.541 201.136 200.875C201.639 198.077 201.387 195.314 200.426 193.069C199.595 191.153 198.327 189.836 196.819 189.319Z" fill="#FFC727"/>
<path d="M180.207 196.443L179.475 195.033C181.42 193.869 185.66 192.658 187.792 196.326L186.513 197.184C184.611 193.892 180.371 196.349 180.196 196.455L180.207 196.443Z" fill="#FFC727"/>
<path d="M130.469 189.132L129.289 188.133C129.726 187.545 133.65 182.361 137.049 182.479C140.229 182.596 159.639 188.756 160.47 189.027L160.043 190.578C154.48 188.803 139.464 184.183 137.005 184.101C134.765 184.019 131.53 187.71 130.48 189.144L130.469 189.132Z" fill="#FFC727"/>
<path d="M198.679 176.752C183.958 182.536 170.143 163.844 170.143 163.844C163.597 173.272 154.111 169.31 154.111 169.31C154.111 169.31 146.209 191.435 140.635 189.86C132.132 187.45 136.908 155.627 141.05 150.254C145.193 144.882 152.788 145.305 152.788 145.305C152.788 145.305 154.449 140.708 160.745 137.84C167.706 134.654 186.242 146.633 186.242 146.633C186.242 146.633 188.581 142.989 193.16 140.591C196.067 139.074 199.138 140.391 200.559 143.424C199.226 144.658 198.045 146.351 197.171 148.479C194.57 154.874 199.652 156.273 201.051 150.207C201.674 147.503 201.379 145.175 200.559 143.424C204.002 140.156 208.395 139.991 210.373 142.801C213.958 147.891 210.92 171.956 198.668 176.764L198.679 176.752Z" fill="#263238"/>
<path d="M143.476 192.33C143.476 192.33 138.875 176.812 132.579 178.188C126.284 179.563 127.17 200.125 132.754 204.768C138.339 209.412 142.427 203.933 142.427 203.933L143.476 192.33Z" fill="#AD6359"/>
<path d="M132.972 184.079C132.874 184.032 132.809 184.185 132.885 184.255C136.754 187.665 137.803 192.861 138.109 197.986C137.3 195.788 135.792 194.225 133.104 195.165C132.962 195.212 133.016 195.447 133.147 195.459C135.082 195.647 136.295 196.423 137.06 198.398C137.606 199.797 137.792 201.396 138.044 202.877C138.131 203.371 138.907 203.382 138.896 202.842C138.896 202.806 138.896 202.759 138.896 202.724C140.765 196.693 138.83 186.724 132.951 184.091L132.972 184.079Z" fill="#263238"/>
<path d="M161.181 244.502L155.192 263.17L126.12 234.039L118.514 243.385C118.514 243.385 144.448 289.986 144.612 287.881L156.044 267.755L166.284 281.921L165.847 252.472L161.181 244.502Z" fill="#EBEBEB"/>
<path d="M166.744 264.697C166.416 258.96 166.69 258.525 166.121 252.8C166.099 252.6 165.804 252.506 165.761 252.741C164.668 258.278 165.575 274.877 165.531 280.132C165.509 280.109 165.487 280.085 165.476 280.074C164.941 279.474 156.165 267.577 156.056 267.753C154.121 270.904 145.072 285.634 144.624 286.951C140.525 279.545 124.799 252.635 119.935 245.629C119.793 245.429 119.509 245.593 119.618 245.828C123.236 253.646 144.034 289.878 144.362 289.784C144.58 289.972 155.225 271.891 156.198 268.518C158.099 271.057 166.985 284.447 167.028 283.589C167.313 277.828 167.083 270.445 166.766 264.697H166.744Z" fill="#263238"/>
<path d="M0 423.037L55.3446 422.755L110.689 422.649L221.379 422.461L332.068 422.649L387.412 422.755L442.746 423.037L387.412 423.331L332.068 423.437L221.379 423.625L110.689 423.437L55.3446 423.331L0 423.037Z" fill="#263238"/>
<path d="M339.347 419.969H188.996V427.222H339.347V419.969Z" fill="#455A64"/>
<path d="M339.337 419.969H263.664V427.222H339.337V419.969Z" fill="#263238"/>
<path d="M271.805 427.21H418.33L437.489 320.172H290.963L271.805 427.21Z" fill="#455A64"/>
<path d="M345.729 373.687C345.303 378.989 348.942 383.28 353.871 383.28C358.8 383.28 363.139 378.989 363.576 373.687C364.003 368.385 360.363 364.094 355.434 364.094C350.505 364.094 346.166 368.385 345.74 373.687H345.729Z" fill="#EBEBEB"/>
<path d="M425.216 388.77L418.331 427.212H304.713L425.216 388.77Z" fill="#263238"/>
<path d="M78.044 453.18H50.5684V457.788H78.044V453.18Z" fill="#455A64"/>
<path d="M78.044 453.18H50.5684V456.224H78.044V453.18Z" fill="#263238"/>
<path d="M17.9459 440.78C21.1918 445.694 26.9514 449.209 33.4214 447.893C34.3394 447.704 35.2684 447.434 36.2083 447.034C37.487 446.505 38.7766 445.788 40.0881 444.836L36.6017 439.264C35.8913 439.793 35.2028 440.204 34.5361 440.522C27.9897 443.707 23.8475 438.159 23.0388 436.901C19.2683 431.211 17.924 418.197 21.7382 413.201C21.9896 412.836 23.0934 412.248 27.5197 413.259C28.3394 413.459 29.2684 413.683 30.3066 413.988C31.4651 414.341 32.1536 414.541 32.8203 414.576L32.9296 411.237L33.2356 407.899C32.9514 407.84 32.5033 407.711 31.9241 407.523C30.252 407.041 28.0006 406.382 25.6727 406.124C22.4158 405.759 19.006 406.182 16.9076 408.945C10.7108 417.115 13.2245 433.633 17.9349 440.78H17.9459Z" fill="#455A64"/>
<path d="M36.6027 439.273C35.8923 439.803 35.2038 440.214 34.5371 440.531L36.2093 447.032C37.4879 446.503 38.7776 445.786 40.0891 444.834L36.6027 439.262V439.273Z" fill="#263238"/>
<path d="M25.6828 406.125L27.5189 413.261C28.3386 413.461 29.2675 413.684 30.3058 413.99C31.4643 414.342 32.1528 414.542 32.8195 414.578L32.9288 411.239L33.2348 407.9C32.9506 407.841 32.5025 407.712 31.9233 407.524C30.2511 407.042 27.9998 406.384 25.6719 406.125H25.6828Z" fill="#263238"/>
<path d="M100.865 397.41C100.865 397.41 97.5647 427.529 91.8707 440.225C86.1766 452.898 78.2312 454.309 73.2913 454.309H55.324C50.384 454.309 42.4386 452.887 36.7446 440.225C31.0506 427.541 27.75 397.41 27.75 397.41H100.854H100.865Z" fill="#455A64"/>
<path d="M95.4879 417.137C94.5152 417.137 93.7283 416.29 93.7283 415.244C93.7283 414.198 94.5152 413.351 95.4879 413.351C96.4605 413.351 97.2474 414.198 97.2474 415.244C97.2474 416.29 96.4605 417.137 95.4879 417.137ZM95.4879 413.704C94.69 413.704 94.0452 414.398 94.0452 415.256C94.0452 416.114 94.69 416.807 95.4879 416.807C96.2857 416.807 96.9305 416.114 96.9305 415.256C96.9305 414.398 96.2857 413.704 95.4879 413.704ZM43.4001 407.403C42.4274 407.403 41.6405 406.556 41.6405 405.51C41.6405 404.464 42.4274 403.617 43.4001 403.617C44.3728 403.617 45.1597 404.464 45.1597 405.51C45.1597 406.556 44.3728 407.403 43.4001 407.403ZM43.4001 403.97C42.6132 403.97 41.9574 404.664 41.9574 405.522C41.9574 406.38 42.6023 407.074 43.4001 407.074C44.1979 407.074 44.8427 406.38 44.8427 405.522C44.8427 404.664 44.1979 403.97 43.4001 403.97ZM45.9903 435.159C45.0176 435.159 44.2307 434.312 44.2307 433.266C44.2307 432.22 45.0176 431.373 45.9903 431.373C46.9629 431.373 47.7498 432.22 47.7498 433.266C47.7498 434.312 46.9629 435.159 45.9903 435.159ZM45.9903 431.726C45.1924 431.726 44.5476 432.419 44.5476 433.278C44.5476 434.136 45.1924 434.829 45.9903 434.829C46.7881 434.829 47.4329 434.136 47.4329 433.278C47.4329 432.419 46.7881 431.726 45.9903 431.726ZM31.6404 402.442C30.6678 402.442 29.8809 401.595 29.8809 400.549C29.8809 399.503 30.6678 398.656 31.6404 398.656C32.6131 398.656 33.4 399.503 33.4 400.549C33.4 401.595 32.6131 402.442 31.6404 402.442ZM31.6404 399.009C30.8426 399.009 30.1978 399.703 30.1978 400.561C30.1978 401.419 30.8426 402.113 31.6404 402.113C32.4383 402.113 33.0831 401.419 33.0831 400.561C33.0831 399.703 32.4383 399.009 31.6404 399.009ZM56.1543 414.233C55.1816 414.233 54.3947 413.387 54.3947 412.34C54.3947 411.294 55.1816 410.448 56.1543 410.448C57.1269 410.448 57.9138 411.294 57.9138 412.34C57.9138 413.387 57.1269 414.233 56.1543 414.233ZM56.1543 410.8C55.3564 410.8 54.7116 411.494 54.7116 412.352C54.7116 413.21 55.3564 413.904 56.1543 413.904C56.9521 413.904 57.5969 413.21 57.5969 412.352C57.5969 411.494 56.9521 410.8 56.1543 410.8ZM75.291 434.371C74.3183 434.371 73.5314 433.525 73.5314 432.478C73.5314 431.432 74.3183 430.585 75.291 430.585C76.2637 430.585 77.0506 431.432 77.0506 432.478C77.0506 433.525 76.2637 434.371 75.291 434.371ZM75.291 430.926C74.4932 430.926 73.8484 431.62 73.8484 432.478C73.8484 433.336 74.4932 434.03 75.291 434.03C76.0888 434.03 76.7336 433.336 76.7336 432.478C76.7336 431.62 76.0888 430.926 75.291 430.926ZM63.5969 402.442C62.6242 402.442 61.8374 401.595 61.8374 400.549C61.8374 399.503 62.6242 398.656 63.5969 398.656C64.5696 398.656 65.3565 399.503 65.3565 400.549C65.3565 401.595 64.5696 402.442 63.5969 402.442ZM63.5969 399.009C62.7991 399.009 62.1543 399.703 62.1543 400.561C62.1543 401.419 62.7991 402.113 63.5969 402.113C64.3948 402.113 65.0396 401.419 65.0396 400.561C65.0396 399.703 64.3948 399.009 63.5969 399.009ZM61.4111 426.788C60.4384 426.788 59.6516 425.942 59.6516 424.896C59.6516 423.849 60.4384 423.003 61.4111 423.003C62.3838 423.003 63.1707 423.849 63.1707 424.896C63.1707 425.942 62.3838 426.788 61.4111 426.788ZM61.4111 423.344C60.6133 423.344 59.9685 424.037 59.9685 424.896C59.9685 425.754 60.6133 426.447 61.4111 426.447C62.2089 426.447 62.8538 425.754 62.8538 424.896C62.8538 424.037 62.2089 423.344 61.4111 423.344ZM43.9684 449.442C42.9957 449.442 42.2088 448.596 42.2088 447.549C42.2088 446.503 42.9957 445.657 43.9684 445.657C44.9411 445.657 45.728 446.503 45.728 447.549C45.728 448.596 44.9411 449.442 43.9684 449.442ZM43.9684 445.998C43.1706 445.998 42.5258 446.691 42.5258 447.549C42.5258 448.408 43.1706 449.101 43.9684 449.101C44.7662 449.101 45.411 448.408 45.411 447.549C45.411 446.691 44.7662 445.998 43.9684 445.998ZM86.7556 405.287C85.7829 405.287 84.996 404.44 84.996 403.394C84.996 402.348 85.7829 401.501 86.7556 401.501C87.7282 401.501 88.5151 402.348 88.5151 403.394C88.5151 404.44 87.7282 405.287 86.7556 405.287ZM86.7556 401.842C85.9687 401.842 85.3129 402.536 85.3129 403.394C85.3129 404.252 85.9577 404.946 86.7556 404.946C87.5534 404.946 88.1982 404.252 88.1982 403.394C88.1982 402.536 87.5534 401.842 86.7556 401.842ZM37.6514 421.627C36.6787 421.627 35.8918 420.781 35.8918 419.735C35.8918 418.688 36.6787 417.842 37.6514 417.842C38.6241 417.842 39.411 418.688 39.411 419.735C39.411 420.781 38.6241 421.627 37.6514 421.627ZM37.6514 418.183C36.8536 418.183 36.2088 418.877 36.2088 419.735C36.2088 420.593 36.8536 421.287 37.6514 421.287C38.4492 421.287 39.094 420.593 39.094 419.735C39.094 418.877 38.4492 418.183 37.6514 418.183ZM73.6954 415.961C72.7227 415.961 71.9358 415.115 71.9358 414.068C71.9358 413.022 72.7227 412.176 73.6954 412.176C74.668 412.176 75.4549 413.022 75.4549 414.068C75.4549 415.115 74.668 415.961 73.6954 415.961ZM73.6954 412.517C72.8975 412.517 72.2527 413.21 72.2527 414.068C72.2527 414.927 72.8975 415.62 73.6954 415.62C74.4932 415.62 75.138 414.927 75.138 414.068C75.138 413.21 74.4932 412.517 73.6954 412.517ZM61.4111 446.585C60.4384 446.585 59.6516 445.739 59.6516 444.693C59.6516 443.646 60.4384 442.8 61.4111 442.8C62.3838 442.8 63.1707 443.646 63.1707 444.693C63.1707 445.739 62.3838 446.585 61.4111 446.585ZM61.4111 443.141C60.6133 443.141 59.9685 443.834 59.9685 444.693C59.9685 445.551 60.6133 446.244 61.4111 446.244C62.2089 446.244 62.8538 445.551 62.8538 444.693C62.8538 443.834 62.2089 443.141 61.4111 443.141ZM76.2309 453.427C75.2582 453.427 74.4713 452.581 74.4713 451.535C74.4713 450.488 75.2582 449.642 76.2309 449.642C77.2036 449.642 77.9905 450.488 77.9905 451.535C77.9905 452.581 77.2036 453.427 76.2309 453.427ZM76.2309 449.983C75.4331 449.983 74.7883 450.676 74.7883 451.535C74.7883 452.393 75.4331 453.086 76.2309 453.086C77.0287 453.086 77.6735 452.393 77.6735 451.535C77.6735 450.676 77.0287 449.983 76.2309 449.983ZM86.7556 425.072C85.7829 425.072 84.996 424.226 84.996 423.179C84.996 422.133 85.7829 421.287 86.7556 421.287C87.7282 421.287 88.5151 422.133 88.5151 423.179C88.5151 424.226 87.7282 425.072 86.7556 425.072ZM86.7556 421.627C85.9687 421.627 85.3129 422.321 85.3129 423.179C85.3129 424.037 85.9577 424.731 86.7556 424.731C87.5534 424.731 88.1982 424.037 88.1982 423.179C88.1982 422.321 87.5534 421.627 86.7556 421.627ZM88.3621 442.142C87.3894 442.142 86.6026 441.295 86.6026 440.249C86.6026 439.203 87.3894 438.356 88.3621 438.356C89.3348 438.356 90.1217 439.203 90.1217 440.249C90.1217 441.295 89.3348 442.142 88.3621 442.142ZM88.3621 438.709C87.5643 438.709 86.9195 439.402 86.9195 440.261C86.9195 441.119 87.5643 441.812 88.3621 441.812C89.16 441.812 89.8048 441.119 89.8048 440.261C89.8048 439.402 89.16 438.709 88.3621 438.709Z" fill="white"/>
</svg>
