<svg width="417" height="416" viewBox="0 0 417 416" fill="none" xmlns="http://www.w3.org/2000/svg">
<g clip-path="url(#clip0_496_2308)">
<path d="M417 10.5215H303.168V195.939H417V10.5215Z" fill="#E0E0E0"/>
<path d="M413.549 14.002H306.238V192.883H413.549V14.002Z" fill="#F5F5F5"/>
<path d="M402.683 23.5625H359.895V87.7447H402.683V23.5625Z" fill="white"/>
<path d="M383.564 29.2356C383.564 30.0916 382.852 30.7797 381.966 30.7797C381.081 30.7797 380.369 30.0916 380.369 29.2356C380.369 28.3795 381.081 27.6914 381.966 27.6914C382.852 27.6914 383.564 28.3795 383.564 29.2356Z" fill="#E0E0E0"/>
<path d="M359.554 105.611H316.766V169.794H359.554V105.611Z" fill="white"/>
<path d="M340.435 111.284C340.435 112.14 339.723 112.829 338.838 112.829C337.952 112.829 337.24 112.14 337.24 111.284C337.24 110.428 337.952 109.74 338.838 109.74C339.723 109.74 340.435 110.428 340.435 111.284Z" fill="#E0E0E0"/>
<path d="M352.727 23.5625H316.188V73.6873H352.727V23.5625Z" fill="white"/>
<path d="M335.785 28.1141C335.785 28.8262 335.189 29.3942 334.461 29.3942C333.733 29.3942 333.137 28.8182 333.137 28.1141C333.137 27.41 333.733 26.834 334.461 26.834C335.189 26.834 335.785 27.41 335.785 28.1141Z" fill="#E0E0E0"/>
<path d="M404.092 106.468L365.012 110.732L367.456 131.666L406.537 127.401L404.092 106.468Z" fill="white"/>
<path d="M385.012 113.907C385.761 113.907 386.369 113.32 386.369 112.595C386.369 111.871 385.761 111.283 385.012 111.283C384.262 111.283 383.654 111.871 383.654 112.595C383.654 113.32 384.262 113.907 385.012 113.907Z" fill="#E0E0E0"/>
<path d="M353.852 120.251C353.852 120.419 347.131 120.564 338.847 120.564C330.562 120.564 323.842 120.427 323.842 120.251C323.842 120.075 330.562 119.939 338.847 119.939C347.131 119.939 353.852 120.075 353.852 120.251Z" fill="#E0E0E0"/>
<path d="M353.852 124.845C353.852 125.013 347.131 125.157 338.847 125.157C330.562 125.157 323.842 125.021 323.842 124.845C323.842 124.669 330.562 124.533 338.847 124.533C347.131 124.533 353.852 124.669 353.852 124.845Z" fill="#E0E0E0"/>
<path d="M353.852 129.437C353.852 129.605 347.131 129.749 338.847 129.749C330.562 129.749 323.842 129.613 323.842 129.437C323.842 129.261 330.562 129.125 338.847 129.125C347.131 129.125 353.852 129.261 353.852 129.437Z" fill="#E0E0E0"/>
<path d="M353.852 134.029C353.852 134.197 347.131 134.341 338.847 134.341C330.562 134.341 323.842 134.205 323.842 134.029C323.842 133.853 330.562 133.717 338.847 133.717C347.131 133.717 353.852 133.853 353.852 134.029Z" fill="#E0E0E0"/>
<path d="M353.852 138.623C353.852 138.791 347.131 138.935 338.847 138.935C330.562 138.935 323.842 138.799 323.842 138.623C323.842 138.447 330.562 138.311 338.847 138.311C347.131 138.311 353.852 138.447 353.852 138.623Z" fill="#E0E0E0"/>
<path d="M353.852 143.214C353.852 143.382 347.131 143.526 338.847 143.526C330.562 143.526 323.842 143.39 323.842 143.214C323.842 143.038 330.562 142.902 338.847 142.902C347.131 142.902 353.852 143.038 353.852 143.214Z" fill="#E0E0E0"/>
<path d="M353.852 147.806C353.852 147.974 347.131 148.118 338.847 148.118C330.562 148.118 323.842 147.982 323.842 147.806C323.842 147.63 330.562 147.494 338.847 147.494C347.131 147.494 353.852 147.63 353.852 147.806Z" fill="#E0E0E0"/>
<path d="M400.423 115.332C400.448 115.5 393.811 116.548 385.609 117.66C377.399 118.78 370.728 119.548 370.703 119.38C370.678 119.212 377.308 118.164 385.518 117.052C393.72 115.932 400.399 115.164 400.423 115.332Z" fill="#E0E0E0"/>
<path d="M401.019 118.203C401.044 118.371 394.406 119.419 386.205 120.531C377.994 121.651 371.324 122.419 371.299 122.251C371.274 122.083 377.903 121.035 386.113 119.915C394.315 118.795 400.994 118.027 401.019 118.195V118.203Z" fill="#E0E0E0"/>
<path d="M401.564 120.851C401.589 121.019 394.959 122.067 386.749 123.187C378.539 124.308 371.869 125.076 371.844 124.908C371.819 124.74 378.448 123.691 386.658 122.571C394.86 121.451 401.539 120.683 401.564 120.851Z" fill="#E0E0E0"/>
<path d="M398.917 36.9878C398.917 37.1558 391.328 37.2998 381.967 37.2998C372.607 37.2998 365.018 37.1638 365.018 36.9878C365.018 36.8118 372.607 36.6758 381.967 36.6758C391.328 36.6758 398.917 36.8118 398.917 36.9878Z" fill="#E0E0E0"/>
<path d="M398.917 39.7163C398.917 39.8843 391.328 40.0284 381.967 40.0284C372.607 40.0284 365.018 39.8923 365.018 39.7163C365.018 39.5403 372.607 39.4043 381.967 39.4043C391.328 39.4043 398.917 39.5403 398.917 39.7163Z" fill="#E0E0E0"/>
<path d="M398.917 42.4448C398.917 42.6129 391.328 42.7569 381.967 42.7569C372.607 42.7569 365.018 42.6209 365.018 42.4448C365.018 42.2688 372.607 42.1328 381.967 42.1328C391.328 42.1328 398.917 42.2688 398.917 42.4448Z" fill="#E0E0E0"/>
<path d="M398.917 45.1812C398.917 45.3492 391.328 45.4932 381.967 45.4932C372.607 45.4932 365.018 45.3572 365.018 45.1812C365.018 45.0052 372.607 44.8691 381.967 44.8691C391.328 44.8691 398.917 45.0052 398.917 45.1812Z" fill="#E0E0E0"/>
<path d="M398.917 47.9097C398.917 48.0777 391.328 48.2217 381.967 48.2217C372.607 48.2217 365.018 48.0857 365.018 47.9097C365.018 47.7337 372.607 47.5977 381.967 47.5977C391.328 47.5977 398.917 47.7337 398.917 47.9097Z" fill="#E0E0E0"/>
<path d="M398.917 50.6382C398.917 50.8062 391.328 50.9502 381.967 50.9502C372.607 50.9502 365.018 50.8142 365.018 50.6382C365.018 50.4622 372.607 50.3262 381.967 50.3262C391.328 50.3262 398.917 50.4622 398.917 50.6382Z" fill="#E0E0E0"/>
<path d="M398.917 53.3745C398.917 53.5425 391.328 53.6866 381.967 53.6866C372.607 53.6866 365.018 53.5505 365.018 53.3745C365.018 53.1985 372.607 53.0625 381.967 53.0625C391.328 53.0625 398.917 53.1985 398.917 53.3745Z" fill="#E0E0E0"/>
<path d="M398.917 61.4702C398.917 61.6382 391.328 61.7823 381.967 61.7823C372.607 61.7823 365.018 61.6462 365.018 61.4702C365.018 61.2942 372.607 61.1582 381.967 61.1582C391.328 61.1582 398.917 61.2942 398.917 61.4702Z" fill="#E0E0E0"/>
<path d="M399.156 64.3589C399.156 64.5269 391.566 64.6709 382.206 64.6709C372.845 64.6709 365.256 64.5349 365.256 64.3589C365.256 64.1829 372.845 64.0469 382.206 64.0469C391.566 64.0469 399.156 64.1829 399.156 64.3589Z" fill="#E0E0E0"/>
<path d="M399.396 67.2398C399.396 67.4078 391.806 67.5518 382.446 67.5518C373.085 67.5518 365.496 67.4158 365.496 67.2398C365.496 67.0637 373.085 66.9277 382.446 66.9277C391.806 66.9277 399.396 67.0637 399.396 67.2398Z" fill="#E0E0E0"/>
<path d="M399.636 70.1265C399.636 70.2945 392.047 70.4385 382.686 70.4385C373.326 70.4385 365.736 70.3025 365.736 70.1265C365.736 69.9505 373.326 69.8145 382.686 69.8145C392.047 69.8145 399.636 69.9505 399.636 70.1265Z" fill="#E0E0E0"/>
<path d="M399.868 73.0073C399.868 73.1754 392.279 73.3194 382.919 73.3194C373.558 73.3194 365.969 73.1834 365.969 73.0073C365.969 72.8313 373.558 72.6953 382.919 72.6953C392.279 72.6953 399.868 72.8313 399.868 73.0073Z" fill="#E0E0E0"/>
<path d="M400.109 75.8958C400.109 76.0638 392.519 76.2079 383.159 76.2079C373.798 76.2079 366.209 76.0718 366.209 75.8958C366.209 75.7198 373.798 75.5918 383.159 75.5918C392.519 75.5918 400.109 75.7278 400.109 75.8958Z" fill="#E0E0E0"/>
<path d="M162.297 47.0682H137.766C136.069 47.0682 134.695 45.7401 134.695 44.0999V11.2808C134.695 9.64063 136.069 8.3125 137.766 8.3125H153.325L165.367 20.3137V44.0999C165.367 45.7401 163.993 47.0682 162.297 47.0682Z" fill="#F5F5F5"/>
<path d="M134.695 35.3066H165.359V43.4434C165.359 45.4436 163.679 47.0678 161.61 47.0678H138.444C136.375 47.0678 134.695 45.4436 134.695 43.4434V35.3066Z" fill="#E0E0E0"/>
<path d="M145.562 42.8924L146.332 41.9963C146.655 42.4204 147.019 42.6364 147.449 42.6364C148.004 42.6364 148.302 42.3164 148.302 41.6763V38.916H146.191V37.8359H149.684V41.5963C149.684 43.0284 148.939 43.7325 147.524 43.7325C146.721 43.7325 146.009 43.4365 145.571 42.8844L145.562 42.8924Z" fill="#FAFAFA"/>
<path d="M150.512 43.2276L150.959 42.2995C151.372 42.5556 151.993 42.7316 152.564 42.7316C153.185 42.7316 153.417 42.5716 153.417 42.3235C153.417 41.5955 150.628 42.3395 150.628 40.5554C150.628 39.7073 151.414 39.1152 152.763 39.1152C153.4 39.1152 154.104 39.2592 154.534 39.5073L154.087 40.4274C153.632 40.1793 153.177 40.0993 152.755 40.0993C152.15 40.0993 151.894 40.2833 151.894 40.5154C151.894 41.2754 154.683 40.5394 154.683 42.2995C154.683 43.1316 153.888 43.7157 152.506 43.7157C151.728 43.7157 150.934 43.5077 150.512 43.2356V43.2276Z" fill="#FAFAFA"/>
<path d="M141.192 29.1389L142.152 28.0508C142.781 28.9149 143.592 29.3789 144.569 29.3789C145.877 29.3789 146.555 28.6109 146.555 27.1067V20.8101H142.359V19.418H148.194V27.0347C148.194 29.5309 146.936 30.7711 144.561 30.7711C143.187 30.7711 141.921 30.195 141.176 29.1549L141.192 29.1389Z" fill="#FAFAFA"/>
<path d="M150.246 29.7313L150.908 28.5152C151.653 29.0273 152.845 29.3953 153.995 29.3953C155.468 29.3953 156.081 28.9633 156.081 28.2432C156.081 26.339 150.527 27.9872 150.527 24.6028C150.527 23.0827 151.934 22.0586 154.194 22.0586C155.336 22.0586 156.627 22.3466 157.397 22.8267L156.718 24.0428C155.924 23.5467 155.046 23.3707 154.186 23.3707C152.795 23.3707 152.117 23.8668 152.117 24.5388C152.117 26.539 157.686 24.9069 157.686 28.2112C157.686 29.7473 156.23 30.7234 153.888 30.7234C152.431 30.7234 150.983 30.2914 150.254 29.7313H150.246Z" fill="#FAFAFA"/>
<path d="M153.316 8.3125V17.5534C153.316 19.0735 154.591 20.3137 156.172 20.3137H165.358L153.316 8.3205V8.3125Z" fill="#EBEBEB"/>
<path d="M153.45 18.3613C153.45 18.3613 153.326 20.6015 155.966 21.3376C156.065 21.3616 156.164 21.3856 156.264 21.4016C157.464 21.6096 165.359 22.9698 165.359 22.7938V20.3135H156.173C156.173 20.3135 153.88 20.2415 153.441 18.3613H153.45Z" fill="#E0E0E0"/>
<path d="M226.048 65.7103H184.46C181.588 65.7103 179.254 63.4541 179.254 60.6778V5.03248C179.254 2.25622 181.588 0 184.46 0H210.836L231.254 20.346V60.6858C231.254 63.4621 228.92 65.7183 226.048 65.7183V65.7103Z" fill="#FF725E"/>
<g opacity="0.2">
<path d="M180.28 45.7715H230.228C230.79 45.7715 231.254 46.2195 231.254 46.7636V60.5249C231.254 63.3892 228.854 65.7094 225.891 65.7094H184.617C181.654 65.7094 179.254 63.3892 179.254 60.5249V46.7636C179.254 46.2195 179.717 45.7715 180.28 45.7715Z" fill="black"/>
</g>
<g opacity="0.2">
<path d="M210.836 0V15.6655C210.836 18.2498 213.004 20.346 215.678 20.346H231.254L210.836 0Z" fill="white"/>
</g>
<g opacity="0.2">
<path d="M211.052 17.0332C211.052 17.0332 210.845 20.8336 215.323 22.0817C215.488 22.1297 215.662 22.1617 215.836 22.1937C217.872 22.5457 231.263 24.85 231.263 24.5539V20.3455H215.687C215.687 20.3455 211.797 20.2175 211.061 17.0412L211.052 17.0332Z" fill="black"/>
</g>
<path d="M194.143 54.4603C194.143 52.1001 196.013 50.4199 198.529 50.4199C199.928 50.4199 201.095 50.908 201.856 51.8041L200.656 52.8762C200.11 52.2761 199.431 51.9561 198.62 51.9561C197.105 51.9561 196.03 52.9802 196.03 54.4603C196.03 55.9405 197.105 56.9645 198.62 56.9645C199.431 56.9645 200.11 56.6525 200.656 56.0365L201.856 57.1086C201.095 58.0126 199.928 58.5087 198.521 58.5087C196.013 58.5087 194.143 56.8205 194.143 54.4683V54.4603Z" fill="#FAFAFA"/>
<path d="M202.403 57.5966L203.041 56.2365C203.719 56.7165 204.737 57.0526 205.706 57.0526C206.815 57.0526 207.261 56.6925 207.261 56.2125C207.261 54.7483 202.561 55.7564 202.561 52.8522C202.561 51.524 203.67 50.4199 205.97 50.4199C206.988 50.4199 208.023 50.6519 208.776 51.116L208.197 52.4921C207.444 52.0761 206.674 51.8761 205.954 51.8761C204.845 51.8761 204.414 52.2761 204.414 52.7721C204.414 54.2123 209.115 53.2202 209.115 56.0925C209.115 57.3966 207.998 58.5167 205.681 58.5167C204.398 58.5167 203.107 58.1487 202.387 57.6126L202.403 57.5966Z" fill="#FAFAFA"/>
<path d="M209.776 57.5966L210.413 56.2365C211.092 56.7165 212.11 57.0526 213.086 57.0526C214.195 57.0526 214.642 56.6925 214.642 56.2125C214.642 54.7483 209.941 55.7564 209.941 52.8522C209.941 51.524 211.05 50.4199 213.351 50.4199C214.369 50.4199 215.412 50.6519 216.157 51.116L215.578 52.4921C214.824 52.0761 214.055 51.8761 213.335 51.8761C212.226 51.8761 211.795 52.2761 211.795 52.7721C211.795 54.2123 216.496 53.2202 216.496 56.0925C216.496 57.3966 215.379 58.5167 213.062 58.5167C211.779 58.5167 210.488 58.1487 209.768 57.6126L209.776 57.5966Z" fill="#FAFAFA"/>
<path d="M196.782 29.1629C197.635 29.4109 198.024 29.939 198.024 31.1711V34.0434C198.024 34.8835 198.471 35.3715 199.381 35.3715H199.712V37.5637H198.636C196.311 37.5637 195.127 36.4116 195.127 34.3474V31.0991C195.127 30.523 194.813 30.251 194.308 30.251H193.695V28.0588H194.308C194.813 28.0588 195.127 27.7868 195.127 27.2107V23.9624C195.127 21.8982 196.319 20.7461 198.636 20.7461H199.712V22.9383H199.381C198.471 22.9383 198.024 23.4264 198.024 24.2664V27.1387C198.024 28.3788 197.635 28.8989 196.782 29.1469V29.1629Z" fill="#FAFAFA"/>
<path d="M216.812 28.0662V30.2584H216.199C215.694 30.2584 215.38 30.5305 215.38 31.1065V34.3548C215.38 36.419 214.188 37.5711 211.871 37.5711H210.795V35.3789H211.126C212.036 35.3789 212.483 34.8909 212.483 34.0508V31.1785C212.483 29.9384 212.872 29.4184 213.725 29.1703C212.872 28.9223 212.483 28.3943 212.483 27.1621V24.2899C212.483 23.4418 212.036 22.9617 211.126 22.9617H210.795V20.7695H211.871C214.196 20.7695 215.38 21.9216 215.38 23.9858V27.2342C215.38 27.8102 215.694 28.0822 216.199 28.0822H216.812V28.0662Z" fill="#FAFAFA"/>
<path d="M284.289 106.115H242.071C239.15 106.115 236.791 103.826 236.791 101.01V44.5166C236.791 41.6923 239.158 39.4121 242.071 39.4121H268.845L289.569 60.0621V101.01C289.569 103.834 287.202 106.115 284.289 106.115Z" fill="#FF725E"/>
<g opacity="0.2">
<path d="M236.791 85.873H289.578V100.594C289.578 103.643 287.02 106.115 283.867 106.115H242.494C239.341 106.115 236.783 103.643 236.783 100.594V85.873H236.791Z" fill="black"/>
</g>
<g opacity="0.2">
<path d="M268.846 39.4121V55.3096C268.846 57.9339 271.047 60.0621 273.762 60.0621H289.578L268.854 39.4121H268.846Z" fill="white"/>
</g>
<g opacity="0.2">
<path d="M269.06 56.7014C269.06 56.7014 268.853 60.5577 273.397 61.8218C273.571 61.8699 273.744 61.9019 273.918 61.9339C275.979 62.2939 289.577 64.6301 289.577 64.3261V60.0537H273.761C273.761 60.0537 269.813 59.9257 269.06 56.6934V56.7014Z" fill="black"/>
</g>
<path d="M258.466 69.1572L252.127 71.4054L258.466 73.6296V75.9258L249.412 72.5975V70.2053L258.466 66.877V69.1572Z" fill="#FAFAFA"/>
<path d="M265.278 62.3574H267.926L261.645 79.6871H258.996L265.278 62.3574Z" fill="#FAFAFA"/>
<path d="M277.32 70.2053V72.5975L268.266 75.9258V73.6296L274.605 71.4054L268.266 69.1572V66.877L277.32 70.2053Z" fill="#FAFAFA"/>
<path d="M256.315 93.4082V100.265H254.677V97.4566H251.457V100.265H249.818V93.4082H251.457V96.1125H254.677V93.4082H256.315Z" fill="#FAFAFA"/>
<path d="M259.461 94.6965H257.193V93.4004H263.376V94.6965H261.108V100.265H259.469V94.6965H259.461Z" fill="#FAFAFA"/>
<path d="M270.707 100.265V96.1525L268.613 99.5448H267.877L265.799 96.2405V100.265H264.26V93.4082H265.617L268.274 97.6726L270.889 93.4082H272.238L272.255 100.265H270.715H270.707Z" fill="#FAFAFA"/>
<path d="M273.936 93.4082H275.574V98.9767H279.133V100.273H273.936V93.4162V93.4082Z" fill="#FAFAFA"/>
</g>
<g clip-path="url(#clip1_496_2308)">
<path d="M0.439453 288.144L44.1217 257.359L255.788 256.305L265.471 288.611L0.439453 288.144Z" fill="#455A64"/>
<path d="M264.924 300.755L0 300.557V287.539L265.04 288.403L264.924 300.755Z" fill="#455A64"/>
<path d="M258.419 288.334C258.419 288.455 201.213 288.533 130.658 288.498C60.0861 288.464 2.88867 288.334 2.88867 288.213C2.88867 288.092 60.0861 288.015 130.658 288.049C201.213 288.084 258.419 288.213 258.419 288.334Z" fill="#263238"/>
<path d="M61.3943 282.574C54.4919 285.71 47.8377 286.004 41.5147 282.574L36.8965 242.209H65.5738L61.386 282.574H61.3943Z" fill="#6F4439"/>
<path d="M63.6858 239.868L62.8251 236.983L41.2239 234.227C40.6363 234.149 40.0735 234.521 39.8832 235.099L38.319 239.859H35.5547V245.085C46.4049 247.08 56.7917 247.201 66.6239 245.085V239.859H63.6858V239.868Z" fill="#E0E0E0"/>
<path d="M63.6861 239.868C63.6861 239.868 63.7606 239.859 63.8848 239.85C64.0337 239.85 64.2241 239.842 64.4558 239.833C64.9855 239.825 65.7056 239.807 66.6159 239.79H66.6987V239.876C66.707 241.224 66.7235 242.986 66.7484 245.102V245.215L66.649 245.241C63.2061 245.992 58.6376 246.718 53.3159 246.83C47.9943 246.96 41.9443 246.502 35.6378 245.353L35.5219 245.336L35.3398 245.301V245.111C35.3398 243.34 35.3398 241.587 35.3398 239.885V239.66H35.555C36.4902 239.66 37.4089 239.66 38.3193 239.66L38.1207 239.807C38.6504 238.209 39.1635 236.654 39.6683 235.143C39.7759 234.719 40.0987 234.313 40.5042 234.149C40.7029 234.063 40.9263 234.02 41.1415 234.028C41.3567 234.046 41.5222 234.072 41.7126 234.098C42.4492 234.193 43.1775 234.288 43.8975 234.383C46.7528 234.754 49.4178 235.108 51.8345 235.428C56.6099 236.076 60.4087 236.585 62.842 236.922H62.8916L62.9082 236.983C63.1647 237.89 63.3551 238.598 63.5041 239.125C63.562 239.349 63.6117 239.539 63.653 239.686C63.6861 239.816 63.7027 239.885 63.6944 239.894C63.6944 239.894 63.6696 239.842 63.6282 239.721C63.5785 239.574 63.5206 239.401 63.4461 239.185C63.2806 238.667 63.0489 237.95 62.7592 237.034L62.8254 237.095C60.3839 236.801 56.5851 236.352 51.8014 235.782C49.3847 235.48 46.7197 235.151 43.8561 234.797C43.1361 234.711 42.4078 234.616 41.6712 234.521C41.2822 234.478 40.9512 234.4 40.6615 234.547C40.3636 234.685 40.1484 234.935 40.0491 235.29C39.5525 236.81 39.0393 238.365 38.5179 239.963L38.4683 240.11H38.3193C37.4172 240.11 36.4902 240.11 35.555 240.11L35.7702 239.885C35.7702 241.587 35.7702 243.332 35.7702 245.111L35.5881 244.886L35.704 244.904C41.9857 246.053 48.0026 246.528 53.2994 246.424C58.5962 246.338 63.1565 245.664 66.5911 244.973L66.4918 245.102C66.5084 242.986 66.5249 241.224 66.5415 239.876L66.6242 239.963C65.689 239.945 64.9607 239.928 64.4227 239.92C64.1993 239.92 64.0172 239.902 63.8682 239.902C63.7441 239.902 63.6861 239.894 63.6861 239.885V239.868Z" fill="#263238"/>
<path d="M63.4137 269.193C55.9236 270.454 47.6473 270.273 38.891 269.193L37.6992 256.953C46.9356 257.99 55.9981 258.033 64.862 256.953L63.4137 269.193Z" fill="#AE7461"/>
<path d="M49.6242 260.883C48.5069 261.591 48.0517 263.086 48.6145 264.355L49.3925 266.109C49.9553 267.379 51.3457 267.975 52.5871 267.543L49.6242 260.891V260.883Z" fill="#6F4439"/>
<path d="M50.1465 260.633L53.1094 267.284C54.2267 266.576 54.6819 265.081 54.1191 263.811L53.3411 262.058C52.7783 260.788 51.3879 260.192 50.1465 260.624V260.633Z" fill="#6F4439"/>
<path d="M63.9253 239.946C63.9253 239.946 63.5859 240.084 62.9487 240.257C62.3114 240.43 61.3844 240.637 60.234 240.853C57.9249 241.285 54.6889 241.673 51.1053 241.665C47.5134 241.656 44.2856 241.25 41.9765 240.81C40.8261 240.594 39.8909 240.378 39.2619 240.205C38.6246 240.032 38.277 239.92 38.2853 239.894C38.2936 239.868 38.6495 239.911 39.295 240.032C39.9406 240.153 40.8675 240.317 42.0262 240.499C44.3353 240.861 47.5465 241.207 51.1053 241.216C54.6641 241.216 57.8753 240.887 60.1844 240.542C61.3431 240.369 62.27 240.214 62.9155 240.084C63.5611 239.972 63.917 239.92 63.9253 239.946Z" fill="#263238"/>
<path d="M78.667 179.91C78.667 179.91 73.9413 180.973 73.1219 184.471C72.3026 187.969 79.7016 271.715 79.9995 273.754C80.463 276.958 83.0535 281.027 88.8882 280.811C93.9699 280.621 163.251 280.785 180.697 280.828C183.015 280.828 184.405 278.772 184.711 276.319L98.9357 271.033L78.667 179.91Z" fill="#E0E0E0"/>
<path d="M76.5152 182.708L83.9473 273.019C84.088 274.496 85.2715 275.627 86.6867 275.645L184.711 276.103L165.883 256.598L102.205 256.131L95.3934 185.377C95.3024 184.436 94.6402 183.667 93.763 183.451L79.4946 179.979C77.8725 179.581 76.3579 180.972 76.5152 182.708Z" fill="#E0E0E0"/>
<path d="M76.5143 182.708C76.5143 182.708 76.4895 182.562 76.4978 182.277C76.5061 181.992 76.5805 181.542 76.8785 181.059C77.1682 180.584 77.731 180.057 78.542 179.91C78.9476 179.823 79.4028 179.901 79.8414 180.022C80.2966 180.134 80.7766 180.247 81.2898 180.368C83.3506 180.86 85.8831 181.465 88.8626 182.182C90.3523 182.536 91.9579 182.924 93.6628 183.339C94.5566 183.495 95.376 184.324 95.4753 185.352C95.5746 186.319 95.6657 187.313 95.7733 188.34C97.3706 204.701 99.6466 228.075 102.378 256.123L102.196 255.95C121.306 256.08 142.865 256.235 165.873 256.391H165.956L166.014 256.451C172.048 262.697 178.387 269.27 184.851 275.956L185.223 276.345H184.694C183.32 276.336 181.838 276.327 180.349 276.319C154.858 276.189 130.575 276.077 108.486 275.965C102.965 275.939 97.5775 275.904 92.3469 275.878C91.0392 275.878 89.7399 275.861 88.4487 275.861C87.8032 275.861 87.1742 275.861 86.5121 275.844C85.8334 275.801 85.1713 275.507 84.6748 275.023C84.1782 274.548 83.8471 273.883 83.7561 273.192C83.6816 272.518 83.6485 271.879 83.5906 271.231C83.483 269.935 83.3837 268.648 83.2761 267.37C82.4484 257.16 81.6705 247.641 80.967 238.959C79.5683 221.597 78.4344 207.543 77.6482 197.816C77.2675 192.962 76.9695 189.196 76.7709 186.63C76.6716 185.36 76.6054 184.384 76.5557 183.719C76.5061 183.063 76.4978 182.726 76.4978 182.726C76.4978 182.726 76.5392 183.063 76.5971 183.71C76.655 184.376 76.7461 185.343 76.8537 186.613C77.0771 189.178 77.3999 192.945 77.8137 197.79C78.6331 207.508 79.8083 221.562 81.2649 238.916C81.985 247.597 82.7795 257.108 83.6319 267.327C83.7395 268.605 83.8471 269.892 83.9547 271.188C84.0127 271.836 84.054 272.501 84.1202 273.131C84.203 273.736 84.4927 274.315 84.9313 274.738C85.37 275.161 85.941 275.42 86.5369 275.455C87.1576 275.472 87.8115 275.464 88.4487 275.472C89.7399 275.472 91.0392 275.481 92.3469 275.49C97.5775 275.507 102.965 275.533 108.486 275.559C130.575 275.654 154.858 275.766 180.349 275.878C181.838 275.878 183.32 275.896 184.694 275.896L184.545 276.276C178.089 269.59 171.75 263.016 165.716 256.771L165.865 256.831C142.849 256.65 121.297 256.486 102.187 256.33H102.022L102.005 256.158C99.3403 228.101 97.114 204.727 95.5581 188.358C95.4588 187.338 95.3677 186.345 95.2767 185.378C95.1856 184.445 94.4573 183.685 93.6214 183.538C91.9165 183.114 90.3192 182.726 88.8295 182.354C85.8583 181.62 83.3257 180.998 81.2732 180.488C80.7601 180.359 80.28 180.238 79.8248 180.126C79.3697 179.996 78.9558 179.927 78.5586 180.005C77.7723 180.134 77.2178 180.635 76.9281 181.093C76.6302 181.56 76.5474 182 76.5309 182.285C76.5061 182.57 76.5309 182.717 76.5143 182.717V182.708Z" fill="#263238"/>
<path d="M148.27 273.754H157.382L145.861 258.162H140.457L148.27 273.754Z" fill="#263238"/>
<path d="M79.8828 186.785L86.8432 265.253L99.8121 254.49L94.2339 188.384C94.1925 187.857 93.8035 187.425 93.2987 187.347L81.1491 185.533C80.4373 185.429 79.8249 186.043 79.8994 186.785H79.8828Z" fill="#263238"/>
<path d="M93.8125 273.754H103.214L112.773 258.162H107.361L93.8125 273.754Z" fill="#263238"/>
<path d="M105.35 273.754H114.462L119.461 258.162H114.048L105.35 273.754Z" fill="#263238"/>
<path d="M116.506 273.754H125.618L126.106 258.162H120.702L116.506 273.754Z" fill="#263238"/>
<path d="M126.852 273.754H135.964L132.595 258.162H127.191L126.852 273.754Z" fill="#263238"/>
<path d="M137.628 273.754H146.74L139.317 258.162H133.912L137.628 273.754Z" fill="#263238"/>
<path d="M156.927 270.713C156.927 270.791 143.031 270.851 125.899 270.851C108.767 270.851 94.8633 270.791 94.8633 270.713C94.8633 270.635 108.759 270.574 125.899 270.574C143.04 270.574 156.927 270.635 156.927 270.713Z" fill="#E0E0E0"/>
<path d="M155.272 267.853C155.272 267.931 142.079 267.992 125.8 267.992C109.521 267.992 96.3281 267.931 96.3281 267.853C96.3281 267.775 109.521 267.715 125.8 267.715C142.079 267.715 155.272 267.775 155.272 267.853Z" fill="#E0E0E0"/>
<path d="M155.272 265.262C155.272 265.409 142.858 265.53 127.539 265.53C112.219 265.53 99.8047 265.409 99.8047 265.262C99.8047 265.115 112.219 264.994 127.539 264.994C142.858 264.994 155.272 265.115 155.272 265.262Z" fill="#E0E0E0"/>
<path d="M155.652 262.895C155.652 263.042 143.503 263.163 128.523 263.163C113.543 263.163 101.385 263.042 101.385 262.895C101.385 262.748 113.534 262.627 128.523 262.627C143.511 262.627 155.652 262.748 155.652 262.895Z" fill="#E0E0E0"/>
<path d="M156.928 261.158C156.928 261.305 144.696 261.426 129.616 261.426C114.537 261.426 102.305 261.305 102.305 261.158C102.305 261.012 114.529 260.891 129.616 260.891C144.704 260.891 156.928 261.012 156.928 261.158Z" fill="#E0E0E0"/>
<path d="M158.269 259.354C158.269 259.501 145.813 259.621 130.444 259.621C115.075 259.621 102.619 259.501 102.619 259.354C102.619 259.207 115.075 259.086 130.444 259.086C145.813 259.086 158.269 259.207 158.269 259.354Z" fill="#E0E0E0"/>
<path d="M85.3223 273.011C90.9832 267.482 96.6442 261.954 102.305 256.426L85.3223 273.011Z" fill="#E0E0E0"/>
<path d="M102.305 256.425C102.387 256.512 98.6465 260.304 93.9621 264.882C89.2695 269.46 85.4044 273.097 85.3217 273.01C85.2389 272.924 88.9715 269.132 93.6642 264.554C98.3568 259.976 102.222 256.339 102.305 256.425Z" fill="#263238"/>
</g>
<g clip-path="url(#clip2_496_2308)">
<path d="M414.599 317.624C414.599 317.624 413.763 309.135 391.872 303.695C381.303 301.07 356.069 299.806 353.213 315.664C353.122 316.176 340.658 415.889 340.658 415.889H387.303L414.599 317.616V317.624Z" fill="#455A64"/>
<path d="M407.208 415.898H385.689L392.873 318.201C393.403 313.448 398.493 310.016 404.245 310.544L406.173 310.72C411.925 311.248 415.567 316.6 415.401 322.705L407.208 415.89V415.898Z" fill="#455A64"/>
<path d="M387.295 412.377C387.179 412.369 388.694 393.128 390.689 369.397C392.683 345.667 394.396 326.441 394.512 326.449C394.628 326.457 393.114 345.699 391.119 369.429C389.124 393.152 387.411 412.385 387.295 412.369V412.377Z" fill="#263238"/>
<path d="M410.461 313.007C410.428 313.087 409.344 312.551 407.44 312.319C405.562 312.078 402.797 312.271 400.265 313.671C397.732 315.079 396.168 317.295 395.432 318.983C394.678 320.687 394.604 321.871 394.521 321.855C394.496 321.855 394.496 321.559 394.563 321.039C394.629 320.519 394.803 319.759 395.15 318.879C395.821 317.119 397.41 314.791 400.05 313.319C402.698 311.854 405.57 311.71 407.482 312.038C408.45 312.199 409.212 312.431 409.708 312.639C410.213 312.847 410.47 312.999 410.461 313.015V313.007Z" fill="#263238"/>
<path d="M342.514 190.867C342.729 185.147 338.723 184.379 335.636 185.035C331.887 182.37 326.193 182.666 322.766 185.715C319.953 184.235 316.344 184.291 313.588 185.859C310.832 187.427 309.028 190.459 309.003 193.547C305.784 193.163 302.415 194.956 301.025 197.788C299.634 200.62 300.338 204.276 302.68 206.445C299.237 207.661 297.093 211.581 297.996 215.013C298.898 218.446 302.721 220.902 306.346 220.382L342.646 197.012C344.823 194.796 342.406 193.915 342.522 190.859L342.514 190.867Z" fill="#263238"/>
<path d="M305.287 221.436C306.032 205.467 319.332 192.73 335.852 192.161L337.49 192.105C355.227 192.498 364.794 207.283 363.9 224.413L363.428 281.49L363.312 292.331L322.75 301.652L322.337 279.058C322.337 279.058 305.221 277.082 304.41 260.64C304.013 252.695 304.584 236.286 305.271 221.428L305.287 221.436Z" fill="#AE7461"/>
<path d="M322.213 279.043C322.213 279.043 333.104 279.299 344.277 271.971C344.277 271.971 339.469 283.988 322.436 283.092L322.213 279.043Z" fill="#6F4439"/>
<path d="M310.236 238.031C310.236 239.271 311.329 240.295 312.67 240.319C314.01 240.343 315.095 239.359 315.095 238.119C315.095 236.879 314.01 235.855 312.67 235.831C311.329 235.807 310.236 236.791 310.236 238.039V238.031Z" fill="#263238"/>
<path d="M309.078 230.206C309.393 230.502 311.18 229.118 313.795 229.038C316.403 228.918 318.372 230.15 318.645 229.838C318.778 229.694 318.455 229.15 317.594 228.598C316.75 228.038 315.327 227.518 313.696 227.582C312.066 227.646 310.717 228.27 309.955 228.894C309.169 229.518 308.921 230.078 309.078 230.214V230.206Z" fill="#263238"/>
<path d="M331.258 237.511C331.258 238.751 332.35 239.776 333.691 239.8C335.032 239.824 336.116 238.84 336.116 237.591C336.116 236.351 335.024 235.327 333.691 235.303C332.35 235.279 331.258 236.263 331.258 237.511Z" fill="#263238"/>
<path d="M334.081 228.989C334.396 229.285 336.192 227.909 338.799 227.821C341.406 227.701 343.375 228.933 343.649 228.613C343.781 228.469 343.458 227.925 342.598 227.373C341.753 226.813 340.33 226.293 338.699 226.357C337.069 226.421 335.72 227.045 334.958 227.669C334.181 228.293 333.924 228.853 334.081 228.989Z" fill="#263238"/>
<path d="M326.16 248.023C326.16 247.879 324.53 247.663 321.889 247.431C321.219 247.391 320.582 247.279 320.458 246.847C320.284 246.383 320.54 245.679 320.83 244.919C321.401 243.335 321.997 241.678 322.626 239.934C325.109 232.846 326.88 227.021 326.59 226.925C326.292 226.829 324.041 232.502 321.558 239.598C320.963 241.342 320.391 243.015 319.845 244.607C319.622 245.351 319.216 246.199 319.589 247.151C319.787 247.631 320.292 247.959 320.723 248.055C321.153 248.167 321.534 248.159 321.865 248.167C324.521 248.215 326.168 248.167 326.168 248.023H326.16Z" fill="#263238"/>
<path d="M333.915 249.512C333.493 249.504 333.584 252.248 331.225 254.281C328.875 256.321 325.837 256.113 325.829 256.497C325.796 256.673 326.524 257.009 327.799 256.993C329.049 256.993 330.869 256.537 332.31 255.297C333.75 254.049 334.329 252.432 334.379 251.304C334.445 250.152 334.105 249.488 333.907 249.504L333.915 249.512Z" fill="#263238"/>
<path d="M333.784 221.773C334.115 222.421 336.349 221.749 339.089 221.701C341.828 221.589 344.129 222.125 344.385 221.461C344.493 221.149 344.013 220.565 343.036 220.037C342.06 219.509 340.578 219.092 338.94 219.14C337.301 219.188 335.869 219.693 334.967 220.277C334.048 220.861 333.643 221.469 333.792 221.773H333.784Z" fill="#263238"/>
<path d="M309.417 223.253C309.847 223.845 311.676 223.333 313.844 223.405C316.013 223.405 317.825 223.973 318.272 223.389C318.471 223.109 318.214 222.517 317.436 221.941C316.675 221.365 315.376 220.861 313.886 220.837C312.396 220.813 311.08 221.277 310.302 221.829C309.508 222.381 309.226 222.965 309.417 223.253Z" fill="#263238"/>
<path d="M306.645 213.844C306.645 213.844 310.751 203.387 315.807 200.811C321.924 197.691 324.845 204.195 330.713 202.387C336.581 200.579 342.416 197.587 348.639 201.803C355.451 206.427 352.463 209.932 353.142 217.221C355.889 246.751 361.79 254.928 362.866 240.935C362.982 239.399 367.327 238.039 367.733 231.566C368.271 223.173 368.229 213.004 366.078 207.132C364.265 202.187 361.186 198.827 355.757 195.194C347.183 189.466 335.704 189.73 327.932 190.754C320.169 191.778 305.462 200.963 306.645 213.836V213.844Z" fill="#263238"/>
<path d="M361.764 240.527C361.781 237.983 363.966 235.903 366.589 236.055C369.776 236.239 373.368 237.855 373.393 244.207C373.434 255.465 361.731 253.184 361.715 252.864C361.698 252.648 361.74 245.248 361.764 240.535V240.527Z" fill="#AE7461"/>
<path d="M364.232 248.607C364.281 248.567 364.439 248.743 364.778 248.895C365.109 249.039 365.688 249.143 366.293 248.919C367.517 248.479 368.552 246.583 368.602 244.559C368.626 243.535 368.403 242.558 368.022 241.75C367.666 240.926 367.112 240.358 366.491 240.254C365.87 240.118 365.44 240.478 365.299 240.798C365.142 241.11 365.217 241.334 365.159 241.358C365.126 241.39 364.91 241.166 365.001 240.702C365.051 240.478 365.184 240.214 365.457 239.998C365.738 239.774 366.144 239.662 366.574 239.71C367.476 239.766 368.287 240.566 368.701 241.446C369.164 242.334 369.446 243.431 369.413 244.583C369.346 246.855 368.155 248.975 366.475 249.455C365.655 249.663 364.968 249.431 364.621 249.167C364.257 248.887 364.199 248.639 364.24 248.615L364.232 248.607Z" fill="#6F4439"/>
<path d="M360.731 218.741C359.258 219.789 357.702 220.869 355.881 221.109C354.068 221.349 351.95 220.405 351.577 218.677C351.412 217.901 351.577 216.981 351.023 216.397C350.361 215.701 349.194 215.965 348.225 216.093C344.857 216.557 341.306 214.364 340.33 211.212C339.51 212.492 337.499 212.508 336.159 211.74C334.826 210.972 333.932 209.668 332.873 208.572C331.813 207.476 330.34 206.516 328.809 206.78C327.957 206.924 327.17 207.452 326.301 207.404C324.77 207.324 323.959 205.62 323.678 204.163C323.397 202.707 323.148 201.003 321.824 200.251C320.599 199.555 319.06 200.035 317.661 200.283C316.262 200.531 314.433 200.275 314.028 198.955C313.813 198.267 314.094 197.523 314.475 196.899C316.188 194.083 320.086 192.722 323.264 193.834C324.266 190.082 327.75 187.066 331.722 186.522C335.695 185.978 339.908 187.938 341.952 191.274C344.327 189.034 347.869 188.002 351.13 188.61C354.391 189.21 357.288 191.426 358.654 194.363C361.459 193.546 364.72 194.491 366.599 196.667C368.477 198.843 368.85 202.115 367.517 204.636C369.653 205.716 371.515 207.668 371.647 209.988C371.78 212.316 369.512 214.717 367.17 214.18C368.171 215.957 367.501 218.445 365.721 219.525C363.942 220.597 361.335 220.093 360.118 218.445" fill="#263238"/>
<path d="M368.013 214.133C368.013 214.133 368.262 215.069 367.368 216.317C366.921 216.909 366.151 217.541 365.083 217.741C364.041 217.949 362.75 217.741 361.732 216.925L362.22 216.837C361.682 217.821 360.954 218.837 360.002 219.725C359.389 220.285 358.694 220.773 357.933 221.069C357.18 221.39 356.311 221.446 355.599 221.358C354.117 221.253 352.801 220.533 352.172 219.613C351.519 218.717 351.295 217.869 351.146 217.309C351.005 216.741 350.981 216.413 351.022 216.405C351.072 216.389 351.179 216.701 351.394 217.237C351.61 217.765 351.908 218.565 352.545 219.341C353.704 220.917 357.329 221.614 359.538 219.261C360.424 218.437 361.127 217.485 361.657 216.557L361.847 216.221L362.145 216.469C362.973 217.165 364.082 217.381 364.984 217.237C365.903 217.101 366.606 216.597 367.053 216.093C367.947 215.037 367.906 214.117 368.013 214.141V214.133Z" fill="#455A64"/>
<path d="M230.46 361.404C230.46 361.404 208.503 360.772 207.187 360.372C205.871 359.972 202.669 359.892 201.104 360.372C199.54 360.852 193.291 362.996 193.291 362.996L180.025 366.412C180.025 366.412 166.7 374.837 166.973 376.525C167.246 378.213 168.703 379.366 171.086 378.493C173.47 377.621 185.504 371.581 185.504 371.581L198.712 370.229C198.712 370.229 216.78 376.501 220.421 376.189C224.071 375.877 233.415 374.349 233.415 374.349C233.415 374.349 234.731 365.3 234.069 363.868C233.415 362.436 230.452 361.404 230.452 361.404H230.46Z" fill="#AE7461"/>
<path d="M167.933 384.022C167.933 384.022 179.056 372.485 182.143 370.933C185.231 369.381 202.387 366.66 202.387 366.66C202.387 366.66 207.883 364.46 209.894 365.236C211.905 366.012 233.216 369.124 234.16 369.253C235.095 369.381 229.6 387.398 229.6 387.398C229.6 387.398 222.226 388.694 213.651 386.75C205.069 384.806 202.122 382.214 202.122 382.214L193.556 380.038L188.318 381.966C188.318 381.966 187.374 389.462 183.625 389.078L181.879 387.91L183.219 379.614L177.724 381.814C177.724 381.814 173.437 388.03 170.217 387.126C166.998 386.222 167.941 384.014 167.941 384.014L167.933 384.022Z" fill="#AE7461"/>
<path d="M167.934 384.022C167.934 384.022 167.801 384.326 167.851 384.918C167.884 385.214 167.992 385.582 168.265 385.934C168.538 386.286 168.977 386.598 169.523 386.822C170.069 387.046 170.731 387.238 171.451 387.086C172.163 386.926 172.883 386.542 173.578 386.038C174.977 385.022 176.334 383.542 177.617 381.75L177.642 381.718L177.675 381.702C179.322 381.038 181.176 380.286 183.162 379.477L183.386 379.389L183.353 379.621C182.955 382.118 182.508 384.918 182.037 387.918L181.97 387.766C182.5 388.118 183.104 388.518 183.717 388.926L183.642 388.902C184.346 388.966 185.041 388.702 185.579 388.214C186.117 387.734 186.539 387.102 186.862 386.414C187.507 385.046 187.913 383.502 188.144 381.926L188.161 381.822L188.26 381.782C189.891 381.174 191.67 380.518 193.499 379.845L193.557 379.821L193.615 379.837C196.321 380.518 199.21 381.254 202.181 382.006H202.222L202.264 382.046C203.944 383.318 206.063 384.198 208.19 384.966C210.341 385.71 212.609 386.318 214.935 386.782C217.269 387.246 219.685 387.494 222.135 387.566C224.585 387.63 227.093 387.542 229.567 387.166L229.402 387.31C229.783 386.038 230.188 384.67 230.602 383.302C231.777 379.229 232.961 375.213 233.821 371.253C233.921 370.757 234.012 370.261 234.053 369.773C234.061 369.652 234.061 369.532 234.053 369.436C234.053 369.388 234.003 369.356 234.086 369.42C234.103 369.428 234.119 369.436 234.136 369.436H234.111L234.061 369.428L233.962 369.412L233.192 369.3C232.166 369.148 231.14 368.996 230.13 368.844C228.102 368.532 226.1 368.228 224.13 367.932C220.19 367.316 216.375 366.716 212.717 366.036C211.798 365.852 210.904 365.7 209.994 365.436C209.183 365.132 208.281 365.236 207.42 365.364C205.69 365.66 204.027 366.212 202.454 366.804H202.429L202.413 366.812C196.413 367.788 190.925 368.74 186.142 369.853C184.95 370.133 183.791 370.429 182.732 370.821C181.681 371.221 180.845 371.941 180.025 372.589C178.403 373.917 176.996 375.229 175.73 376.413C173.198 378.789 171.277 380.71 169.953 382.014C169.308 382.654 168.803 383.158 168.455 383.502C168.116 383.838 167.934 384.006 167.934 384.006C167.934 384.006 168.091 383.814 168.422 383.47C168.761 383.11 169.25 382.606 169.887 381.942C171.178 380.614 173.082 378.669 175.598 376.269C176.856 375.069 178.254 373.749 179.876 372.405C180.282 372.069 180.704 371.733 181.151 371.413C181.59 371.085 182.095 370.781 182.641 370.581C183.733 370.181 184.884 369.869 186.084 369.588C190.884 368.452 196.363 367.476 202.363 366.484H202.322C203.919 365.884 205.574 365.332 207.362 365.02C208.239 364.892 209.216 364.764 210.126 365.108C210.962 365.356 211.889 365.508 212.791 365.692C216.441 366.356 220.256 366.956 224.196 367.564C226.166 367.86 228.169 368.164 230.188 368.468C231.206 368.62 232.224 368.764 233.25 368.916L234.02 369.028L234.119 369.044H234.169L234.194 369.052C234.227 369.052 234.252 369.068 234.285 369.084C234.475 369.22 234.442 369.332 234.467 369.404C234.483 369.564 234.483 369.693 234.467 369.829C234.426 370.357 234.326 370.853 234.227 371.357C233.366 375.357 232.183 379.357 230.999 383.446C230.585 384.822 230.18 386.19 229.799 387.462L229.758 387.59L229.625 387.606C227.093 387.99 224.585 388.078 222.102 388.006C219.628 387.926 217.186 387.678 214.836 387.206C212.485 386.734 210.209 386.126 208.032 385.366C206.948 384.982 205.889 384.558 204.871 384.07C203.853 383.574 202.876 383.062 201.982 382.358L202.065 382.398C199.094 381.638 196.206 380.902 193.508 380.214H193.623C191.794 380.878 190.015 381.534 188.384 382.134L188.5 381.99C188.26 383.606 187.847 385.158 187.168 386.582C186.837 387.286 186.39 387.958 185.802 388.478C185.223 389.006 184.404 389.318 183.609 389.238H183.568L183.535 389.214C182.922 388.806 182.326 388.398 181.797 388.046L181.714 387.99L181.73 387.894C182.227 384.894 182.682 382.094 183.096 379.605L183.286 379.749C181.292 380.542 179.438 381.278 177.783 381.934L177.832 381.894C176.516 383.694 175.142 385.174 173.702 386.198C172.982 386.702 172.246 387.094 171.493 387.246C170.731 387.398 170.028 387.182 169.481 386.942C168.919 386.702 168.472 386.374 168.199 385.998C167.917 385.63 167.818 385.238 167.793 384.934C167.76 384.318 167.942 384.03 167.942 384.03L167.934 384.022Z" fill="#6F4439"/>
<path d="M201.625 374.261C201.625 374.261 201.319 374.277 200.781 374.237C200.243 374.197 199.457 374.125 198.497 374.029C197.495 373.925 196.361 373.797 195.12 373.669C194.797 373.629 194.474 373.597 194.143 373.557C193.812 373.509 193.523 373.533 193.175 373.573C192.505 373.661 191.801 373.821 191.089 373.989C188.3 374.773 185.503 375.293 184.427 376.893C183.856 377.621 183.591 378.333 183.434 378.829C183.285 379.325 183.243 379.613 183.21 379.613C183.186 379.613 183.169 379.317 183.268 378.789C183.376 378.269 183.608 377.517 184.179 376.717C184.468 376.325 184.841 375.925 185.313 375.589C185.784 375.261 186.372 374.981 186.976 374.773C188.184 374.349 189.533 373.941 190.974 373.581C191.694 373.405 192.405 373.253 193.109 373.165C193.448 373.117 193.845 373.101 194.176 373.157C194.507 373.197 194.83 373.245 195.153 373.285C196.394 373.453 197.528 373.605 198.521 373.741C199.482 373.877 200.251 373.989 200.789 374.085C201.327 374.181 201.617 374.237 201.617 374.269L201.625 374.261Z" fill="#6F4439"/>
<path d="M171.748 380.182C171.748 380.182 172.054 379.838 172.667 379.286C173.287 378.734 174.198 377.958 175.348 377.03C176.507 376.102 177.897 375.014 179.503 373.886C180.314 373.326 181.175 372.75 182.102 372.206C182.573 371.942 183.062 371.677 183.583 371.453C184.121 371.229 184.667 371.093 185.222 370.941C189.666 369.757 193.829 369.445 196.792 369.021C198.224 368.853 199.407 368.709 200.318 368.597C201.154 368.509 201.617 368.469 201.617 368.501C201.617 368.533 201.162 368.621 200.343 368.757C199.441 368.901 198.257 369.085 196.833 369.309C193.879 369.813 189.732 370.173 185.338 371.341C184.791 371.485 184.237 371.629 183.749 371.83C183.252 372.038 182.772 372.286 182.317 372.55C181.398 373.078 180.537 373.638 179.735 374.19C178.121 375.294 176.714 376.35 175.539 377.246C174.421 378.118 173.486 378.846 172.774 379.398C172.129 379.91 171.765 380.198 171.748 380.174V380.182Z" fill="#6F4439"/>
<path d="M310.401 305.038C310.401 305.038 304.549 312.807 299.906 322.144C295.934 330.145 283.064 357.387 283.064 357.387L230.65 360.044L231.42 379.621C231.42 379.621 282.038 397.055 293.376 393.695C304.707 390.335 316.782 377.701 316.782 377.701L322.203 295.133C322.203 295.133 317.709 294.317 310.392 305.046L310.401 305.038Z" fill="#AF6431"/>
<path d="M321.36 295.308C321.36 295.308 307.919 324.775 305.958 337.257C302.06 362.035 300.752 377.548 300.752 377.548L296.184 415.896H385.692C385.692 415.896 388.655 344.825 386.751 320.991C385.328 303.141 371.183 292.02 365.39 285.908C365.042 285.54 363.445 280.539 363.445 280.539L321.733 290.868L321.352 295.308H321.36Z" fill="#AF6431"/>
<path d="M317.031 299.789C317.031 299.789 317.006 299.885 316.932 300.069C316.849 300.269 316.733 300.533 316.592 300.869C316.278 301.597 315.831 302.629 315.251 303.949C314.101 306.63 312.437 310.51 310.774 315.431C309.094 320.351 307.447 326.32 306.148 333.056C304.815 339.785 303.739 347.258 302.837 355.114C301.19 370.86 299.692 385.109 298.608 395.446C298.053 400.591 297.606 404.759 297.292 407.663C297.126 409.088 297.002 410.2 296.911 410.984C296.862 411.344 296.828 411.632 296.804 411.848C296.779 412.04 296.762 412.144 296.754 412.144C296.754 412.144 296.754 412.04 296.754 411.848C296.77 411.632 296.795 411.344 296.82 410.984C296.895 410.2 296.994 409.08 297.118 407.655C297.399 404.743 297.805 400.567 298.302 395.422C299.336 385.093 300.702 370.828 302.398 355.074C303.3 347.202 304.393 339.729 305.75 332.992C307.074 326.248 308.755 320.263 310.476 315.343C312.189 310.422 313.894 306.55 315.094 303.885C315.69 302.549 316.178 301.533 316.509 300.837C316.667 300.509 316.799 300.245 316.89 300.053C316.981 299.877 317.023 299.789 317.031 299.789Z" fill="#263238"/>
<g opacity="0.3">
<path d="M363.527 346.17C362.7 338.321 359.058 330.441 352.371 325.912L297.797 401.255C307.43 406.28 318.132 411.464 328.833 409.248C334.593 408.056 339.708 404.776 343.863 400.735C352.495 392.342 357.179 380.909 360.465 369.516C362.658 361.916 364.347 354.019 363.527 346.17Z" fill="black"/>
</g>
<path d="M369.718 337.073C362.915 360.331 347.612 388.718 342.919 394.414C333.741 405.552 321.608 407.96 314.366 407.96C308.208 407.96 256.167 398.159 240.74 395.231C238.133 394.735 236.097 392.782 235.551 390.278L235.418 389.662L228.475 387.854L232.174 369.844L232.911 368.844L307.339 371.108L328.99 312.807C329.396 312.143 335.653 292.581 352.611 293.469" fill="#AF6431"/>
<path d="M352.61 293.468C352.61 293.468 352.42 293.468 352.048 293.468C351.675 293.468 351.121 293.436 350.392 293.508C348.936 293.588 346.751 293.876 344.136 294.948C341.545 296.036 338.607 297.997 335.967 301.037C333.302 304.061 330.96 308.054 329.098 312.862V312.846C323.635 327.615 316.211 347.673 307.521 371.164L307.472 371.292H307.331C285.184 370.62 259.875 369.86 232.902 369.051L233.084 368.963C232.853 369.275 232.604 369.619 232.348 369.964L232.381 369.884C231.313 375.092 230.171 380.637 229.029 386.237C228.913 386.805 228.797 387.373 228.69 387.893L228.532 387.653C230.941 388.277 233.275 388.885 235.476 389.461L235.609 389.493L235.625 389.613C235.865 391.11 236.535 392.494 237.669 393.494C238.224 393.99 238.869 394.398 239.573 394.67C240.268 394.958 241.021 395.07 241.799 395.222C244.861 395.798 247.899 396.374 250.911 396.942C256.945 398.062 262.879 399.166 268.705 400.254C280.367 402.391 291.606 404.423 302.315 406.175C304.997 406.607 307.645 407.015 310.261 407.375C311.568 407.535 312.876 407.711 314.159 407.767C315.45 407.783 316.741 407.719 318.016 407.583C323.106 407.055 327.914 405.503 332.085 403.223C336.273 400.943 339.766 397.894 342.58 394.566C343.97 392.894 345.087 391.07 346.188 389.301C347.272 387.517 348.299 385.757 349.267 384.013C356.972 370.068 362.021 358.25 365.224 350.018C366.796 345.889 367.922 342.649 368.633 340.441C368.981 339.345 369.254 338.504 369.436 337.928C369.618 337.36 369.726 337.072 369.726 337.072C369.726 337.072 369.651 337.368 369.478 337.936C369.304 338.513 369.047 339.361 368.716 340.465C368.029 342.681 366.937 345.929 365.381 350.074C362.219 358.33 357.212 370.172 349.532 384.149C348.563 385.893 347.545 387.661 346.461 389.453C345.352 391.23 344.243 393.062 342.836 394.766C340.006 398.126 336.48 401.207 332.259 403.519C328.046 405.831 323.205 407.407 318.057 407.943C316.774 408.087 315.466 408.151 314.159 408.135C312.835 408.079 311.535 407.903 310.219 407.743C307.596 407.391 304.947 406.975 302.258 406.551C291.531 404.807 280.292 402.783 268.631 400.654C262.804 399.574 256.862 398.47 250.837 397.35C247.824 396.782 244.787 396.206 241.725 395.63C240.972 395.486 240.169 395.366 239.424 395.062C238.671 394.766 237.984 394.334 237.396 393.806C236.188 392.758 235.46 391.222 235.22 389.709L235.377 389.869C233.175 389.293 230.841 388.693 228.433 388.061L228.234 388.013L228.276 387.821C228.383 387.301 228.499 386.733 228.615 386.165C229.765 380.565 230.899 375.02 231.975 369.82V369.78L232.008 369.74C232.265 369.395 232.513 369.051 232.745 368.739L232.811 368.651H232.927C259.899 369.483 285.208 370.26 307.356 370.948L307.174 371.068C315.922 347.593 323.387 327.551 328.891 312.79V312.766C330.745 308.014 333.145 303.957 335.834 300.941C338.508 297.893 341.479 295.924 344.094 294.852C346.734 293.796 348.936 293.532 350.392 293.468C351.129 293.412 351.684 293.46 352.056 293.468C352.428 293.476 352.619 293.492 352.619 293.492L352.61 293.468Z" fill="#263238"/>
<path d="M290.936 366.491C290.812 366.555 289.777 363.891 287.344 361.403C284.944 358.883 282.271 357.699 282.345 357.579C282.362 357.539 283.057 357.771 284.075 358.339C285.093 358.907 286.425 359.843 287.659 361.115C288.884 362.395 289.761 363.739 290.274 364.763C290.787 365.787 290.977 366.467 290.936 366.483V366.491Z" fill="#263238"/>
<path d="M316.335 385.212C316.261 385.22 316.12 384.292 315.682 382.836C315.251 381.388 314.473 379.428 313.24 377.459C311.999 375.499 310.55 373.931 309.408 372.899C308.266 371.867 307.48 371.315 307.521 371.259C307.538 371.235 307.753 371.355 308.125 371.587C308.498 371.819 309.011 372.187 309.615 372.683C310.823 373.675 312.338 375.235 313.612 377.243C314.879 379.252 315.624 381.268 315.979 382.764C316.162 383.508 316.269 384.124 316.311 384.548C316.352 384.972 316.368 385.212 316.335 385.212Z" fill="#263238"/>
<g opacity="0.3">
<path d="M296.48 370.66L300.809 370.812C301.504 354.378 305.013 337.992 308.009 321.799C300.37 336.88 298.367 353.962 296.48 370.66Z" fill="black"/>
</g>
<path d="M363.933 285.915C363.933 285.915 363.792 285.979 363.527 286.051C363.205 286.139 362.816 286.243 362.336 286.363C361.235 286.643 359.753 287.027 357.949 287.491C354.241 288.444 349.135 289.812 343.466 291.188C337.788 292.572 332.599 293.644 328.808 294.244C326.913 294.548 325.374 294.756 324.306 294.868C323.81 294.916 323.404 294.956 323.073 294.988C322.792 295.012 322.643 295.012 322.643 295.004C322.643 294.988 322.783 294.956 323.065 294.908C323.396 294.852 323.793 294.788 324.281 294.708C325.341 294.556 326.872 294.3 328.75 293.956C332.516 293.284 337.689 292.172 343.358 290.788C349.027 289.404 354.15 288.083 357.875 287.203C359.737 286.755 361.251 286.419 362.303 286.203C362.791 286.107 363.188 286.027 363.511 285.963C363.792 285.915 363.933 285.891 363.941 285.907L363.933 285.915Z" fill="#263238"/>
</g>
<g clip-path="url(#clip3_496_2308)">
<path d="M126.369 85.8184H49.7142C48.3155 85.8184 47.1816 86.9145 47.1816 88.2666V210.702C47.1816 212.055 48.3155 213.151 49.7142 213.151H126.369C127.768 213.151 128.902 212.055 128.902 210.702V88.2666C128.902 86.9145 127.768 85.8184 126.369 85.8184Z" fill="white"/>
<path d="M50.1694 85.8184H126.03C127.619 85.8184 128.902 87.0665 128.902 88.5946V100.044H47.1816V88.7066C47.1816 87.1145 48.5224 85.8184 50.1694 85.8184Z" fill="#E0E0E0"/>
<path d="M126.162 213.15C126.162 213.15 126.551 213.182 127.213 212.926C127.544 212.79 127.925 212.55 128.256 212.158C128.579 211.758 128.852 211.198 128.852 210.517C128.844 207.789 128.827 203.789 128.811 198.628C128.794 188.291 128.769 173.354 128.744 154.896C128.728 136.43 128.72 114.444 128.695 90.0419V88.8978C128.695 88.5057 128.695 88.1537 128.596 87.8097C128.405 87.1216 127.867 86.5296 127.197 86.2415C126.857 86.0895 126.493 86.0175 126.113 86.0255H124.913C124.11 86.0255 123.307 86.0255 122.496 86.0255C119.26 86.0255 115.991 86.0255 112.688 86.0255C106.076 86.0255 99.3305 86.0255 92.4612 86.0255C78.7226 86.0255 64.4956 86.0255 49.9294 86.0255C49.0852 86.0255 48.2658 86.4495 47.8024 87.1296C47.5789 87.4736 47.4299 87.8577 47.3968 88.2657C47.372 88.6738 47.3968 89.1298 47.3885 89.5618C47.3885 91.314 47.3885 93.0582 47.3885 94.7944C47.3885 98.2747 47.3885 101.731 47.3885 105.155C47.3885 112.02 47.3885 118.773 47.3885 125.421C47.3885 138.703 47.3803 151.52 47.372 163.729C47.372 175.938 47.3554 187.539 47.3554 198.388C47.3554 201.101 47.3554 203.773 47.3554 206.389C47.3554 207.701 47.3554 208.997 47.3554 210.277C47.2478 211.526 48.1748 212.686 49.3914 212.926C49.979 213.03 50.666 212.966 51.2949 212.982C51.9405 212.982 52.5778 212.982 53.2233 212.982C54.4979 212.982 55.7641 212.982 57.0139 212.982C59.5133 212.982 61.9548 212.982 64.3467 212.982C83.4401 213.014 98.8919 213.03 109.585 213.046C114.923 213.062 119.061 213.078 121.883 213.086C123.282 213.094 124.35 213.102 125.078 213.11C125.798 213.11 126.171 213.134 126.171 213.134C126.171 213.134 125.798 213.15 125.078 213.158C124.35 213.158 123.282 213.166 121.883 213.182C119.061 213.19 114.923 213.206 109.585 213.222C98.9002 213.238 83.4483 213.262 64.3467 213.286C61.9631 213.286 59.5133 213.286 57.0139 213.286C55.7641 213.286 54.4979 213.286 53.2233 213.286C52.5861 213.286 51.9405 213.286 51.2949 213.286C50.6411 213.262 50.0204 213.342 49.3169 213.222C48.6383 213.086 48.0175 212.702 47.5954 212.158C47.1734 211.63 46.9664 210.918 47.0078 210.261C47.0078 208.973 47.0078 207.677 47.0078 206.373C47.0078 203.757 47.0078 201.085 47.0078 198.372C47.0078 187.515 46.9913 175.914 46.9913 163.713C46.9913 151.504 46.9913 138.695 46.9747 125.405C46.9747 118.765 46.9747 112.004 46.9747 105.139C46.9747 101.707 46.9747 98.2507 46.9747 94.7784C46.9747 93.0422 46.9747 91.298 46.9747 89.5458C46.9747 89.0978 46.9664 88.6898 46.983 88.2177C47.0161 87.7457 47.1899 87.2896 47.4548 86.8896C47.9844 86.1055 48.9528 85.6015 49.9376 85.6095C64.5039 85.6095 78.7309 85.6095 92.4695 85.6095C99.3388 85.6095 106.084 85.6095 112.697 85.6095C115.999 85.6095 119.268 85.6095 122.504 85.6095C123.315 85.6095 124.118 85.6095 124.921 85.6095H126.121C126.543 85.6095 126.982 85.6895 127.371 85.8655C128.149 86.2095 128.769 86.8896 128.984 87.6817C129.109 88.0817 129.1 88.5057 129.092 88.8738V90.0179C129.076 114.428 129.059 136.414 129.042 154.872C129.018 173.33 128.993 188.267 128.976 198.604C128.96 203.765 128.943 207.765 128.935 210.493C128.935 211.19 128.637 211.766 128.306 212.174C127.958 212.574 127.561 212.814 127.222 212.942C126.882 213.078 126.609 213.102 126.427 213.126C126.245 213.126 126.154 213.126 126.154 213.126L126.162 213.15Z" fill="#263238"/>
<path d="M59.2328 94.0431C59.2328 95.3312 58.1569 96.3713 56.8244 96.3713C55.4919 96.3713 54.416 95.3312 54.416 94.0431C54.416 92.7549 55.4919 91.7148 56.8244 91.7148C58.1569 91.7148 59.2328 92.7549 59.2328 94.0431Z" fill="white"/>
<path d="M64.2307 96.3713C65.5608 96.3713 66.6391 95.3289 66.6391 94.0431C66.6391 92.7572 65.5608 91.7148 64.2307 91.7148C62.9005 91.7148 61.8223 92.7572 61.8223 94.0431C61.8223 95.3289 62.9005 96.3713 64.2307 96.3713Z" fill="white"/>
<path d="M71.6545 96.3713C72.9846 96.3713 74.0629 95.3289 74.0629 94.0431C74.0629 92.7572 72.9846 91.7148 71.6545 91.7148C70.3244 91.7148 69.2461 92.7572 69.2461 94.0431C69.2461 95.3289 70.3244 96.3713 71.6545 96.3713Z" fill="white"/>
<path d="M82.7451 119.34H67.6988C66.7967 119.34 66.0684 118.636 66.0684 117.764C66.0684 116.892 66.7967 116.188 67.6988 116.188H82.7451C83.6472 116.188 84.3755 116.892 84.3755 117.764C84.3755 118.636 83.6472 119.34 82.7451 119.34Z" fill="#263238"/>
<path d="M82.7451 127.598H67.6988C66.7967 127.598 66.0684 126.894 66.0684 126.021C66.0684 125.149 66.7967 124.445 67.6988 124.445H82.7451C83.6472 124.445 84.3755 125.149 84.3755 126.021C84.3755 126.894 83.6472 127.598 82.7451 127.598Z" fill="#E0E0E0"/>
<path d="M83.1748 150.232H68.1285C67.2264 150.232 66.498 149.528 66.498 148.656C66.498 147.784 67.2264 147.08 68.1285 147.08H83.1748C84.0769 147.08 84.8052 147.784 84.8052 148.656C84.8052 149.528 84.0769 150.232 83.1748 150.232Z" fill="#E0E0E0"/>
<path d="M82.7451 136.135H67.6988C66.7967 136.135 66.0684 135.431 66.0684 134.559C66.0684 133.686 66.7967 132.982 67.6988 132.982H82.7451C83.6472 132.982 84.3755 133.686 84.3755 134.559C84.3755 135.431 83.6472 136.135 82.7451 136.135Z" fill="#FF725E"/>
<path d="M82.7451 183.756H67.6988C66.7967 183.756 66.0684 183.052 66.0684 182.18C66.0684 181.308 66.7967 180.604 67.6988 180.604H82.7451C83.6472 180.604 84.3755 181.308 84.3755 182.18C84.3755 183.052 83.6472 183.756 82.7451 183.756Z" fill="#FF725E"/>
<path d="M106.854 119.34H91.8082C90.906 119.34 90.1777 118.636 90.1777 117.764C90.1777 116.892 90.906 116.188 91.8082 116.188H106.854C107.757 116.188 108.485 116.892 108.485 117.764C108.485 118.636 107.757 119.34 106.854 119.34Z" fill="#455A64"/>
<path d="M123.15 127.598H91.6675C90.8398 127.598 90.1777 126.894 90.1777 126.021C90.1777 125.149 90.8481 124.445 91.6675 124.445H123.15C123.978 124.445 124.64 125.149 124.64 126.021C124.64 126.894 123.97 127.598 123.15 127.598Z" fill="#263238"/>
<path d="M122.298 136.135H90.5995C89.7553 136.135 89.0684 135.431 89.0684 134.559C89.0684 133.686 89.7553 132.982 90.5995 132.982H122.298C123.142 132.982 123.829 133.686 123.829 134.559C123.829 135.431 123.142 136.135 122.298 136.135Z" fill="#E0E0E0"/>
<path d="M99.3973 143.047H67.6991C66.8549 143.047 66.168 142.343 66.168 141.471C66.168 140.599 66.8549 139.895 67.6991 139.895H99.3973C100.241 139.895 100.928 140.599 100.928 141.471C100.928 142.343 100.241 143.047 99.3973 143.047Z" fill="#E0E0E0"/>
<path d="M60.3164 117.756C60.3164 118.644 59.5715 119.357 58.6611 119.357C57.7507 119.357 57.0059 118.636 57.0059 117.756C57.0059 116.876 57.7507 116.156 58.6611 116.156C59.5715 116.156 60.3164 116.876 60.3164 117.756Z" fill="#455A64"/>
<path d="M60.3164 109.852C60.3164 110.74 59.5715 111.452 58.6611 111.452C57.7507 111.452 57.0059 110.732 57.0059 109.852C57.0059 108.972 57.7507 108.252 58.6611 108.252C59.5715 108.252 60.3164 108.972 60.3164 109.852Z" fill="#455A64"/>
<path d="M60.3164 125.997C60.3164 126.885 59.5715 127.597 58.6611 127.597C57.7507 127.597 57.0059 126.877 57.0059 125.997C57.0059 125.117 57.7507 124.396 58.6611 124.396C59.5715 124.396 60.3164 125.117 60.3164 125.997Z" fill="#455A64"/>
<path d="M60.3164 134.559C60.3164 135.447 59.5715 136.159 58.6611 136.159C57.7507 136.159 57.0059 135.439 57.0059 134.559C57.0059 133.679 57.7507 132.959 58.6611 132.959C59.5715 132.959 60.3164 133.679 60.3164 134.559Z" fill="#455A64"/>
<path d="M83.1748 173.338H68.1285C67.2264 173.338 66.498 172.634 66.498 171.762C66.498 170.89 67.2264 170.186 68.1285 170.186H83.1748C84.0769 170.186 84.8052 170.89 84.8052 171.762C84.8052 172.634 84.0769 173.338 83.1748 173.338Z" fill="#E0E0E0"/>
<path d="M82.7451 159.248H67.6988C66.7967 159.248 66.0684 158.544 66.0684 157.672C66.0684 156.8 66.7967 156.096 67.6988 156.096H82.7451C83.6472 156.096 84.3755 156.8 84.3755 157.672C84.3755 158.544 83.6472 159.248 82.7451 159.248Z" fill="#FF725E"/>
<path d="M122.298 159.248H90.5995C89.7553 159.248 89.0684 158.544 89.0684 157.672C89.0684 156.8 89.7553 156.096 90.5995 156.096H122.298C123.142 156.096 123.829 156.8 123.829 157.672C123.829 158.544 123.142 159.248 122.298 159.248Z" fill="#E0E0E0"/>
<path d="M99.3973 166.152H67.6991C66.8549 166.152 66.168 165.448 66.168 164.576C66.168 163.704 66.8549 163 67.6991 163H99.3973C100.241 163 100.928 163.704 100.928 164.576C100.928 165.448 100.241 166.152 99.3973 166.152Z" fill="#E0E0E0"/>
<path d="M60.3164 157.665C60.3164 158.553 59.5715 159.265 58.6611 159.265C57.7507 159.265 57.0059 158.545 57.0059 157.665C57.0059 156.785 57.7507 156.064 58.6611 156.064C59.5715 156.064 60.3164 156.785 60.3164 157.665Z" fill="#455A64"/>
<path d="M76.3633 108.715H66.9449C66.5061 108.715 66.1504 109.059 66.1504 109.483V110.995C66.1504 111.419 66.5061 111.763 66.9449 111.763H76.3633C76.8021 111.763 77.1579 111.419 77.1579 110.995V109.483C77.1579 109.059 76.8021 108.715 76.3633 108.715Z" fill="#455A64"/>
<path d="M82.7451 192.164H67.6988C66.7967 192.164 66.0684 191.46 66.0684 190.588C66.0684 189.716 66.7967 189.012 67.6988 189.012H82.7451C83.6472 189.012 84.3755 189.716 84.3755 190.588C84.3755 191.46 83.6472 192.164 82.7451 192.164Z" fill="#263238"/>
<path d="M106.854 192.164H91.8082C90.906 192.164 90.1777 191.46 90.1777 190.588C90.1777 189.716 90.906 189.012 91.8082 189.012H106.854C107.757 189.012 108.485 189.716 108.485 190.588C108.485 191.46 107.757 192.164 106.854 192.164Z" fill="#455A64"/>
<path d="M60.3164 190.588C60.3164 191.477 59.5715 192.189 58.6611 192.189C57.7507 192.189 57.0059 191.469 57.0059 190.588C57.0059 189.708 57.7507 188.988 58.6611 188.988C59.5715 188.988 60.3164 189.708 60.3164 190.588Z" fill="#455A64"/>
<path d="M60.3164 198.188C60.3164 199.076 59.5715 199.788 58.6611 199.788C57.7507 199.788 57.0059 199.068 57.0059 198.188C57.0059 197.308 57.7507 196.588 58.6611 196.588C59.5715 196.588 60.3164 197.308 60.3164 198.188Z" fill="#455A64"/>
<path d="M76.3633 197.053H66.9449C66.5061 197.053 66.1504 197.397 66.1504 197.821V199.333C66.1504 199.757 66.5061 200.101 66.9449 200.101H76.3633C76.8021 200.101 77.1579 199.757 77.1579 199.333V197.821C77.1579 197.397 76.8021 197.053 76.3633 197.053Z" fill="#455A64"/>
<path d="M283.618 193.492H134.355V285.277H283.618V193.492Z" fill="white"/>
<path d="M161.237 193.492H134.355V285.277H161.237V193.492Z" fill="#EBEBEB"/>
<path d="M146.174 203.404C146.315 203.324 146.464 203.26 146.621 203.212L146.712 202.78L147.457 202.764L147.564 203.188C147.722 203.228 147.871 203.284 148.02 203.364L148.4 203.124L148.938 203.628L148.706 204.004C148.789 204.14 148.855 204.284 148.897 204.436L149.344 204.524L149.36 205.244L148.922 205.348C148.88 205.5 148.822 205.644 148.74 205.788L148.988 206.156L148.466 206.676L148.077 206.452C147.937 206.532 147.788 206.596 147.631 206.636L147.54 207.068L146.795 207.084L146.687 206.66C146.53 206.62 146.381 206.564 146.232 206.484L145.851 206.724L145.313 206.22L145.545 205.844C145.462 205.708 145.396 205.564 145.346 205.412L144.899 205.324L144.883 204.604L145.321 204.5C145.363 204.348 145.421 204.204 145.504 204.06L145.255 203.692L145.777 203.172L146.166 203.396L146.174 203.404ZM146.571 204.364C146.265 204.676 146.273 205.164 146.588 205.46C146.911 205.756 147.415 205.748 147.722 205.444C148.028 205.132 148.02 204.644 147.705 204.348C147.382 204.052 146.877 204.06 146.571 204.364Z" fill="#E0E0E0"/>
<path d="M152.381 223.678H140.661C139.999 223.678 139.453 223.158 139.453 222.51C139.453 221.87 139.991 221.342 140.661 221.342H152.381C153.043 221.342 153.589 221.862 153.589 222.51C153.589 223.15 153.051 223.678 152.381 223.678Z" fill="#E0E0E0"/>
<path d="M152.381 217.75H140.661C139.999 217.75 139.453 217.23 139.453 216.582C139.453 215.942 139.991 215.414 140.661 215.414H152.381C153.043 215.414 153.589 215.934 153.589 216.582C153.589 217.222 153.051 217.75 152.381 217.75Z" fill="#E0E0E0"/>
<path d="M152.381 212.326H140.661C139.999 212.326 139.453 211.806 139.453 211.158C139.453 210.518 139.991 209.99 140.661 209.99H152.381C153.043 209.99 153.589 210.51 153.589 211.158C153.589 211.798 153.051 212.326 152.381 212.326Z" fill="#E0E0E0"/>
<path d="M183.873 207.053H172.775C172.113 207.053 171.566 206.533 171.566 205.885C171.566 205.245 172.104 204.717 172.775 204.717H183.873C184.535 204.717 185.082 205.237 185.082 205.885C185.082 206.525 184.544 207.053 183.873 207.053Z" fill="#263238"/>
<path d="M183.873 213.149H172.775C172.113 213.149 171.566 212.629 171.566 211.981C171.566 211.341 172.104 210.812 172.775 210.812H183.873C184.535 210.812 185.082 211.333 185.082 211.981C185.082 212.621 184.544 213.149 183.873 213.149Z" fill="#E0E0E0"/>
<path d="M183.873 219.446H172.775C172.113 219.446 171.566 218.926 171.566 218.277C171.566 217.637 172.104 217.109 172.775 217.109H183.873C184.535 217.109 185.082 217.629 185.082 218.277C185.082 218.918 184.544 219.446 183.873 219.446Z" fill="#FF725E"/>
<path d="M179.129 231.623H172.765C172.103 231.623 171.557 231.103 171.557 230.455C171.557 229.815 172.095 229.287 172.765 229.287H179.129C179.792 229.287 180.338 229.807 180.338 230.455C180.338 231.095 179.8 231.623 179.129 231.623Z" fill="#263238"/>
<path d="M179.129 237.936H172.765C172.103 237.936 171.557 237.416 171.557 236.768C171.557 236.128 172.095 235.6 172.765 235.6H179.129C179.792 235.6 180.338 236.12 180.338 236.768C180.338 237.408 179.8 237.936 179.129 237.936Z" fill="#263238"/>
<path d="M198.05 237.936H186.38C185.718 237.936 185.172 237.416 185.172 236.768C185.172 236.128 185.71 235.6 186.38 235.6H198.05C198.712 235.6 199.258 236.12 199.258 236.768C199.258 237.408 198.72 237.936 198.05 237.936Z" fill="#E0E0E0"/>
<path d="M191.454 243.553H179.785C179.122 243.553 178.576 243.033 178.576 242.385C178.576 241.745 179.114 241.217 179.785 241.217H191.454C192.116 241.217 192.662 241.737 192.662 242.385C192.662 243.025 192.124 243.553 191.454 243.553Z" fill="#FF725E"/>
<path d="M186.017 247.625H194.036C194.492 247.625 194.856 247.985 194.856 248.417V249.153C194.856 249.593 194.483 249.945 194.036 249.945H186.017C185.561 249.945 185.197 249.585 185.197 249.153V248.417C185.197 247.977 185.57 247.625 186.017 247.625Z" fill="#FF725E"/>
<path d="M193.656 262.498H186.406C185.743 262.498 185.197 261.978 185.197 261.33C185.197 260.69 185.735 260.162 186.406 260.162H193.656C194.318 260.162 194.864 260.682 194.864 261.33C194.864 261.97 194.326 262.498 193.656 262.498Z" fill="#FF725E"/>
<path d="M193.656 275.748H186.406C185.743 275.748 185.197 275.228 185.197 274.58C185.197 273.94 185.735 273.412 186.406 273.412H193.656C194.318 273.412 194.864 273.932 194.864 274.58C194.864 275.22 194.326 275.748 193.656 275.748Z" fill="#FF725E"/>
<path d="M211.483 275.748H198.77C198.108 275.748 197.57 275.228 197.57 274.58C197.57 273.94 198.108 273.412 198.77 273.412H211.483C212.145 273.412 212.683 273.932 212.683 274.58C212.683 275.22 212.145 275.748 211.483 275.748Z" fill="#455A64"/>
<path d="M220.379 275.748H218.55C217.888 275.748 217.342 275.228 217.342 274.58C217.342 273.94 217.88 273.412 218.55 273.412H220.379C221.041 273.412 221.588 273.932 221.588 274.58C221.588 275.22 221.05 275.748 220.379 275.748Z" fill="#E0E0E0"/>
<path d="M210.72 262.498H199.978C199.316 262.498 198.77 261.978 198.77 261.33C198.77 260.69 199.307 260.162 199.978 260.162H210.72C211.383 260.162 211.929 260.682 211.929 261.33C211.929 261.97 211.391 262.498 210.72 262.498Z" fill="#E0E0E0"/>
<path d="M234.283 268.315H199.978C199.316 268.315 198.77 267.795 198.77 267.147C198.77 266.507 199.307 265.979 199.978 265.979H234.283C234.945 265.979 235.483 266.499 235.483 267.147C235.483 267.787 234.945 268.315 234.283 268.315Z" fill="#E0E0E0"/>
<path d="M238.24 262.498H216.341C215.679 262.498 215.133 261.978 215.133 261.33C215.133 260.69 215.671 260.162 216.341 260.162H238.24C238.902 260.162 239.449 260.682 239.449 261.33C239.449 261.97 238.911 262.498 238.24 262.498Z" fill="#455A64"/>
<path d="M198.837 247.625H208.677C209.133 247.625 209.497 247.985 209.497 248.417V249.153C209.497 249.593 209.124 249.945 208.677 249.945H198.837C198.382 249.945 198.018 249.585 198.018 249.153V248.417C198.018 247.977 198.39 247.625 198.837 247.625Z" fill="#455A64"/>
<path d="M216.522 247.625H213.501C213.048 247.625 212.682 247.98 212.682 248.417V249.161C212.682 249.599 213.048 249.953 213.501 249.953H216.522C216.974 249.953 217.341 249.599 217.341 249.161V248.417C217.341 247.98 216.974 247.625 216.522 247.625Z" fill="#E0E0E0"/>
<path d="M233.828 247.625H221.712C221.259 247.625 220.893 247.98 220.893 248.417V249.161C220.893 249.599 221.259 249.953 221.712 249.953H233.828C234.281 249.953 234.648 249.599 234.648 249.161V248.417C234.648 247.98 234.281 247.625 233.828 247.625Z" fill="#E0E0E0"/>
<path d="M199.358 243.553H196.759C196.097 243.553 195.551 243.033 195.551 242.385C195.551 241.745 196.089 241.217 196.759 241.217H199.358C200.02 241.217 200.566 241.737 200.566 242.385C200.566 243.025 200.028 243.553 199.358 243.553Z" fill="#263238"/>
<path d="M221.388 243.553H204.827C204.165 243.553 203.619 243.033 203.619 242.385C203.619 241.745 204.157 241.217 204.827 241.217H221.388C222.05 241.217 222.597 241.737 222.597 242.385C222.597 243.025 222.059 243.553 221.388 243.553Z" fill="#E0E0E0"/>
<path d="M201.651 207.053H190.552C189.89 207.053 189.344 206.533 189.344 205.885C189.344 205.245 189.882 204.717 190.552 204.717H201.651C202.313 204.717 202.859 205.237 202.859 205.885C202.859 206.525 202.321 207.053 201.651 207.053Z" fill="#455A64"/>
<path d="M215.952 213.149H190.552C189.89 213.149 189.344 212.629 189.344 211.981C189.344 211.341 189.882 210.812 190.552 210.812H215.952C216.614 210.812 217.16 211.333 217.16 211.981C217.16 212.621 216.622 213.149 215.952 213.149Z" fill="#263238"/>
<path d="M243.305 219.446H190.552C189.89 219.446 189.344 218.926 189.344 218.277C189.344 217.637 189.882 217.109 190.552 217.109H243.305C243.967 217.109 244.514 217.629 244.514 218.277C244.514 218.918 243.976 219.446 243.305 219.446Z" fill="#E0E0E0"/>
<path d="M215.422 223.887H190.552C189.89 223.887 189.344 223.367 189.344 222.719C189.344 222.079 189.882 221.551 190.552 221.551H215.422C216.084 221.551 216.631 222.071 216.631 222.719C216.631 223.359 216.093 223.887 215.422 223.887Z" fill="#E0E0E0"/>
<path d="M210.34 231.623H185.47C184.808 231.623 184.262 231.103 184.262 230.455C184.262 229.815 184.8 229.287 185.47 229.287H210.34C211.002 229.287 211.549 229.807 211.549 230.455C211.549 231.095 211.011 231.623 210.34 231.623Z" fill="#455A64"/>
<path d="M224.261 231.623H215.927C215.265 231.623 214.719 231.103 214.719 230.455C214.719 229.815 215.257 229.287 215.927 229.287H224.261C224.923 229.287 225.47 229.807 225.47 230.455C225.47 231.095 224.932 231.623 224.261 231.623Z" fill="#FF725E"/>
<path d="M245.581 231.584H229.831C229.169 231.584 228.623 231.064 228.623 230.416C228.623 229.776 229.161 229.248 229.831 229.248H245.581C246.243 229.248 246.79 229.768 246.79 230.416C246.79 231.056 246.252 231.584 245.581 231.584Z" fill="#263238"/>
<path d="M267.007 231.584H251.257C250.595 231.584 250.049 231.064 250.049 230.416C250.049 229.776 250.587 229.248 251.257 229.248H267.007C267.669 229.248 268.215 229.768 268.215 230.416C268.215 231.056 267.677 231.584 267.007 231.584Z" fill="#E0E0E0"/>
<path d="M147.307 229.959H140.661C139.999 229.959 139.453 229.439 139.453 228.791C139.453 228.151 139.991 227.623 140.661 227.623H147.307C147.969 227.623 148.516 228.143 148.516 228.791C148.516 229.431 147.978 229.959 147.307 229.959Z" fill="#E0E0E0"/>
<path d="M145.323 248.793H140.671C140.009 248.793 139.463 248.273 139.463 247.625C139.463 246.985 140.001 246.457 140.671 246.457H145.323C145.985 246.457 146.531 246.977 146.531 247.625C146.531 248.265 145.993 248.793 145.323 248.793Z" fill="#E0E0E0"/>
<path d="M153.591 236.233H140.671C140.009 236.233 139.463 235.713 139.463 235.065C139.463 234.425 140.001 233.896 140.671 233.896H153.591C154.253 233.896 154.799 234.417 154.799 235.065C154.799 235.705 154.261 236.233 153.591 236.233Z" fill="#E0E0E0"/>
<path d="M151.323 242.512H140.671C140.009 242.512 139.463 241.992 139.463 241.344C139.463 240.704 140.001 240.176 140.671 240.176H151.323C151.985 240.176 152.531 240.696 152.531 241.344C152.531 241.984 151.993 242.512 151.323 242.512Z" fill="#E0E0E0"/>
<path d="M167.329 205.893C167.329 206.549 166.782 207.077 166.104 207.077C165.425 207.077 164.879 206.549 164.879 205.893C164.879 205.237 165.425 204.709 166.104 204.709C166.782 204.709 167.329 205.237 167.329 205.893Z" fill="#455A64"/>
<path d="M166.104 200.868C166.78 200.868 167.329 200.338 167.329 199.684C167.329 199.03 166.78 198.5 166.104 198.5C165.427 198.5 164.879 199.03 164.879 199.684C164.879 200.338 165.427 200.868 166.104 200.868Z" fill="#455A64"/>
<path d="M166.104 213.149C166.78 213.149 167.329 212.619 167.329 211.965C167.329 211.311 166.78 210.781 166.104 210.781C165.427 210.781 164.879 211.311 164.879 211.965C164.879 212.619 165.427 213.149 166.104 213.149Z" fill="#455A64"/>
<path d="M166.104 219.47C166.78 219.47 167.329 218.94 167.329 218.286C167.329 217.632 166.78 217.102 166.104 217.102C165.427 217.102 164.879 217.632 164.879 218.286C164.879 218.94 165.427 219.47 166.104 219.47Z" fill="#455A64"/>
<path d="M166.104 225.782C166.78 225.782 167.329 225.252 167.329 224.598C167.329 223.944 166.78 223.414 166.104 223.414C165.427 223.414 164.879 223.944 164.879 224.598C164.879 225.252 165.427 225.782 166.104 225.782Z" fill="#455A64"/>
<path d="M167.329 230.918C167.329 231.575 166.782 232.103 166.104 232.103C165.425 232.103 164.879 231.575 164.879 230.918C164.879 230.262 165.425 229.734 166.104 229.734C166.782 229.734 167.329 230.262 167.329 230.918Z" fill="#455A64"/>
<path d="M166.104 238.415C166.78 238.415 167.329 237.885 167.329 237.231C167.329 236.577 166.78 236.047 166.104 236.047C165.427 236.047 164.879 236.577 164.879 237.231C164.879 237.885 165.427 238.415 166.104 238.415Z" fill="#455A64"/>
<path d="M166.104 244.737C166.78 244.737 167.329 244.207 167.329 243.553C167.329 242.899 166.78 242.369 166.104 242.369C165.427 242.369 164.879 242.899 164.879 243.553C164.879 244.207 165.427 244.737 166.104 244.737Z" fill="#455A64"/>
<path d="M167.329 249.866C167.329 250.522 166.782 251.05 166.104 251.05C165.425 251.05 164.879 250.522 164.879 249.866C164.879 249.21 165.425 248.682 166.104 248.682C166.782 248.682 167.329 249.21 167.329 249.866Z" fill="#455A64"/>
<path d="M167.329 256.178C167.329 256.834 166.782 257.362 166.104 257.362C165.425 257.362 164.879 256.834 164.879 256.178C164.879 255.522 165.425 254.994 166.104 254.994C166.782 254.994 167.329 255.522 167.329 256.178Z" fill="#455A64"/>
<path d="M166.104 263.683C166.78 263.683 167.329 263.153 167.329 262.499C167.329 261.845 166.78 261.314 166.104 261.314C165.427 261.314 164.879 261.845 164.879 262.499C164.879 263.153 165.427 263.683 166.104 263.683Z" fill="#455A64"/>
<path d="M167.329 268.811C167.329 269.467 166.782 269.995 166.104 269.995C165.425 269.995 164.879 269.467 164.879 268.811C164.879 268.155 165.425 267.627 166.104 267.627C166.782 267.627 167.329 268.155 167.329 268.811Z" fill="#455A64"/>
<path d="M166.104 276.315C166.78 276.315 167.329 275.785 167.329 275.131C167.329 274.477 166.78 273.947 166.104 273.947C165.427 273.947 164.879 274.477 164.879 275.131C164.879 275.785 165.427 276.315 166.104 276.315Z" fill="#455A64"/>
<path d="M138.833 180.979H280.449C282.203 180.979 283.618 182.355 283.618 184.043V193.492H134.355V185.299C134.355 182.915 136.358 180.979 138.825 180.979H138.833Z" fill="#E0E0E0"/>
<path d="M142.068 189.339C143.051 189.339 143.848 188.569 143.848 187.619C143.848 186.669 143.051 185.898 142.068 185.898C141.086 185.898 140.289 186.669 140.289 187.619C140.289 188.569 141.086 189.339 142.068 189.339Z" fill="white"/>
<path d="M149.319 187.619C149.319 188.571 148.524 189.339 147.539 189.339C146.554 189.339 145.76 188.571 145.76 187.619C145.76 186.667 146.554 185.898 147.539 185.898C148.524 185.898 149.319 186.667 149.319 187.619Z" fill="white"/>
<path d="M154.789 187.619C154.789 188.571 153.995 189.339 153.01 189.339C152.025 189.339 151.23 188.571 151.23 187.619C151.23 186.667 152.025 185.898 153.01 185.898C153.995 185.898 154.789 186.667 154.789 187.619Z" fill="white"/>
<path d="M166.104 283.852L178.725 297.037L190.171 283.852H166.104Z" fill="white"/>
<path d="M279.571 285.284C279.571 285.284 280.043 285.324 280.879 285.052C281.293 284.916 281.789 284.668 282.269 284.244C282.749 283.828 283.205 283.204 283.428 282.403C283.552 282.003 283.577 281.571 283.569 281.099C283.569 280.635 283.569 280.139 283.569 279.627C283.569 278.595 283.569 277.475 283.56 276.251C283.56 273.811 283.552 270.994 283.544 267.826C283.527 255.145 283.502 236.807 283.478 214.141C283.478 208.476 283.469 202.54 283.461 196.355C283.461 193.259 283.461 190.107 283.461 186.89C283.453 186.098 283.486 185.258 283.436 184.49C283.345 183.722 283.014 182.97 282.46 182.394C281.922 181.802 281.177 181.402 280.382 181.234C279.596 181.098 278.702 181.178 277.85 181.154C264.061 181.154 249.338 181.17 233.836 181.17C218.335 181.17 202.064 181.17 185.205 181.186C176.771 181.186 168.189 181.186 159.482 181.186C155.129 181.186 150.743 181.186 146.323 181.186C144.113 181.186 141.903 181.186 139.677 181.186C139.131 181.194 138.543 181.17 138.03 181.202C137.509 181.25 136.996 181.41 136.532 181.666C135.613 182.17 134.927 183.05 134.686 184.05C134.513 184.73 134.604 185.506 134.587 186.25V188.506C134.587 190.011 134.587 191.507 134.587 193.003C134.587 195.995 134.587 198.971 134.587 201.932C134.587 207.852 134.587 213.725 134.587 219.525C134.587 231.127 134.587 242.464 134.587 253.481C134.587 258.985 134.587 264.418 134.587 269.754C134.587 272.427 134.587 275.067 134.587 277.691C134.587 278.995 134.571 280.323 134.595 281.595C134.653 282.836 135.423 283.996 136.532 284.604C137.078 284.916 137.707 285.068 138.336 285.092C138.998 285.092 139.661 285.092 140.314 285.092C141.63 285.092 142.946 285.092 144.254 285.092C146.869 285.092 149.451 285.092 152.017 285.092C157.14 285.092 162.147 285.092 167.047 285.092H167.13L167.187 285.148C171.16 289.188 175.009 293.109 178.741 296.909H178.485C182.027 292.845 185.428 288.94 188.698 285.172L188.747 285.116H188.822C216.762 285.148 239.456 285.172 255.173 285.188C263.027 285.204 269.135 285.22 273.281 285.228C275.35 285.236 276.931 285.244 277.999 285.252C279.066 285.252 279.604 285.276 279.604 285.276C279.604 285.276 279.058 285.292 277.999 285.3C276.931 285.3 275.35 285.316 273.281 285.324C269.127 285.332 263.019 285.348 255.173 285.364C239.456 285.38 216.762 285.404 188.822 285.436L188.946 285.38C185.677 289.148 182.283 293.061 178.741 297.141L178.617 297.285L178.485 297.149C174.744 293.357 170.895 289.436 166.914 285.404L167.047 285.46C162.156 285.46 157.14 285.46 152.017 285.46C149.46 285.46 146.869 285.46 144.254 285.46C142.946 285.46 141.63 285.46 140.314 285.46C139.652 285.46 138.99 285.46 138.328 285.46C137.633 285.436 136.938 285.268 136.333 284.924C135.117 284.26 134.264 282.98 134.198 281.611C134.173 280.291 134.198 279.003 134.182 277.683C134.182 275.059 134.182 272.411 134.182 269.746C134.182 264.41 134.182 258.985 134.182 253.473C134.182 242.456 134.182 231.119 134.182 219.517C134.182 213.717 134.182 207.852 134.182 201.924C134.182 198.963 134.182 195.987 134.182 192.995C134.182 191.499 134.182 190.003 134.182 188.498V185.114C134.182 184.746 134.198 184.33 134.298 183.946C134.562 182.834 135.324 181.85 136.35 181.298C136.863 181.018 137.434 180.842 138.014 180.786C138.609 180.746 139.139 180.778 139.702 180.762C141.92 180.762 144.138 180.762 146.348 180.762C150.767 180.762 155.154 180.762 159.507 180.762C168.214 180.762 176.796 180.762 185.23 180.762C202.097 180.762 218.368 180.77 233.861 180.778C249.363 180.778 264.086 180.794 277.875 180.794C278.735 180.818 279.58 180.73 280.482 180.882C281.351 181.066 282.162 181.506 282.749 182.154C283.345 182.786 283.709 183.602 283.809 184.442C283.858 185.29 283.825 186.066 283.834 186.882C283.834 190.099 283.834 193.251 283.834 196.347C283.834 202.532 283.825 208.468 283.817 214.133C283.792 236.791 283.767 255.137 283.751 267.818C283.751 270.986 283.734 273.803 283.734 276.243C283.734 277.459 283.734 278.587 283.726 279.619C283.726 280.131 283.726 280.627 283.726 281.091C283.726 281.555 283.701 282.011 283.569 282.411C283.329 283.228 282.865 283.852 282.369 284.276C281.88 284.708 281.367 284.948 280.945 285.076C280.523 285.212 280.184 285.252 279.96 285.268C279.737 285.268 279.621 285.268 279.621 285.268L279.571 285.284Z" fill="#263238"/>
<path d="M146.075 101.916H258.839C260.288 101.916 261.463 103.052 261.463 104.452V159.282C261.463 160.954 260.056 162.314 258.326 162.314H146.075C144.626 162.314 143.451 161.178 143.451 159.778V104.452C143.451 103.052 144.626 101.916 146.075 101.916Z" fill="white"/>
<path d="M146.333 101.916H258.592C260.181 101.916 261.464 103.164 261.464 104.692V114.885H143.461V104.692C143.461 103.156 144.752 101.916 146.333 101.916Z" fill="#E0E0E0"/>
<path d="M258.145 162.313C258.145 162.313 258.459 162.321 259.047 162.169C259.61 162.009 260.495 161.585 261.05 160.569C261.331 160.065 261.455 159.433 261.414 158.729C261.414 158.025 261.414 157.249 261.406 156.409C261.406 154.737 261.397 152.8 261.389 150.624C261.372 141.911 261.348 129.326 261.323 113.773C261.323 111.828 261.323 109.836 261.323 107.804C261.323 106.788 261.323 105.756 261.323 104.716C261.414 103.708 260.843 102.716 259.891 102.291C259.419 102.067 258.906 102.059 258.343 102.067C257.789 102.067 257.234 102.067 256.671 102.067C255.554 102.067 254.42 102.067 253.278 102.067C250.994 102.067 248.668 102.067 246.301 102.067C236.841 102.067 226.728 102.083 216.093 102.083C194.814 102.083 171.426 102.091 146.87 102.099C146.473 102.099 146.117 102.091 145.777 102.171C145.43 102.251 145.107 102.395 144.817 102.595C144.238 102.996 143.841 103.62 143.733 104.3C143.675 104.628 143.7 105.004 143.692 105.372V108.676C143.692 111.604 143.692 114.517 143.692 117.413C143.692 123.197 143.692 128.894 143.692 134.487C143.692 140.087 143.692 145.584 143.692 150.968C143.692 153.656 143.692 156.321 143.692 158.961C143.634 160.217 144.445 161.433 145.637 161.873C146.224 162.121 146.862 162.097 147.54 162.097C148.211 162.097 148.873 162.097 149.543 162.097C170.821 162.113 189.981 162.129 206.078 162.145C222.168 162.169 235.186 162.193 244.191 162.209C248.685 162.225 252.177 162.241 254.553 162.249C255.728 162.257 256.63 162.265 257.251 162.273C257.855 162.273 258.169 162.297 258.169 162.297C258.169 162.297 257.855 162.313 257.251 162.321C256.638 162.321 255.736 162.329 254.553 162.345C252.177 162.353 248.685 162.369 244.191 162.385C235.186 162.401 222.159 162.425 206.078 162.449C189.981 162.465 170.821 162.473 149.543 162.497C148.881 162.497 148.211 162.497 147.54 162.497C146.895 162.497 146.15 162.529 145.479 162.249C144.13 161.753 143.212 160.361 143.278 158.977C143.278 156.345 143.278 153.68 143.278 150.984C143.278 145.6 143.278 140.103 143.278 134.503C143.278 128.902 143.278 123.205 143.278 117.429C143.278 114.541 143.278 111.628 143.278 108.692V106.492V105.388C143.278 105.02 143.253 104.652 143.319 104.252C143.444 103.468 143.907 102.74 144.577 102.275C144.908 102.043 145.289 101.875 145.695 101.779C146.1 101.683 146.514 101.699 146.886 101.691C171.442 101.691 194.831 101.699 216.109 101.707C226.744 101.707 236.858 101.723 246.318 101.723C248.685 101.723 251.01 101.723 253.295 101.723C254.437 101.723 255.571 101.723 256.688 101.723C257.251 101.723 257.805 101.723 258.36 101.723C258.898 101.707 259.527 101.723 260.048 101.979C261.124 102.443 261.778 103.62 261.67 104.692C261.67 105.732 261.67 106.764 261.67 107.78C261.67 109.812 261.67 111.804 261.67 113.749C261.646 129.302 261.621 141.887 261.604 150.6C261.604 152.776 261.588 154.705 261.588 156.385C261.588 157.225 261.588 157.993 261.579 158.705C261.579 159.057 261.579 159.401 261.505 159.721C261.43 160.041 261.323 160.329 261.182 160.585C260.594 161.617 259.692 162.033 259.113 162.185C258.517 162.329 258.203 162.289 258.203 162.289L258.145 162.313Z" fill="#263238"/>
<path d="M152.241 111.54C153.456 111.54 154.442 110.587 154.442 109.411C154.442 108.236 153.456 107.283 152.241 107.283C151.025 107.283 150.039 108.236 150.039 109.411C150.039 110.587 151.025 111.54 152.241 111.54Z" fill="white"/>
<path d="M161.196 109.411C161.196 110.588 160.211 111.54 158.994 111.54C157.778 111.54 156.793 110.588 156.793 109.411C156.793 108.235 157.778 107.283 158.994 107.283C160.211 107.283 161.196 108.235 161.196 109.411Z" fill="white"/>
<path d="M165.764 111.54C166.98 111.54 167.965 110.587 167.965 109.411C167.965 108.236 166.98 107.283 165.764 107.283C164.548 107.283 163.562 108.236 163.562 109.411C163.562 110.587 164.548 111.54 165.764 111.54Z" fill="white"/>
<path d="M177.46 133.165H163.738C162.918 133.165 162.248 132.517 162.248 131.725C162.248 130.933 162.918 130.285 163.738 130.285H177.46C178.279 130.285 178.95 130.933 178.95 131.725C178.95 132.517 178.279 133.165 177.46 133.165Z" fill="#263238"/>
<path d="M177.46 140.695H163.738C162.918 140.695 162.248 140.047 162.248 139.255C162.248 138.463 162.918 137.814 163.738 137.814H177.46C178.279 137.814 178.95 138.463 178.95 139.255C178.95 140.047 178.279 140.695 177.46 140.695Z" fill="#E0E0E0"/>
<path d="M249.878 133.165H210.085C209.266 133.165 208.596 132.517 208.596 131.725C208.596 130.933 209.266 130.285 210.085 130.285H249.878C250.697 130.285 251.368 130.933 251.368 131.725C251.368 132.517 250.697 133.165 249.878 133.165Z" fill="#E0E0E0"/>
<path d="M177.46 148.48H163.738C162.918 148.48 162.248 147.832 162.248 147.04C162.248 146.248 162.918 145.6 163.738 145.6H177.46C178.279 145.6 178.95 146.248 178.95 147.04C178.95 147.832 178.279 148.48 177.46 148.48Z" fill="#FF725E"/>
<path d="M240.384 140.695H226.662C225.842 140.695 225.172 140.047 225.172 139.255C225.172 138.463 225.842 137.814 226.662 137.814H240.384C241.203 137.814 241.873 138.463 241.873 139.255C241.873 140.047 241.203 140.695 240.384 140.695Z" fill="#FF725E"/>
<path d="M199.442 133.165H185.72C184.901 133.165 184.23 132.517 184.23 131.725C184.23 130.933 184.901 130.285 185.72 130.285H199.442C200.262 130.285 200.932 130.933 200.932 131.725C200.932 132.517 200.262 133.165 199.442 133.165Z" fill="#455A64"/>
<path d="M217.112 140.695H185.72C184.901 140.695 184.23 140.047 184.23 139.255C184.23 138.463 184.901 137.814 185.72 137.814H217.112C217.932 137.814 218.602 138.463 218.602 139.255C218.602 140.047 217.932 140.695 217.112 140.695Z" fill="#263238"/>
<path d="M247.908 148.48H185.654C184.868 148.48 184.23 147.832 184.23 147.04C184.23 146.248 184.868 145.6 185.654 145.6H247.908C248.694 145.6 249.332 146.248 249.332 147.04C249.332 147.832 248.694 148.48 247.908 148.48Z" fill="#E0E0E0"/>
<path d="M216.458 153.96H185.72C184.901 153.96 184.23 153.312 184.23 152.52C184.23 151.728 184.901 151.08 185.72 151.08H216.458C217.278 151.08 217.948 151.728 217.948 152.52C217.948 153.312 217.278 153.96 216.458 153.96Z" fill="#E0E0E0"/>
<path d="M157.017 131.726C157.017 132.534 156.339 133.19 155.503 133.19C154.667 133.19 153.988 132.534 153.988 131.726C153.988 130.918 154.667 130.262 155.503 130.262C156.339 130.262 157.017 130.918 157.017 131.726Z" fill="#455A64"/>
<path d="M157.017 124.517C157.017 125.325 156.339 125.981 155.503 125.981C154.667 125.981 153.988 125.325 153.988 124.517C153.988 123.709 154.667 123.053 155.503 123.053C156.339 123.053 157.017 123.709 157.017 124.517Z" fill="#455A64"/>
<path d="M155.503 140.694C156.339 140.694 157.017 140.038 157.017 139.23C157.017 138.421 156.339 137.766 155.503 137.766C154.666 137.766 153.988 138.421 153.988 139.23C153.988 140.038 154.666 140.694 155.503 140.694Z" fill="#455A64"/>
<path d="M155.503 148.503C156.339 148.503 157.017 147.847 157.017 147.038C157.017 146.23 156.339 145.574 155.503 145.574C154.666 145.574 153.988 146.23 153.988 147.038C153.988 147.847 154.666 148.503 155.503 148.503Z" fill="#455A64"/>
<path d="M171.799 122.789H163.357C162.918 122.789 162.562 123.133 162.562 123.557V124.797C162.562 125.221 162.918 125.565 163.357 125.565H171.799C172.238 125.565 172.593 125.221 172.593 124.797V123.557C172.593 123.133 172.238 122.789 171.799 122.789Z" fill="#455A64"/>
</g>
<defs>
<clipPath id="clip0_496_2308">
<rect width="282.304" height="195.931" fill="white" transform="translate(134.695)"/>
</clipPath>
<clipPath id="clip1_496_2308">
<rect width="265.47" height="120.889" fill="white" transform="translate(0 179.867)"/>
</clipPath>
<clipPath id="clip2_496_2308">
<rect width="248.429" height="232.678" fill="white" transform="translate(166.973 183.219)"/>
</clipPath>
<clipPath id="clip3_496_2308">
<rect width="236.826" height="211.676" fill="white" transform="translate(46.9668 85.6094)"/>
</clipPath>
</defs>
</svg>
