<svg width="396" height="272" viewBox="0 0 396 272" fill="none" xmlns="http://www.w3.org/2000/svg">
<path d="M81.6817 22.0413C81.6817 22.0413 82.3509 7.17629 73.775 4.32228C60.4284 -0.125134 56.7094 7.17629 54.6538 12.0069C52.0151 18.1889 53.1433 30.321 61.0977 31.4908C72.9815 33.2355 80.9455 26.2064 81.6721 22.0514L81.6817 22.0413Z" fill="#403657"/>
<path d="M90.2867 71.7496C97.2277 71.7496 103.213 66.6265 104.637 59.4562C105.66 54.3028 106.664 49.7344 106.664 47.1628V47.0922C106.731 46.2854 106.76 45.4685 106.769 44.6718C106.865 32.9431 100 11.523 75.8884 14.9215C75.8884 14.9215 55.8781 17.3318 53.6027 37.9553C53.6027 37.9553 52.6562 47.4754 52.0252 54.3633C52.0156 54.4843 52.0061 54.6054 51.987 54.7264C51.1074 63.833 57.8954 71.7395 66.5764 71.7395H90.2963L90.2867 71.7496Z" fill="#403657"/>
<path d="M118.911 96.2656C118.911 96.2656 123.175 131.895 128.042 150.189C128.042 150.189 134.964 146.791 144.018 142.172C153.836 137.17 167.957 128.033 167.957 128.033L171.523 137.099C171.523 137.099 135.05 173.405 122.975 175.462C110.89 177.519 103.49 131.895 103.49 131.895L118.902 96.2656H118.911Z" fill="#E08F0E"/>
<path d="M167.211 129.101C167.211 129.101 166.207 124.039 168.358 120.61C170.509 117.181 173.779 110.767 177.612 109.436C180.825 108.316 176.083 114.034 175.949 117.665C175.949 117.665 180.729 117.03 184.171 115.85C187.202 114.811 193.196 113.52 195.978 112.935C196.743 112.774 197.231 113.792 196.648 114.327C195.701 115.194 193.712 116.283 189.621 117.322C189.621 117.322 199.611 115.325 200.644 116.939C201.676 118.552 189.152 120.801 189.152 120.801C189.152 120.801 198.875 120.196 199.133 121.8C199.286 122.778 189.209 125.027 189.209 125.027C189.209 125.027 198.407 125.289 196.179 126.822C195.529 127.266 177.737 129.384 171.541 137.098C171.541 137.098 167.373 132.55 167.23 129.091L167.211 129.101Z" fill="#FFA681"/>
<path d="M57.4172 89.2467C57.4172 89.2467 37.0149 95.59 19.4425 99.7752C19.4425 99.7752 18.9836 91.7376 18.5247 81.1385C18.0275 69.6418 18.9262 52.2051 18.9262 52.2051L9.67157 53.2035C9.67157 53.2035 -3.25435 104.313 0.780218 116.496C4.81479 128.678 56.0214 111.615 56.0214 111.615L57.4268 89.2467H57.4172Z" fill="#E08F0E"/>
<path d="M18.4019 53.4049C18.4019 53.4049 23.0962 51.9224 24.9318 48.302C26.7674 44.6815 31.8345 37.3902 28.7082 34.6875C27.5705 33.6991 26.7387 38.0054 23.7845 39.861C23.7845 39.861 22.0349 35.1312 21.3848 31.3695C20.8112 28.0617 19.0329 21.8797 18.1916 19.0257C17.9621 18.2391 16.8818 18.2693 16.7192 19.0761C16.4515 20.367 16.4802 22.7268 17.5606 27.023C17.5606 27.023 14.4725 16.807 12.6369 16.6154C10.8012 16.4238 14.8836 29.1206 14.8836 29.1206C14.8836 29.1206 10.763 19.8123 9.30021 20.3367C8.41107 20.6594 11.3271 31.0771 11.3271 31.0771C11.3271 31.0771 6.73797 22.6663 6.51808 25.4598C6.45115 26.2767 13.1627 43.7941 9.67307 53.2133C9.67307 53.2133 15.4477 54.9176 18.4019 53.415V53.4049Z" fill="#E08F0E"/>
<path d="M118.148 234.318L118.311 235.075C102.421 246.42 43.002 238.675 43.002 238.675C43.1071 237.364 43.2314 235.982 43.4131 234.56C43.5947 232.977 43.8242 231.333 44.0919 229.639C44.8089 225.081 45.7745 220.139 46.8549 215.066C47.1991 213.473 47.5528 211.849 47.9161 210.216C48.9869 205.365 50.1342 200.454 51.2145 195.673C51.5874 194.029 51.9507 192.406 52.314 190.792C52.8111 188.553 53.2796 186.345 53.7289 184.217C54.3121 181.373 54.838 178.65 55.2778 176.078C55.5741 174.344 55.8323 172.69 56.0235 171.117C56.2529 169.453 56.4059 167.88 56.5015 166.417C55.555 162.736 54.6754 159.126 53.8532 155.626C53.4421 153.841 53.0406 152.107 52.6486 150.382C51.4248 144.866 50.3541 139.622 49.4171 134.71C49.0825 132.925 48.7574 131.191 48.4611 129.497C47.4189 123.698 46.5872 118.454 45.9084 113.885C45.6502 112.06 45.4017 110.356 45.1913 108.752C44.9523 106.997 44.7515 105.374 44.5699 103.891C43.7764 97.4067 43.4991 93.7257 43.4991 93.7257C43.6425 93.6047 43.7859 93.4938 43.9389 93.3828C45.7363 92.0315 48.5567 90.7608 51.6925 89.6313C55.0005 88.4312 58.6527 87.3924 61.8746 86.5756C62.3622 86.4545 62.8402 86.3335 63.3087 86.2125C67.544 85.1637 70.7086 84.5586 70.7086 84.5586C85.1164 87.7454 89.2274 85.6982 89.2274 85.6982L96.5509 87.9774L97.4113 88.3001L102.746 90.2767L102.966 90.3574L112.536 93.9072L118.923 96.2671L116.446 108.318L115.366 113.583L112.106 129.456L111.035 134.7L107.785 150.513L106.714 155.707L104.027 168.807L104.563 171.308L105.614 176.169L107.278 183.894L108.788 190.883L109.831 195.724L112.966 210.286L114.009 215.097L117.116 229.498L118.158 234.308L118.148 234.318Z" fill="#E08F0E"/>
<path d="M97.4032 88.2897C95.8735 97.7896 91.5043 107.35 82.4218 108.379C71.4558 109.629 65.7672 95.1171 63.291 86.2022C67.5264 85.1533 71.9147 84.1348 71.9147 84.1348C86.3225 87.3216 89.1046 85.3752 89.1046 85.3752L96.5332 87.9569L97.3937 88.2796L97.4032 88.2897Z" fill="#FFA681"/>
<path d="M81.3111 100.392C69.8192 100.392 67.0658 85.416 67.0371 85.2648C66.9797 84.942 67.1805 84.6294 67.496 84.5689C67.802 84.5084 68.0983 84.7202 68.1557 85.0429C68.2609 85.648 70.8709 99.7768 81.9803 99.1717C91.7034 98.6574 92.2771 87.2716 92.2962 86.7876C92.3058 86.4548 92.5735 86.2027 92.889 86.2127C93.2045 86.2228 93.4435 86.5052 93.4339 86.838C93.4339 86.9691 92.8029 99.797 82.0472 100.372C81.7987 100.382 81.5597 100.392 81.3206 100.392H81.3111Z" fill="white"/>
<path d="M60.6884 96.2674C60.6884 97.9011 59.436 99.2222 57.8872 99.2222C56.3384 99.2222 55.0859 97.9011 55.0859 96.2674C55.0859 94.6336 56.3384 93.3125 57.8872 93.3125C59.436 93.3125 60.6884 94.6336 60.6884 96.2674Z" fill="#BC7222"/>
<path d="M55.0693 110.709C55.0693 112.343 53.8169 113.664 52.268 113.664C50.7192 113.664 49.4668 112.343 49.4668 110.709C49.4668 109.075 50.7192 107.754 52.268 107.754C53.8169 107.754 55.0693 109.075 55.0693 110.709Z" fill="#BC7222"/>
<path d="M72.9834 117.535C72.9834 119.169 71.7309 120.49 70.1821 120.49C68.6333 120.49 67.3809 119.169 67.3809 117.535C67.3809 115.902 68.6333 114.57 70.1821 114.57C71.7309 114.57 72.9834 115.891 72.9834 117.535Z" fill="#BC7222"/>
<path d="M60.4892 125.604C61.0629 127.117 60.365 128.841 58.9213 129.446C57.4777 130.051 55.8523 129.315 55.2787 127.792C54.7051 126.279 55.403 124.555 56.8467 123.95C58.2903 123.345 59.9156 124.081 60.4892 125.604Z" fill="#BC7222"/>
<path d="M84.0178 131.08C84.0178 132.714 82.9374 134.035 81.6085 134.035C80.2796 134.035 79.1992 132.714 79.1992 131.08C79.1992 129.446 80.2796 128.125 81.6085 128.125C82.9374 128.125 84.0178 129.446 84.0178 131.08Z" fill="#BC7222"/>
<path d="M102.708 137.17C102.708 138.803 101.456 140.125 99.9067 140.125C98.3579 140.125 97.1055 138.803 97.1055 137.17C97.1055 135.536 98.3579 134.215 99.9067 134.215C101.456 134.215 102.708 135.536 102.708 137.17Z" fill="#BC7222"/>
<path d="M106.302 99.2205C106.302 100.854 105.049 102.185 103.5 102.185C101.952 102.185 100.699 100.864 100.699 99.2205C100.699 97.5767 101.952 96.2656 103.5 96.2656C105.049 96.2656 106.302 97.5867 106.302 99.2205Z" fill="#BC7222"/>
<path d="M85.9482 149.978C85.9482 151.612 84.6958 152.933 83.147 152.933C81.5981 152.933 80.3457 151.612 80.3457 149.978C80.3457 148.345 81.5981 147.023 83.147 147.023C84.6958 147.023 85.9482 148.345 85.9482 149.978Z" fill="#BC7222"/>
<path d="M68.6611 159.156C68.6611 160.79 67.4087 162.121 65.8598 162.121C64.311 162.121 63.0586 160.8 63.0586 159.156C63.0586 157.512 64.311 156.201 65.8598 156.201C67.4087 156.201 68.6611 157.522 68.6611 159.156Z" fill="#BC7222"/>
<path d="M66.6455 142.436C66.6455 144.069 65.393 145.39 63.8442 145.39C62.2954 145.39 61.043 144.069 61.043 142.436C61.043 140.802 62.2954 139.471 63.8442 139.471C65.393 139.471 66.6455 140.792 66.6455 142.436Z" fill="#BC7222"/>
<path d="M94.2842 118.312C94.2842 119.946 93.0317 121.267 91.4829 121.267C89.9341 121.267 88.6816 119.946 88.6816 118.312C88.6816 116.679 89.9341 115.357 91.4829 115.357C93.0317 115.357 94.2842 116.679 94.2842 118.312Z" fill="#BC7222"/>
<path d="M109.802 114.57C109.802 116.204 108.549 117.535 107 117.535C105.452 117.535 104.199 116.214 104.199 114.57C104.199 112.926 105.452 111.615 107 111.615C108.549 111.615 109.802 112.936 109.802 114.57Z" fill="#BC7222"/>
<path d="M99.8974 154.869C99.8974 156.503 98.645 157.824 97.0962 157.824C95.5474 157.824 94.2949 156.503 94.2949 154.869C94.2949 153.235 95.5474 151.914 97.0962 151.914C98.645 151.914 99.8974 153.235 99.8974 154.869Z" fill="#BC7222"/>
<path d="M100.651 178.287C100.651 179.921 99.3989 181.242 97.8501 181.242C96.3013 181.242 95.0488 179.921 95.0488 178.287C95.0488 176.653 96.3013 175.332 97.8501 175.332C99.3989 175.332 100.651 176.653 100.651 178.287Z" fill="#BC7222"/>
<path d="M86.3681 168.514C86.9418 170.037 86.2439 171.751 84.8002 172.356C83.3566 172.961 81.7313 172.225 81.1576 170.702C80.584 169.19 81.2819 167.465 82.7256 166.86C84.1692 166.255 85.7945 166.991 86.3681 168.514Z" fill="#BC7222"/>
<path d="M67.2666 177.188C67.8402 178.711 67.1423 180.425 65.6986 181.03C64.255 181.635 62.6297 180.899 62.0561 179.376C61.4824 177.853 62.1803 176.139 63.624 175.534C65.0676 174.929 66.6929 175.665 67.2666 177.188Z" fill="#BC7222"/>
<path d="M124.095 271.642L123.511 267.951L121.255 253.65L120.471 248.749L118.31 235.074L114.381 235.266L62.2853 237.757L43.0016 238.674L41.7587 249.304L41.1851 254.256L39.4737 268.949L39.1582 271.642H124.095Z" fill="#9C78ED"/>
<path d="M124.094 271.643L123.559 268.315L123.511 267.962L123.138 265.612L122.765 263.282L121.236 253.651L120.796 250.807L120.461 248.76L120.414 248.458L118.444 235.983L118.31 235.095L118.129 234.329L117.976 233.653L117.096 229.528L115.346 221.461L114.84 219.151L113.979 215.117L112.937 210.287L112.23 206.979L111.723 204.669L109.801 195.744L109.094 192.477L108.759 190.893L108.606 190.167L107.258 183.895C86.0814 190.49 63.6522 186.577 53.6997 184.217C53.2599 186.335 52.7723 188.554 52.2847 190.793C52.17 191.287 52.0648 191.771 51.9501 192.265C51.778 193.031 51.5963 193.808 51.4242 194.574C51.3573 194.948 51.2713 195.3 51.1852 195.674C50.363 199.334 49.5026 203.066 48.6612 206.767C48.4891 207.533 48.3266 208.31 48.1545 209.056C48.0685 209.449 47.9824 209.823 47.8868 210.226C47.5331 211.86 47.1793 213.494 46.8256 215.077C46.3858 217.195 45.9651 219.272 45.5636 221.329C45.4106 222.096 45.2577 222.842 45.1238 223.588C44.7223 225.666 44.3685 227.693 44.0626 229.649C43.7949 231.354 43.575 232.987 43.4029 234.591C43.336 235.085 43.2882 235.569 43.2308 236.033C43.1639 236.83 43.0778 237.596 43.0109 238.363C43.0109 238.484 42.9918 238.574 42.9918 238.685L41.7585 249.315L41.5577 250.969L41.29 253.278L41.1753 254.256L39.8081 265.894L39.5404 268.224L39.4544 268.97L39.1484 271.653H124.085L124.094 271.643Z" fill="#56300A"/>
<path d="M98.4735 48.5228C98.4735 48.5228 101.915 43.9241 104.478 47.7261C107.04 51.528 103.416 62.7726 97.1445 60.0296L98.4735 48.5228Z" fill="#F97853"/>
<path d="M98.51 56.5495C98.7394 56.5495 98.9498 56.3982 99.0167 56.1663C99.9919 52.6971 103.577 51.2852 103.615 51.2751C103.893 51.1743 104.026 50.8617 103.921 50.5894C103.816 50.3171 103.51 50.1759 103.242 50.2767C103.07 50.3372 99.1219 51.8802 98.0033 55.8738C97.9268 56.1562 98.0893 56.4487 98.3666 56.5293C98.4144 56.5394 98.4622 56.5495 98.51 56.5495Z" fill="#EA5143"/>
<path d="M102.133 54.8052C102.229 54.8052 102.334 54.7749 102.42 54.7245C102.669 54.5631 102.736 54.2404 102.583 53.9883C102.554 53.948 101.923 52.9798 100.594 52.3848C100.326 52.2638 100.011 52.3848 99.8961 52.6571C99.7718 52.9294 99.8961 53.242 100.164 53.363C101.187 53.8269 101.693 54.5732 101.693 54.5732C101.799 54.7346 101.961 54.8152 102.143 54.8152L102.133 54.8052Z" fill="#EA5143"/>
<path d="M96.9133 59.9587C96.3206 60.6546 95.9573 61.5723 95.9573 62.5808C95.9573 64.749 97.6304 66.524 99.6955 66.524C101.761 66.524 103.434 64.7591 103.434 62.5808C103.434 61.3303 102.879 60.2109 102.009 59.4948C101.579 59.1318 101.063 58.8696 100.508 58.7385C100.413 58.4763 100.46 58.2241 100.642 57.9922C101.359 58.1535 102.009 58.4964 102.545 58.9805C103.529 59.8377 104.151 61.1387 104.151 62.5808C104.151 65.1726 102.153 67.2803 99.6955 67.2803C97.2384 67.2803 95.2402 65.1726 95.2402 62.5808C95.2402 61.4614 95.6131 60.4428 96.2345 59.636C96.464 59.7469 96.6839 59.8579 96.9133 59.9587Z" fill="white"/>
<path d="M71.916 72.041V85.8371C71.916 85.8371 77.9966 90.7786 82.729 91.2123C87.4615 91.6459 89.106 85.7564 89.106 85.7564V72.9184L71.916 72.0511V72.041Z" fill="#FFA681"/>
<path d="M71.916 73.3906V78.8969C75.0997 82.6182 80.7404 83.9394 89.106 82.6384V74.268L71.916 73.4007V73.3906Z" fill="#F97853"/>
<path d="M100.538 53.7669C100.385 55.0981 100.213 56.4495 99.9834 57.8009C98.4823 66.7663 93.0997 76.4578 86.3117 78.0815C71.6457 81.591 65.5557 69.4388 63.2133 60.4834C62.9552 59.485 63.4428 58.3454 63.2324 57.1655C62.7448 54.372 61.674 51.1953 61.435 48.069C61.2629 45.9007 61.1482 43.7628 61.0622 41.8265C60.8232 36.3807 63.8156 31.3685 68.4908 29.412C75.231 26.5883 85.4704 24.3495 95.1648 30.3398C98.75 32.5585 100.997 36.653 101.073 41.1508C101.131 44.5796 101.054 49.0674 100.528 53.7568L100.538 53.7669Z" fill="#FFA681"/>
<path d="M81.9422 60.7068C81.665 60.7068 81.426 60.495 81.3782 60.2025C81.3304 59.8798 81.5311 59.5672 81.8466 59.5067L83.8066 59.1638L81.1105 51.5901C80.9957 51.2775 81.1487 50.9346 81.4451 50.8136C81.7415 50.7026 82.0665 50.8539 82.1813 51.1665L85.3649 60.1017L82.0474 60.6866C82.0474 60.6866 81.9805 60.6866 81.9518 60.6866L81.9422 60.7068Z" fill="#F97853"/>
<path d="M88.9609 50.6814C88.9609 52.0026 89.6111 53.0816 90.4046 53.0816C91.1981 53.0816 91.8482 52.0126 91.8482 50.6814C91.8482 49.3502 91.1981 48.2812 90.4046 48.2812C89.6111 48.2812 88.9609 49.3502 88.9609 50.6814Z" fill="#403657"/>
<path d="M72.9941 50.6814C72.9941 52.0026 73.6443 53.0816 74.4378 53.0816C75.2313 53.0816 75.8814 52.0126 75.8814 50.6814C75.8814 49.3502 75.2313 48.2812 74.4378 48.2812C73.6443 48.2812 72.9941 49.3502 72.9941 50.6814Z" fill="#403657"/>
<path d="M94.6499 44.3997C93.4931 44.1577 91.1412 43.7644 88.6363 43.8551C87.9766 43.8753 87.4508 44.3997 87.5464 44.9544C87.6229 45.4082 88.0627 45.7107 88.5885 45.6603C90.2903 45.5292 94.7551 45.5494 96.8298 46.2049C96.8871 45.8923 96.6864 45.5494 96.39 45.2569C95.9502 44.8132 95.3192 44.5308 94.6404 44.3896L94.6499 44.3997Z" fill="#403657"/>
<path d="M71.4269 44.6896C72.5838 44.4375 74.9261 44.0038 77.431 44.0643C78.0907 44.0845 78.6261 44.5988 78.54 45.1535C78.4731 45.6073 78.0333 45.9098 77.5075 45.8796C75.7961 45.7687 71.3409 45.8594 69.2758 46.5452C69.2184 46.2326 69.4097 45.8897 69.6965 45.5871C70.1363 45.1333 70.7577 44.8409 71.4269 44.6896Z" fill="#403657"/>
<path d="M88.96 64.2754C88.5393 66.3831 87.1339 70.2557 82.411 70.2557C77.688 70.2557 76.34 66.7159 75.8906 64.2754H88.9695H88.96Z" fill="white"/>
<path d="M82.4789 73.8747C83.846 73.8747 85.0507 73.0982 85.0985 73.0679C85.3566 72.8965 85.4426 72.5334 85.2801 72.2612C85.1176 71.9889 84.7734 71.8981 84.5153 72.0696C84.5153 72.0696 83.521 72.7049 82.4789 72.7049C81.3507 72.7049 80.3468 72.0796 80.3373 72.0696C80.0696 71.8981 79.7254 71.9889 79.5724 72.2712C79.4099 72.5536 79.496 72.9066 79.7637 73.078C79.8115 73.1083 81.0448 73.8848 82.4884 73.8848L82.4789 73.8747Z" fill="#F97853"/>
<path d="M101.131 52.3554C100.997 52.4764 100.863 52.4361 100.739 52.194C98.7984 48.5938 100.624 41.4033 94.8881 38.6501C90.5189 36.5525 88.951 32.2362 88.951 32.2362C87.9567 34.0413 85.3562 35.6953 85.3562 35.6953C85.3562 35.6953 78.7594 39.82 71.914 42.6034C69.8776 43.4303 68.4244 44.2674 67.411 44.9935C67.4874 45.0136 67.5352 45.0338 67.5352 45.0338C67.5352 45.0338 65.6422 48.2811 67.0285 53.3336C68.4148 58.3861 66.627 66.7162 63.5485 68.6424C63.6058 68.5012 65.9195 62.7428 64.6097 58.0332C63.8544 55.3405 63.864 51.0444 63.1469 48.4828C62.3534 47.908 60.5273 46.9398 59.9154 46.5566C59.7434 44.348 59.6095 42.1697 59.5235 40.1931C59.2749 34.6363 62.4299 29.5334 67.3536 27.5366C74.4571 24.6524 85.251 22.3732 95.4713 28.4846C99.2477 30.7436 101.619 34.9187 101.705 39.4972C101.762 42.9866 101.676 47.5651 101.131 52.3554Z" fill="#403657"/>
<path d="M63.1457 48.4837C63.1457 48.4837 59.1398 43.3606 56.7784 47.0517C54.4169 50.7528 57.9065 62.0781 63.6907 59.4157L63.1457 48.4837Z" fill="#FFA681"/>
<path d="M63.3089 59.5966C63.72 60.4235 63.8634 61.4018 63.6339 62.38C63.1368 64.4877 61.1004 65.7685 59.1022 65.2441C57.104 64.7197 55.8898 62.5716 56.387 60.4639C56.6738 59.2537 57.4673 58.3158 58.4712 57.8317C58.9779 57.5897 59.5324 57.4687 60.1061 57.4787C60.2017 57.2569 60.259 57.0048 60.1443 56.7224C59.4177 56.7022 58.7007 56.8636 58.0697 57.1863C56.9224 57.7712 56.0141 58.8705 55.6891 60.2722C55.0963 62.7834 56.5495 65.3348 58.9301 65.9702C61.3107 66.5954 63.7295 65.0625 64.3318 62.5514C64.59 61.4723 64.4561 60.3832 64.045 59.4453C63.7964 59.4957 63.5574 59.5361 63.3089 59.5865V59.5966Z" fill="white"/>
<path d="M62.2871 55.6239C62.0767 55.6239 61.876 55.4727 61.8186 55.2508C60.9199 51.8825 57.6119 50.5109 57.5737 50.5008C57.3251 50.4 57.1913 50.0975 57.2869 49.8352C57.3825 49.573 57.6597 49.4319 57.9179 49.5327C58.0708 49.5932 61.723 51.0858 62.7555 54.9684C62.832 55.2407 62.679 55.5231 62.4209 55.6038C62.3731 55.6139 62.3349 55.6239 62.2871 55.6239Z" fill="#F97853"/>
<path d="M58.9388 53.9284C58.8528 53.9284 58.7572 53.8982 58.6711 53.8478C58.4417 53.6965 58.3747 53.3738 58.5277 53.1317C58.5564 53.0914 59.1396 52.1535 60.3634 51.5686C60.6119 51.4476 60.8987 51.5686 61.0135 51.8308C61.1282 52.093 61.0135 52.3955 60.7649 52.5166C59.8184 52.9603 59.3595 53.6864 59.3499 53.6965C59.2543 53.8478 59.1014 53.9284 58.9388 53.9284Z" fill="#F97853"/>
<path d="M292.99 156.992C283.771 164.051 269.35 168.892 269.35 168.892L266.4 157.567L264.093 148.732L262.467 142.5H245.938C246.836 145.788 247.753 149.166 248.689 152.494C249.881 156.78 251.072 160.975 252.197 164.848C253.795 170.294 255.261 175.084 256.453 178.513C256.727 179.31 257.048 180.177 257.417 181.105C259.63 187.468 261.407 194.376 269.842 190.04C277.265 186.228 287.336 180.943 292.366 177.434L293 157.002L292.99 156.992Z" fill="#FFA681"/>
<path d="M248.688 152.484C249.879 156.77 251.07 160.966 252.205 164.838C258.957 164.072 263.618 160.512 266.399 157.557L264.091 148.723L248.688 152.484Z" fill="#F97853"/>
<path d="M245.181 90.6641C245.181 90.6641 262.429 134.523 269.842 148.733C269.842 148.733 259.45 158.152 249.323 158.414C249.323 158.414 243.488 110.259 245.181 90.6641Z" fill="#E08F0E"/>
<path d="M204.805 268.873C204.976 265.807 205.146 262.883 205.288 260.17C205.902 249.097 206.29 241.543 206.29 241.543L202.224 241.352L199.935 241.241L172.296 239.93C172.296 239.93 171.795 248.381 171.199 260.795C171.076 263.337 170.953 266.039 170.83 268.873H204.805Z" fill="#56300A"/>
<path d="M202.234 241.352L206.3 241.543C206.3 241.543 205.903 249.097 205.298 260.17C194.679 261.118 183.086 261.501 171.209 260.795C171.805 248.381 172.306 239.93 172.306 239.93L199.946 241.241L202.234 241.352Z" fill="#E08F0E"/>
<path d="M200.777 268.873C201.42 257.043 201.94 246.918 202.233 241.351L199.944 241.24C199.661 246.827 199.131 257.003 198.488 268.873H200.786H200.777Z" fill="#7846D1"/>
<path d="M213.713 268.873H247.688C247.565 266.039 247.433 263.337 247.32 260.795C246.724 248.381 246.223 239.93 246.223 239.93L218.583 241.241L216.295 241.352L212.229 241.543C212.229 241.543 212.626 249.097 213.231 260.17C213.382 262.883 213.543 265.797 213.713 268.873Z" fill="#9C78ED"/>
<path d="M216.285 241.352L212.219 241.543C212.219 241.543 212.616 249.097 213.221 260.17C223.84 261.118 235.433 261.501 247.31 260.795C246.714 248.381 246.213 239.93 246.213 239.93L218.573 241.241L216.285 241.352Z" fill="#7846D1"/>
<path d="M220.038 268.873C219.395 257.003 218.865 246.827 218.581 241.24L216.293 241.351C216.577 246.918 217.106 257.043 217.749 268.873H220.047H220.038Z" fill="#7846D1"/>
<path d="M166.3 218.914C166.3 219.519 166.3 220.124 166.3 220.709C166.309 231.49 166.366 239.84 166.413 243.944C176.172 246.768 185.94 248.583 195.708 249.431C196.152 249.471 196.587 249.501 197.032 249.542C197.268 249.562 197.505 249.582 197.741 249.592C198.261 249.632 198.791 249.663 199.311 249.693C199.897 249.733 200.474 249.763 201.06 249.794C207.707 250.126 214.346 249.995 220.993 249.41C222.336 249.289 223.669 249.148 225.012 248.997C225.097 248.997 225.182 248.977 225.267 248.967C225.608 248.926 225.948 248.886 226.298 248.836C226.506 248.805 226.714 248.785 226.922 248.755C234.648 247.767 242.382 246.163 250.117 243.934C250.136 242.069 250.146 239.305 250.146 235.826C250.146 235.181 250.146 234.515 250.146 233.819C250.146 228.837 250.108 222.635 250.061 215.626C250.061 215.031 250.061 214.426 250.051 213.811C250.013 209.142 249.966 204.15 249.909 198.936C249.909 198.331 249.9 197.726 249.89 197.121C249.824 191.776 249.749 186.229 249.664 180.592C249.607 177.153 249.55 173.673 249.484 170.204C249.418 166.685 249.342 163.155 249.266 159.655C249.247 158.889 249.229 158.133 249.21 157.366C248.453 124.237 247.139 93.7813 244.973 90.3827C243.47 88.0329 240.037 85.2697 235.981 82.4862C235.489 82.1534 234.978 81.8106 234.468 81.4677C232.747 80.318 218.667 75.2151 216.88 74.0957L202.006 72.9863C201.911 73.0468 187.689 78.1598 187.595 78.2103C186.98 78.5834 186.365 78.9565 185.751 79.3398C180.484 82.577 175.283 85.9958 172.295 88.9405C171.86 89.3641 171.463 89.7877 171.132 90.1911C170.867 90.5138 170.631 90.8264 170.442 91.139C170.262 91.4214 170.092 91.8853 169.922 92.5307C168.125 99.5094 167.179 126.92 166.707 156.751C166.669 158.889 166.64 161.037 166.612 163.195C166.602 164.143 166.584 165.091 166.574 166.039C166.565 166.695 166.555 167.35 166.546 167.996C166.546 168.328 166.546 168.651 166.536 168.974C166.517 170.597 166.498 172.211 166.489 173.825C166.48 175.015 166.461 176.205 166.451 177.395C166.319 192.421 166.281 207.004 166.29 218.894L166.3 218.914Z" fill="#E08F0E"/>
<path d="M139.691 261.512C139.322 265.748 144.163 263.449 142.792 254.867C141.431 246.284 145.308 238.519 146.972 238.761C148.646 239.013 145.591 248.13 147.076 251.417C148.56 254.705 150.48 248.321 152.39 244.449C154.376 240.425 154.253 231.651 153.355 225.389C152.456 219.126 163.094 181.076 163.151 170.053L164.446 165.384L169.193 148.27L176.626 121.474C176.626 121.474 172.172 101.194 164.664 102.938C164.664 102.938 160.692 117.067 156.437 133.001C155.719 135.704 154.99 138.467 154.272 141.21C151.246 152.758 148.4 164.164 147.076 170.93C143.587 188.801 143.312 225.933 143.312 225.933C143.312 225.933 137.147 239.578 137.005 245.649C136.854 252.123 140.041 257.267 139.672 261.502L139.691 261.512Z" fill="#FFA681"/>
<path d="M154.291 141.211L164.466 165.385L169.213 148.271L156.456 132.992C155.738 135.695 155.01 138.458 154.291 141.201V141.211Z" fill="#F97853"/>
<path d="M153.791 134.01C158.254 142.169 162.793 150.287 167.313 158.415C168.797 153.101 170.348 147.998 171.795 143.298C171.795 143.288 171.795 143.278 171.804 143.258C172.381 141.382 172.948 139.577 173.487 137.842C173.487 137.812 173.506 137.782 173.516 137.752C173.705 137.146 173.885 136.541 174.074 135.956C176.23 128.998 177.903 123.461 178.386 120.244C179.672 111.561 176.163 94.5683 171.209 91.2101C171.076 91.5126 170.688 90.5747 170.452 91.1496C169.582 93.2876 165.724 98.5821 163.814 103.735C163.568 104.391 163.322 105.077 163.058 105.773C160.296 113.346 156.911 123.209 153.781 134L153.791 134.01Z" fill="#E08F0E"/>
<path d="M208.795 88.8707C215.235 88.8707 219.783 82.598 219.972 82.3357C220.247 81.9525 220.19 81.3979 219.859 81.0852C219.528 80.7726 219.036 80.8331 218.762 81.2163C218.705 81.297 214.478 87.0958 208.795 87.0958C203.112 87.0958 199.755 80.5306 199.727 80.4701C199.51 80.0465 199.037 79.9053 198.668 80.1473C198.299 80.3894 198.167 80.934 198.384 81.3575C198.536 81.6601 202.28 88.8707 208.795 88.8707Z" fill="#BC7222"/>
<path d="M236.031 148.935C236.154 148.935 236.267 148.905 236.381 148.834C236.768 148.612 236.92 148.078 236.73 147.634L233.922 141.301C233.723 140.857 233.251 140.685 232.872 140.907C232.485 141.129 232.333 141.664 232.523 142.107L235.331 148.441C235.473 148.753 235.747 148.935 236.031 148.935Z" fill="#BC7222"/>
<path d="M241.892 143.752C241.996 143.822 242.109 143.873 242.232 143.883C242.667 143.923 243.045 143.56 243.083 143.066L243.632 135.997C243.669 135.502 243.348 135.069 242.922 135.028C242.487 134.988 242.109 135.351 242.071 135.845L241.523 142.915C241.495 143.258 241.646 143.58 241.892 143.752Z" fill="#BC7222"/>
<path d="M226.791 132.79C227.169 132.79 227.5 132.477 227.567 132.043L228.578 125.045C228.645 124.561 228.361 124.097 227.935 124.016C227.51 123.935 227.103 124.268 227.037 124.752L226.025 131.751C225.959 132.235 226.243 132.699 226.668 132.78C226.715 132.78 226.753 132.79 226.801 132.79H226.791Z" fill="#BC7222"/>
<path d="M201.552 135.4C201.684 135.4 201.826 135.36 201.949 135.279C202.318 135.027 202.441 134.482 202.223 134.059L199.055 127.948C198.838 127.524 198.356 127.383 197.977 127.635C197.609 127.887 197.486 128.432 197.703 128.855L200.871 134.967C201.013 135.249 201.278 135.41 201.542 135.41L201.552 135.4Z" fill="#BC7222"/>
<path d="M232.559 108.021C232.701 108.021 232.852 107.971 232.985 107.88L238.204 104.027C238.564 103.755 238.668 103.211 238.441 102.787C238.204 102.374 237.722 102.252 237.353 102.525L232.134 106.377C231.774 106.649 231.67 107.194 231.897 107.618C232.049 107.88 232.304 108.031 232.559 108.031V108.021Z" fill="#BC7222"/>
<path d="M209.287 164.919C209.41 164.919 209.523 164.889 209.636 164.818C210.024 164.596 210.175 164.062 209.986 163.618L207.178 157.285C206.979 156.841 206.516 156.67 206.128 156.892C205.741 157.114 205.589 157.648 205.778 158.092L208.587 164.425C208.729 164.738 209.003 164.919 209.287 164.919Z" fill="#BC7222"/>
<path d="M221.628 112.791C221.893 112.791 222.148 112.64 222.29 112.368C222.517 111.944 222.413 111.4 222.044 111.137L216.768 107.376C216.399 107.114 215.917 107.245 215.69 107.658C215.463 108.082 215.567 108.626 215.936 108.888L221.212 112.65C221.344 112.741 221.486 112.791 221.628 112.791Z" fill="#BC7222"/>
<path d="M234.175 86.4578C234.166 86.6293 234.194 86.8007 234.26 86.9419C234.383 87.2041 234.62 87.3856 234.894 87.4159C235.329 87.4562 235.698 87.0831 235.726 86.5889L235.972 82.5147C235.48 82.1819 234.979 81.839 234.459 81.4961L234.156 86.4679L234.175 86.4578Z" fill="#BC7222"/>
<path d="M241.202 125.315C241.467 125.315 241.722 125.163 241.864 124.891C242.091 124.468 241.987 123.923 241.618 123.661L236.342 119.899C235.973 119.637 235.491 119.768 235.264 120.182C235.037 120.605 235.141 121.15 235.51 121.412L240.786 125.174C240.919 125.264 241.061 125.315 241.202 125.315Z" fill="#BC7222"/>
<path d="M199.152 94.4184C199.303 94.4184 199.445 94.368 199.587 94.2671C199.946 93.9949 200.05 93.4402 199.814 93.0267L196.807 87.8229C196.57 87.4095 196.078 87.2985 195.719 87.5708C195.36 87.8431 195.256 88.3978 195.492 88.8112L198.499 94.015C198.65 94.2772 198.896 94.4184 199.152 94.4184Z" fill="#BC7222"/>
<path d="M196.457 184.332C196.665 184.332 196.873 184.241 197.024 184.059L201.336 178.936C201.639 178.583 201.629 178.018 201.317 177.676C201.005 177.333 200.504 177.343 200.211 177.706L195.899 182.829C195.596 183.182 195.606 183.747 195.918 184.09C196.069 184.261 196.268 184.342 196.457 184.342V184.332Z" fill="#BC7222"/>
<path d="M212.287 183.275C212.495 183.275 212.703 183.184 212.854 183.003L217.166 177.88C217.469 177.527 217.459 176.962 217.147 176.619C216.835 176.276 216.343 176.286 216.041 176.649L211.729 181.772C211.426 182.125 211.436 182.69 211.748 183.033C211.899 183.204 212.098 183.285 212.287 183.285V183.275Z" fill="#BC7222"/>
<path d="M223.671 217.873C223.746 217.651 223.737 217.399 223.642 217.177L220.957 210.774C220.768 210.33 220.304 210.138 219.907 210.35C219.519 210.562 219.349 211.096 219.538 211.54L222.224 217.944C222.413 218.388 222.876 218.579 223.274 218.367C223.463 218.267 223.604 218.085 223.671 217.873Z" fill="#BC7222"/>
<path d="M178.235 238.992C178.311 238.771 178.301 238.518 178.207 238.297L175.521 231.893C175.332 231.449 174.869 231.257 174.472 231.469C174.084 231.681 173.914 232.215 174.103 232.659L176.788 239.063C176.977 239.507 177.441 239.698 177.838 239.487C178.027 239.386 178.169 239.204 178.235 238.992Z" fill="#BC7222"/>
<path d="M197.742 249.592C198.272 249.633 198.792 249.663 199.312 249.693L199.86 245.71C199.927 245.226 199.633 244.762 199.208 244.691C198.782 244.62 198.376 244.953 198.31 245.437L197.742 249.592Z" fill="#BC7222"/>
<path d="M191.483 237.541C191.653 237.41 191.776 237.198 191.804 236.946L192.769 229.937C192.835 229.453 192.542 228.989 192.116 228.918C191.691 228.838 191.284 229.17 191.218 229.665L190.253 236.674C190.187 237.158 190.48 237.622 190.906 237.692C191.114 237.732 191.313 237.672 191.473 237.541H191.483Z" fill="#BC7222"/>
<path d="M229.315 178.918C229.447 178.918 229.579 178.878 229.702 178.797C230.081 178.555 230.204 178.001 229.986 177.577L226.866 171.435C226.648 171.012 226.166 170.861 225.797 171.113C225.419 171.355 225.296 171.909 225.513 172.333L228.634 178.475C228.776 178.757 229.04 178.918 229.315 178.918Z" fill="#BC7222"/>
<path d="M220.164 163.569C220.448 163.569 220.722 163.388 220.864 163.085L223.719 156.782C223.918 156.338 223.767 155.804 223.379 155.582C222.991 155.35 222.519 155.532 222.32 155.965L219.464 162.268C219.266 162.712 219.417 163.246 219.805 163.468C219.918 163.539 220.041 163.569 220.164 163.569Z" fill="#BC7222"/>
<path d="M244.956 162.641C245.041 162.752 245.145 162.833 245.249 162.893C245.514 163.014 245.826 162.974 246.062 162.752L249.268 159.676C249.249 158.91 249.239 158.153 249.22 157.387L245.05 161.38C244.719 161.703 244.682 162.268 244.956 162.641Z" fill="#BC7222"/>
<path d="M220.211 96.6545C220.495 96.6545 220.769 96.4831 220.911 96.1705L223.766 89.8674C223.965 89.4237 223.814 88.8892 223.426 88.6673C223.038 88.4455 222.565 88.6169 222.367 89.0506L219.511 95.3536C219.313 95.7973 219.464 96.3318 219.852 96.5537C219.965 96.6243 220.088 96.6545 220.211 96.6545Z" fill="#BC7222"/>
<path d="M201.923 119.76C201.971 119.76 202.018 119.76 202.075 119.74C202.5 119.649 202.774 119.175 202.699 118.691L201.517 111.722C201.432 111.238 201.025 110.916 200.6 111.017C200.174 111.107 199.9 111.581 199.975 112.065L201.157 119.034C201.233 119.458 201.555 119.76 201.923 119.76Z" fill="#BC7222"/>
<path d="M212.105 125.882C212.152 125.882 212.2 125.882 212.256 125.862C212.682 125.771 212.956 125.297 212.88 124.813L211.698 117.845C211.613 117.361 211.207 117.048 210.781 117.139C210.356 117.229 210.081 117.703 210.157 118.188L211.339 125.156C211.415 125.58 211.736 125.882 212.105 125.882Z" fill="#BC7222"/>
<path d="M204.807 102.888C205.062 102.888 205.318 102.737 205.469 102.474L208.807 96.484C209.043 96.0705 208.93 95.5159 208.561 95.2537C208.192 94.9915 207.71 95.1125 207.483 95.526L204.145 101.516C203.909 101.93 204.022 102.484 204.391 102.747C204.523 102.837 204.665 102.888 204.807 102.888Z" fill="#BC7222"/>
<path d="M235.397 164.678C235.614 164.416 235.671 164.022 235.529 163.679L232.853 157.276C232.664 156.832 232.201 156.64 231.804 156.852C231.416 157.064 231.246 157.598 231.435 158.042L234.111 164.446C234.3 164.89 234.763 165.081 235.161 164.869C235.255 164.819 235.331 164.748 235.397 164.678Z" fill="#BC7222"/>
<path d="M215.227 146.091C215.539 146.091 215.832 145.879 215.955 145.527L218.225 138.921C218.386 138.457 218.187 137.943 217.78 137.761C217.374 137.58 216.92 137.812 216.769 138.265L214.499 144.871C214.338 145.335 214.537 145.849 214.944 146.031C215.038 146.071 215.133 146.091 215.227 146.091Z" fill="#BC7222"/>
<path d="M190.31 186.906C190.433 186.906 190.546 186.875 190.66 186.805C191.048 186.583 191.199 186.048 191.01 185.605L188.201 179.271C188.003 178.828 187.53 178.656 187.152 178.878C186.764 179.1 186.613 179.634 186.802 180.078L189.61 186.411C189.752 186.724 190.026 186.906 190.31 186.906Z" fill="#BC7222"/>
<path d="M231.605 232.417C231.605 232.549 231.634 232.69 231.69 232.821C231.889 233.254 232.362 233.426 232.749 233.204L238.272 229.937C238.659 229.715 238.811 229.17 238.603 228.726C238.404 228.293 237.931 228.121 237.544 228.343L232.021 231.611C231.747 231.772 231.596 232.085 231.596 232.417H231.605Z" fill="#BC7222"/>
<path d="M246.602 236.482C246.602 236.623 246.63 236.754 246.687 236.885C246.885 237.329 247.358 237.491 247.746 237.269L250.148 235.847C250.148 235.201 250.148 234.536 250.148 233.84L247.027 235.675C246.753 235.837 246.602 236.149 246.602 236.482Z" fill="#BC7222"/>
<path d="M223.388 244.369L225.279 248.967C225.619 248.927 225.96 248.887 226.31 248.836C226.518 248.806 226.726 248.786 226.924 248.755L224.806 243.602C224.627 243.158 224.154 242.957 223.766 243.168C223.369 243.38 223.199 243.905 223.388 244.358V244.369Z" fill="#BC7222"/>
<path d="M180.115 170.759C180.494 170.759 180.825 170.446 180.891 170.012L181.903 163.013C181.969 162.529 181.685 162.065 181.26 161.985C180.834 161.904 180.427 162.237 180.361 162.721L179.349 169.72C179.283 170.204 179.567 170.668 179.992 170.748C180.04 170.748 180.078 170.759 180.125 170.759H180.115Z" fill="#BC7222"/>
<path d="M179.476 119.096C179.608 119.096 179.75 119.055 179.873 118.975C180.242 118.722 180.364 118.178 180.147 117.754L176.979 111.643C176.762 111.219 176.28 111.078 175.901 111.33C175.532 111.582 175.41 112.127 175.627 112.55L178.795 118.662C178.937 118.944 179.201 119.106 179.466 119.106L179.476 119.096Z" fill="#BC7222"/>
<path d="M189.659 143.912C189.8 143.912 189.952 143.861 190.084 143.77L195.304 139.918C195.663 139.646 195.767 139.101 195.54 138.678C195.304 138.264 194.821 138.143 194.453 138.415L189.224 142.268C188.864 142.54 188.76 143.085 188.987 143.508C189.138 143.77 189.394 143.922 189.649 143.922L189.659 143.912Z" fill="#BC7222"/>
<path d="M244.976 185.542C245.099 185.542 245.212 185.512 245.326 185.441C245.714 185.22 245.865 184.685 245.676 184.241L242.867 177.908C242.669 177.464 242.205 177.293 241.818 177.515C241.43 177.737 241.279 178.271 241.468 178.715L244.276 185.048C244.418 185.361 244.692 185.542 244.976 185.542Z" fill="#BC7222"/>
<path d="M180.759 153.535C181.024 153.535 181.279 153.384 181.421 153.112C181.648 152.688 181.534 152.144 181.175 151.882L175.899 148.12C175.53 147.858 175.048 147.989 174.821 148.402C174.594 148.826 174.698 149.37 175.067 149.633L180.343 153.394C180.475 153.485 180.617 153.535 180.759 153.535Z" fill="#BC7222"/>
<path d="M193.402 162.5C193.591 162.702 193.866 162.792 194.14 162.712C194.556 162.581 194.802 162.086 194.688 161.612L193.052 154.765C192.939 154.291 192.504 154.008 192.088 154.14C191.672 154.271 191.426 154.765 191.539 155.239L193.175 162.086C193.213 162.258 193.298 162.399 193.402 162.51V162.5Z" fill="#BC7222"/>
<path d="M171.144 90.2115L172.506 92.5713C172.657 92.8335 172.903 92.9747 173.158 92.9747C173.31 92.9747 173.451 92.9344 173.584 92.8234C173.943 92.5511 174.047 91.9965 173.811 91.583L172.298 88.9609C171.863 89.3845 171.475 89.8081 171.135 90.2115H171.144Z" fill="#BC7222"/>
<path d="M165.178 105.783L166.624 108.294C166.776 108.557 167.022 108.698 167.277 108.698C167.428 108.698 167.57 108.647 167.712 108.546C168.071 108.274 168.175 107.72 167.929 107.306L165.877 103.746C165.651 104.402 165.414 105.087 165.178 105.783Z" fill="#BC7222"/>
<path d="M232.994 207.66C233.202 207.66 233.41 207.569 233.561 207.387L237.873 202.264C238.176 201.911 238.166 201.347 237.854 201.004C237.542 200.661 237.041 200.671 236.748 201.034L232.436 206.157C232.133 206.51 232.143 207.075 232.455 207.418C232.606 207.589 232.805 207.67 232.994 207.67V207.66Z" fill="#BC7222"/>
<path d="M204.324 225.56C204.532 225.56 204.74 225.469 204.891 225.288L209.203 220.165C209.506 219.812 209.496 219.247 209.184 218.904C208.872 218.561 208.371 218.571 208.078 218.934L203.766 224.057C203.463 224.41 203.473 224.975 203.785 225.318C203.936 225.49 204.135 225.57 204.324 225.57V225.56Z" fill="#BC7222"/>
<path d="M196.354 218.451C196.486 218.27 196.552 218.028 196.524 217.776L195.749 210.737C195.692 210.242 195.304 209.9 194.869 209.96C194.444 210.021 194.132 210.464 194.188 210.958L194.964 217.998C195.02 218.492 195.408 218.835 195.843 218.774C196.051 218.744 196.231 218.623 196.354 218.451Z" fill="#BC7222"/>
<path d="M212.681 238.296C212.889 238.296 213.097 238.206 213.249 238.024L217.561 232.901C217.863 232.548 217.854 231.983 217.542 231.64C217.23 231.298 216.729 231.308 216.435 231.671L212.123 236.794C211.821 237.147 211.83 237.712 212.142 238.054C212.294 238.226 212.492 238.307 212.681 238.307V238.296Z" fill="#BC7222"/>
<path d="M166.301 218.914C166.301 219.519 166.301 220.124 166.301 220.709L171.161 221.173C171.596 221.213 171.974 220.85 172.012 220.356C172.05 219.862 171.728 219.438 171.294 219.388L166.301 218.914Z" fill="#BC7222"/>
<path d="M223.265 196.888C223.473 196.888 223.681 196.797 223.833 196.616L228.145 191.493C228.447 191.14 228.438 190.575 228.126 190.232C227.814 189.889 227.322 189.899 227.019 190.262L222.707 195.386C222.405 195.739 222.414 196.303 222.726 196.646C222.878 196.818 223.076 196.898 223.265 196.898V196.888Z" fill="#BC7222"/>
<path d="M202.527 194.67C202.536 194.902 202.631 195.134 202.801 195.295L207.567 199.864C207.898 200.186 208.389 200.136 208.673 199.753C208.947 199.369 208.909 198.815 208.578 198.492L203.813 193.924C203.482 193.601 202.99 193.651 202.706 194.035C202.574 194.216 202.508 194.448 202.527 194.67Z" fill="#BC7222"/>
<path d="M179.842 219.791C179.974 219.791 180.107 219.751 180.23 219.67C180.608 219.418 180.731 218.874 180.513 218.45L177.393 212.309C177.175 211.885 176.693 211.734 176.324 211.986C175.946 212.238 175.823 212.783 176.041 213.206L179.161 219.348C179.303 219.63 179.568 219.791 179.842 219.791Z" fill="#BC7222"/>
<path d="M174.441 201.538C174.725 201.538 174.999 201.356 175.141 201.054L177.997 194.751C178.195 194.307 178.044 193.773 177.656 193.551C177.269 193.319 176.796 193.5 176.597 193.934L173.742 200.237C173.543 200.681 173.694 201.215 174.082 201.437C174.196 201.508 174.318 201.538 174.441 201.538Z" fill="#BC7222"/>
<path d="M182.953 129.926C183.237 129.926 183.511 129.744 183.653 129.442L186.509 123.139C186.707 122.695 186.556 122.161 186.168 121.939C185.78 121.717 185.308 121.888 185.109 122.322L182.253 128.625C182.055 129.069 182.206 129.603 182.594 129.825C182.707 129.896 182.83 129.926 182.953 129.926Z" fill="#BC7222"/>
<path d="M179.843 103.451C179.891 103.451 179.938 103.451 179.995 103.431C180.42 103.341 180.694 102.867 180.619 102.382L179.437 95.4139C179.352 94.9298 178.945 94.6071 178.519 94.7079C178.094 94.7987 177.82 95.2727 177.895 95.7567L179.077 102.725C179.153 103.149 179.474 103.451 179.843 103.451Z" fill="#BC7222"/>
<path d="M165.507 127.505C165.555 127.505 165.602 127.505 165.659 127.485C166.084 127.394 166.358 126.92 166.283 126.436L165.101 119.468C165.016 118.984 164.609 118.671 164.184 118.762C163.758 118.853 163.484 119.327 163.559 119.811L164.741 126.779C164.817 127.203 165.139 127.505 165.507 127.505Z" fill="#BC7222"/>
<path d="M190.017 109.574C190.064 109.574 190.112 109.574 190.168 109.553C190.594 109.463 190.868 108.989 190.792 108.505L189.61 101.536C189.525 101.052 189.119 100.739 188.693 100.83C188.268 100.921 187.994 101.395 188.069 101.879L189.251 108.848C189.327 109.271 189.648 109.574 190.017 109.574Z" fill="#BC7222"/>
<path d="M185.347 85.2999C185.498 85.3403 185.649 85.3302 185.782 85.2697C186.028 85.1688 186.226 84.9369 186.283 84.6343L187.597 78.2305C186.983 78.6036 186.368 78.9767 185.753 79.36L184.751 84.2209C184.647 84.7049 184.912 85.1789 185.337 85.2999H185.347Z" fill="#BC7222"/>
<path d="M167.409 138.277C167.664 138.277 167.919 138.125 168.071 137.863L171.409 131.873C171.645 131.459 171.531 130.905 171.163 130.642C170.794 130.38 170.312 130.501 170.085 130.915L166.747 136.905C166.51 137.318 166.624 137.873 166.993 138.135C167.125 138.226 167.267 138.277 167.409 138.277Z" fill="#BC7222"/>
<path d="M189.676 202.647C189.894 202.384 189.95 201.991 189.809 201.648L187.133 195.244C186.943 194.801 186.48 194.609 186.083 194.821C185.695 195.033 185.525 195.567 185.714 196.011L188.39 202.415C188.579 202.858 189.043 203.05 189.44 202.838C189.534 202.788 189.61 202.717 189.676 202.647Z" fill="#BC7222"/>
<path d="M244.822 214.677L250.061 215.645C250.061 215.05 250.061 214.445 250.042 213.83L245.078 212.912C244.652 212.841 244.246 213.164 244.179 213.648C244.113 214.132 244.397 214.596 244.822 214.677Z" fill="#BC7222"/>
<path d="M246.422 198.32L249.911 198.965C249.911 198.36 249.902 197.755 249.892 197.15L246.677 196.555C246.252 196.474 245.845 196.807 245.779 197.291C245.713 197.775 245.997 198.239 246.422 198.32Z" fill="#BC7222"/>
<path d="M169.507 184.06C169.819 184.06 170.112 183.848 170.235 183.495L172.504 176.89C172.665 176.426 172.466 175.911 172.06 175.73C171.653 175.548 171.199 175.78 171.048 176.234L168.778 182.84C168.618 183.304 168.816 183.818 169.223 184C169.317 184.04 169.412 184.06 169.507 184.06Z" fill="#BC7222"/>
<path d="M166.623 163.215C168.098 156.73 169.942 149.52 171.776 143.307C171.776 143.297 171.776 143.287 171.786 143.267C172.353 141.351 172.92 139.526 173.469 137.851C173.469 137.821 173.488 137.791 173.497 137.761C173.667 137.236 173.838 136.722 174.017 136.228C174.046 136.137 174.055 136.056 174.055 135.966C174.055 135.663 173.885 135.381 173.601 135.27C173.242 135.129 172.845 135.33 172.712 135.713C170.831 141.179 168.608 149.046 166.708 156.761C166.67 158.898 166.642 161.047 166.613 163.205L166.623 163.215Z" fill="#BC7222"/>
<path d="M189.108 37.9517C189.108 37.9517 183.652 31.5377 185.713 24.0649C187.775 16.6021 193.41 16.6828 193.41 16.6828C193.41 16.6828 196.701 8.74601 202.299 8.48381C207.897 8.2216 213.183 -2.38764 218.28 0.49662C223.376 3.38088 217.731 9.66373 217.731 9.66373C217.731 9.66373 226.459 -0.158894 229.343 2.72537C232.218 5.60963 225.343 13.3346 225.343 13.3346C225.343 13.3346 232.681 7.83838 235.092 9.92594C237.504 12.0236 229.343 21.0596 229.343 21.0596C229.343 21.0596 234.619 31.2049 229.305 35.7633L189.117 37.9618L189.108 37.9517Z" fill="#403657"/>
<path d="M227.255 40.1001C227.255 40.1001 230.744 35.1384 233.344 39.2429C235.945 43.3475 232.267 55.4694 225.912 52.5146L227.255 40.1001Z" fill="#F97853"/>
<path d="M227.293 48.7737C227.529 48.7737 227.747 48.6124 227.813 48.3603C228.796 44.6188 232.437 43.096 232.475 43.0859C232.749 42.975 232.891 42.6422 232.787 42.3497C232.683 42.0572 232.371 41.906 232.097 42.0169C231.926 42.0875 227.917 43.7414 226.782 48.0577C226.707 48.3603 226.867 48.683 227.151 48.7637C227.198 48.7737 227.246 48.7838 227.293 48.7838V48.7737Z" fill="#EA5143"/>
<path d="M230.962 46.8858C231.066 46.8858 231.16 46.8556 231.255 46.7951C231.501 46.6236 231.576 46.2706 231.416 45.9983C231.387 45.958 230.744 44.9092 229.401 44.2638C229.137 44.1327 228.815 44.2638 228.692 44.5562C228.569 44.8487 228.692 45.1815 228.966 45.3126C230.007 45.8067 230.517 46.6135 230.517 46.6236C230.621 46.795 230.791 46.8858 230.971 46.8858H230.962Z" fill="#EA5143"/>
<path d="M191.272 40.1001C191.272 40.1001 187.783 35.1384 185.183 39.2429C182.582 43.3475 186.261 55.4694 192.615 52.5146L191.272 40.1001Z" fill="#F97853"/>
<path d="M191.225 48.7737C190.989 48.7737 190.771 48.6124 190.705 48.3603C189.722 44.6188 186.081 43.096 186.043 43.0859C185.769 42.975 185.627 42.6422 185.731 42.3497C185.835 42.0572 186.148 41.906 186.422 42.0169C186.592 42.0875 190.601 43.7414 191.736 48.0577C191.812 48.3603 191.651 48.683 191.367 48.7637C191.32 48.7737 191.273 48.7838 191.225 48.7838V48.7737Z" fill="#EA5143"/>
<path d="M187.556 46.8858C187.452 46.8858 187.358 46.8556 187.263 46.7951C187.017 46.6236 186.942 46.2706 187.102 45.9983C187.131 45.958 187.774 44.9092 189.116 44.2638C189.381 44.1327 189.703 44.2638 189.826 44.5562C189.949 44.8487 189.826 45.1815 189.551 45.3126C188.511 45.8067 188.001 46.6135 188.001 46.6236C187.897 46.795 187.726 46.8858 187.547 46.8858H187.556Z" fill="#EA5143"/>
<path d="M200.664 62.8008V74.8622C200.664 74.8622 204.04 81.0039 208.598 81.4174C213.155 81.841 217.203 76.1329 217.203 76.1329V63.6479L200.664 62.8008Z" fill="#FFA681"/>
<path d="M200.664 62.8008V68.1558C203.728 71.7763 209.155 72.6839 217.203 71.4132V63.6479L200.664 62.8008Z" fill="#F97853"/>
<path d="M188.747 31.8301C188.955 36.5196 189.371 42.3788 190.213 47.0582C190.213 47.0582 190.213 47.0985 190.213 47.1187C190.421 48.2583 190.648 49.3374 190.903 50.3055C191.055 50.8703 191.215 51.4653 191.404 52.0704C194.08 61.0358 200.293 74.015 215.895 68.075C222.467 65.574 225.89 58.3431 227.63 50.487C227.734 50.0231 227.829 49.5592 227.914 49.1054C227.971 48.813 228.027 48.5205 228.075 48.2381L228.15 47.8146C228.16 47.744 228.169 47.6935 228.179 47.6633C228.179 47.6431 228.179 47.633 228.179 47.633C229.209 41.5922 229.361 35.4909 229.285 31.1342C229.209 26.6868 226.93 22.6226 223.299 20.4242C213.465 14.4741 203.092 16.6928 196.255 19.4964C191.508 21.4326 188.473 26.4045 188.719 31.8099L188.747 31.8301Z" fill="#FFA681"/>
<path d="M190.204 47.0594C190.204 47.0594 190.204 47.0594 190.204 47.0695C190.204 47.0796 190.204 47.0998 190.204 47.1099C190.308 47.5032 190.856 49.6512 191.395 52.0615C194.071 61.0269 200.284 74.0061 215.886 68.0661C222.458 65.5651 225.881 58.3343 227.621 50.4782C227.725 50.0143 227.82 49.5504 227.905 49.0966C227.961 48.8041 228.018 48.5117 228.065 48.2293L228.141 47.8057C228.151 47.7351 228.16 47.6847 228.169 47.6544C228.169 47.6343 228.169 47.6242 228.169 47.6242L225.872 47.13C225.437 49.4495 224.463 51.6279 223.271 53.5742C221.333 48.6125 211.48 51.9102 211.48 51.9102L211.432 51.9304C210.837 52.1321 210.213 52.233 209.598 52.233C208.983 52.233 208.331 52.122 207.707 51.9102C207.707 51.9102 197.977 48.4713 195.953 53.2011C193.939 49.8731 192.568 46.8477 192.568 46.8477L190.166 47.0292L190.204 47.0594ZM209.607 54.1894C220.747 52.5859 218.997 58.9797 218.997 58.9797C217.758 60.1798 216.633 61.0572 215.867 61.511C213.437 62.9531 211.045 63.5078 209.305 63.417C207.593 63.3364 207.13 63.7095 202.809 61.2185C202.043 60.7849 201.277 60.1294 200.52 59.3629C200.331 58.1023 198.449 52.1321 209.617 54.1793L209.607 54.1894Z" fill="#403657"/>
<path d="M199.51 40.5542C199.51 41.8451 200.134 42.8838 200.9 42.8838C201.666 42.8838 202.29 41.8451 202.29 40.5542C202.29 39.2633 201.666 38.2246 200.9 38.2246C200.134 38.2246 199.51 39.2633 199.51 40.5542Z" fill="#403657"/>
<path d="M216.879 40.5542C216.879 41.8451 217.503 42.8838 218.269 42.8838C219.035 42.8838 219.659 41.8451 219.659 40.5542C219.659 39.2633 219.035 38.2246 218.269 38.2246C217.503 38.2246 216.879 39.2633 216.879 40.5542Z" fill="#403657"/>
<path d="M195.954 32.697C195.954 32.697 201.694 30.2766 206.119 32.3138L205.675 34.9358C205.675 34.9358 199.188 34.3509 195.916 35.7628C195.623 34.7543 195.576 33.7357 195.954 32.697Z" fill="#403657"/>
<path d="M223.253 32.7059C223.253 32.7059 217.466 30.2653 213.021 32.3226L213.466 34.9649C213.466 34.9649 220 34.3799 223.291 35.8019C223.584 34.7833 223.631 33.7547 223.253 32.7159V32.7059Z" fill="#403657"/>
<path d="M209.069 50.9702C208.161 50.9702 207.263 50.597 207.121 50.5365C206.847 50.4155 206.714 50.0827 206.828 49.7902C206.941 49.4978 207.253 49.3566 207.528 49.4776C208.01 49.6894 209.173 50.0121 209.683 49.6995C209.778 49.639 209.91 49.5179 209.948 49.165C210.147 47.1682 209.627 40.4618 209.627 40.3912C209.598 40.0785 209.825 39.7962 210.118 39.776C210.412 39.7457 210.676 39.9878 210.695 40.3004C210.714 40.5828 211.225 47.1783 211.017 49.286C210.941 50.0827 210.553 50.4861 210.232 50.6878C209.891 50.9097 209.475 50.9802 209.069 50.9802V50.9702Z" fill="#F97853"/>
<path d="M215.915 55.3281C215.508 57.5165 214.156 61.5404 209.589 61.5404C205.021 61.5404 203.726 57.8594 203.291 55.3281H215.924H215.915Z" fill="white"/>
<path d="M188.747 31.8295C188.955 36.5189 189.371 42.3782 190.213 47.0576L192.615 46.876C192.615 46.876 192.029 42.9228 191.764 40.3411C191.499 37.7593 191.036 32.9489 193.097 32.3438C195.158 31.7488 193.948 26.2526 196.813 23.8725C199.678 21.4824 206.08 20.8269 210.297 23.6002C214.515 26.3635 219.281 23.3885 221.219 23.8725C223.167 24.3465 225.815 27.2106 225.096 29.8831C224.377 32.5556 226.524 34.1792 227.044 36.9425C227.564 39.7057 225.9 47.1584 225.9 47.1584L228.198 47.6526C229.228 41.6118 229.389 35.5104 229.313 31.1538C229.238 26.7064 226.959 22.6321 223.328 20.4437C213.494 14.4936 203.12 16.7123 196.284 19.5159C191.537 21.4623 188.511 26.424 188.747 31.8295Z" fill="#403657"/>
<path d="M328.163 144.914C326.791 160.557 318.595 195.508 312.929 202.352C305.543 211.262 281.249 230.027 268.59 239.648C266.309 241.381 277.035 252.946 277.035 252.946C277.035 252.946 310.639 235.026 323.477 220.894C327.103 216.895 334.479 204.285 342.8 180.277C345.321 173 351.442 158.313 351.121 148.736C350.756 137.715 336.715 139.526 328.172 144.903L328.163 144.914Z" fill="#BC7222"/>
<path d="M301.944 234.783C301.944 234.783 292.803 239.115 289.56 243.87C286.318 248.637 282.041 252.669 283.084 254.547C284.126 256.425 288.865 250.936 288.865 250.936C288.865 250.936 290.166 256.969 294.763 257.613C299.36 258.258 308.064 247.037 308.064 247.037L301.935 234.771L301.944 234.783Z" fill="#FFA681"/>
<path d="M392.164 188.599C392.164 189.588 392.164 190.765 392.146 192.088C392.128 193.41 392.11 194.887 392.075 196.498C392.048 197.598 392.021 198.776 391.986 199.998C391.959 201.031 391.923 202.098 391.888 203.209C391.852 204.342 391.808 205.508 391.763 206.719C391.13 223.106 389.589 245.726 386.204 263.868H315.094C317.463 250.692 321.089 229.894 323.976 202.92C324.101 201.786 324.216 200.642 324.332 199.487C324.448 198.331 324.564 197.165 324.68 195.987C324.742 195.365 324.804 194.732 324.867 194.098C324.911 193.576 324.965 193.054 325.009 192.543C325.143 191.088 325.259 189.654 325.366 188.255C325.455 187.088 325.535 185.933 325.615 184.799C326.836 166.668 326.408 153.07 328.154 144.926C330.194 135.449 353.99 124.584 353.99 124.584L368.894 125.562C368.894 125.562 383.113 131.35 390.712 139.671C398.311 147.992 391.959 172.823 392.146 186.921C392.146 187.41 392.155 187.977 392.155 188.61L392.164 188.599Z" fill="#E08F0E"/>
<path d="M392.146 192.088C385.678 193.066 378.934 193.455 372.315 193.455C350.64 193.455 330.292 189.322 325.365 188.244C325.454 187.078 325.535 185.922 325.615 184.789C331.343 186.056 364.466 192.888 392.155 188.6C392.155 189.589 392.155 190.766 392.137 192.088H392.146Z" fill="#E0D5F8"/>
<path d="M392.075 196.498C392.048 197.598 392.021 198.776 391.986 199.998C385.562 200.953 378.881 201.342 372.315 201.342C349.419 201.342 328.003 196.731 324.68 195.987C324.742 195.365 324.804 194.732 324.867 194.098C324.911 193.576 324.965 193.054 325.009 192.543C328.306 193.298 363.139 200.953 392.075 196.509V196.498Z" fill="#E0D5F8"/>
<path d="M391.896 203.209C391.861 204.343 391.816 205.509 391.772 206.72C385.09 207.776 378.096 208.187 371.246 208.187C349.072 208.187 328.296 203.865 323.984 202.91C324.109 201.776 324.225 200.632 324.341 199.477C329.472 200.621 363.691 207.809 391.896 203.209Z" fill="#E0D5F8"/>
<path d="M358.301 142.415C365.714 142.415 372.556 132.593 372.849 132.16C373.037 131.882 373.01 131.471 372.796 131.238C372.573 131.005 372.244 131.038 372.057 131.305C371.985 131.405 364.823 141.704 357.66 141.081C357.375 141.059 357.125 141.326 357.099 141.692C357.081 142.048 357.295 142.359 357.58 142.392C357.82 142.415 358.052 142.426 358.292 142.426L358.301 142.415Z" fill="#BC7222"/>
<path d="M364.734 252.914C364.992 252.914 365.224 252.67 365.25 252.337C365.286 251.981 365.081 251.659 364.787 251.615C345.642 248.87 337.704 207.531 337.624 207.108C337.562 206.753 337.277 206.542 337.001 206.62C336.716 206.697 336.546 207.053 336.609 207.397C336.929 209.142 344.796 250.048 364.671 252.903C364.689 252.903 364.716 252.903 364.734 252.903V252.914Z" fill="#BC7222"/>
<path d="M357.108 240.416C357.286 240.416 357.455 240.305 357.553 240.105C357.704 239.794 357.624 239.394 357.384 239.205C347.201 231.373 345.686 219.829 345.669 219.718C345.624 219.363 345.357 219.118 345.072 219.174C344.787 219.229 344.591 219.563 344.635 219.918C344.698 220.418 346.221 232.161 356.831 240.327C356.92 240.394 357.01 240.427 357.108 240.427V240.416Z" fill="#BC7222"/>
<path d="M363.051 107.773C374.638 107.773 384.031 96.0589 384.031 81.609C384.031 67.1592 374.638 55.4453 363.051 55.4453C351.464 55.4453 342.07 67.1592 342.07 81.609C342.07 96.0589 351.464 107.773 363.051 107.773Z" fill="#403657"/>
<path d="M342.417 76.9102C342.417 76.9102 336.475 74.8659 337.259 67.6779C337.927 61.5563 343.691 65.5225 343.183 60.7453C342.675 55.9681 341.553 51.613 346.515 50.4131C350.854 49.3688 350.925 53.0795 356.627 47.6912C363.362 41.3364 368.529 56.0569 374.542 56.5013C383.406 57.1568 384.52 63.4006 385.393 68.4C386.266 73.3994 382.854 76.9102 382.854 76.9102H342.426H342.417Z" fill="#403657"/>
<path d="M345.598 88.9316C345.598 88.9316 342.275 83.41 339.807 87.9762C337.34 92.5423 340.832 106.041 346.881 102.741L345.607 88.9316H345.598Z" fill="#F97853"/>
<path d="M345.553 98.5648C345.33 98.5648 345.125 98.3759 345.063 98.0982C344.127 93.932 340.662 92.2433 340.626 92.2322C340.359 92.11 340.234 91.7433 340.332 91.41C340.43 91.0767 340.724 90.9212 340.991 91.0434C341.152 91.1212 344.965 92.9654 346.043 97.7649C346.123 98.1093 345.962 98.4537 345.686 98.5537C345.642 98.5648 345.597 98.5759 345.553 98.5759V98.5648Z" fill="#EA5143"/>
<path d="M342.061 96.4746C341.963 96.4746 341.873 96.4413 341.784 96.3746C341.544 96.1858 341.481 95.7858 341.633 95.497C341.66 95.4525 342.274 94.286 343.548 93.5638C343.807 93.4194 344.11 93.5638 344.225 93.886C344.341 94.2082 344.225 94.586 343.967 94.7304C342.978 95.2859 342.497 96.1747 342.488 96.1858C342.39 96.3746 342.23 96.4746 342.061 96.4746Z" fill="#EA5143"/>
<path d="M369.695 114.184V127.604C369.695 127.604 365.267 133.515 360.929 133.981C356.59 134.448 353.953 128.026 353.953 128.026V115.128L369.686 114.184H369.695Z" fill="#FFA681"/>
<path d="M369.696 114.185V120.14C366.783 124.173 361.616 125.173 353.963 123.762V115.118L369.696 114.174V114.185Z" fill="#F97853"/>
<path d="M381.047 79.7222C380.851 84.9327 380.45 91.4542 379.648 96.6758C379.452 97.9757 379.221 99.1978 378.971 100.298C376.708 110.185 371.042 127.139 355.185 120.084C348.182 116.962 344.931 107.241 343.487 97.3424C342.507 90.6209 342.356 83.8328 342.427 78.9778C342.507 74.0228 344.672 69.5011 348.129 67.0569C357.492 60.4354 367.363 62.9018 373.867 66.0237C378.383 68.1901 381.27 73.7117 381.038 79.7222H381.047Z" fill="#FFA681"/>
<path d="M362.015 89.2001V90.2555C362.015 92.3886 362.683 94.3884 363.895 95.8882C365.088 97.3658 366.665 98.1768 368.349 98.1768H368.554C370.015 98.1435 371.333 97.4103 372.492 95.9993C373.659 94.5884 374.318 92.5553 374.318 90.4333V89.1779C374.318 88.8335 374.264 88.5002 374.166 88.1891C374.059 87.8113 373.881 87.4892 373.659 87.2114C373.258 86.7115 372.696 86.4004 372.082 86.4004H364.233C363.342 86.4004 362.576 87.0448 362.22 87.9891C362.086 88.3335 362.006 88.7112 362.006 89.1112C362.006 89.1334 362.006 89.1667 362.006 89.189L362.015 89.2001ZM362.941 89.2001C362.941 88.3002 363.529 87.5669 364.251 87.5669H372.1C372.821 87.5669 373.409 88.2891 373.409 89.2001V90.4555C373.409 92.2664 372.848 93.9884 371.859 95.1883C370.87 96.377 369.757 96.9992 368.545 97.0325H368.358C366.924 97.0325 365.578 96.3437 364.554 95.0772C363.52 93.7996 362.95 92.0886 362.95 90.2666V89.2112L362.941 89.2001Z" fill="#403657"/>
<path d="M346.301 89.1975V90.253C346.301 92.3861 346.969 94.3858 348.181 95.8857C349.374 97.3633 350.951 98.1743 352.635 98.1743H352.849C354.301 98.141 355.628 97.4077 356.786 95.9968C357.954 94.5858 358.622 92.5527 358.622 90.4307V89.1753C358.622 89.1753 358.622 89.142 358.622 89.1197C358.622 88.742 358.55 88.3865 358.435 88.0532C358.087 87.0755 357.303 86.3867 356.394 86.3867H348.546C347.86 86.3867 347.236 86.7756 346.826 87.3866C346.63 87.6866 346.479 88.0421 346.399 88.4198C346.336 88.6531 346.31 88.9087 346.31 89.1642L346.301 89.1975ZM347.227 89.1975C347.227 88.2976 347.815 87.5644 348.537 87.5644H356.386C357.107 87.5644 357.695 88.2865 357.695 89.1975V90.4529C357.695 92.2638 357.125 93.9859 356.145 95.1857C355.165 96.3745 354.043 96.9966 352.831 97.03H352.644C351.21 97.03 349.864 96.3412 348.849 95.0746C347.815 93.797 347.245 92.0861 347.245 90.2641V89.2086L347.227 89.1975Z" fill="#403657"/>
<path d="M379.922 85.9542C377.258 85.8097 375.352 86.7652 374.603 87.2318C374.39 87.354 373.828 87.8095 373.811 87.8317L374.247 88.8094C374.247 88.8094 374.871 88.3428 375.111 88.2095C375.851 87.7762 377.49 86.9207 379.931 87.0985V85.943L379.922 85.9542Z" fill="#403657"/>
<path d="M362.641 89.2407L362.944 88.1519C362.89 88.1297 361.589 87.5742 360.164 87.5742C358.641 87.5742 357.67 88.1519 357.625 88.1853L358.026 89.2185C358.026 89.2185 358.863 88.7296 360.164 88.7296C361.465 88.7296 362.632 89.2407 362.641 89.2518V89.2407Z" fill="#403657"/>
<path d="M343.059 86.2324V87.3878C344.974 87.5878 346.747 88.6544 346.774 88.6655L347.183 87.6323C347.076 87.5656 345.179 86.4213 343.059 86.2324Z" fill="#403657"/>
<path d="M353.571 90.6745C353.571 92.1077 352.983 93.2631 352.252 93.2631C351.522 93.2631 350.934 92.0966 350.934 90.6745C350.934 89.2525 351.522 88.0859 352.252 88.0859C352.983 88.0859 353.571 89.2525 353.571 90.6745Z" fill="#403657"/>
<path d="M369.055 90.6745C369.055 92.1077 368.467 93.2631 367.736 93.2631C367.006 93.2631 366.418 92.0966 366.418 90.6745C366.418 89.2525 367.006 88.0859 367.736 88.0859C368.467 88.0859 369.055 89.2525 369.055 90.6745Z" fill="#403657"/>
<path d="M347.95 82.7095C347.95 82.7095 353.456 79.9987 357.697 82.2762L357.34 84.7315C357.34 84.7315 352.752 83.4538 348.253 85.5425C347.968 84.4093 347.594 83.8649 347.95 82.7095Z" fill="#403657"/>
<path d="M373.135 82.7095C373.135 82.7095 367.629 79.9987 363.389 82.2762L363.745 84.7315C363.745 84.7315 368.333 83.4538 372.832 85.5425C373.108 84.4093 373.491 83.8649 373.135 82.7095Z" fill="#403657"/>
<path d="M360.805 101.552C361.669 101.552 362.524 101.13 362.658 101.063C362.916 100.93 363.041 100.563 362.934 100.23C362.827 99.9078 362.533 99.7523 362.266 99.8856C361.803 100.119 360.698 100.486 360.217 100.13C360.128 100.063 359.994 99.9189 359.968 99.5412C359.781 97.3192 360.271 89.8534 360.279 89.7756C360.306 89.4201 360.092 89.1201 359.816 89.0868C359.531 89.0535 359.291 89.3201 359.264 89.6645C359.246 89.9756 358.765 97.3192 358.961 99.6634C359.032 100.541 359.406 100.997 359.7 101.219C360.03 101.463 360.422 101.552 360.814 101.552H360.805Z" fill="#F97853"/>
<path d="M354.461 104.785C354.88 107.407 356.269 112.229 360.947 112.229C365.624 112.229 366.951 107.818 367.405 104.785H354.461Z" fill="white"/>
<path d="M360.885 115.561C362.212 115.561 363.326 114.728 363.379 114.695C363.62 114.517 363.7 114.117 363.549 113.817C363.406 113.517 363.085 113.417 362.845 113.606C362.845 113.606 361.909 114.295 360.885 114.295C359.941 114.295 359.032 113.617 359.023 113.606C358.782 113.417 358.471 113.517 358.319 113.817C358.168 114.117 358.248 114.506 358.488 114.695C358.533 114.728 359.638 115.572 360.885 115.572V115.561Z" fill="#F97853"/>
<path d="M345.073 93.175C344.69 90.542 344.307 87.1535 344.583 85.4092C345.082 82.3318 347.122 80.5209 346.445 77.5545C345.768 74.5771 348.28 71.3885 350.133 70.8553C351.986 70.322 356.316 71.4663 360.574 68.9444C364.637 66.5335 371.71 68.2556 372.86 71.5108C374.249 75.4548 372.361 75.8214 376.165 80.0876C377.679 81.7874 375.88 86.198 375.621 89.0643C375.506 90.3864 375.488 91.0308 375.532 92.4417L375.55 93.1639H380.103C380.601 88.7199 380.895 83.8094 381.047 79.6987C381.279 73.6883 378.383 68.1667 373.875 66.0003C367.372 62.8784 357.501 60.412 348.138 67.0335C344.681 69.4777 342.516 73.9994 342.445 78.9544C342.383 82.7984 342.472 87.8756 342.997 93.1639H345.082L345.073 93.175Z" fill="#403657"/>
<path d="M378.079 95.6305C378.061 94.1418 378.15 92.6642 378.355 91.1977C378.64 89.1979 379.104 87.387 380.743 86.5537C382.061 85.8871 383.469 85.8649 384.476 87.7203C386.943 92.2864 384.191 106.507 378.142 103.207L378.07 95.6194L378.079 95.6305Z" fill="#FFA681"/>
<path d="M379.326 99.0747C379.548 99.0192 379.718 98.7859 379.735 98.497C380.003 94.1864 383.13 91.6867 383.165 91.6533C383.406 91.4645 383.477 91.0756 383.326 90.7757C383.174 90.4757 382.862 90.3868 382.622 90.5757C382.479 90.6868 379.023 93.4309 378.72 98.397C378.702 98.7525 378.907 99.0525 379.192 99.0858C379.237 99.0858 379.29 99.0858 379.335 99.0858L379.326 99.0747Z" fill="#F97853"/>
<path d="M382.418 96.1629C382.507 96.1407 382.596 96.0852 382.676 95.9963C382.881 95.7519 382.881 95.3519 382.685 95.0964C382.65 95.0519 381.866 94.0632 380.503 93.6743C380.226 93.5965 379.95 93.8076 379.888 94.152C379.826 94.4964 379.995 94.8408 380.271 94.9186C381.331 95.2186 381.946 95.9741 381.946 95.9852C382.071 96.1518 382.249 96.2074 382.418 96.1629Z" fill="#F97853"/>
<path d="M387.701 136.738C380.227 150.859 351.639 199.687 345.189 205.353C336.788 212.741 313.892 223.24 300.751 234.183C296.288 237.905 306.836 248.426 306.836 248.426C306.836 248.426 338.881 237.194 353.305 225.706C357.385 222.462 374.365 201.242 385.189 182.433C388.895 175.989 394.926 167.035 395.8 157.514C396.806 146.559 394.045 140.693 387.701 136.738Z" fill="#BC7222"/>
<path d="M242.753 249.871H331.824C332.964 249.871 333.881 251.027 333.881 252.437V261.292C333.881 262.714 332.955 263.858 331.824 263.858H242.753C241.613 263.858 240.695 262.703 240.695 261.292V252.437C240.695 251.015 241.622 249.871 242.753 249.871Z" fill="#1A0B42"/>
<path d="M240.713 263.867L223.199 182.054C222.219 177.455 224.989 172.955 228.802 172.955H267.351C269.952 172.955 272.233 175.11 272.936 178.232L292.224 263.867H240.713Z" fill="#403657"/>
<path d="M272.935 178.234L292.063 263.169H296.464L277.336 178.234C276.624 175.112 274.352 172.945 271.751 172.945H267.35C269.951 172.945 272.232 175.101 272.935 178.234Z" fill="#1A0B42"/>
<path d="M263.021 222.074C264.019 227.474 261.328 231.84 256.999 231.84C252.669 231.84 248.348 227.462 247.35 222.074C246.353 216.675 249.043 212.309 253.373 212.309C257.702 212.309 262.023 216.686 263.021 222.074Z" fill="#614C6E"/>
</svg>
